M48
; DRILL file {KiCad (5.99.0-7341-g916db1094)} date Friday, December 04, 2020 at 02:01:51 PM
; FORMAT={-:-/ absolute / inch / decimal}
; #@! TF.CreationDate,2020-12-04T14:01:51-06:00
; #@! TF.GenerationSoftware,Kicad,Pcbnew,(5.99.0-7341-g916db1094)
; #@! TF.FileFunction,Plated,1,2,PTH
FMAT,2
INCH
T1C0.0100
T2C0.0394
%
G90
G05
T1
X3.5587Y-4.42
X3.6618Y-3.7703
X3.7303Y-3.8506
X3.7997Y-3.9313
X3.8116Y-3.8451
X3.8917Y-4.0696
X3.8957Y-3.9409
X3.8957Y-4.3371
X3.9284Y-4.1316
X3.9851Y-4.0843
X3.9882Y-3.8819
X3.9941Y-3.9508
X4.0149Y-4.0843
X4.0156Y-4.1511
X4.0186Y-4.1166
X4.0244Y-4.2961
X4.0433Y-4.0773
X4.0603Y-3.7958
X4.0695Y-3.9121
X4.0703Y-3.9508
X4.0818Y-4.0191
X4.0864Y-3.8675
X4.2913Y-3.9902
X4.3169Y-4.3425
T2
X3.4488Y-3.7992
X3.4488Y-3.878
X3.4488Y-3.9567
X3.4488Y-4.0354
X3.4488Y-4.1142
X3.4488Y-4.1929
X3.4488Y-4.2717
X3.5079Y-3.7992
X3.5079Y-3.878
X3.5079Y-3.9567
X3.5079Y-4.0354
X3.5079Y-4.1142
X3.5079Y-4.1929
X3.5079Y-4.2717
X3.7047Y-3.5433
X3.7047Y-3.6024
X3.7047Y-4.4685
X3.7047Y-4.5276
X3.7835Y-3.5433
X3.7835Y-3.6024
X3.7835Y-4.4685
X3.7835Y-4.5276
X3.8622Y-3.5433
X3.8622Y-3.6024
X3.8622Y-4.4685
X3.8622Y-4.5276
X3.9409Y-3.5433
X3.9409Y-3.6024
X3.9409Y-4.4685
X3.9409Y-4.5276
X4.0197Y-3.5433
X4.0197Y-3.6024
X4.0197Y-4.4685
X4.0197Y-4.5276
X4.0984Y-3.5433
X4.0984Y-3.6024
X4.0984Y-4.4685
X4.0984Y-4.5276
X4.1772Y-3.5433
X4.1772Y-3.6024
X4.1772Y-4.4685
X4.1772Y-4.5276
X4.374Y-3.7992
X4.374Y-3.878
X4.374Y-3.9567
X4.374Y-4.0354
X4.374Y-4.1142
X4.374Y-4.1929
X4.374Y-4.2717
X4.4331Y-3.7992
X4.4331Y-3.878
X4.4331Y-3.9567
X4.4331Y-4.0354
X4.4331Y-4.1142
X4.4331Y-4.1929
X4.4331Y-4.2717
T0
M30
