G04 #@! TF.GenerationSoftware,KiCad,Pcbnew,(5.99.0-7341-g916db1094)*
G04 #@! TF.CreationDate,2020-12-04T14:01:58-06:00*
G04 #@! TF.ProjectId,CircuitBrains Basic v1_2,43697263-7569-4744-9272-61696e732042,rev?*
G04 #@! TF.SameCoordinates,Original*
G04 #@! TF.FileFunction,Copper,L2,Bot*
G04 #@! TF.FilePolarity,Positive*
%FSLAX46Y46*%
G04 Gerber Fmt 4.6, Leading zero omitted, Abs format (unit mm)*
G04 Created by KiCad (PCBNEW (5.99.0-7341-g916db1094)) date 2020-12-04 14:01:58*
%MOMM*%
%LPD*%
G01*
G04 APERTURE LIST*
G04 #@! TA.AperFunction,SMDPad,CuDef*
%ADD10R,3.000000X1.500000*%
G04 #@! TD*
G04 #@! TA.AperFunction,SMDPad,CuDef*
%ADD11R,1.500000X3.000000*%
G04 #@! TD*
G04 #@! TA.AperFunction,ViaPad*
%ADD12C,1.400000*%
G04 #@! TD*
G04 #@! TA.AperFunction,ViaPad*
%ADD13C,0.508000*%
G04 #@! TD*
G04 #@! TA.AperFunction,Conductor*
%ADD14C,0.152400*%
G04 #@! TD*
G04 #@! TA.AperFunction,Conductor*
%ADD15C,0.200000*%
G04 #@! TD*
G04 APERTURE END LIST*
D10*
X88350000Y-96500000D03*
X88350000Y-98500000D03*
X88350000Y-100500000D03*
X88350000Y-102500000D03*
X88350000Y-104500000D03*
X88350000Y-106500000D03*
X88350000Y-108500000D03*
D11*
X94100000Y-114250000D03*
X96100000Y-114250000D03*
X98100000Y-114250000D03*
X100100000Y-114250000D03*
X102100000Y-114250000D03*
X104100000Y-114250000D03*
X106100000Y-114250000D03*
D10*
X111850000Y-108500000D03*
X111850000Y-106500000D03*
X111850000Y-104500000D03*
X111850000Y-102500000D03*
X111850000Y-100500000D03*
X111850000Y-98500000D03*
X111850000Y-96500000D03*
D11*
X106100000Y-90750000D03*
X104100000Y-90750000D03*
X102100000Y-90750000D03*
X100100000Y-90750000D03*
X98100000Y-90750000D03*
X96100000Y-90750000D03*
X94100000Y-90750000D03*
D12*
X94100000Y-90000000D03*
X98100000Y-115000000D03*
D13*
X102699300Y-103563000D03*
X109000000Y-101350000D03*
X101300000Y-98600000D03*
X103132300Y-96412500D03*
X103385000Y-100350000D03*
X102220550Y-109120550D03*
D12*
X94100000Y-91500000D03*
D13*
X109650000Y-110300000D03*
X98950000Y-100100000D03*
X101450000Y-100350000D03*
D12*
X98100000Y-113500000D03*
X106100000Y-115000000D03*
X87600000Y-96500000D03*
X89100000Y-96500000D03*
X106100000Y-113500000D03*
D13*
X99780100Y-104941800D03*
X103365500Y-99368300D03*
D12*
X112600000Y-102500000D03*
X111100000Y-102500000D03*
X104100000Y-115000000D03*
X104100000Y-113500000D03*
D13*
X93009100Y-95766300D03*
X90391000Y-112268800D03*
D12*
X98100000Y-90000000D03*
X98100000Y-91500000D03*
X112600000Y-98500000D03*
D13*
X103795700Y-98234200D03*
D12*
X111100000Y-98500000D03*
X96100000Y-90000000D03*
X96100000Y-91500000D03*
X94100000Y-115000000D03*
X94100000Y-113500000D03*
D13*
X98850000Y-103367800D03*
X98951600Y-110163500D03*
D12*
X104100000Y-90000000D03*
X104100000Y-91500000D03*
X102100000Y-90000000D03*
X102100000Y-91500000D03*
X100100000Y-90000000D03*
X100100000Y-91500000D03*
X87600000Y-102500000D03*
X89100000Y-102500000D03*
D13*
X96511200Y-99854900D03*
D12*
X87600000Y-106500000D03*
X89100000Y-106500000D03*
X87600000Y-108500000D03*
X89100000Y-108500000D03*
X87600000Y-104500000D03*
X89100000Y-104500000D03*
X112600000Y-100500000D03*
X111100000Y-100500000D03*
X112600000Y-104500000D03*
D13*
X103678900Y-102085600D03*
D12*
X111100000Y-104500000D03*
X112600000Y-106500000D03*
X111100000Y-106500000D03*
D13*
X102072400Y-104560900D03*
D12*
X112600000Y-108500000D03*
D13*
X101995000Y-105436800D03*
D12*
X111100000Y-108500000D03*
X100100000Y-115000000D03*
D13*
X101221000Y-103740000D03*
D12*
X100100000Y-113500000D03*
X102100000Y-115000000D03*
X102100000Y-113500000D03*
D13*
X101979000Y-103740000D03*
D12*
X96100000Y-115000000D03*
X96100000Y-113500000D03*
X112600000Y-96500000D03*
X111100000Y-96500000D03*
X106100000Y-90000000D03*
X106100000Y-91500000D03*
X87600000Y-98500000D03*
D13*
X94750000Y-97806200D03*
D12*
X89100000Y-98500000D03*
X87600000Y-100500000D03*
X89100000Y-100500000D03*
D13*
X96815100Y-97665000D03*
D14*
X102585300Y-103200300D02*
X102585300Y-103449000D01*
X103132300Y-98296300D02*
X103132300Y-96412500D01*
X103385000Y-100350000D02*
X103777500Y-99957500D01*
X100534700Y-111065300D02*
X100534700Y-103712900D01*
X94100000Y-91500000D02*
X99012500Y-96412500D01*
X101047300Y-103200300D02*
X102585300Y-103200300D01*
X103905900Y-99957500D02*
X105298400Y-101350000D01*
X108640790Y-101350000D02*
X109000000Y-101350000D01*
X98100000Y-113500000D02*
X98100000Y-114250000D01*
X105298400Y-101350000D02*
X108640790Y-101350000D01*
X103777500Y-99957500D02*
X103905900Y-99957500D01*
X103905900Y-99957500D02*
X103905900Y-99069900D01*
X100534700Y-103712900D02*
X101047300Y-103200300D01*
X98100000Y-113500000D02*
X100534700Y-111065300D01*
X99012500Y-96412500D02*
X103132300Y-96412500D01*
X103905900Y-99069900D02*
X103132300Y-98296300D01*
X94100000Y-90750000D02*
X94100000Y-91500000D01*
X102585300Y-101149700D02*
X102585300Y-103200300D01*
X103385000Y-100350000D02*
X102585300Y-101149700D01*
X102585300Y-103449000D02*
X102699300Y-103563000D01*
X99780100Y-104941800D02*
X99780100Y-99474200D01*
X99780100Y-99474200D02*
X95572400Y-95266500D01*
X95572400Y-95266500D02*
X90333500Y-95266500D01*
X88350000Y-96500000D02*
X89100000Y-96500000D01*
X106100000Y-113500000D02*
X106100000Y-114250000D01*
X99780100Y-99474200D02*
X103259600Y-99474200D01*
X90333500Y-95266500D02*
X89100000Y-96500000D01*
X103259600Y-99474200D02*
X103365500Y-99368300D01*
X111100000Y-102500000D02*
X111850000Y-102500000D01*
X104100000Y-113500000D02*
X104100000Y-114250000D01*
X95599800Y-95766300D02*
X93009100Y-95766300D01*
X90391000Y-112268800D02*
X90391000Y-109607900D01*
X97342400Y-97508900D02*
X95599800Y-95766300D01*
X90391000Y-109607900D02*
X97342400Y-102656500D01*
X97342400Y-102656500D02*
X97342400Y-97508900D01*
X98100000Y-91500000D02*
X98100000Y-90750000D01*
X111100000Y-98500000D02*
X104061500Y-98500000D01*
X104061500Y-98500000D02*
X103795700Y-98234200D01*
X111850000Y-98500000D02*
X111100000Y-98500000D01*
X96100000Y-91500000D02*
X96100000Y-90750000D01*
X94100000Y-113500000D02*
X94100000Y-114250000D01*
X98951600Y-110163500D02*
X98951600Y-103469400D01*
X98951600Y-103469400D02*
X98850000Y-103367800D01*
X104100000Y-91500000D02*
X104100000Y-90750000D01*
X102100000Y-91500000D02*
X102100000Y-90750000D01*
X100100000Y-91500000D02*
X100100000Y-90750000D01*
X88350000Y-102500000D02*
X89100000Y-102500000D01*
X89100000Y-102500000D02*
X93866100Y-102500000D01*
X93866100Y-102500000D02*
X96511200Y-99854900D01*
X89100000Y-106500000D02*
X88350000Y-106500000D01*
X88350000Y-108500000D02*
X89100000Y-108500000D01*
X88350000Y-104500000D02*
X89100000Y-104500000D01*
X111850000Y-100500000D02*
X111100000Y-100500000D01*
X111850000Y-104500000D02*
X111100000Y-104500000D01*
X108685600Y-102085600D02*
X103678900Y-102085600D01*
X111100000Y-104500000D02*
X108685600Y-102085600D01*
X104011500Y-106500000D02*
X111100000Y-106500000D01*
X102072400Y-104560900D02*
X104011500Y-106500000D01*
X111100000Y-106500000D02*
X111850000Y-106500000D01*
X111850000Y-108500000D02*
X111100000Y-108500000D01*
X111100000Y-108500000D02*
X105058200Y-108500000D01*
X105058200Y-108500000D02*
X101995000Y-105436800D01*
D15*
X100100000Y-113500000D02*
X100100000Y-114250000D01*
X100875000Y-111225000D02*
X100100000Y-112000000D01*
X101221000Y-103740000D02*
X101221000Y-103862000D01*
X100100000Y-112000000D02*
X100100000Y-113500000D01*
X100875000Y-104208000D02*
X100875000Y-111225000D01*
X101221000Y-103862000D02*
X100875000Y-104208000D01*
X101979000Y-103740000D02*
X101325000Y-104394000D01*
X101325000Y-111225000D02*
X102100000Y-112000000D01*
X101325000Y-104394000D02*
X101325000Y-111225000D01*
X102100000Y-113500000D02*
X102100000Y-114250000D01*
X102100000Y-112000000D02*
X102100000Y-113500000D01*
D14*
X96100000Y-114250000D02*
X96100000Y-113500000D01*
X111100000Y-96500000D02*
X111850000Y-96500000D01*
X106100000Y-91500000D02*
X106100000Y-90750000D01*
X94056200Y-98500000D02*
X94750000Y-97806200D01*
X88350000Y-98500000D02*
X89100000Y-98500000D01*
X89100000Y-98500000D02*
X94056200Y-98500000D01*
X89100000Y-100500000D02*
X93980100Y-100500000D01*
X93980100Y-100500000D02*
X96815100Y-97665000D01*
X88350000Y-100500000D02*
X89100000Y-100500000D01*
G04 #@! TA.AperFunction,Conductor*
G36*
X102142012Y-106411155D02*
G01*
X102148594Y-106417283D01*
X103401748Y-107670438D01*
X104612052Y-108880742D01*
X104622920Y-108893134D01*
X104636193Y-108910432D01*
X104636196Y-108910435D01*
X104641219Y-108916981D01*
X104741039Y-108993575D01*
X104763350Y-109010695D01*
X104905574Y-109069606D01*
X105058200Y-109089700D01*
X105066388Y-109088622D01*
X105087990Y-109085778D01*
X105104437Y-109084700D01*
X109710500Y-109084700D01*
X109778621Y-109104702D01*
X109825114Y-109158358D01*
X109836500Y-109210700D01*
X109836500Y-109250000D01*
X109841727Y-109323079D01*
X109882904Y-109463316D01*
X109887775Y-109470895D01*
X109957051Y-109578691D01*
X109957053Y-109578694D01*
X109961923Y-109586271D01*
X109968733Y-109592172D01*
X110065569Y-109676082D01*
X110065572Y-109676084D01*
X110072381Y-109681984D01*
X110080579Y-109685728D01*
X110132819Y-109709585D01*
X110205330Y-109742700D01*
X110214245Y-109743982D01*
X110214246Y-109743982D01*
X110345552Y-109762861D01*
X110345559Y-109762862D01*
X110350000Y-109763500D01*
X111966000Y-109763500D01*
X112034121Y-109783502D01*
X112080614Y-109837158D01*
X112092000Y-109889500D01*
X112092000Y-114366000D01*
X112071998Y-114434121D01*
X112018342Y-114480614D01*
X111966000Y-114492000D01*
X107489500Y-114492000D01*
X107421379Y-114471998D01*
X107374886Y-114418342D01*
X107363500Y-114366000D01*
X107363500Y-112750000D01*
X107358273Y-112676921D01*
X107317096Y-112536684D01*
X107261269Y-112449816D01*
X107242949Y-112421309D01*
X107242947Y-112421306D01*
X107238077Y-112413729D01*
X107231267Y-112407828D01*
X107134431Y-112323918D01*
X107134428Y-112323916D01*
X107127619Y-112318016D01*
X107065629Y-112289706D01*
X107002864Y-112261042D01*
X107002863Y-112261042D01*
X106994670Y-112257300D01*
X106985755Y-112256018D01*
X106985754Y-112256018D01*
X106854448Y-112237139D01*
X106854441Y-112237138D01*
X106850000Y-112236500D01*
X105350000Y-112236500D01*
X105276921Y-112241727D01*
X105136684Y-112282904D01*
X105136119Y-112280981D01*
X105077321Y-112289434D01*
X105042912Y-112279331D01*
X105002864Y-112261042D01*
X105002863Y-112261042D01*
X104994670Y-112257300D01*
X104985759Y-112256019D01*
X104985756Y-112256018D01*
X104854448Y-112237139D01*
X104854441Y-112237138D01*
X104850000Y-112236500D01*
X103350000Y-112236500D01*
X103276921Y-112241727D01*
X103136684Y-112282904D01*
X103136119Y-112280981D01*
X103077321Y-112289434D01*
X103042912Y-112279331D01*
X103002864Y-112261042D01*
X103002863Y-112261042D01*
X102994670Y-112257300D01*
X102985759Y-112256019D01*
X102985756Y-112256018D01*
X102854448Y-112237139D01*
X102854441Y-112237138D01*
X102850000Y-112236500D01*
X102834500Y-112236500D01*
X102766379Y-112216498D01*
X102719886Y-112162842D01*
X102708500Y-112110500D01*
X102708500Y-112046238D01*
X102709578Y-112029792D01*
X102712422Y-112008189D01*
X102712422Y-112008188D01*
X102713500Y-112000000D01*
X102692596Y-111841214D01*
X102656693Y-111754539D01*
X102631307Y-111693250D01*
X102533810Y-111566190D01*
X102509964Y-111547893D01*
X102497579Y-111537031D01*
X101970405Y-111009858D01*
X101936380Y-110947545D01*
X101933500Y-110920762D01*
X101933500Y-106506379D01*
X101953502Y-106438258D01*
X102007158Y-106391765D01*
X102077432Y-106381661D01*
X102142012Y-106411155D01*
G37*
G04 #@! TD.AperFunction*
G04 #@! TA.AperFunction,Conductor*
G36*
X98135612Y-98657056D02*
G01*
X98142193Y-98663183D01*
X98667234Y-99188225D01*
X99158496Y-99679487D01*
X99192522Y-99741799D01*
X99195401Y-99768582D01*
X99195400Y-102506063D01*
X99175398Y-102574184D01*
X99121742Y-102620677D01*
X99051468Y-102630780D01*
X99032877Y-102626653D01*
X98992923Y-102614552D01*
X98992914Y-102614550D01*
X98985913Y-102612430D01*
X98808495Y-102601423D01*
X98801280Y-102602663D01*
X98801277Y-102602663D01*
X98661330Y-102626711D01*
X98633303Y-102631527D01*
X98626568Y-102634393D01*
X98626567Y-102634393D01*
X98557089Y-102663956D01*
X98469735Y-102701125D01*
X98463847Y-102705458D01*
X98463842Y-102705461D01*
X98340574Y-102796177D01*
X98326566Y-102806486D01*
X98321822Y-102812069D01*
X98321823Y-102812069D01*
X98216214Y-102936378D01*
X98216211Y-102936382D01*
X98211475Y-102941957D01*
X98130636Y-103100271D01*
X98128896Y-103107380D01*
X98128895Y-103107384D01*
X98094828Y-103246606D01*
X98088385Y-103272936D01*
X98086989Y-103450690D01*
X98126523Y-103623997D01*
X98204865Y-103783561D01*
X98317814Y-103920823D01*
X98323644Y-103925257D01*
X98328270Y-103929708D01*
X98363485Y-103991356D01*
X98366901Y-104020498D01*
X98366900Y-109628005D01*
X98346898Y-109696126D01*
X98336932Y-109709576D01*
X98313075Y-109737657D01*
X98232236Y-109895971D01*
X98230496Y-109903080D01*
X98230495Y-109903084D01*
X98191725Y-110061524D01*
X98189985Y-110068636D01*
X98188589Y-110246390D01*
X98228123Y-110419697D01*
X98306465Y-110579261D01*
X98311113Y-110584910D01*
X98311114Y-110584911D01*
X98377017Y-110665000D01*
X98419414Y-110716523D01*
X98503231Y-110780259D01*
X98555086Y-110819691D01*
X98555089Y-110819693D01*
X98560911Y-110824120D01*
X98567592Y-110827087D01*
X98567596Y-110827090D01*
X98716678Y-110893309D01*
X98716680Y-110893310D01*
X98723365Y-110896279D01*
X98898062Y-110929130D01*
X98905370Y-110928792D01*
X98905373Y-110928792D01*
X99068316Y-110921251D01*
X99068320Y-110921250D01*
X99075631Y-110920912D01*
X99157090Y-110897631D01*
X99239505Y-110874077D01*
X99239508Y-110874076D01*
X99246547Y-110872064D01*
X99340066Y-110819691D01*
X99395253Y-110788785D01*
X99395256Y-110788783D01*
X99401641Y-110785207D01*
X99532594Y-110665000D01*
X99632381Y-110517892D01*
X99695649Y-110351773D01*
X99719005Y-110175555D01*
X99719100Y-110163500D01*
X99698515Y-109986937D01*
X99667786Y-109902279D01*
X99640359Y-109826721D01*
X99640359Y-109826720D01*
X99637863Y-109819845D01*
X99584832Y-109738958D01*
X99556928Y-109696398D01*
X99536300Y-109627313D01*
X99536300Y-105823555D01*
X99556302Y-105755434D01*
X99609958Y-105708941D01*
X99685585Y-105699725D01*
X99719370Y-105706078D01*
X99719374Y-105706078D01*
X99726562Y-105707430D01*
X99733870Y-105707092D01*
X99733873Y-105707092D01*
X99896816Y-105699551D01*
X99896820Y-105699550D01*
X99904131Y-105699212D01*
X99911171Y-105697200D01*
X100068005Y-105652377D01*
X100068008Y-105652376D01*
X100075047Y-105650364D01*
X100081438Y-105646785D01*
X100088190Y-105643974D01*
X100088987Y-105645888D01*
X100148138Y-105632353D01*
X100214921Y-105656447D01*
X100258076Y-105712823D01*
X100266500Y-105758121D01*
X100266501Y-110920760D01*
X100246499Y-110988881D01*
X100229597Y-111009855D01*
X99702427Y-111537026D01*
X99690035Y-111547893D01*
X99672743Y-111561161D01*
X99672740Y-111561164D01*
X99666190Y-111566190D01*
X99568693Y-111693251D01*
X99565533Y-111700881D01*
X99565532Y-111700882D01*
X99543308Y-111754537D01*
X99517921Y-111815829D01*
X99507406Y-111841214D01*
X99507405Y-111841216D01*
X99491500Y-111962023D01*
X99491500Y-111962028D01*
X99486501Y-112000000D01*
X99487579Y-112008188D01*
X99487579Y-112008189D01*
X99490422Y-112029784D01*
X99491500Y-112046230D01*
X99491500Y-112110500D01*
X99471498Y-112178621D01*
X99417842Y-112225114D01*
X99365500Y-112236500D01*
X99350000Y-112236500D01*
X99276921Y-112241727D01*
X99136684Y-112282904D01*
X99136172Y-112281160D01*
X99076723Y-112289706D01*
X99042317Y-112279603D01*
X99002728Y-112261524D01*
X98985612Y-112256498D01*
X98854446Y-112237639D01*
X98845505Y-112237000D01*
X98372115Y-112237000D01*
X98356876Y-112241475D01*
X98355671Y-112242865D01*
X98354000Y-112250548D01*
X98353999Y-114366000D01*
X98333997Y-114434121D01*
X98280341Y-114480614D01*
X98227999Y-114492000D01*
X97972000Y-114492000D01*
X97903879Y-114471998D01*
X97857386Y-114418342D01*
X97846000Y-114366000D01*
X97846001Y-112255115D01*
X97841526Y-112239876D01*
X97840136Y-112238671D01*
X97832453Y-112237000D01*
X97352257Y-112237000D01*
X97347750Y-112237161D01*
X97283731Y-112241740D01*
X97270509Y-112244126D01*
X97136892Y-112283359D01*
X97136293Y-112281318D01*
X97077922Y-112289709D01*
X97043514Y-112279606D01*
X97002865Y-112261042D01*
X97002862Y-112261041D01*
X96994670Y-112257300D01*
X96985755Y-112256018D01*
X96985754Y-112256018D01*
X96854448Y-112237139D01*
X96854441Y-112237138D01*
X96850000Y-112236500D01*
X95350000Y-112236500D01*
X95276921Y-112241727D01*
X95136684Y-112282904D01*
X95136119Y-112280981D01*
X95077321Y-112289434D01*
X95042912Y-112279331D01*
X95002864Y-112261042D01*
X95002863Y-112261042D01*
X94994670Y-112257300D01*
X94985759Y-112256019D01*
X94985756Y-112256018D01*
X94854448Y-112237139D01*
X94854441Y-112237138D01*
X94850000Y-112236500D01*
X93350000Y-112236500D01*
X93276921Y-112241727D01*
X93223884Y-112257300D01*
X93145330Y-112280365D01*
X93145328Y-112280366D01*
X93136684Y-112282904D01*
X93100980Y-112305850D01*
X93021309Y-112357051D01*
X93021306Y-112357053D01*
X93013729Y-112361923D01*
X93007828Y-112368733D01*
X92923918Y-112465569D01*
X92923916Y-112465572D01*
X92918016Y-112472381D01*
X92857300Y-112605330D01*
X92856018Y-112614245D01*
X92856018Y-112614246D01*
X92837139Y-112745552D01*
X92837138Y-112745559D01*
X92836500Y-112750000D01*
X92836500Y-114366000D01*
X92816498Y-114434121D01*
X92762842Y-114480614D01*
X92710500Y-114492000D01*
X88234000Y-114492000D01*
X88165879Y-114471998D01*
X88119386Y-114418342D01*
X88108000Y-114366000D01*
X88108000Y-109889500D01*
X88128002Y-109821379D01*
X88181658Y-109774886D01*
X88234000Y-109763500D01*
X89680301Y-109763500D01*
X89748422Y-109783502D01*
X89794915Y-109837158D01*
X89806301Y-109889500D01*
X89806300Y-110819691D01*
X89806300Y-111733305D01*
X89786298Y-111801426D01*
X89776332Y-111814876D01*
X89752475Y-111842957D01*
X89671636Y-112001271D01*
X89669896Y-112008380D01*
X89669895Y-112008384D01*
X89631125Y-112166824D01*
X89629385Y-112173936D01*
X89629328Y-112181254D01*
X89629327Y-112181258D01*
X89628852Y-112241740D01*
X89627989Y-112351690D01*
X89667523Y-112524997D01*
X89745865Y-112684561D01*
X89750513Y-112690210D01*
X89750514Y-112690211D01*
X89816417Y-112770300D01*
X89858814Y-112821823D01*
X89942631Y-112885559D01*
X89994486Y-112924991D01*
X89994489Y-112924993D01*
X90000311Y-112929420D01*
X90006992Y-112932387D01*
X90006996Y-112932390D01*
X90156078Y-112998609D01*
X90156080Y-112998610D01*
X90162765Y-113001579D01*
X90337462Y-113034430D01*
X90344770Y-113034092D01*
X90344773Y-113034092D01*
X90507716Y-113026551D01*
X90507720Y-113026550D01*
X90515031Y-113026212D01*
X90596490Y-113002931D01*
X90678905Y-112979377D01*
X90678908Y-112979376D01*
X90685947Y-112977364D01*
X90779466Y-112924991D01*
X90834653Y-112894085D01*
X90834656Y-112894083D01*
X90841041Y-112890507D01*
X90971994Y-112770300D01*
X91071781Y-112623192D01*
X91135049Y-112457073D01*
X91152698Y-112323918D01*
X91157893Y-112284719D01*
X91157893Y-112284717D01*
X91158405Y-112280855D01*
X91158500Y-112268800D01*
X91157596Y-112261042D01*
X91138763Y-112099507D01*
X91138762Y-112099504D01*
X91137915Y-112092237D01*
X91120843Y-112045203D01*
X91079759Y-111932021D01*
X91079759Y-111932020D01*
X91077263Y-111925145D01*
X91071017Y-111915617D01*
X90996328Y-111801698D01*
X90975700Y-111732613D01*
X90975700Y-109902279D01*
X90995702Y-109834158D01*
X91012605Y-109813184D01*
X97723146Y-103102644D01*
X97735538Y-103091776D01*
X97738244Y-103089700D01*
X97759381Y-103073481D01*
X97782366Y-103043527D01*
X97810706Y-103006593D01*
X97853095Y-102951350D01*
X97912006Y-102809126D01*
X97927100Y-102694478D01*
X97927100Y-102694477D01*
X97932100Y-102656501D01*
X97928178Y-102626711D01*
X97927100Y-102610264D01*
X97927100Y-98752280D01*
X97947102Y-98684159D01*
X98000758Y-98637666D01*
X98071032Y-98627562D01*
X98135612Y-98657056D01*
G37*
G04 #@! TD.AperFunction*
G04 #@! TA.AperFunction,Conductor*
G36*
X109778621Y-99104702D02*
G01*
X109825114Y-99158358D01*
X109836500Y-99210700D01*
X109836500Y-99250000D01*
X109841727Y-99323079D01*
X109862748Y-99394670D01*
X109882904Y-99463316D01*
X109880981Y-99463881D01*
X109889434Y-99522679D01*
X109879331Y-99557088D01*
X109861042Y-99597136D01*
X109857300Y-99605330D01*
X109856019Y-99614241D01*
X109856018Y-99614244D01*
X109837139Y-99745552D01*
X109837138Y-99745559D01*
X109836500Y-99750000D01*
X109836500Y-101250000D01*
X109841727Y-101323079D01*
X109862748Y-101394670D01*
X109882904Y-101463316D01*
X109880981Y-101463881D01*
X109889434Y-101522679D01*
X109879331Y-101557088D01*
X109868899Y-101579932D01*
X109857300Y-101605330D01*
X109856019Y-101614241D01*
X109856018Y-101614244D01*
X109837139Y-101745552D01*
X109837138Y-101745559D01*
X109836500Y-101750000D01*
X109836500Y-102105421D01*
X109816498Y-102173542D01*
X109762842Y-102220035D01*
X109692568Y-102230139D01*
X109627988Y-102200645D01*
X109621405Y-102194516D01*
X109131752Y-101704863D01*
X109120884Y-101692472D01*
X109107604Y-101675165D01*
X109107603Y-101675164D01*
X109102581Y-101668619D01*
X108980450Y-101574905D01*
X108838226Y-101515994D01*
X108723578Y-101500900D01*
X108685600Y-101495900D01*
X108677412Y-101496978D01*
X108655810Y-101499822D01*
X108639363Y-101500900D01*
X104219067Y-101500900D01*
X104150946Y-101480898D01*
X104143883Y-101475996D01*
X104138651Y-101471039D01*
X104132328Y-101467366D01*
X104132325Y-101467364D01*
X103991265Y-101385430D01*
X103991266Y-101385430D01*
X103984940Y-101381756D01*
X103814813Y-101330230D01*
X103637395Y-101319223D01*
X103630180Y-101320463D01*
X103630177Y-101320463D01*
X103469419Y-101348087D01*
X103462203Y-101349327D01*
X103298635Y-101418925D01*
X103292747Y-101423258D01*
X103292742Y-101423261D01*
X103162438Y-101519155D01*
X103155466Y-101524286D01*
X103150722Y-101529869D01*
X103150723Y-101529869D01*
X103045114Y-101654178D01*
X103045111Y-101654182D01*
X103040375Y-101659757D01*
X102959536Y-101818071D01*
X102957796Y-101825180D01*
X102957795Y-101825184D01*
X102935744Y-101915300D01*
X102917285Y-101990736D01*
X102915889Y-102168490D01*
X102955423Y-102341797D01*
X103033765Y-102501361D01*
X103146714Y-102638623D01*
X103225142Y-102698261D01*
X103282386Y-102741791D01*
X103282389Y-102741793D01*
X103288211Y-102746220D01*
X103294892Y-102749187D01*
X103294896Y-102749190D01*
X103443978Y-102815409D01*
X103443980Y-102815410D01*
X103450665Y-102818379D01*
X103625362Y-102851230D01*
X103632670Y-102850892D01*
X103632673Y-102850892D01*
X103795616Y-102843351D01*
X103795620Y-102843350D01*
X103802931Y-102843012D01*
X103884390Y-102819731D01*
X103966805Y-102796177D01*
X103966808Y-102796176D01*
X103973847Y-102794164D01*
X104128941Y-102707307D01*
X104134332Y-102702358D01*
X104140266Y-102698063D01*
X104141279Y-102699462D01*
X104196818Y-102672148D01*
X104218318Y-102670300D01*
X108391221Y-102670300D01*
X108459342Y-102690302D01*
X108480316Y-102707205D01*
X109799595Y-104026485D01*
X109833621Y-104088797D01*
X109836500Y-104115580D01*
X109836500Y-105250000D01*
X109841727Y-105323079D01*
X109862748Y-105394670D01*
X109882904Y-105463316D01*
X109880981Y-105463881D01*
X109889434Y-105522679D01*
X109879331Y-105557088D01*
X109876400Y-105563507D01*
X109857300Y-105605330D01*
X109856019Y-105614241D01*
X109856018Y-105614244D01*
X109837139Y-105745552D01*
X109837138Y-105745559D01*
X109836500Y-105750000D01*
X109836500Y-105789300D01*
X109816498Y-105857421D01*
X109762842Y-105903914D01*
X109710500Y-105915300D01*
X104305882Y-105915300D01*
X104237761Y-105895298D01*
X104216787Y-105878396D01*
X102863045Y-104524656D01*
X102829020Y-104462343D01*
X102826988Y-104450151D01*
X102820163Y-104391607D01*
X102820162Y-104391603D01*
X102819315Y-104384337D01*
X102758663Y-104217245D01*
X102701795Y-104130506D01*
X102681172Y-104062572D01*
X102689418Y-104016576D01*
X102720443Y-103935115D01*
X102723049Y-103928273D01*
X102724037Y-103920823D01*
X102745893Y-103755919D01*
X102745893Y-103755917D01*
X102746405Y-103752055D01*
X102746500Y-103740000D01*
X102746047Y-103736111D01*
X102726763Y-103570707D01*
X102726762Y-103570704D01*
X102725915Y-103563437D01*
X102684990Y-103450690D01*
X102667759Y-103403221D01*
X102667759Y-103403220D01*
X102665263Y-103396345D01*
X102634023Y-103348695D01*
X102571811Y-103253806D01*
X102571810Y-103253805D01*
X102567799Y-103247687D01*
X102438751Y-103125439D01*
X102285040Y-103036156D01*
X102114913Y-102984630D01*
X101937495Y-102973623D01*
X101930280Y-102974863D01*
X101930277Y-102974863D01*
X101769519Y-103002487D01*
X101762303Y-103003727D01*
X101755568Y-103006593D01*
X101755567Y-103006593D01*
X101652347Y-103050513D01*
X101581833Y-103058779D01*
X101539731Y-103043527D01*
X101533373Y-103039834D01*
X101533370Y-103039833D01*
X101527040Y-103036156D01*
X101356913Y-102984630D01*
X101179495Y-102973623D01*
X101172280Y-102974863D01*
X101172277Y-102974863D01*
X101011519Y-103002487D01*
X101004303Y-103003727D01*
X100997568Y-103006593D01*
X100997567Y-103006593D01*
X100933071Y-103034036D01*
X100840735Y-103073325D01*
X100834847Y-103077658D01*
X100834842Y-103077661D01*
X100703466Y-103174344D01*
X100697566Y-103178686D01*
X100611275Y-103280258D01*
X100586825Y-103309037D01*
X100527477Y-103348002D01*
X100456483Y-103348695D01*
X100396385Y-103310896D01*
X100366263Y-103246606D01*
X100364800Y-103227458D01*
X100364800Y-100184900D01*
X100384802Y-100116779D01*
X100438458Y-100070286D01*
X100490800Y-100058900D01*
X103015580Y-100058900D01*
X103066728Y-100069748D01*
X103130578Y-100098109D01*
X103130580Y-100098110D01*
X103137265Y-100101079D01*
X103311962Y-100133930D01*
X103319270Y-100133592D01*
X103319273Y-100133592D01*
X103482216Y-100126051D01*
X103482220Y-100126050D01*
X103489531Y-100125712D01*
X103570990Y-100102431D01*
X103653405Y-100078877D01*
X103653408Y-100078876D01*
X103660447Y-100076864D01*
X103717674Y-100044816D01*
X103809153Y-99993585D01*
X103809156Y-99993583D01*
X103815541Y-99990007D01*
X103946494Y-99869800D01*
X104046281Y-99722692D01*
X104109549Y-99556573D01*
X104116918Y-99500979D01*
X104132393Y-99384219D01*
X104132393Y-99384217D01*
X104132905Y-99380355D01*
X104133000Y-99368300D01*
X104118684Y-99245503D01*
X104116327Y-99225291D01*
X104128306Y-99155312D01*
X104176216Y-99102919D01*
X104241479Y-99084700D01*
X109710500Y-99084700D01*
X109778621Y-99104702D01*
G37*
G04 #@! TD.AperFunction*
G04 #@! TA.AperFunction,Conductor*
G36*
X94296121Y-90528002D02*
G01*
X94342614Y-90581658D01*
X94354000Y-90634000D01*
X94353999Y-92744885D01*
X94358474Y-92760124D01*
X94359864Y-92761329D01*
X94367547Y-92763000D01*
X94847743Y-92763000D01*
X94852250Y-92762839D01*
X94916269Y-92758260D01*
X94929491Y-92755874D01*
X95063108Y-92716641D01*
X95063707Y-92718682D01*
X95122078Y-92710291D01*
X95156486Y-92720394D01*
X95197135Y-92738958D01*
X95197138Y-92738959D01*
X95205330Y-92742700D01*
X95214245Y-92743982D01*
X95214246Y-92743982D01*
X95345552Y-92762861D01*
X95345559Y-92762862D01*
X95350000Y-92763500D01*
X96850000Y-92763500D01*
X96923079Y-92758273D01*
X97063316Y-92717096D01*
X97063881Y-92719019D01*
X97122679Y-92710566D01*
X97157088Y-92720669D01*
X97196083Y-92738477D01*
X97205330Y-92742700D01*
X97214241Y-92743981D01*
X97214244Y-92743982D01*
X97345552Y-92762861D01*
X97345559Y-92762862D01*
X97350000Y-92763500D01*
X98850000Y-92763500D01*
X98923079Y-92758273D01*
X99063316Y-92717096D01*
X99063881Y-92719019D01*
X99122679Y-92710566D01*
X99157088Y-92720669D01*
X99196083Y-92738477D01*
X99205330Y-92742700D01*
X99214241Y-92743981D01*
X99214244Y-92743982D01*
X99345552Y-92762861D01*
X99345559Y-92762862D01*
X99350000Y-92763500D01*
X100850000Y-92763500D01*
X100923079Y-92758273D01*
X101063316Y-92717096D01*
X101063881Y-92719019D01*
X101122679Y-92710566D01*
X101157088Y-92720669D01*
X101196083Y-92738477D01*
X101205330Y-92742700D01*
X101214241Y-92743981D01*
X101214244Y-92743982D01*
X101345552Y-92762861D01*
X101345559Y-92762862D01*
X101350000Y-92763500D01*
X102850000Y-92763500D01*
X102923079Y-92758273D01*
X103063316Y-92717096D01*
X103063881Y-92719019D01*
X103122679Y-92710566D01*
X103157088Y-92720669D01*
X103196083Y-92738477D01*
X103205330Y-92742700D01*
X103214241Y-92743981D01*
X103214244Y-92743982D01*
X103345552Y-92762861D01*
X103345559Y-92762862D01*
X103350000Y-92763500D01*
X104850000Y-92763500D01*
X104923079Y-92758273D01*
X105063316Y-92717096D01*
X105063881Y-92719019D01*
X105122679Y-92710566D01*
X105157088Y-92720669D01*
X105196083Y-92738477D01*
X105205330Y-92742700D01*
X105214241Y-92743981D01*
X105214244Y-92743982D01*
X105345552Y-92762861D01*
X105345559Y-92762862D01*
X105350000Y-92763500D01*
X106850000Y-92763500D01*
X106923079Y-92758273D01*
X107001165Y-92735345D01*
X107054670Y-92719635D01*
X107054672Y-92719634D01*
X107063316Y-92717096D01*
X107127788Y-92675662D01*
X107178691Y-92642949D01*
X107178694Y-92642947D01*
X107186271Y-92638077D01*
X107226330Y-92591847D01*
X107276082Y-92534431D01*
X107276084Y-92534428D01*
X107281984Y-92527619D01*
X107342700Y-92394670D01*
X107353972Y-92316269D01*
X107362861Y-92254448D01*
X107362862Y-92254441D01*
X107363500Y-92250000D01*
X107363500Y-90634000D01*
X107383502Y-90565879D01*
X107437158Y-90519386D01*
X107489500Y-90508000D01*
X111966000Y-90508000D01*
X112034121Y-90528002D01*
X112080614Y-90581658D01*
X112092000Y-90634000D01*
X112092000Y-95110500D01*
X112071998Y-95178621D01*
X112018342Y-95225114D01*
X111966000Y-95236500D01*
X110350000Y-95236500D01*
X110276921Y-95241727D01*
X110223884Y-95257300D01*
X110145330Y-95280365D01*
X110145328Y-95280366D01*
X110136684Y-95282904D01*
X110129105Y-95287775D01*
X110021309Y-95357051D01*
X110021306Y-95357053D01*
X110013729Y-95361923D01*
X110007828Y-95368733D01*
X109923918Y-95465569D01*
X109923916Y-95465572D01*
X109918016Y-95472381D01*
X109857300Y-95605330D01*
X109856018Y-95614245D01*
X109856018Y-95614246D01*
X109837139Y-95745552D01*
X109837138Y-95745559D01*
X109836500Y-95750000D01*
X109836500Y-97250000D01*
X109841727Y-97323079D01*
X109865154Y-97402864D01*
X109882904Y-97463316D01*
X109880981Y-97463881D01*
X109889434Y-97522679D01*
X109879331Y-97557088D01*
X109872585Y-97571861D01*
X109857300Y-97605330D01*
X109856019Y-97614241D01*
X109856018Y-97614244D01*
X109837139Y-97745552D01*
X109837138Y-97745559D01*
X109836500Y-97750000D01*
X109836500Y-97789300D01*
X109816498Y-97857421D01*
X109762842Y-97903914D01*
X109710500Y-97915300D01*
X104566250Y-97915300D01*
X104498129Y-97895298D01*
X104460878Y-97858385D01*
X104388511Y-97748006D01*
X104388510Y-97748005D01*
X104384499Y-97741887D01*
X104255451Y-97619639D01*
X104101740Y-97530356D01*
X103931613Y-97478830D01*
X103754195Y-97467823D01*
X103746980Y-97469063D01*
X103746977Y-97469063D01*
X103586219Y-97496687D01*
X103579003Y-97497927D01*
X103415435Y-97567525D01*
X103409547Y-97571858D01*
X103409542Y-97571861D01*
X103278166Y-97668544D01*
X103272266Y-97672886D01*
X103267522Y-97678469D01*
X103267523Y-97678469D01*
X103161914Y-97802778D01*
X103161911Y-97802782D01*
X103157175Y-97808357D01*
X103076336Y-97966671D01*
X103074596Y-97973780D01*
X103074595Y-97973784D01*
X103035825Y-98132224D01*
X103034085Y-98139336D01*
X103032689Y-98317090D01*
X103072223Y-98490397D01*
X103075448Y-98496967D01*
X103075449Y-98496968D01*
X103084357Y-98515111D01*
X103096425Y-98585075D01*
X103068751Y-98650456D01*
X103020586Y-98686583D01*
X102991969Y-98698759D01*
X102991964Y-98698762D01*
X102985235Y-98701625D01*
X102979347Y-98705958D01*
X102979342Y-98705961D01*
X102881491Y-98777972D01*
X102842066Y-98806986D01*
X102809702Y-98845081D01*
X102750356Y-98884044D01*
X102713679Y-98889500D01*
X100074481Y-98889500D01*
X100006360Y-98869498D01*
X99985386Y-98852595D01*
X96018552Y-94885763D01*
X96007684Y-94873372D01*
X95994404Y-94856065D01*
X95994403Y-94856064D01*
X95989381Y-94849519D01*
X95867250Y-94755805D01*
X95725026Y-94696894D01*
X95610378Y-94681800D01*
X95572400Y-94676800D01*
X95564212Y-94677878D01*
X95542610Y-94680722D01*
X95526163Y-94681800D01*
X90379729Y-94681800D01*
X90363283Y-94680722D01*
X90341688Y-94677879D01*
X90341687Y-94677879D01*
X90333499Y-94676801D01*
X90325311Y-94677879D01*
X90325309Y-94677879D01*
X90295532Y-94681799D01*
X90295519Y-94681800D01*
X90214507Y-94692466D01*
X90180874Y-94696894D01*
X90038650Y-94755805D01*
X89916519Y-94849519D01*
X89911496Y-94856065D01*
X89898226Y-94873359D01*
X89887359Y-94885750D01*
X89573515Y-95199595D01*
X89511202Y-95233620D01*
X89484419Y-95236500D01*
X88234000Y-95236500D01*
X88165879Y-95216498D01*
X88119386Y-95162842D01*
X88108000Y-95110500D01*
X88108000Y-91017547D01*
X92837000Y-91017547D01*
X92837000Y-92247743D01*
X92837161Y-92252250D01*
X92841740Y-92316269D01*
X92844126Y-92329491D01*
X92880819Y-92454458D01*
X92888233Y-92470692D01*
X92957426Y-92578360D01*
X92969112Y-92591847D01*
X93065840Y-92675662D01*
X93080848Y-92685307D01*
X93197275Y-92738477D01*
X93214388Y-92743502D01*
X93345554Y-92762361D01*
X93354495Y-92763000D01*
X93827885Y-92763000D01*
X93843124Y-92758525D01*
X93844329Y-92757135D01*
X93846000Y-92749452D01*
X93846001Y-91022115D01*
X93841526Y-91006876D01*
X93840136Y-91005671D01*
X93832453Y-91004000D01*
X92855115Y-91003999D01*
X92839876Y-91008474D01*
X92838671Y-91009864D01*
X92837000Y-91017547D01*
X88108000Y-91017547D01*
X88108000Y-90634000D01*
X88128002Y-90565879D01*
X88181658Y-90519386D01*
X88234000Y-90508000D01*
X94228000Y-90508000D01*
X94296121Y-90528002D01*
G37*
G04 #@! TD.AperFunction*
M02*
