G04 #@! TF.GenerationSoftware,KiCad,Pcbnew,(5.99.0-7341-g916db1094)*
G04 #@! TF.CreationDate,2020-12-04T14:01:58-06:00*
G04 #@! TF.ProjectId,CircuitBrains Basic v1_2,43697263-7569-4744-9272-61696e732042,rev?*
G04 #@! TF.SameCoordinates,Original*
G04 #@! TF.FileFunction,Soldermask,Top*
G04 #@! TF.FilePolarity,Negative*
%FSLAX46Y46*%
G04 Gerber Fmt 4.6, Leading zero omitted, Abs format (unit mm)*
G04 Created by KiCad (PCBNEW (5.99.0-7341-g916db1094)) date 2020-12-04 14:01:58*
%MOMM*%
%LPD*%
G01*
G04 APERTURE LIST*
G04 Aperture macros list*
%AMRoundRect*
0 Rectangle with rounded corners*
0 $1 Rounding radius*
0 $2 $3 $4 $5 $6 $7 $8 $9 X,Y pos of 4 corners*
0 Add a 4 corners polygon primitive as box body*
4,1,4,$2,$3,$4,$5,$6,$7,$8,$9,$2,$3,0*
0 Add four circle primitives for the rounded corners*
1,1,$1+$1,$2,$3,0*
1,1,$1+$1,$4,$5,0*
1,1,$1+$1,$6,$7,0*
1,1,$1+$1,$8,$9,0*
0 Add four rect primitives between the rounded corners*
20,1,$1+$1,$2,$3,$4,$5,0*
20,1,$1+$1,$4,$5,$6,$7,0*
20,1,$1+$1,$6,$7,$8,$9,0*
20,1,$1+$1,$8,$9,$2,$3,0*%
G04 Aperture macros list end*
%ADD10RoundRect,0.218750X0.256250X-0.218750X0.256250X0.218750X-0.256250X0.218750X-0.256250X-0.218750X0*%
%ADD11RoundRect,0.218750X-0.218750X-0.256250X0.218750X-0.256250X0.218750X0.256250X-0.218750X0.256250X0*%
%ADD12RoundRect,0.218750X-0.256250X0.218750X-0.256250X-0.218750X0.256250X-0.218750X0.256250X0.218750X0*%
%ADD13RoundRect,0.218750X0.218750X0.256250X-0.218750X0.256250X-0.218750X-0.256250X0.218750X-0.256250X0*%
%ADD14R,0.260000X0.840000*%
%ADD15R,0.840000X0.260000*%
%ADD16R,3.600000X3.600000*%
%ADD17R,1.000000X1.000000*%
%ADD18R,3.000000X1.500000*%
%ADD19R,1.500000X3.000000*%
%ADD20R,1.060000X0.650000*%
%ADD21RoundRect,0.125000X-0.250000X-0.125000X0.250000X-0.125000X0.250000X0.125000X-0.250000X0.125000X0*%
%ADD22R,3.400000X4.300000*%
G04 APERTURE END LIST*
D10*
X104800000Y-101099500D03*
X104800000Y-99524500D03*
X95600000Y-100187500D03*
X95600000Y-98612500D03*
D11*
X106400500Y-101100000D03*
X107975500Y-101100000D03*
D10*
X103400000Y-105887500D03*
X103400000Y-104312500D03*
D12*
X93600000Y-108124500D03*
X93600000Y-109699500D03*
D13*
X103199500Y-95500000D03*
X101624500Y-95500000D03*
D10*
X105700000Y-105875500D03*
X105700000Y-104300500D03*
X93900000Y-100187500D03*
X93900000Y-98612500D03*
X104800000Y-97987500D03*
X104800000Y-96412500D03*
D11*
X90800000Y-92800000D03*
X92375000Y-92800000D03*
X90812500Y-94600000D03*
X92387500Y-94600000D03*
D10*
X93600000Y-106499500D03*
X93600000Y-104924500D03*
D13*
X105999500Y-102700000D03*
X104424500Y-102700000D03*
D10*
X95600000Y-97000000D03*
X95600000Y-95425000D03*
D11*
X97200000Y-95500000D03*
X98775000Y-95500000D03*
D10*
X93900000Y-97000000D03*
X93900000Y-95425000D03*
D14*
X101850000Y-97665000D03*
X101350000Y-97665000D03*
X100850000Y-97665000D03*
X100350000Y-97665000D03*
X99850000Y-97665000D03*
X99350000Y-97665000D03*
X98850000Y-97665000D03*
X98350000Y-97665000D03*
D15*
X97665000Y-98350000D03*
X97665000Y-98850000D03*
X97665000Y-99350000D03*
X97665000Y-99850000D03*
X97665000Y-100350000D03*
X97665000Y-100850000D03*
X97665000Y-101350000D03*
X97665000Y-101850000D03*
D14*
X98350000Y-102535000D03*
X98850000Y-102535000D03*
X99350000Y-102535000D03*
X99850000Y-102535000D03*
X100350000Y-102535000D03*
X100850000Y-102535000D03*
X101350000Y-102535000D03*
X101850000Y-102535000D03*
D15*
X102535000Y-101850000D03*
X102535000Y-101350000D03*
X102535000Y-100850000D03*
X102535000Y-100350000D03*
X102535000Y-99850000D03*
X102535000Y-99350000D03*
X102535000Y-98850000D03*
X102535000Y-98350000D03*
D16*
X100100000Y-100100000D03*
D17*
X111600000Y-111900000D03*
X107600000Y-111900000D03*
X111600000Y-110300000D03*
X107600000Y-110300000D03*
D18*
X88350000Y-96500000D03*
X88350000Y-98500000D03*
X88350000Y-100500000D03*
X88350000Y-102500000D03*
X88350000Y-104500000D03*
X88350000Y-106500000D03*
X88350000Y-108500000D03*
D19*
X94100000Y-114250000D03*
X96100000Y-114250000D03*
X98100000Y-114250000D03*
X100100000Y-114250000D03*
X102100000Y-114250000D03*
X104100000Y-114250000D03*
X106100000Y-114250000D03*
D18*
X111850000Y-108500000D03*
X111850000Y-106500000D03*
X111850000Y-104500000D03*
X111850000Y-102500000D03*
X111850000Y-100500000D03*
X111850000Y-98500000D03*
X111850000Y-96500000D03*
D19*
X106100000Y-90750000D03*
X104100000Y-90750000D03*
X102100000Y-90750000D03*
X100100000Y-90750000D03*
X98100000Y-90750000D03*
X96100000Y-90750000D03*
X94100000Y-90750000D03*
D20*
X103400000Y-107750000D03*
X103400000Y-108700000D03*
X103400000Y-109650000D03*
X105600000Y-109650000D03*
X105600000Y-107750000D03*
D13*
X92275000Y-113400000D03*
X90700000Y-113400000D03*
D21*
X95400000Y-105595000D03*
X95400000Y-106865000D03*
X95400000Y-108135000D03*
X95400000Y-109405000D03*
X100800000Y-109405000D03*
X100800000Y-108135000D03*
X100800000Y-106865000D03*
X100800000Y-105595000D03*
D22*
X98100000Y-107500000D03*
D11*
X107312500Y-94900000D03*
X108887500Y-94900000D03*
M02*
