G04 #@! TF.GenerationSoftware,KiCad,Pcbnew,(5.99.0-7341-g916db1094)*
G04 #@! TF.CreationDate,2020-12-04T14:01:57-06:00*
G04 #@! TF.ProjectId,CircuitBrains Basic v1_2,43697263-7569-4744-9272-61696e732042,rev?*
G04 #@! TF.SameCoordinates,Original*
G04 #@! TF.FileFunction,Copper,L1,Top*
G04 #@! TF.FilePolarity,Positive*
%FSLAX46Y46*%
G04 Gerber Fmt 4.6, Leading zero omitted, Abs format (unit mm)*
G04 Created by KiCad (PCBNEW (5.99.0-7341-g916db1094)) date 2020-12-04 14:01:57*
%MOMM*%
%LPD*%
G01*
G04 APERTURE LIST*
G04 Aperture macros list*
%AMRoundRect*
0 Rectangle with rounded corners*
0 $1 Rounding radius*
0 $2 $3 $4 $5 $6 $7 $8 $9 X,Y pos of 4 corners*
0 Add a 4 corners polygon primitive as box body*
4,1,4,$2,$3,$4,$5,$6,$7,$8,$9,$2,$3,0*
0 Add four circle primitives for the rounded corners*
1,1,$1+$1,$2,$3,0*
1,1,$1+$1,$4,$5,0*
1,1,$1+$1,$6,$7,0*
1,1,$1+$1,$8,$9,0*
0 Add four rect primitives between the rounded corners*
20,1,$1+$1,$2,$3,$4,$5,0*
20,1,$1+$1,$4,$5,$6,$7,0*
20,1,$1+$1,$6,$7,$8,$9,0*
20,1,$1+$1,$8,$9,$2,$3,0*%
G04 Aperture macros list end*
G04 #@! TA.AperFunction,SMDPad,CuDef*
%ADD10RoundRect,0.218750X0.256250X-0.218750X0.256250X0.218750X-0.256250X0.218750X-0.256250X-0.218750X0*%
G04 #@! TD*
G04 #@! TA.AperFunction,SMDPad,CuDef*
%ADD11RoundRect,0.218750X-0.218750X-0.256250X0.218750X-0.256250X0.218750X0.256250X-0.218750X0.256250X0*%
G04 #@! TD*
G04 #@! TA.AperFunction,SMDPad,CuDef*
%ADD12RoundRect,0.218750X-0.256250X0.218750X-0.256250X-0.218750X0.256250X-0.218750X0.256250X0.218750X0*%
G04 #@! TD*
G04 #@! TA.AperFunction,SMDPad,CuDef*
%ADD13RoundRect,0.218750X0.218750X0.256250X-0.218750X0.256250X-0.218750X-0.256250X0.218750X-0.256250X0*%
G04 #@! TD*
G04 #@! TA.AperFunction,SMDPad,CuDef*
%ADD14R,0.260000X0.840000*%
G04 #@! TD*
G04 #@! TA.AperFunction,SMDPad,CuDef*
%ADD15R,0.840000X0.260000*%
G04 #@! TD*
G04 #@! TA.AperFunction,SMDPad,CuDef*
%ADD16R,3.600000X3.600000*%
G04 #@! TD*
G04 #@! TA.AperFunction,SMDPad,CuDef*
%ADD17R,1.000000X1.000000*%
G04 #@! TD*
G04 #@! TA.AperFunction,SMDPad,CuDef*
%ADD18R,3.000000X1.500000*%
G04 #@! TD*
G04 #@! TA.AperFunction,SMDPad,CuDef*
%ADD19R,1.500000X3.000000*%
G04 #@! TD*
G04 #@! TA.AperFunction,SMDPad,CuDef*
%ADD20R,1.060000X0.650000*%
G04 #@! TD*
G04 #@! TA.AperFunction,SMDPad,CuDef*
%ADD21RoundRect,0.125000X-0.250000X-0.125000X0.250000X-0.125000X0.250000X0.125000X-0.250000X0.125000X0*%
G04 #@! TD*
G04 #@! TA.AperFunction,SMDPad,CuDef*
%ADD22R,3.400000X4.300000*%
G04 #@! TD*
G04 #@! TA.AperFunction,ViaPad*
%ADD23C,1.400000*%
G04 #@! TD*
G04 #@! TA.AperFunction,ViaPad*
%ADD24C,0.508000*%
G04 #@! TD*
G04 #@! TA.AperFunction,Conductor*
%ADD25C,0.152400*%
G04 #@! TD*
G04 #@! TA.AperFunction,Conductor*
%ADD26C,0.200000*%
G04 #@! TD*
G04 APERTURE END LIST*
D10*
X104800000Y-101099500D03*
X104800000Y-99524500D03*
X95600000Y-100187500D03*
X95600000Y-98612500D03*
D11*
X106400500Y-101100000D03*
X107975500Y-101100000D03*
D10*
X103400000Y-105887500D03*
X103400000Y-104312500D03*
D12*
X93600000Y-108124500D03*
X93600000Y-109699500D03*
D13*
X103199500Y-95500000D03*
X101624500Y-95500000D03*
D10*
X105700000Y-105875500D03*
X105700000Y-104300500D03*
X93900000Y-100187500D03*
X93900000Y-98612500D03*
X104800000Y-97987500D03*
X104800000Y-96412500D03*
D11*
X90800000Y-92800000D03*
X92375000Y-92800000D03*
X90812500Y-94600000D03*
X92387500Y-94600000D03*
D10*
X93600000Y-106499500D03*
X93600000Y-104924500D03*
D13*
X105999500Y-102700000D03*
X104424500Y-102700000D03*
D10*
X95600000Y-97000000D03*
X95600000Y-95425000D03*
D11*
X97200000Y-95500000D03*
X98775000Y-95500000D03*
D10*
X93900000Y-97000000D03*
X93900000Y-95425000D03*
D14*
X101850000Y-97665000D03*
X101350000Y-97665000D03*
X100850000Y-97665000D03*
X100350000Y-97665000D03*
X99850000Y-97665000D03*
X99350000Y-97665000D03*
X98850000Y-97665000D03*
X98350000Y-97665000D03*
D15*
X97665000Y-98350000D03*
X97665000Y-98850000D03*
X97665000Y-99350000D03*
X97665000Y-99850000D03*
X97665000Y-100350000D03*
X97665000Y-100850000D03*
X97665000Y-101350000D03*
X97665000Y-101850000D03*
D14*
X98350000Y-102535000D03*
X98850000Y-102535000D03*
X99350000Y-102535000D03*
X99850000Y-102535000D03*
X100350000Y-102535000D03*
X100850000Y-102535000D03*
X101350000Y-102535000D03*
X101850000Y-102535000D03*
D15*
X102535000Y-101850000D03*
X102535000Y-101350000D03*
X102535000Y-100850000D03*
X102535000Y-100350000D03*
X102535000Y-99850000D03*
X102535000Y-99350000D03*
X102535000Y-98850000D03*
X102535000Y-98350000D03*
D16*
X100100000Y-100100000D03*
D17*
X111600000Y-111900000D03*
X107600000Y-111900000D03*
X111600000Y-110300000D03*
X107600000Y-110300000D03*
D18*
X88350000Y-96500000D03*
X88350000Y-98500000D03*
X88350000Y-100500000D03*
X88350000Y-102500000D03*
X88350000Y-104500000D03*
X88350000Y-106500000D03*
X88350000Y-108500000D03*
D19*
X94100000Y-114250000D03*
X96100000Y-114250000D03*
X98100000Y-114250000D03*
X100100000Y-114250000D03*
X102100000Y-114250000D03*
X104100000Y-114250000D03*
X106100000Y-114250000D03*
D18*
X111850000Y-108500000D03*
X111850000Y-106500000D03*
X111850000Y-104500000D03*
X111850000Y-102500000D03*
X111850000Y-100500000D03*
X111850000Y-98500000D03*
X111850000Y-96500000D03*
D19*
X106100000Y-90750000D03*
X104100000Y-90750000D03*
X102100000Y-90750000D03*
X100100000Y-90750000D03*
X98100000Y-90750000D03*
X96100000Y-90750000D03*
X94100000Y-90750000D03*
D20*
X103400000Y-107750000D03*
X103400000Y-108700000D03*
X103400000Y-109650000D03*
X105600000Y-109650000D03*
X105600000Y-107750000D03*
D13*
X92275000Y-113400000D03*
X90700000Y-113400000D03*
D21*
X95400000Y-105595000D03*
X95400000Y-106865000D03*
X95400000Y-108135000D03*
X95400000Y-109405000D03*
X100800000Y-109405000D03*
X100800000Y-108135000D03*
X100800000Y-106865000D03*
X100800000Y-105595000D03*
D22*
X98100000Y-107500000D03*
D11*
X107312500Y-94900000D03*
X108887500Y-94900000D03*
D23*
X94100000Y-90000000D03*
X98100000Y-115000000D03*
D24*
X102699300Y-103563000D03*
X109000000Y-101350000D03*
X101300000Y-98600000D03*
X103132300Y-96412500D03*
X103385000Y-100350000D03*
X102220550Y-109120550D03*
D23*
X94100000Y-91500000D03*
D24*
X109650000Y-110300000D03*
X98950000Y-100100000D03*
X101450000Y-100350000D03*
D23*
X98100000Y-113500000D03*
X106100000Y-115000000D03*
X87600000Y-96500000D03*
X89100000Y-96500000D03*
X106100000Y-113500000D03*
D24*
X99780100Y-104941800D03*
X103365500Y-99368300D03*
D23*
X112600000Y-102500000D03*
X111100000Y-102500000D03*
X104100000Y-115000000D03*
X104100000Y-113500000D03*
D24*
X93009100Y-95766300D03*
X90391000Y-112268800D03*
D23*
X98100000Y-90000000D03*
X98100000Y-91500000D03*
X112600000Y-98500000D03*
D24*
X103795700Y-98234200D03*
D23*
X111100000Y-98500000D03*
X96100000Y-90000000D03*
X96100000Y-91500000D03*
X94100000Y-115000000D03*
X94100000Y-113500000D03*
D24*
X98850000Y-103367800D03*
X98951600Y-110163500D03*
D23*
X104100000Y-90000000D03*
X104100000Y-91500000D03*
X102100000Y-90000000D03*
X102100000Y-91500000D03*
X100100000Y-90000000D03*
X100100000Y-91500000D03*
X87600000Y-102500000D03*
X89100000Y-102500000D03*
D24*
X96511200Y-99854900D03*
D23*
X87600000Y-106500000D03*
X89100000Y-106500000D03*
X87600000Y-108500000D03*
X89100000Y-108500000D03*
X87600000Y-104500000D03*
X89100000Y-104500000D03*
X112600000Y-100500000D03*
X111100000Y-100500000D03*
X112600000Y-104500000D03*
D24*
X103678900Y-102085600D03*
D23*
X111100000Y-104500000D03*
X112600000Y-106500000D03*
X111100000Y-106500000D03*
D24*
X102072400Y-104560900D03*
D23*
X112600000Y-108500000D03*
D24*
X101995000Y-105436800D03*
D23*
X111100000Y-108500000D03*
X100100000Y-115000000D03*
D24*
X101221000Y-103740000D03*
D23*
X100100000Y-113500000D03*
X102100000Y-115000000D03*
X102100000Y-113500000D03*
D24*
X101979000Y-103740000D03*
D23*
X96100000Y-115000000D03*
X96100000Y-113500000D03*
X112600000Y-96500000D03*
X111100000Y-96500000D03*
X106100000Y-90000000D03*
X106100000Y-91500000D03*
X87600000Y-98500000D03*
D24*
X94750000Y-97806200D03*
D23*
X89100000Y-98500000D03*
X87600000Y-100500000D03*
X89100000Y-100500000D03*
D24*
X96815100Y-97665000D03*
D25*
X102535000Y-99850000D02*
X102536300Y-99851300D01*
X104473200Y-99851300D02*
X104800000Y-99524500D01*
X102536300Y-99851300D02*
X104473200Y-99851300D01*
X101450000Y-100350000D02*
X100350000Y-100350000D01*
X109650000Y-110300000D02*
X110971100Y-110300000D01*
X102220550Y-109120550D02*
X98941600Y-112399500D01*
X90812500Y-92800000D02*
X90812500Y-94600000D01*
X102535000Y-100350000D02*
X101450000Y-100350000D01*
X94100000Y-91500000D02*
X94100000Y-90750000D01*
X100100000Y-100100000D02*
X98850000Y-98850000D01*
X98100000Y-114250000D02*
X98100000Y-113500000D01*
X98100000Y-113500000D02*
X98100000Y-112399500D01*
X95600000Y-100079100D02*
X95600000Y-100187500D01*
X103400000Y-108700000D02*
X102641100Y-108700000D01*
X100350000Y-100350000D02*
X100100000Y-100100000D01*
X105237200Y-101099500D02*
X104800000Y-101099500D01*
X97665000Y-98850000D02*
X96829100Y-98850000D01*
X107700000Y-110300000D02*
X109650000Y-110300000D01*
X103400000Y-104312500D02*
X105688000Y-104312500D01*
X98941600Y-112399500D02*
X98100000Y-112399500D01*
X102699300Y-103563000D02*
X103400000Y-104263700D01*
X90812500Y-92800000D02*
X92112500Y-91500000D01*
X103385000Y-100350000D02*
X102535000Y-100350000D01*
X107700000Y-106324500D02*
X107700000Y-110300000D01*
X105688000Y-104312500D02*
X107700000Y-106324500D01*
X105688000Y-104312500D02*
X105700000Y-104300500D01*
X90812500Y-92800000D02*
X90800000Y-92800000D01*
X111700000Y-110300000D02*
X110971100Y-110300000D01*
X98100000Y-112399500D02*
X95400000Y-109699500D01*
X103132300Y-96412500D02*
X102537000Y-96412500D01*
X105941400Y-100395300D02*
X105237200Y-101099500D01*
X95600000Y-100187500D02*
X93900000Y-100187500D01*
X95400000Y-109699500D02*
X95400000Y-109405000D01*
X107975500Y-101100000D02*
X108750000Y-101100000D01*
X107975500Y-101100000D02*
X107270800Y-100395300D01*
X102537000Y-96412500D02*
X101624500Y-95500000D01*
X93600000Y-109699500D02*
X95400000Y-109699500D01*
X98850000Y-98850000D02*
X97665000Y-98850000D01*
X103400000Y-104263700D02*
X103400000Y-104312500D01*
X104800000Y-96412500D02*
X103132300Y-96412500D01*
X107270800Y-100395300D02*
X105941400Y-100395300D01*
X108750000Y-101100000D02*
X109000000Y-101350000D01*
X92112500Y-91500000D02*
X94100000Y-91500000D01*
X96829100Y-98850000D02*
X95600000Y-100079100D01*
X102641100Y-108700000D02*
X102220550Y-109120550D01*
X96171000Y-107343000D02*
X95389500Y-108124500D01*
X107312500Y-94900000D02*
X106526100Y-95686400D01*
X97665000Y-98350000D02*
X97016100Y-98350000D01*
X96468000Y-104941800D02*
X96171000Y-105238800D01*
X103365500Y-99368300D02*
X103419200Y-99368300D01*
X105537000Y-97250500D02*
X105537000Y-95686400D01*
X100800000Y-105920600D02*
X102226800Y-105920600D01*
X93400000Y-96500000D02*
X93900000Y-97000000D01*
X103183900Y-99350000D02*
X103202200Y-99368300D01*
X103202200Y-99368300D02*
X103365500Y-99368300D01*
X102226800Y-105920600D02*
X102967300Y-105180100D01*
X100800000Y-105595000D02*
X100146800Y-104941800D01*
X93900000Y-97000000D02*
X95600000Y-97000000D01*
X95389500Y-108124500D02*
X95400000Y-108135000D01*
X105600000Y-107750000D02*
X106358900Y-107750000D01*
X93600000Y-106499500D02*
X93600000Y-108124500D01*
X93600000Y-108124500D02*
X95389500Y-108124500D01*
X103385900Y-95686400D02*
X103199500Y-95500000D01*
X99780100Y-104941800D02*
X96468000Y-104941800D01*
X102535000Y-99350000D02*
X103183900Y-99350000D01*
X104800000Y-97987500D02*
X105537000Y-97250500D01*
X106100000Y-114250000D02*
X106100000Y-113500000D01*
X106358900Y-113241100D02*
X106358900Y-107750000D01*
X97200000Y-95500000D02*
X95700000Y-97000000D01*
X106100000Y-113500000D02*
X106358900Y-113241100D01*
X96171000Y-105238800D02*
X96171000Y-107343000D01*
X97016100Y-98350000D02*
X95862500Y-98350000D01*
X95862500Y-98350000D02*
X95600000Y-98612500D01*
X105700000Y-105875500D02*
X106358900Y-106534400D01*
X89100000Y-96500000D02*
X93400000Y-96500000D01*
X100800000Y-105595000D02*
X100800000Y-105920600D01*
X95700000Y-97000000D02*
X95600000Y-97000000D01*
X105004600Y-105180100D02*
X105700000Y-105875500D01*
X103419200Y-99368300D02*
X104800000Y-97987500D01*
X100146800Y-104941800D02*
X99780100Y-104941800D01*
X95600000Y-98612500D02*
X93900000Y-98612500D01*
X88350000Y-96500000D02*
X89100000Y-96500000D01*
X106526100Y-95686400D02*
X105537000Y-95686400D01*
X102967300Y-105180100D02*
X105004600Y-105180100D01*
X106358900Y-106534400D02*
X106358900Y-107750000D01*
X105537000Y-95686400D02*
X103385900Y-95686400D01*
X93900000Y-97000000D02*
X93900000Y-98612500D01*
X100800000Y-105920600D02*
X100800000Y-106865000D01*
X111100000Y-102500000D02*
X106199500Y-102500000D01*
X105490100Y-102010400D02*
X105490100Y-102190600D01*
X106199500Y-102500000D02*
X105999500Y-102700000D01*
X105490100Y-102190600D02*
X105999500Y-102700000D01*
X111850000Y-102500000D02*
X111100000Y-102500000D01*
X102535000Y-101350000D02*
X103942400Y-101350000D01*
X103942400Y-101350000D02*
X104560600Y-101968200D01*
X105447900Y-101968200D02*
X105490100Y-102010400D01*
X104560600Y-101968200D02*
X105447900Y-101968200D01*
X105490100Y-102010400D02*
X106400500Y-101100000D01*
X104158900Y-108129400D02*
X103779500Y-107750000D01*
X104082600Y-109650000D02*
X104100000Y-109650000D01*
X104158900Y-109591100D02*
X104158900Y-108129400D01*
X104100000Y-109650000D02*
X104158900Y-109591100D01*
X104100000Y-113500000D02*
X104100000Y-114250000D01*
X103400000Y-109650000D02*
X104082600Y-109650000D01*
X103779500Y-106267000D02*
X103400000Y-105887500D01*
X104100000Y-109650000D02*
X104100000Y-113500000D01*
X103400000Y-107750000D02*
X103779500Y-107750000D01*
X103779500Y-107750000D02*
X103779500Y-106267000D01*
X92375000Y-92800000D02*
X93900000Y-94325000D01*
X93900000Y-94325000D02*
X93900000Y-95425000D01*
X92387500Y-94600000D02*
X93009100Y-95221600D01*
X90700000Y-113400000D02*
X90700000Y-112577800D01*
X93009100Y-95221600D02*
X93009100Y-95766300D01*
X90700000Y-112577800D02*
X90391000Y-112268800D01*
X94152600Y-105477100D02*
X93600000Y-104924500D01*
X95400000Y-105595000D02*
X95400000Y-105477100D01*
X99850000Y-102535000D02*
X99850000Y-103183900D01*
X95400000Y-105477100D02*
X94152600Y-105477100D01*
X96625200Y-104251900D02*
X99105700Y-104251900D01*
X99105700Y-104251900D02*
X99850000Y-103507600D01*
X95400000Y-105477100D02*
X96625200Y-104251900D01*
X99850000Y-103507600D02*
X99850000Y-103183900D01*
X107700000Y-111900000D02*
X108428900Y-111900000D01*
X111700000Y-111900000D02*
X111700000Y-111535500D01*
X112346390Y-109571000D02*
X110325900Y-109571000D01*
X106049100Y-103454400D02*
X105178900Y-103454400D01*
X108370900Y-107616000D02*
X108370900Y-105776200D01*
X110325900Y-109571000D02*
X108370900Y-107616000D01*
X112346390Y-110903610D02*
X112346390Y-109571000D01*
X111700000Y-111535500D02*
X108793400Y-111535500D01*
X108370900Y-105776200D02*
X106049100Y-103454400D01*
X105178900Y-103454400D02*
X104424500Y-102700000D01*
X112078900Y-111171100D02*
X112346390Y-110903610D01*
X108793400Y-111535500D02*
X108428900Y-111900000D01*
X111700000Y-111535500D02*
X111700000Y-111171100D01*
X111700000Y-111171100D02*
X112078900Y-111171100D01*
X98775000Y-95500000D02*
X98775000Y-95984700D01*
X98100000Y-90750000D02*
X98100000Y-91500000D01*
X98775000Y-95984700D02*
X99850000Y-97059700D01*
X98100000Y-91500000D02*
X98775000Y-92175000D01*
X99850000Y-97059700D02*
X99850000Y-97665000D01*
X98775000Y-92175000D02*
X98775000Y-95500000D01*
X108887500Y-96287500D02*
X108887500Y-94900000D01*
X103795600Y-98238300D02*
X103795600Y-98234200D01*
X103795600Y-98234200D02*
X103795700Y-98234200D01*
X102535000Y-98850000D02*
X103183900Y-98850000D01*
X111850000Y-98500000D02*
X111100000Y-98500000D01*
X111100000Y-98500000D02*
X108887500Y-96287500D01*
X103183900Y-98850000D02*
X103795600Y-98238300D01*
X99350000Y-97016100D02*
X98608300Y-96274400D01*
X98407400Y-96274400D02*
X98095500Y-95962500D01*
X99350000Y-97665000D02*
X99350000Y-97016100D01*
X98095500Y-95962500D02*
X98095500Y-95269700D01*
X96100000Y-94795200D02*
X96100000Y-94925000D01*
X97621000Y-94795200D02*
X96100000Y-94795200D01*
X96100000Y-94925000D02*
X95600000Y-95425000D01*
X98608300Y-96274400D02*
X98407400Y-96274400D01*
X96100000Y-91500000D02*
X96100000Y-94795200D01*
X96100000Y-90750000D02*
X96100000Y-91500000D01*
X98095500Y-95269700D02*
X97621000Y-94795200D01*
X97665000Y-101350000D02*
X97084400Y-101350000D01*
X93140600Y-102958900D02*
X91946900Y-104152600D01*
X91946900Y-104152600D02*
X91946900Y-112729900D01*
X91946900Y-112729900D02*
X92446000Y-113229000D01*
X94100000Y-114250000D02*
X94100000Y-113500000D01*
X95475500Y-102958900D02*
X93140600Y-102958900D01*
X94100000Y-113500000D02*
X92717000Y-113500000D01*
X97084400Y-101350000D02*
X95475500Y-102958900D01*
X92275000Y-113400000D02*
X92446000Y-113229000D01*
X92717000Y-113500000D02*
X92446000Y-113229000D01*
X92878800Y-104515600D02*
X92878800Y-105379200D01*
X93281900Y-105782300D02*
X94317300Y-105782300D01*
X99350000Y-102535000D02*
X99350000Y-103551000D01*
X93520200Y-103874200D02*
X92878800Y-104515600D01*
X99026800Y-103874200D02*
X93520200Y-103874200D01*
X92878800Y-105379200D02*
X93281900Y-105782300D01*
X94317300Y-105782300D02*
X95400000Y-106865000D01*
X99350000Y-103551000D02*
X99026800Y-103874200D01*
X98350000Y-103183900D02*
X97964800Y-103569100D01*
X100800000Y-109516800D02*
X100800000Y-109405000D01*
X92557100Y-108190500D02*
X93278600Y-108912000D01*
X93278600Y-108912000D02*
X95838100Y-108912000D01*
X98350000Y-102535000D02*
X98350000Y-103183900D01*
X97964800Y-103569100D02*
X93393600Y-103569100D01*
X96171000Y-109244900D02*
X96171000Y-109777500D01*
X92557100Y-104405600D02*
X92557100Y-108190500D01*
X96171000Y-109777500D02*
X97063700Y-110670200D01*
X95838100Y-108912000D02*
X96171000Y-109244900D01*
X99646600Y-110670200D02*
X100800000Y-109516800D01*
X93393600Y-103569100D02*
X92557100Y-104405600D01*
X97063700Y-110670200D02*
X99646600Y-110670200D01*
X100028900Y-108906100D02*
X100028900Y-109744800D01*
X100028900Y-109744800D02*
X99610200Y-110163500D01*
X98850000Y-102535000D02*
X98850000Y-103183900D01*
X99610200Y-110163500D02*
X98951600Y-110163500D01*
X100800000Y-108135000D02*
X100028900Y-108906100D01*
X98850000Y-103183900D02*
X98850000Y-103367800D01*
X100316000Y-94811800D02*
X101212800Y-93915000D01*
X101510500Y-93915000D02*
X104100000Y-91325500D01*
X100316000Y-96230500D02*
X100316000Y-94811800D01*
X101350000Y-97264500D02*
X100316000Y-96230500D01*
X104100000Y-91325500D02*
X104100000Y-91125000D01*
X101212800Y-93915000D02*
X101510500Y-93915000D01*
X104100000Y-91125000D02*
X104100000Y-91500000D01*
X104100000Y-90750000D02*
X104100000Y-91125000D01*
X101350000Y-97665000D02*
X101350000Y-97264500D01*
X100010900Y-96357000D02*
X100010900Y-93589100D01*
X100850000Y-97196100D02*
X100010900Y-96357000D01*
X100010900Y-93589100D02*
X102100000Y-91500000D01*
X100850000Y-97665000D02*
X100850000Y-97196100D01*
X102100000Y-90750000D02*
X102100000Y-91500000D01*
X100350000Y-97127700D02*
X99705800Y-96483500D01*
X100100000Y-91500000D02*
X100100000Y-90750000D01*
X99705800Y-91894200D02*
X100100000Y-91500000D01*
X99705800Y-96483500D02*
X99705800Y-91894200D01*
X100350000Y-97665000D02*
X100350000Y-97127700D01*
X97665000Y-99350000D02*
X97016100Y-99350000D01*
X97016100Y-99350000D02*
X96511200Y-99854900D01*
X88350000Y-102500000D02*
X89100000Y-102500000D01*
X93182300Y-102054000D02*
X91336700Y-103899600D01*
X97665000Y-100350000D02*
X97202500Y-100350000D01*
X97202500Y-100350000D02*
X95498500Y-102054000D01*
X91336700Y-103899600D02*
X91336700Y-104263300D01*
X95498500Y-102054000D02*
X93182300Y-102054000D01*
X88350000Y-106500000D02*
X89100000Y-106500000D01*
X91336700Y-104263300D02*
X89100000Y-106500000D01*
X95330400Y-102653800D02*
X93014100Y-102653800D01*
X97134200Y-100850000D02*
X95330400Y-102653800D01*
X91641800Y-105958200D02*
X89100000Y-108500000D01*
X91641800Y-104026100D02*
X91641800Y-105958200D01*
X97665000Y-100850000D02*
X97134200Y-100850000D01*
X93014100Y-102653800D02*
X91641800Y-104026100D01*
X89100000Y-108500000D02*
X88350000Y-108500000D01*
X89100000Y-104500000D02*
X92432300Y-101167700D01*
X95909200Y-101167700D02*
X97016100Y-100060800D01*
X97665000Y-99850000D02*
X97016100Y-99850000D01*
X88350000Y-104500000D02*
X89100000Y-104500000D01*
X97016100Y-100060800D02*
X97016100Y-99850000D01*
X92432300Y-101167700D02*
X95909200Y-101167700D01*
X103877800Y-100850000D02*
X102535000Y-100850000D01*
X104523800Y-100204000D02*
X103877800Y-100850000D01*
X105617600Y-100204000D02*
X104523800Y-100204000D01*
X111100000Y-100500000D02*
X110690100Y-100090100D01*
X111850000Y-100500000D02*
X111100000Y-100500000D01*
X105731500Y-100090100D02*
X105617600Y-100204000D01*
X110690100Y-100090100D02*
X105731500Y-100090100D01*
X103419500Y-102085600D02*
X103678900Y-102085600D01*
X102535000Y-101850000D02*
X103183900Y-101850000D01*
X103183900Y-101850000D02*
X103419500Y-102085600D01*
X111850000Y-104500000D02*
X111100000Y-104500000D01*
X100709000Y-103955300D02*
X100709000Y-103324900D01*
X102072400Y-104560900D02*
X101314600Y-104560900D01*
X101314600Y-104560900D02*
X100709000Y-103955300D01*
X111850000Y-106500000D02*
X111100000Y-106500000D01*
X100709000Y-103324900D02*
X100850000Y-103183900D01*
X100850000Y-102535000D02*
X100850000Y-103183900D01*
X111100000Y-108500000D02*
X111850000Y-108500000D01*
X100350000Y-104028000D02*
X100350000Y-102535000D01*
X101995000Y-105436800D02*
X101758800Y-105436800D01*
X101758800Y-105436800D02*
X100350000Y-104028000D01*
D26*
X101375000Y-103586000D02*
X101221000Y-103740000D01*
X101350000Y-102535000D02*
X101350000Y-103165000D01*
D25*
X100100000Y-113500000D02*
X100100000Y-114250000D01*
D26*
X101350000Y-103165000D02*
X101375000Y-103190000D01*
X101375000Y-103190000D02*
X101375000Y-103586000D01*
D25*
X102100000Y-113500000D02*
X102100000Y-114250000D01*
D26*
X101825000Y-103190000D02*
X101825000Y-103586000D01*
X101825000Y-103586000D02*
X101979000Y-103740000D01*
X101850000Y-103165000D02*
X101825000Y-103190000D01*
X101850000Y-102535000D02*
X101850000Y-103165000D01*
D25*
X95602100Y-103264000D02*
X93267100Y-103264000D01*
X97665000Y-101850000D02*
X97016100Y-101850000D01*
X92252000Y-109652000D02*
X96100000Y-113500000D01*
X92252000Y-104279100D02*
X92252000Y-109652000D01*
X93267100Y-103264000D02*
X92252000Y-104279100D01*
X96100000Y-114250000D02*
X96100000Y-113500000D01*
X97016100Y-101850000D02*
X95602100Y-103264000D01*
X111100000Y-95985100D02*
X109295700Y-94180800D01*
X100926300Y-95910100D02*
X101307700Y-96291500D01*
X102449900Y-94607700D02*
X101383400Y-94607700D01*
X102535000Y-97444500D02*
X102535000Y-98350000D01*
X101307700Y-96291500D02*
X101382000Y-96291500D01*
X101382000Y-96291500D02*
X102535000Y-97444500D01*
X111100000Y-96500000D02*
X111100000Y-95985100D01*
X109295700Y-94180800D02*
X102876800Y-94180800D01*
X101383400Y-94607700D02*
X100926300Y-95064800D01*
X111850000Y-96500000D02*
X111100000Y-96500000D01*
X102876800Y-94180800D02*
X102449900Y-94607700D01*
X100926300Y-95064800D02*
X100926300Y-95910100D01*
X101850000Y-97223200D02*
X101526400Y-96899600D01*
X102530700Y-93806700D02*
X103793300Y-93806700D01*
X100621100Y-94938300D02*
X101339200Y-94220200D01*
X101339200Y-94220200D02*
X102117200Y-94220200D01*
X101416700Y-96899600D02*
X100621100Y-96104000D01*
X101850000Y-97665000D02*
X101850000Y-97223200D01*
X101526400Y-96899600D02*
X101416700Y-96899600D01*
X106100000Y-90750000D02*
X106100000Y-91500000D01*
X103793300Y-93806700D02*
X106100000Y-91500000D01*
X100621100Y-96104000D02*
X100621100Y-94938300D01*
X102117200Y-94220200D02*
X102530700Y-93806700D01*
X98850000Y-97016100D02*
X96723200Y-97016100D01*
X95933100Y-97806200D02*
X94750000Y-97806200D01*
X98850000Y-97665000D02*
X98850000Y-97016100D01*
X96723200Y-97016100D02*
X95933100Y-97806200D01*
X88350000Y-98500000D02*
X89100000Y-98500000D01*
X88350000Y-100500000D02*
X89100000Y-100500000D01*
X98350000Y-97665000D02*
X96815100Y-97665000D01*
M02*
