G04 #@! TF.GenerationSoftware,KiCad,Pcbnew,(5.1.4-0-10_14)*
G04 #@! TF.CreationDate,2019-11-16T13:32:52-06:00*
G04 #@! TF.ProjectId,CircuitBrains Deluxe v1_0,43697263-7569-4744-9272-61696e732044,rev?*
G04 #@! TF.SameCoordinates,Original*
G04 #@! TF.FileFunction,Soldermask,Top*
G04 #@! TF.FilePolarity,Negative*
%FSLAX46Y46*%
G04 Gerber Fmt 4.6, Leading zero omitted, Abs format (unit mm)*
G04 Created by KiCad (PCBNEW (5.1.4-0-10_14)) date 2019-11-16 13:32:52*
%MOMM*%
%LPD*%
G04 APERTURE LIST*
%ADD10C,0.100000*%
G04 APERTURE END LIST*
D10*
G36*
X111450800Y-116250800D02*
G01*
X109849200Y-116250800D01*
X109849200Y-113149200D01*
X111450800Y-113149200D01*
X111450800Y-116250800D01*
X111450800Y-116250800D01*
G37*
G36*
X109450800Y-116250800D02*
G01*
X107849200Y-116250800D01*
X107849200Y-113149200D01*
X109450800Y-113149200D01*
X109450800Y-116250800D01*
X109450800Y-116250800D01*
G37*
G36*
X107450800Y-116250800D02*
G01*
X105849200Y-116250800D01*
X105849200Y-113149200D01*
X107450800Y-113149200D01*
X107450800Y-116250800D01*
X107450800Y-116250800D01*
G37*
G36*
X105450800Y-116250800D02*
G01*
X103849200Y-116250800D01*
X103849200Y-113149200D01*
X105450800Y-113149200D01*
X105450800Y-116250800D01*
X105450800Y-116250800D01*
G37*
G36*
X103450800Y-116250800D02*
G01*
X101849200Y-116250800D01*
X101849200Y-113149200D01*
X103450800Y-113149200D01*
X103450800Y-116250800D01*
X103450800Y-116250800D01*
G37*
G36*
X101450800Y-116250800D02*
G01*
X99849200Y-116250800D01*
X99849200Y-113149200D01*
X101450800Y-113149200D01*
X101450800Y-116250800D01*
X101450800Y-116250800D01*
G37*
G36*
X99450800Y-116250800D02*
G01*
X97849200Y-116250800D01*
X97849200Y-113149200D01*
X99450800Y-113149200D01*
X99450800Y-116250800D01*
X99450800Y-116250800D01*
G37*
G36*
X97450800Y-116250800D02*
G01*
X95849200Y-116250800D01*
X95849200Y-113149200D01*
X97450800Y-113149200D01*
X97450800Y-116250800D01*
X97450800Y-116250800D01*
G37*
G36*
X95450800Y-116250800D02*
G01*
X93849200Y-116250800D01*
X93849200Y-113149200D01*
X95450800Y-113149200D01*
X95450800Y-116250800D01*
X95450800Y-116250800D01*
G37*
G36*
X93450800Y-116250800D02*
G01*
X91849200Y-116250800D01*
X91849200Y-113149200D01*
X93450800Y-113149200D01*
X93450800Y-116250800D01*
X93450800Y-116250800D01*
G37*
G36*
X91450800Y-116250800D02*
G01*
X89849200Y-116250800D01*
X89849200Y-113149200D01*
X91450800Y-113149200D01*
X91450800Y-116250800D01*
X91450800Y-116250800D01*
G37*
G36*
X89450800Y-116250800D02*
G01*
X87849200Y-116250800D01*
X87849200Y-113149200D01*
X89450800Y-113149200D01*
X89450800Y-116250800D01*
X89450800Y-116250800D01*
G37*
G36*
X101437767Y-111165822D02*
G01*
X101574258Y-111222359D01*
X101697097Y-111304437D01*
X101801563Y-111408903D01*
X101883641Y-111531742D01*
X101940178Y-111668233D01*
X101969000Y-111813131D01*
X101969000Y-111960869D01*
X101940178Y-112105767D01*
X101883641Y-112242258D01*
X101801563Y-112365097D01*
X101697097Y-112469563D01*
X101574258Y-112551641D01*
X101437767Y-112608178D01*
X101292869Y-112637000D01*
X101145131Y-112637000D01*
X101000233Y-112608178D01*
X100863742Y-112551641D01*
X100740903Y-112469563D01*
X100636437Y-112365097D01*
X100554359Y-112242258D01*
X100497822Y-112105767D01*
X100469000Y-111960869D01*
X100469000Y-111813131D01*
X100497822Y-111668233D01*
X100554359Y-111531742D01*
X100636437Y-111408903D01*
X100740903Y-111304437D01*
X100863742Y-111222359D01*
X101000233Y-111165822D01*
X101145131Y-111137000D01*
X101292869Y-111137000D01*
X101437767Y-111165822D01*
X101437767Y-111165822D01*
G37*
G36*
X114950800Y-112500800D02*
G01*
X111849200Y-112500800D01*
X111849200Y-110899200D01*
X114950800Y-110899200D01*
X114950800Y-112500800D01*
X114950800Y-112500800D01*
G37*
G36*
X87450800Y-112500800D02*
G01*
X84349200Y-112500800D01*
X84349200Y-110899200D01*
X87450800Y-110899200D01*
X87450800Y-112500800D01*
X87450800Y-112500800D01*
G37*
G36*
X107135800Y-112475800D02*
G01*
X106034200Y-112475800D01*
X106034200Y-111374200D01*
X107135800Y-111374200D01*
X107135800Y-112475800D01*
X107135800Y-112475800D01*
G37*
G36*
X111135800Y-112475800D02*
G01*
X110034200Y-112475800D01*
X110034200Y-111374200D01*
X111135800Y-111374200D01*
X111135800Y-112475800D01*
X111135800Y-112475800D01*
G37*
G36*
X90440800Y-112385800D02*
G01*
X89139200Y-112385800D01*
X89139200Y-111384200D01*
X90440800Y-111384200D01*
X90440800Y-112385800D01*
X90440800Y-112385800D01*
G37*
G36*
X93446561Y-110800956D02*
G01*
X93490612Y-110814319D01*
X93531204Y-110836016D01*
X93566784Y-110865216D01*
X93595984Y-110900796D01*
X93617681Y-110941388D01*
X93631044Y-110985439D01*
X93635800Y-111033728D01*
X93635800Y-112085272D01*
X93631044Y-112133561D01*
X93617681Y-112177612D01*
X93595984Y-112218204D01*
X93566784Y-112253784D01*
X93531204Y-112282984D01*
X93490612Y-112304681D01*
X93446561Y-112318044D01*
X93398272Y-112322800D01*
X92021728Y-112322800D01*
X91973439Y-112318044D01*
X91929388Y-112304681D01*
X91888796Y-112282984D01*
X91853216Y-112253784D01*
X91824016Y-112218204D01*
X91802319Y-112177612D01*
X91788956Y-112133561D01*
X91784200Y-112085272D01*
X91784200Y-111033728D01*
X91788956Y-110985439D01*
X91802319Y-110941388D01*
X91824016Y-110900796D01*
X91853216Y-110865216D01*
X91888796Y-110836016D01*
X91929388Y-110814319D01*
X91973439Y-110800956D01*
X92021728Y-110796200D01*
X93398272Y-110796200D01*
X93446561Y-110800956D01*
X93446561Y-110800956D01*
G37*
G36*
X97524800Y-111942800D02*
G01*
X96363200Y-111942800D01*
X96363200Y-111191200D01*
X97524800Y-111191200D01*
X97524800Y-111942800D01*
X97524800Y-111942800D01*
G37*
G36*
X99724800Y-111942800D02*
G01*
X98563200Y-111942800D01*
X98563200Y-111191200D01*
X99724800Y-111191200D01*
X99724800Y-111942800D01*
X99724800Y-111942800D01*
G37*
G36*
X97524800Y-110992800D02*
G01*
X96363200Y-110992800D01*
X96363200Y-110241200D01*
X97524800Y-110241200D01*
X97524800Y-110992800D01*
X97524800Y-110992800D01*
G37*
G36*
X111135800Y-110875800D02*
G01*
X110034200Y-110875800D01*
X110034200Y-109774200D01*
X111135800Y-109774200D01*
X111135800Y-110875800D01*
X111135800Y-110875800D01*
G37*
G36*
X107135800Y-110875800D02*
G01*
X106034200Y-110875800D01*
X106034200Y-109774200D01*
X107135800Y-109774200D01*
X107135800Y-110875800D01*
X107135800Y-110875800D01*
G37*
G36*
X87450800Y-110500800D02*
G01*
X84349200Y-110500800D01*
X84349200Y-108899200D01*
X87450800Y-108899200D01*
X87450800Y-110500800D01*
X87450800Y-110500800D01*
G37*
G36*
X114950800Y-110500800D02*
G01*
X111849200Y-110500800D01*
X111849200Y-108899200D01*
X114950800Y-108899200D01*
X114950800Y-110500800D01*
X114950800Y-110500800D01*
G37*
G36*
X101441561Y-109269646D02*
G01*
X101482574Y-109282088D01*
X101520380Y-109302295D01*
X101553513Y-109329487D01*
X101580705Y-109362620D01*
X101600912Y-109400426D01*
X101613354Y-109441439D01*
X101617800Y-109486582D01*
X101617800Y-110020418D01*
X101613354Y-110065561D01*
X101600912Y-110106574D01*
X101580705Y-110144380D01*
X101553513Y-110177513D01*
X101520380Y-110204705D01*
X101482574Y-110224912D01*
X101441561Y-110237354D01*
X101396418Y-110241800D01*
X100787582Y-110241800D01*
X100742439Y-110237354D01*
X100701426Y-110224912D01*
X100663620Y-110204705D01*
X100630487Y-110177513D01*
X100603295Y-110144380D01*
X100583088Y-110106574D01*
X100570646Y-110065561D01*
X100566200Y-110020418D01*
X100566200Y-109486582D01*
X100570646Y-109441439D01*
X100583088Y-109400426D01*
X100603295Y-109362620D01*
X100630487Y-109329487D01*
X100663620Y-109302295D01*
X100701426Y-109282088D01*
X100742439Y-109269646D01*
X100787582Y-109265200D01*
X101396418Y-109265200D01*
X101441561Y-109269646D01*
X101441561Y-109269646D01*
G37*
G36*
X95345561Y-109269646D02*
G01*
X95386574Y-109282088D01*
X95424380Y-109302295D01*
X95457513Y-109329487D01*
X95484705Y-109362620D01*
X95504912Y-109400426D01*
X95517354Y-109441439D01*
X95521800Y-109486582D01*
X95521800Y-110020418D01*
X95517354Y-110065561D01*
X95504912Y-110106574D01*
X95484705Y-110144380D01*
X95457513Y-110177513D01*
X95424380Y-110204705D01*
X95386574Y-110224912D01*
X95345561Y-110237354D01*
X95300418Y-110241800D01*
X94691582Y-110241800D01*
X94646439Y-110237354D01*
X94605426Y-110224912D01*
X94567620Y-110204705D01*
X94534487Y-110177513D01*
X94507295Y-110144380D01*
X94487088Y-110106574D01*
X94474646Y-110065561D01*
X94470200Y-110020418D01*
X94470200Y-109486582D01*
X94474646Y-109441439D01*
X94487088Y-109400426D01*
X94507295Y-109362620D01*
X94534487Y-109329487D01*
X94567620Y-109302295D01*
X94605426Y-109282088D01*
X94646439Y-109269646D01*
X94691582Y-109265200D01*
X95300418Y-109265200D01*
X95345561Y-109269646D01*
X95345561Y-109269646D01*
G37*
G36*
X99724800Y-110042800D02*
G01*
X98563200Y-110042800D01*
X98563200Y-109291200D01*
X99724800Y-109291200D01*
X99724800Y-110042800D01*
X99724800Y-110042800D01*
G37*
G36*
X97524800Y-110042800D02*
G01*
X96363200Y-110042800D01*
X96363200Y-109291200D01*
X97524800Y-109291200D01*
X97524800Y-110042800D01*
X97524800Y-110042800D01*
G37*
G36*
X93446561Y-107825956D02*
G01*
X93490612Y-107839319D01*
X93531204Y-107861016D01*
X93566784Y-107890216D01*
X93595984Y-107925796D01*
X93617681Y-107966388D01*
X93631044Y-108010439D01*
X93635800Y-108058728D01*
X93635800Y-109110272D01*
X93631044Y-109158561D01*
X93617681Y-109202612D01*
X93595984Y-109243204D01*
X93566784Y-109278784D01*
X93531204Y-109307984D01*
X93490612Y-109329681D01*
X93446561Y-109343044D01*
X93398272Y-109347800D01*
X92021728Y-109347800D01*
X91973439Y-109343044D01*
X91929388Y-109329681D01*
X91888796Y-109307984D01*
X91853216Y-109278784D01*
X91824016Y-109243204D01*
X91802319Y-109202612D01*
X91788956Y-109158561D01*
X91784200Y-109110272D01*
X91784200Y-108058728D01*
X91788956Y-108010439D01*
X91802319Y-107966388D01*
X91824016Y-107925796D01*
X91853216Y-107890216D01*
X91888796Y-107861016D01*
X91929388Y-107839319D01*
X91973439Y-107825956D01*
X92021728Y-107821200D01*
X93398272Y-107821200D01*
X93446561Y-107825956D01*
X93446561Y-107825956D01*
G37*
G36*
X110801561Y-108063646D02*
G01*
X110842574Y-108076088D01*
X110880380Y-108096295D01*
X110913513Y-108123487D01*
X110940705Y-108156620D01*
X110960912Y-108194426D01*
X110973354Y-108235439D01*
X110977800Y-108280582D01*
X110977800Y-108889418D01*
X110973354Y-108934561D01*
X110960912Y-108975574D01*
X110940705Y-109013380D01*
X110913513Y-109046513D01*
X110880380Y-109073705D01*
X110842574Y-109093912D01*
X110801561Y-109106354D01*
X110756418Y-109110800D01*
X110222582Y-109110800D01*
X110177439Y-109106354D01*
X110136426Y-109093912D01*
X110098620Y-109073705D01*
X110065487Y-109046513D01*
X110038295Y-109013380D01*
X110018088Y-108975574D01*
X110005646Y-108934561D01*
X110001200Y-108889418D01*
X110001200Y-108280582D01*
X110005646Y-108235439D01*
X110018088Y-108194426D01*
X110038295Y-108156620D01*
X110065487Y-108123487D01*
X110098620Y-108096295D01*
X110136426Y-108076088D01*
X110177439Y-108063646D01*
X110222582Y-108059200D01*
X110756418Y-108059200D01*
X110801561Y-108063646D01*
X110801561Y-108063646D01*
G37*
G36*
X109226561Y-108063646D02*
G01*
X109267574Y-108076088D01*
X109305380Y-108096295D01*
X109338513Y-108123487D01*
X109365705Y-108156620D01*
X109385912Y-108194426D01*
X109398354Y-108235439D01*
X109402800Y-108280582D01*
X109402800Y-108889418D01*
X109398354Y-108934561D01*
X109385912Y-108975574D01*
X109365705Y-109013380D01*
X109338513Y-109046513D01*
X109305380Y-109073705D01*
X109267574Y-109093912D01*
X109226561Y-109106354D01*
X109181418Y-109110800D01*
X108647582Y-109110800D01*
X108602439Y-109106354D01*
X108561426Y-109093912D01*
X108523620Y-109073705D01*
X108490487Y-109046513D01*
X108463295Y-109013380D01*
X108443088Y-108975574D01*
X108430646Y-108934561D01*
X108426200Y-108889418D01*
X108426200Y-108280582D01*
X108430646Y-108235439D01*
X108443088Y-108194426D01*
X108463295Y-108156620D01*
X108490487Y-108123487D01*
X108523620Y-108096295D01*
X108561426Y-108076088D01*
X108602439Y-108063646D01*
X108647582Y-108059200D01*
X109181418Y-108059200D01*
X109226561Y-108063646D01*
X109226561Y-108063646D01*
G37*
G36*
X107652561Y-108063646D02*
G01*
X107693574Y-108076088D01*
X107731380Y-108096295D01*
X107764513Y-108123487D01*
X107791705Y-108156620D01*
X107811912Y-108194426D01*
X107824354Y-108235439D01*
X107828800Y-108280582D01*
X107828800Y-108889418D01*
X107824354Y-108934561D01*
X107811912Y-108975574D01*
X107791705Y-109013380D01*
X107764513Y-109046513D01*
X107731380Y-109073705D01*
X107693574Y-109093912D01*
X107652561Y-109106354D01*
X107607418Y-109110800D01*
X107073582Y-109110800D01*
X107028439Y-109106354D01*
X106987426Y-109093912D01*
X106949620Y-109073705D01*
X106916487Y-109046513D01*
X106889295Y-109013380D01*
X106869088Y-108975574D01*
X106856646Y-108934561D01*
X106852200Y-108889418D01*
X106852200Y-108280582D01*
X106856646Y-108235439D01*
X106869088Y-108194426D01*
X106889295Y-108156620D01*
X106916487Y-108123487D01*
X106949620Y-108096295D01*
X106987426Y-108076088D01*
X107028439Y-108063646D01*
X107073582Y-108059200D01*
X107607418Y-108059200D01*
X107652561Y-108063646D01*
X107652561Y-108063646D01*
G37*
G36*
X106077561Y-108063646D02*
G01*
X106118574Y-108076088D01*
X106156380Y-108096295D01*
X106189513Y-108123487D01*
X106216705Y-108156620D01*
X106236912Y-108194426D01*
X106249354Y-108235439D01*
X106253800Y-108280582D01*
X106253800Y-108889418D01*
X106249354Y-108934561D01*
X106236912Y-108975574D01*
X106216705Y-109013380D01*
X106189513Y-109046513D01*
X106156380Y-109073705D01*
X106118574Y-109093912D01*
X106077561Y-109106354D01*
X106032418Y-109110800D01*
X105498582Y-109110800D01*
X105453439Y-109106354D01*
X105412426Y-109093912D01*
X105374620Y-109073705D01*
X105341487Y-109046513D01*
X105314295Y-109013380D01*
X105294088Y-108975574D01*
X105281646Y-108934561D01*
X105277200Y-108889418D01*
X105277200Y-108280582D01*
X105281646Y-108235439D01*
X105294088Y-108194426D01*
X105314295Y-108156620D01*
X105341487Y-108123487D01*
X105374620Y-108096295D01*
X105412426Y-108076088D01*
X105453439Y-108063646D01*
X105498582Y-108059200D01*
X106032418Y-108059200D01*
X106077561Y-108063646D01*
X106077561Y-108063646D01*
G37*
G36*
X90440800Y-109085800D02*
G01*
X89139200Y-109085800D01*
X89139200Y-108084200D01*
X90440800Y-108084200D01*
X90440800Y-109085800D01*
X90440800Y-109085800D01*
G37*
G36*
X95345561Y-107694646D02*
G01*
X95386574Y-107707088D01*
X95424380Y-107727295D01*
X95457513Y-107754487D01*
X95484705Y-107787620D01*
X95504912Y-107825426D01*
X95517354Y-107866439D01*
X95521800Y-107911582D01*
X95521800Y-108445418D01*
X95517354Y-108490561D01*
X95504912Y-108531574D01*
X95484705Y-108569380D01*
X95457513Y-108602513D01*
X95424380Y-108629705D01*
X95386574Y-108649912D01*
X95345561Y-108662354D01*
X95300418Y-108666800D01*
X94691582Y-108666800D01*
X94646439Y-108662354D01*
X94605426Y-108649912D01*
X94567620Y-108629705D01*
X94534487Y-108602513D01*
X94507295Y-108569380D01*
X94487088Y-108531574D01*
X94474646Y-108490561D01*
X94470200Y-108445418D01*
X94470200Y-107911582D01*
X94474646Y-107866439D01*
X94487088Y-107825426D01*
X94507295Y-107787620D01*
X94534487Y-107754487D01*
X94567620Y-107727295D01*
X94605426Y-107707088D01*
X94646439Y-107694646D01*
X94691582Y-107690200D01*
X95300418Y-107690200D01*
X95345561Y-107694646D01*
X95345561Y-107694646D01*
G37*
G36*
X101441561Y-107694646D02*
G01*
X101482574Y-107707088D01*
X101520380Y-107727295D01*
X101553513Y-107754487D01*
X101580705Y-107787620D01*
X101600912Y-107825426D01*
X101613354Y-107866439D01*
X101617800Y-107911582D01*
X101617800Y-108445418D01*
X101613354Y-108490561D01*
X101600912Y-108531574D01*
X101580705Y-108569380D01*
X101553513Y-108602513D01*
X101520380Y-108629705D01*
X101482574Y-108649912D01*
X101441561Y-108662354D01*
X101396418Y-108666800D01*
X100787582Y-108666800D01*
X100742439Y-108662354D01*
X100701426Y-108649912D01*
X100663620Y-108629705D01*
X100630487Y-108602513D01*
X100603295Y-108569380D01*
X100583088Y-108531574D01*
X100570646Y-108490561D01*
X100566200Y-108445418D01*
X100566200Y-107911582D01*
X100570646Y-107866439D01*
X100583088Y-107825426D01*
X100603295Y-107787620D01*
X100630487Y-107754487D01*
X100663620Y-107727295D01*
X100701426Y-107707088D01*
X100742439Y-107694646D01*
X100787582Y-107690200D01*
X101396418Y-107690200D01*
X101441561Y-107694646D01*
X101441561Y-107694646D01*
G37*
G36*
X114950800Y-108500800D02*
G01*
X111849200Y-108500800D01*
X111849200Y-106899200D01*
X114950800Y-106899200D01*
X114950800Y-108500800D01*
X114950800Y-108500800D01*
G37*
G36*
X87450800Y-108500800D02*
G01*
X84349200Y-108500800D01*
X84349200Y-106899200D01*
X87450800Y-106899200D01*
X87450800Y-108500800D01*
X87450800Y-108500800D01*
G37*
G36*
X110827561Y-106285646D02*
G01*
X110868574Y-106298088D01*
X110906380Y-106318295D01*
X110939513Y-106345487D01*
X110966705Y-106378620D01*
X110986912Y-106416426D01*
X110999354Y-106457439D01*
X111003800Y-106502582D01*
X111003800Y-107111418D01*
X110999354Y-107156561D01*
X110986912Y-107197574D01*
X110966705Y-107235380D01*
X110939513Y-107268513D01*
X110906380Y-107295705D01*
X110868574Y-107315912D01*
X110827561Y-107328354D01*
X110782418Y-107332800D01*
X110248582Y-107332800D01*
X110203439Y-107328354D01*
X110162426Y-107315912D01*
X110124620Y-107295705D01*
X110091487Y-107268513D01*
X110064295Y-107235380D01*
X110044088Y-107197574D01*
X110031646Y-107156561D01*
X110027200Y-107111418D01*
X110027200Y-106502582D01*
X110031646Y-106457439D01*
X110044088Y-106416426D01*
X110064295Y-106378620D01*
X110091487Y-106345487D01*
X110124620Y-106318295D01*
X110162426Y-106298088D01*
X110203439Y-106285646D01*
X110248582Y-106281200D01*
X110782418Y-106281200D01*
X110827561Y-106285646D01*
X110827561Y-106285646D01*
G37*
G36*
X109252561Y-106285646D02*
G01*
X109293574Y-106298088D01*
X109331380Y-106318295D01*
X109364513Y-106345487D01*
X109391705Y-106378620D01*
X109411912Y-106416426D01*
X109424354Y-106457439D01*
X109428800Y-106502582D01*
X109428800Y-107111418D01*
X109424354Y-107156561D01*
X109411912Y-107197574D01*
X109391705Y-107235380D01*
X109364513Y-107268513D01*
X109331380Y-107295705D01*
X109293574Y-107315912D01*
X109252561Y-107328354D01*
X109207418Y-107332800D01*
X108673582Y-107332800D01*
X108628439Y-107328354D01*
X108587426Y-107315912D01*
X108549620Y-107295705D01*
X108516487Y-107268513D01*
X108489295Y-107235380D01*
X108469088Y-107197574D01*
X108456646Y-107156561D01*
X108452200Y-107111418D01*
X108452200Y-106502582D01*
X108456646Y-106457439D01*
X108469088Y-106416426D01*
X108489295Y-106378620D01*
X108516487Y-106345487D01*
X108549620Y-106318295D01*
X108587426Y-106298088D01*
X108628439Y-106285646D01*
X108673582Y-106281200D01*
X109207418Y-106281200D01*
X109252561Y-106285646D01*
X109252561Y-106285646D01*
G37*
G36*
X95282561Y-106031646D02*
G01*
X95323574Y-106044088D01*
X95361380Y-106064295D01*
X95394513Y-106091487D01*
X95421705Y-106124620D01*
X95441912Y-106162426D01*
X95454354Y-106203439D01*
X95458800Y-106248582D01*
X95458800Y-106857418D01*
X95454354Y-106902561D01*
X95441912Y-106943574D01*
X95421705Y-106981380D01*
X95394513Y-107014513D01*
X95361380Y-107041705D01*
X95323574Y-107061912D01*
X95282561Y-107074354D01*
X95237418Y-107078800D01*
X94703582Y-107078800D01*
X94658439Y-107074354D01*
X94617426Y-107061912D01*
X94579620Y-107041705D01*
X94546487Y-107014513D01*
X94519295Y-106981380D01*
X94499088Y-106943574D01*
X94486646Y-106902561D01*
X94482200Y-106857418D01*
X94482200Y-106248582D01*
X94486646Y-106203439D01*
X94499088Y-106162426D01*
X94519295Y-106124620D01*
X94546487Y-106091487D01*
X94579620Y-106064295D01*
X94617426Y-106044088D01*
X94658439Y-106031646D01*
X94703582Y-106027200D01*
X95237418Y-106027200D01*
X95282561Y-106031646D01*
X95282561Y-106031646D01*
G37*
G36*
X104807561Y-106031646D02*
G01*
X104848574Y-106044088D01*
X104886380Y-106064295D01*
X104919513Y-106091487D01*
X104946705Y-106124620D01*
X104966912Y-106162426D01*
X104979354Y-106203439D01*
X104983800Y-106248582D01*
X104983800Y-106857418D01*
X104979354Y-106902561D01*
X104966912Y-106943574D01*
X104946705Y-106981380D01*
X104919513Y-107014513D01*
X104886380Y-107041705D01*
X104848574Y-107061912D01*
X104807561Y-107074354D01*
X104762418Y-107078800D01*
X104228582Y-107078800D01*
X104183439Y-107074354D01*
X104142426Y-107061912D01*
X104104620Y-107041705D01*
X104071487Y-107014513D01*
X104044295Y-106981380D01*
X104024088Y-106943574D01*
X104011646Y-106902561D01*
X104007200Y-106857418D01*
X104007200Y-106248582D01*
X104011646Y-106203439D01*
X104024088Y-106162426D01*
X104044295Y-106124620D01*
X104071487Y-106091487D01*
X104104620Y-106064295D01*
X104142426Y-106044088D01*
X104183439Y-106031646D01*
X104228582Y-106027200D01*
X104762418Y-106027200D01*
X104807561Y-106031646D01*
X104807561Y-106031646D01*
G37*
G36*
X106382561Y-106031646D02*
G01*
X106423574Y-106044088D01*
X106461380Y-106064295D01*
X106494513Y-106091487D01*
X106521705Y-106124620D01*
X106541912Y-106162426D01*
X106554354Y-106203439D01*
X106558800Y-106248582D01*
X106558800Y-106857418D01*
X106554354Y-106902561D01*
X106541912Y-106943574D01*
X106521705Y-106981380D01*
X106494513Y-107014513D01*
X106461380Y-107041705D01*
X106423574Y-107061912D01*
X106382561Y-107074354D01*
X106337418Y-107078800D01*
X105803582Y-107078800D01*
X105758439Y-107074354D01*
X105717426Y-107061912D01*
X105679620Y-107041705D01*
X105646487Y-107014513D01*
X105619295Y-106981380D01*
X105599088Y-106943574D01*
X105586646Y-106902561D01*
X105582200Y-106857418D01*
X105582200Y-106248582D01*
X105586646Y-106203439D01*
X105599088Y-106162426D01*
X105619295Y-106124620D01*
X105646487Y-106091487D01*
X105679620Y-106064295D01*
X105717426Y-106044088D01*
X105758439Y-106031646D01*
X105803582Y-106027200D01*
X106337418Y-106027200D01*
X106382561Y-106031646D01*
X106382561Y-106031646D01*
G37*
G36*
X96857561Y-106031646D02*
G01*
X96898574Y-106044088D01*
X96936380Y-106064295D01*
X96969513Y-106091487D01*
X96996705Y-106124620D01*
X97016912Y-106162426D01*
X97029354Y-106203439D01*
X97033800Y-106248582D01*
X97033800Y-106857418D01*
X97029354Y-106902561D01*
X97016912Y-106943574D01*
X96996705Y-106981380D01*
X96969513Y-107014513D01*
X96936380Y-107041705D01*
X96898574Y-107061912D01*
X96857561Y-107074354D01*
X96812418Y-107078800D01*
X96278582Y-107078800D01*
X96233439Y-107074354D01*
X96192426Y-107061912D01*
X96154620Y-107041705D01*
X96121487Y-107014513D01*
X96094295Y-106981380D01*
X96074088Y-106943574D01*
X96061646Y-106902561D01*
X96057200Y-106857418D01*
X96057200Y-106248582D01*
X96061646Y-106203439D01*
X96074088Y-106162426D01*
X96094295Y-106124620D01*
X96121487Y-106091487D01*
X96154620Y-106064295D01*
X96192426Y-106044088D01*
X96233439Y-106031646D01*
X96278582Y-106027200D01*
X96812418Y-106027200D01*
X96857561Y-106031646D01*
X96857561Y-106031646D01*
G37*
G36*
X89313561Y-105523646D02*
G01*
X89354574Y-105536088D01*
X89392380Y-105556295D01*
X89425513Y-105583487D01*
X89452705Y-105616620D01*
X89472912Y-105654426D01*
X89485354Y-105695439D01*
X89489800Y-105740582D01*
X89489800Y-106349418D01*
X89485354Y-106394561D01*
X89472912Y-106435574D01*
X89452705Y-106473380D01*
X89425513Y-106506513D01*
X89392380Y-106533705D01*
X89354574Y-106553912D01*
X89313561Y-106566354D01*
X89268418Y-106570800D01*
X88734582Y-106570800D01*
X88689439Y-106566354D01*
X88648426Y-106553912D01*
X88610620Y-106533705D01*
X88577487Y-106506513D01*
X88550295Y-106473380D01*
X88530088Y-106435574D01*
X88517646Y-106394561D01*
X88513200Y-106349418D01*
X88513200Y-105740582D01*
X88517646Y-105695439D01*
X88530088Y-105654426D01*
X88550295Y-105616620D01*
X88577487Y-105583487D01*
X88610620Y-105556295D01*
X88648426Y-105536088D01*
X88689439Y-105523646D01*
X88734582Y-105519200D01*
X89268418Y-105519200D01*
X89313561Y-105523646D01*
X89313561Y-105523646D01*
G37*
G36*
X90888561Y-105523646D02*
G01*
X90929574Y-105536088D01*
X90967380Y-105556295D01*
X91000513Y-105583487D01*
X91027705Y-105616620D01*
X91047912Y-105654426D01*
X91060354Y-105695439D01*
X91064800Y-105740582D01*
X91064800Y-106349418D01*
X91060354Y-106394561D01*
X91047912Y-106435574D01*
X91027705Y-106473380D01*
X91000513Y-106506513D01*
X90967380Y-106533705D01*
X90929574Y-106553912D01*
X90888561Y-106566354D01*
X90843418Y-106570800D01*
X90309582Y-106570800D01*
X90264439Y-106566354D01*
X90223426Y-106553912D01*
X90185620Y-106533705D01*
X90152487Y-106506513D01*
X90125295Y-106473380D01*
X90105088Y-106435574D01*
X90092646Y-106394561D01*
X90088200Y-106349418D01*
X90088200Y-105740582D01*
X90092646Y-105695439D01*
X90105088Y-105654426D01*
X90125295Y-105616620D01*
X90152487Y-105583487D01*
X90185620Y-105556295D01*
X90223426Y-105536088D01*
X90264439Y-105523646D01*
X90309582Y-105519200D01*
X90843418Y-105519200D01*
X90888561Y-105523646D01*
X90888561Y-105523646D01*
G37*
G36*
X114950800Y-106500800D02*
G01*
X111849200Y-106500800D01*
X111849200Y-104899200D01*
X114950800Y-104899200D01*
X114950800Y-106500800D01*
X114950800Y-106500800D01*
G37*
G36*
X87450800Y-106500800D02*
G01*
X84349200Y-106500800D01*
X84349200Y-104899200D01*
X87450800Y-104899200D01*
X87450800Y-106500800D01*
X87450800Y-106500800D01*
G37*
G36*
X106585561Y-104380646D02*
G01*
X106626574Y-104393088D01*
X106664380Y-104413295D01*
X106697513Y-104440487D01*
X106724705Y-104473620D01*
X106744912Y-104511426D01*
X106757354Y-104552439D01*
X106761800Y-104597582D01*
X106761800Y-105206418D01*
X106757354Y-105251561D01*
X106744912Y-105292574D01*
X106724705Y-105330380D01*
X106697513Y-105363513D01*
X106664380Y-105390705D01*
X106626574Y-105410912D01*
X106585561Y-105423354D01*
X106540418Y-105427800D01*
X106006582Y-105427800D01*
X105961439Y-105423354D01*
X105920426Y-105410912D01*
X105882620Y-105390705D01*
X105849487Y-105363513D01*
X105822295Y-105330380D01*
X105802088Y-105292574D01*
X105789646Y-105251561D01*
X105785200Y-105206418D01*
X105785200Y-104597582D01*
X105789646Y-104552439D01*
X105802088Y-104511426D01*
X105822295Y-104473620D01*
X105849487Y-104440487D01*
X105882620Y-104413295D01*
X105920426Y-104393088D01*
X105961439Y-104380646D01*
X106006582Y-104376200D01*
X106540418Y-104376200D01*
X106585561Y-104380646D01*
X106585561Y-104380646D01*
G37*
G36*
X108160561Y-104380646D02*
G01*
X108201574Y-104393088D01*
X108239380Y-104413295D01*
X108272513Y-104440487D01*
X108299705Y-104473620D01*
X108319912Y-104511426D01*
X108332354Y-104552439D01*
X108336800Y-104597582D01*
X108336800Y-105206418D01*
X108332354Y-105251561D01*
X108319912Y-105292574D01*
X108299705Y-105330380D01*
X108272513Y-105363513D01*
X108239380Y-105390705D01*
X108201574Y-105410912D01*
X108160561Y-105423354D01*
X108115418Y-105427800D01*
X107581582Y-105427800D01*
X107536439Y-105423354D01*
X107495426Y-105410912D01*
X107457620Y-105390705D01*
X107424487Y-105363513D01*
X107397295Y-105330380D01*
X107377088Y-105292574D01*
X107364646Y-105251561D01*
X107360200Y-105206418D01*
X107360200Y-104597582D01*
X107364646Y-104552439D01*
X107377088Y-104511426D01*
X107397295Y-104473620D01*
X107424487Y-104440487D01*
X107457620Y-104413295D01*
X107495426Y-104393088D01*
X107536439Y-104380646D01*
X107581582Y-104376200D01*
X108115418Y-104376200D01*
X108160561Y-104380646D01*
X108160561Y-104380646D01*
G37*
G36*
X104239060Y-105177590D02*
G01*
X103919020Y-105177590D01*
X103919020Y-104377490D01*
X104239060Y-104377490D01*
X104239060Y-105177590D01*
X104239060Y-105177590D01*
G37*
G36*
X103738680Y-105177590D02*
G01*
X103418640Y-105177590D01*
X103418640Y-104377490D01*
X103738680Y-104377490D01*
X103738680Y-105177590D01*
X103738680Y-105177590D01*
G37*
G36*
X103238300Y-105177590D02*
G01*
X102918260Y-105177590D01*
X102918260Y-104377490D01*
X103238300Y-104377490D01*
X103238300Y-105177590D01*
X103238300Y-105177590D01*
G37*
G36*
X102737920Y-105177590D02*
G01*
X102417880Y-105177590D01*
X102417880Y-104377490D01*
X102737920Y-104377490D01*
X102737920Y-105177590D01*
X102737920Y-105177590D01*
G37*
G36*
X96740980Y-105177590D02*
G01*
X96420940Y-105177590D01*
X96420940Y-104377490D01*
X96740980Y-104377490D01*
X96740980Y-105177590D01*
X96740980Y-105177590D01*
G37*
G36*
X97241360Y-105177590D02*
G01*
X96921320Y-105177590D01*
X96921320Y-104377490D01*
X97241360Y-104377490D01*
X97241360Y-105177590D01*
X97241360Y-105177590D01*
G37*
G36*
X97741740Y-105177590D02*
G01*
X97421700Y-105177590D01*
X97421700Y-104377490D01*
X97741740Y-104377490D01*
X97741740Y-105177590D01*
X97741740Y-105177590D01*
G37*
G36*
X98242120Y-105177590D02*
G01*
X97922080Y-105177590D01*
X97922080Y-104377490D01*
X98242120Y-104377490D01*
X98242120Y-105177590D01*
X98242120Y-105177590D01*
G37*
G36*
X98742500Y-105177590D02*
G01*
X98422460Y-105177590D01*
X98422460Y-104377490D01*
X98742500Y-104377490D01*
X98742500Y-105177590D01*
X98742500Y-105177590D01*
G37*
G36*
X99240340Y-105177590D02*
G01*
X98920300Y-105177590D01*
X98920300Y-104377490D01*
X99240340Y-104377490D01*
X99240340Y-105177590D01*
X99240340Y-105177590D01*
G37*
G36*
X99740720Y-105177590D02*
G01*
X99420680Y-105177590D01*
X99420680Y-104377490D01*
X99740720Y-104377490D01*
X99740720Y-105177590D01*
X99740720Y-105177590D01*
G37*
G36*
X100241100Y-105177590D02*
G01*
X99921060Y-105177590D01*
X99921060Y-104377490D01*
X100241100Y-104377490D01*
X100241100Y-105177590D01*
X100241100Y-105177590D01*
G37*
G36*
X102237540Y-105177590D02*
G01*
X101917500Y-105177590D01*
X101917500Y-104377490D01*
X102237540Y-104377490D01*
X102237540Y-105177590D01*
X102237540Y-105177590D01*
G37*
G36*
X101739700Y-105177590D02*
G01*
X101419660Y-105177590D01*
X101419660Y-104377490D01*
X101739700Y-104377490D01*
X101739700Y-105177590D01*
X101739700Y-105177590D01*
G37*
G36*
X101239320Y-105177590D02*
G01*
X100919280Y-105177590D01*
X100919280Y-104377490D01*
X101239320Y-104377490D01*
X101239320Y-105177590D01*
X101239320Y-105177590D01*
G37*
G36*
X100738940Y-105177590D02*
G01*
X100418900Y-105177590D01*
X100418900Y-104377490D01*
X100738940Y-104377490D01*
X100738940Y-105177590D01*
X100738940Y-105177590D01*
G37*
G36*
X91790520Y-104795320D02*
G01*
X91089480Y-104795320D01*
X91089480Y-102494080D01*
X91790520Y-102494080D01*
X91790520Y-104795320D01*
X91790520Y-104795320D01*
G37*
G36*
X89250520Y-104795320D02*
G01*
X88549480Y-104795320D01*
X88549480Y-102494080D01*
X89250520Y-102494080D01*
X89250520Y-104795320D01*
X89250520Y-104795320D01*
G37*
G36*
X93060520Y-104795320D02*
G01*
X92359480Y-104795320D01*
X92359480Y-102494080D01*
X93060520Y-102494080D01*
X93060520Y-104795320D01*
X93060520Y-104795320D01*
G37*
G36*
X90520520Y-104795320D02*
G01*
X89819480Y-104795320D01*
X89819480Y-102494080D01*
X90520520Y-102494080D01*
X90520520Y-104795320D01*
X90520520Y-104795320D01*
G37*
G36*
X114950800Y-104500800D02*
G01*
X111849200Y-104500800D01*
X111849200Y-102899200D01*
X114950800Y-102899200D01*
X114950800Y-104500800D01*
X114950800Y-104500800D01*
G37*
G36*
X87450800Y-104500800D02*
G01*
X84349200Y-104500800D01*
X84349200Y-102899200D01*
X87450800Y-102899200D01*
X87450800Y-104500800D01*
X87450800Y-104500800D01*
G37*
G36*
X96282510Y-104239060D02*
G01*
X95482410Y-104239060D01*
X95482410Y-103919020D01*
X96282510Y-103919020D01*
X96282510Y-104239060D01*
X96282510Y-104239060D01*
G37*
G36*
X105177590Y-104239060D02*
G01*
X104377490Y-104239060D01*
X104377490Y-103919020D01*
X105177590Y-103919020D01*
X105177590Y-104239060D01*
X105177590Y-104239060D01*
G37*
G36*
X106585561Y-102729646D02*
G01*
X106626574Y-102742088D01*
X106664380Y-102762295D01*
X106697513Y-102789487D01*
X106724705Y-102822620D01*
X106744912Y-102860426D01*
X106757354Y-102901439D01*
X106761800Y-102946582D01*
X106761800Y-103555418D01*
X106757354Y-103600561D01*
X106744912Y-103641574D01*
X106724705Y-103679380D01*
X106697513Y-103712513D01*
X106664380Y-103739705D01*
X106626574Y-103759912D01*
X106585561Y-103772354D01*
X106540418Y-103776800D01*
X106006582Y-103776800D01*
X105961439Y-103772354D01*
X105920426Y-103759912D01*
X105882620Y-103739705D01*
X105849487Y-103712513D01*
X105822295Y-103679380D01*
X105802088Y-103641574D01*
X105789646Y-103600561D01*
X105785200Y-103555418D01*
X105785200Y-102946582D01*
X105789646Y-102901439D01*
X105802088Y-102860426D01*
X105822295Y-102822620D01*
X105849487Y-102789487D01*
X105882620Y-102762295D01*
X105920426Y-102742088D01*
X105961439Y-102729646D01*
X106006582Y-102725200D01*
X106540418Y-102725200D01*
X106585561Y-102729646D01*
X106585561Y-102729646D01*
G37*
G36*
X108160561Y-102729646D02*
G01*
X108201574Y-102742088D01*
X108239380Y-102762295D01*
X108272513Y-102789487D01*
X108299705Y-102822620D01*
X108319912Y-102860426D01*
X108332354Y-102901439D01*
X108336800Y-102946582D01*
X108336800Y-103555418D01*
X108332354Y-103600561D01*
X108319912Y-103641574D01*
X108299705Y-103679380D01*
X108272513Y-103712513D01*
X108239380Y-103739705D01*
X108201574Y-103759912D01*
X108160561Y-103772354D01*
X108115418Y-103776800D01*
X107581582Y-103776800D01*
X107536439Y-103772354D01*
X107495426Y-103759912D01*
X107457620Y-103739705D01*
X107424487Y-103712513D01*
X107397295Y-103679380D01*
X107377088Y-103641574D01*
X107364646Y-103600561D01*
X107360200Y-103555418D01*
X107360200Y-102946582D01*
X107364646Y-102901439D01*
X107377088Y-102860426D01*
X107397295Y-102822620D01*
X107424487Y-102789487D01*
X107457620Y-102762295D01*
X107495426Y-102742088D01*
X107536439Y-102729646D01*
X107581582Y-102725200D01*
X108115418Y-102725200D01*
X108160561Y-102729646D01*
X108160561Y-102729646D01*
G37*
G36*
X96282510Y-103738680D02*
G01*
X95482410Y-103738680D01*
X95482410Y-103418640D01*
X96282510Y-103418640D01*
X96282510Y-103738680D01*
X96282510Y-103738680D01*
G37*
G36*
X105177590Y-103738680D02*
G01*
X104377490Y-103738680D01*
X104377490Y-103418640D01*
X105177590Y-103418640D01*
X105177590Y-103738680D01*
X105177590Y-103738680D01*
G37*
G36*
X96282510Y-103238300D02*
G01*
X95482410Y-103238300D01*
X95482410Y-102918260D01*
X96282510Y-102918260D01*
X96282510Y-103238300D01*
X96282510Y-103238300D01*
G37*
G36*
X105177590Y-103238300D02*
G01*
X104377490Y-103238300D01*
X104377490Y-102918260D01*
X105177590Y-102918260D01*
X105177590Y-103238300D01*
X105177590Y-103238300D01*
G37*
G36*
X111259620Y-103139020D02*
G01*
X108958380Y-103139020D01*
X108958380Y-102021420D01*
X111259620Y-102021420D01*
X111259620Y-103139020D01*
X111259620Y-103139020D01*
G37*
G36*
X105177590Y-102737920D02*
G01*
X104377490Y-102737920D01*
X104377490Y-102417880D01*
X105177590Y-102417880D01*
X105177590Y-102737920D01*
X105177590Y-102737920D01*
G37*
G36*
X96282510Y-102737920D02*
G01*
X95482410Y-102737920D01*
X95482410Y-102417880D01*
X96282510Y-102417880D01*
X96282510Y-102737920D01*
X96282510Y-102737920D01*
G37*
G36*
X102730300Y-102730300D02*
G01*
X97929700Y-102730300D01*
X97929700Y-97929700D01*
X102730300Y-97929700D01*
X102730300Y-102730300D01*
X102730300Y-102730300D01*
G37*
G36*
X114950800Y-102500800D02*
G01*
X111849200Y-102500800D01*
X111849200Y-100899200D01*
X114950800Y-100899200D01*
X114950800Y-102500800D01*
X114950800Y-102500800D01*
G37*
G36*
X87450800Y-102500800D02*
G01*
X84349200Y-102500800D01*
X84349200Y-100899200D01*
X87450800Y-100899200D01*
X87450800Y-102500800D01*
X87450800Y-102500800D01*
G37*
G36*
X105177590Y-102237540D02*
G01*
X104377490Y-102237540D01*
X104377490Y-101917500D01*
X105177590Y-101917500D01*
X105177590Y-102237540D01*
X105177590Y-102237540D01*
G37*
G36*
X96282510Y-102237540D02*
G01*
X95482410Y-102237540D01*
X95482410Y-101917500D01*
X96282510Y-101917500D01*
X96282510Y-102237540D01*
X96282510Y-102237540D01*
G37*
G36*
X108160561Y-100951646D02*
G01*
X108201574Y-100964088D01*
X108239380Y-100984295D01*
X108272513Y-101011487D01*
X108299705Y-101044620D01*
X108319912Y-101082426D01*
X108332354Y-101123439D01*
X108336800Y-101168582D01*
X108336800Y-101777418D01*
X108332354Y-101822561D01*
X108319912Y-101863574D01*
X108299705Y-101901380D01*
X108272513Y-101934513D01*
X108239380Y-101961705D01*
X108201574Y-101981912D01*
X108160561Y-101994354D01*
X108115418Y-101998800D01*
X107581582Y-101998800D01*
X107536439Y-101994354D01*
X107495426Y-101981912D01*
X107457620Y-101961705D01*
X107424487Y-101934513D01*
X107397295Y-101901380D01*
X107377088Y-101863574D01*
X107364646Y-101822561D01*
X107360200Y-101777418D01*
X107360200Y-101168582D01*
X107364646Y-101123439D01*
X107377088Y-101082426D01*
X107397295Y-101044620D01*
X107424487Y-101011487D01*
X107457620Y-100984295D01*
X107495426Y-100964088D01*
X107536439Y-100951646D01*
X107581582Y-100947200D01*
X108115418Y-100947200D01*
X108160561Y-100951646D01*
X108160561Y-100951646D01*
G37*
G36*
X106585561Y-100951646D02*
G01*
X106626574Y-100964088D01*
X106664380Y-100984295D01*
X106697513Y-101011487D01*
X106724705Y-101044620D01*
X106744912Y-101082426D01*
X106757354Y-101123439D01*
X106761800Y-101168582D01*
X106761800Y-101777418D01*
X106757354Y-101822561D01*
X106744912Y-101863574D01*
X106724705Y-101901380D01*
X106697513Y-101934513D01*
X106664380Y-101961705D01*
X106626574Y-101981912D01*
X106585561Y-101994354D01*
X106540418Y-101998800D01*
X106006582Y-101998800D01*
X105961439Y-101994354D01*
X105920426Y-101981912D01*
X105882620Y-101961705D01*
X105849487Y-101934513D01*
X105822295Y-101901380D01*
X105802088Y-101863574D01*
X105789646Y-101822561D01*
X105785200Y-101777418D01*
X105785200Y-101168582D01*
X105789646Y-101123439D01*
X105802088Y-101082426D01*
X105822295Y-101044620D01*
X105849487Y-101011487D01*
X105882620Y-100984295D01*
X105920426Y-100964088D01*
X105961439Y-100951646D01*
X106006582Y-100947200D01*
X106540418Y-100947200D01*
X106585561Y-100951646D01*
X106585561Y-100951646D01*
G37*
G36*
X105177590Y-101739700D02*
G01*
X104377490Y-101739700D01*
X104377490Y-101419660D01*
X105177590Y-101419660D01*
X105177590Y-101739700D01*
X105177590Y-101739700D01*
G37*
G36*
X96282510Y-101739700D02*
G01*
X95482410Y-101739700D01*
X95482410Y-101419660D01*
X96282510Y-101419660D01*
X96282510Y-101739700D01*
X96282510Y-101739700D01*
G37*
G36*
X105177590Y-101239320D02*
G01*
X104377490Y-101239320D01*
X104377490Y-100919280D01*
X105177590Y-100919280D01*
X105177590Y-101239320D01*
X105177590Y-101239320D01*
G37*
G36*
X96282510Y-101239320D02*
G01*
X95482410Y-101239320D01*
X95482410Y-100919280D01*
X96282510Y-100919280D01*
X96282510Y-101239320D01*
X96282510Y-101239320D01*
G37*
G36*
X111259620Y-100888580D02*
G01*
X108958380Y-100888580D01*
X108958380Y-99770980D01*
X111259620Y-99770980D01*
X111259620Y-100888580D01*
X111259620Y-100888580D01*
G37*
G36*
X105177590Y-100738940D02*
G01*
X104377490Y-100738940D01*
X104377490Y-100418900D01*
X105177590Y-100418900D01*
X105177590Y-100738940D01*
X105177590Y-100738940D01*
G37*
G36*
X96282510Y-100738940D02*
G01*
X95482410Y-100738940D01*
X95482410Y-100418900D01*
X96282510Y-100418900D01*
X96282510Y-100738940D01*
X96282510Y-100738940D01*
G37*
G36*
X114950800Y-100500800D02*
G01*
X111849200Y-100500800D01*
X111849200Y-98899200D01*
X114950800Y-98899200D01*
X114950800Y-100500800D01*
X114950800Y-100500800D01*
G37*
G36*
X87450800Y-100500800D02*
G01*
X84349200Y-100500800D01*
X84349200Y-98899200D01*
X87450800Y-98899200D01*
X87450800Y-100500800D01*
X87450800Y-100500800D01*
G37*
G36*
X105177590Y-100241100D02*
G01*
X104377490Y-100241100D01*
X104377490Y-99921060D01*
X105177590Y-99921060D01*
X105177590Y-100241100D01*
X105177590Y-100241100D01*
G37*
G36*
X96282510Y-100241100D02*
G01*
X95482410Y-100241100D01*
X95482410Y-99921060D01*
X96282510Y-99921060D01*
X96282510Y-100241100D01*
X96282510Y-100241100D01*
G37*
G36*
X108160561Y-99173646D02*
G01*
X108201574Y-99186088D01*
X108239380Y-99206295D01*
X108272513Y-99233487D01*
X108299705Y-99266620D01*
X108319912Y-99304426D01*
X108332354Y-99345439D01*
X108336800Y-99390582D01*
X108336800Y-99999418D01*
X108332354Y-100044561D01*
X108319912Y-100085574D01*
X108299705Y-100123380D01*
X108272513Y-100156513D01*
X108239380Y-100183705D01*
X108201574Y-100203912D01*
X108160561Y-100216354D01*
X108115418Y-100220800D01*
X107581582Y-100220800D01*
X107536439Y-100216354D01*
X107495426Y-100203912D01*
X107457620Y-100183705D01*
X107424487Y-100156513D01*
X107397295Y-100123380D01*
X107377088Y-100085574D01*
X107364646Y-100044561D01*
X107360200Y-99999418D01*
X107360200Y-99390582D01*
X107364646Y-99345439D01*
X107377088Y-99304426D01*
X107397295Y-99266620D01*
X107424487Y-99233487D01*
X107457620Y-99206295D01*
X107495426Y-99186088D01*
X107536439Y-99173646D01*
X107581582Y-99169200D01*
X108115418Y-99169200D01*
X108160561Y-99173646D01*
X108160561Y-99173646D01*
G37*
G36*
X106585561Y-99173646D02*
G01*
X106626574Y-99186088D01*
X106664380Y-99206295D01*
X106697513Y-99233487D01*
X106724705Y-99266620D01*
X106744912Y-99304426D01*
X106757354Y-99345439D01*
X106761800Y-99390582D01*
X106761800Y-99999418D01*
X106757354Y-100044561D01*
X106744912Y-100085574D01*
X106724705Y-100123380D01*
X106697513Y-100156513D01*
X106664380Y-100183705D01*
X106626574Y-100203912D01*
X106585561Y-100216354D01*
X106540418Y-100220800D01*
X106006582Y-100220800D01*
X105961439Y-100216354D01*
X105920426Y-100203912D01*
X105882620Y-100183705D01*
X105849487Y-100156513D01*
X105822295Y-100123380D01*
X105802088Y-100085574D01*
X105789646Y-100044561D01*
X105785200Y-99999418D01*
X105785200Y-99390582D01*
X105789646Y-99345439D01*
X105802088Y-99304426D01*
X105822295Y-99266620D01*
X105849487Y-99233487D01*
X105882620Y-99206295D01*
X105920426Y-99186088D01*
X105961439Y-99173646D01*
X106006582Y-99169200D01*
X106540418Y-99169200D01*
X106585561Y-99173646D01*
X106585561Y-99173646D01*
G37*
G36*
X105177590Y-99740720D02*
G01*
X104377490Y-99740720D01*
X104377490Y-99420680D01*
X105177590Y-99420680D01*
X105177590Y-99740720D01*
X105177590Y-99740720D01*
G37*
G36*
X96282510Y-99740720D02*
G01*
X95482410Y-99740720D01*
X95482410Y-99420680D01*
X96282510Y-99420680D01*
X96282510Y-99740720D01*
X96282510Y-99740720D01*
G37*
G36*
X105177590Y-99240340D02*
G01*
X104377490Y-99240340D01*
X104377490Y-98920300D01*
X105177590Y-98920300D01*
X105177590Y-99240340D01*
X105177590Y-99240340D01*
G37*
G36*
X96282510Y-99240340D02*
G01*
X95482410Y-99240340D01*
X95482410Y-98920300D01*
X96282510Y-98920300D01*
X96282510Y-99240340D01*
X96282510Y-99240340D01*
G37*
G36*
X110966561Y-98093646D02*
G01*
X111007574Y-98106088D01*
X111045380Y-98126295D01*
X111078513Y-98153487D01*
X111105705Y-98186620D01*
X111125912Y-98224426D01*
X111138354Y-98265439D01*
X111142800Y-98310582D01*
X111142800Y-98844418D01*
X111138354Y-98889561D01*
X111125912Y-98930574D01*
X111105705Y-98968380D01*
X111078513Y-99001513D01*
X111045380Y-99028705D01*
X111007574Y-99048912D01*
X110966561Y-99061354D01*
X110921418Y-99065800D01*
X110312582Y-99065800D01*
X110267439Y-99061354D01*
X110226426Y-99048912D01*
X110188620Y-99028705D01*
X110155487Y-99001513D01*
X110128295Y-98968380D01*
X110108088Y-98930574D01*
X110095646Y-98889561D01*
X110091200Y-98844418D01*
X110091200Y-98310582D01*
X110095646Y-98265439D01*
X110108088Y-98224426D01*
X110128295Y-98186620D01*
X110155487Y-98153487D01*
X110188620Y-98126295D01*
X110226426Y-98106088D01*
X110267439Y-98093646D01*
X110312582Y-98089200D01*
X110921418Y-98089200D01*
X110966561Y-98093646D01*
X110966561Y-98093646D01*
G37*
G36*
X94710561Y-98068146D02*
G01*
X94751574Y-98080588D01*
X94789380Y-98100795D01*
X94822513Y-98127987D01*
X94849705Y-98161120D01*
X94869912Y-98198926D01*
X94882354Y-98239939D01*
X94886800Y-98285082D01*
X94886800Y-98818918D01*
X94882354Y-98864061D01*
X94869912Y-98905074D01*
X94849705Y-98942880D01*
X94822513Y-98976013D01*
X94789380Y-99003205D01*
X94751574Y-99023412D01*
X94710561Y-99035854D01*
X94665418Y-99040300D01*
X94056582Y-99040300D01*
X94011439Y-99035854D01*
X93970426Y-99023412D01*
X93932620Y-99003205D01*
X93899487Y-98976013D01*
X93872295Y-98942880D01*
X93852088Y-98905074D01*
X93839646Y-98864061D01*
X93835200Y-98818918D01*
X93835200Y-98285082D01*
X93839646Y-98239939D01*
X93852088Y-98198926D01*
X93872295Y-98161120D01*
X93899487Y-98127987D01*
X93932620Y-98100795D01*
X93970426Y-98080588D01*
X94011439Y-98068146D01*
X94056582Y-98063700D01*
X94665418Y-98063700D01*
X94710561Y-98068146D01*
X94710561Y-98068146D01*
G37*
G36*
X105177590Y-98742500D02*
G01*
X104377490Y-98742500D01*
X104377490Y-98422460D01*
X105177590Y-98422460D01*
X105177590Y-98742500D01*
X105177590Y-98742500D01*
G37*
G36*
X96282510Y-98742500D02*
G01*
X95482410Y-98742500D01*
X95482410Y-98422460D01*
X96282510Y-98422460D01*
X96282510Y-98742500D01*
X96282510Y-98742500D01*
G37*
G36*
X114950800Y-98500800D02*
G01*
X111849200Y-98500800D01*
X111849200Y-96899200D01*
X114950800Y-96899200D01*
X114950800Y-98500800D01*
X114950800Y-98500800D01*
G37*
G36*
X87450800Y-98500800D02*
G01*
X84349200Y-98500800D01*
X84349200Y-96899200D01*
X87450800Y-96899200D01*
X87450800Y-98500800D01*
X87450800Y-98500800D01*
G37*
G36*
X105177590Y-98242120D02*
G01*
X104377490Y-98242120D01*
X104377490Y-97922080D01*
X105177590Y-97922080D01*
X105177590Y-98242120D01*
X105177590Y-98242120D01*
G37*
G36*
X96282510Y-98242120D02*
G01*
X95482410Y-98242120D01*
X95482410Y-97922080D01*
X96282510Y-97922080D01*
X96282510Y-98242120D01*
X96282510Y-98242120D01*
G37*
G36*
X89250520Y-98165920D02*
G01*
X88549480Y-98165920D01*
X88549480Y-95864680D01*
X89250520Y-95864680D01*
X89250520Y-98165920D01*
X89250520Y-98165920D01*
G37*
G36*
X93060520Y-98165920D02*
G01*
X92359480Y-98165920D01*
X92359480Y-95864680D01*
X93060520Y-95864680D01*
X93060520Y-98165920D01*
X93060520Y-98165920D01*
G37*
G36*
X90520520Y-98165920D02*
G01*
X89819480Y-98165920D01*
X89819480Y-95864680D01*
X90520520Y-95864680D01*
X90520520Y-98165920D01*
X90520520Y-98165920D01*
G37*
G36*
X91790520Y-98165920D02*
G01*
X91089480Y-98165920D01*
X91089480Y-95864680D01*
X91790520Y-95864680D01*
X91790520Y-98165920D01*
X91790520Y-98165920D01*
G37*
G36*
X105177590Y-97741740D02*
G01*
X104377490Y-97741740D01*
X104377490Y-97421700D01*
X105177590Y-97421700D01*
X105177590Y-97741740D01*
X105177590Y-97741740D01*
G37*
G36*
X96282510Y-97741740D02*
G01*
X95482410Y-97741740D01*
X95482410Y-97421700D01*
X96282510Y-97421700D01*
X96282510Y-97741740D01*
X96282510Y-97741740D01*
G37*
G36*
X107524561Y-96506646D02*
G01*
X107565574Y-96519088D01*
X107603380Y-96539295D01*
X107636513Y-96566487D01*
X107663705Y-96599620D01*
X107683912Y-96637426D01*
X107696354Y-96678439D01*
X107700800Y-96723582D01*
X107700800Y-97332418D01*
X107696354Y-97377561D01*
X107683912Y-97418574D01*
X107663705Y-97456380D01*
X107636513Y-97489513D01*
X107603380Y-97516705D01*
X107565574Y-97536912D01*
X107524561Y-97549354D01*
X107479418Y-97553800D01*
X106945582Y-97553800D01*
X106900439Y-97549354D01*
X106859426Y-97536912D01*
X106821620Y-97516705D01*
X106788487Y-97489513D01*
X106761295Y-97456380D01*
X106741088Y-97418574D01*
X106728646Y-97377561D01*
X106724200Y-97332418D01*
X106724200Y-96723582D01*
X106728646Y-96678439D01*
X106741088Y-96637426D01*
X106761295Y-96599620D01*
X106788487Y-96566487D01*
X106821620Y-96539295D01*
X106859426Y-96519088D01*
X106900439Y-96506646D01*
X106945582Y-96502200D01*
X107479418Y-96502200D01*
X107524561Y-96506646D01*
X107524561Y-96506646D01*
G37*
G36*
X109099561Y-96506646D02*
G01*
X109140574Y-96519088D01*
X109178380Y-96539295D01*
X109211513Y-96566487D01*
X109238705Y-96599620D01*
X109258912Y-96637426D01*
X109271354Y-96678439D01*
X109275800Y-96723582D01*
X109275800Y-97332418D01*
X109271354Y-97377561D01*
X109258912Y-97418574D01*
X109238705Y-97456380D01*
X109211513Y-97489513D01*
X109178380Y-97516705D01*
X109140574Y-97536912D01*
X109099561Y-97549354D01*
X109054418Y-97553800D01*
X108520582Y-97553800D01*
X108475439Y-97549354D01*
X108434426Y-97536912D01*
X108396620Y-97516705D01*
X108363487Y-97489513D01*
X108336295Y-97456380D01*
X108316088Y-97418574D01*
X108303646Y-97377561D01*
X108299200Y-97332418D01*
X108299200Y-96723582D01*
X108303646Y-96678439D01*
X108316088Y-96637426D01*
X108336295Y-96599620D01*
X108363487Y-96566487D01*
X108396620Y-96539295D01*
X108434426Y-96519088D01*
X108475439Y-96506646D01*
X108520582Y-96502200D01*
X109054418Y-96502200D01*
X109099561Y-96506646D01*
X109099561Y-96506646D01*
G37*
G36*
X110966561Y-96518646D02*
G01*
X111007574Y-96531088D01*
X111045380Y-96551295D01*
X111078513Y-96578487D01*
X111105705Y-96611620D01*
X111125912Y-96649426D01*
X111138354Y-96690439D01*
X111142800Y-96735582D01*
X111142800Y-97269418D01*
X111138354Y-97314561D01*
X111125912Y-97355574D01*
X111105705Y-97393380D01*
X111078513Y-97426513D01*
X111045380Y-97453705D01*
X111007574Y-97473912D01*
X110966561Y-97486354D01*
X110921418Y-97490800D01*
X110312582Y-97490800D01*
X110267439Y-97486354D01*
X110226426Y-97473912D01*
X110188620Y-97453705D01*
X110155487Y-97426513D01*
X110128295Y-97393380D01*
X110108088Y-97355574D01*
X110095646Y-97314561D01*
X110091200Y-97269418D01*
X110091200Y-96735582D01*
X110095646Y-96690439D01*
X110108088Y-96649426D01*
X110128295Y-96611620D01*
X110155487Y-96578487D01*
X110188620Y-96551295D01*
X110226426Y-96531088D01*
X110267439Y-96518646D01*
X110312582Y-96514200D01*
X110921418Y-96514200D01*
X110966561Y-96518646D01*
X110966561Y-96518646D01*
G37*
G36*
X94710561Y-96493146D02*
G01*
X94751574Y-96505588D01*
X94789380Y-96525795D01*
X94822513Y-96552987D01*
X94849705Y-96586120D01*
X94869912Y-96623926D01*
X94882354Y-96664939D01*
X94886800Y-96710082D01*
X94886800Y-97243918D01*
X94882354Y-97289061D01*
X94869912Y-97330074D01*
X94849705Y-97367880D01*
X94822513Y-97401013D01*
X94789380Y-97428205D01*
X94751574Y-97448412D01*
X94710561Y-97460854D01*
X94665418Y-97465300D01*
X94056582Y-97465300D01*
X94011439Y-97460854D01*
X93970426Y-97448412D01*
X93932620Y-97428205D01*
X93899487Y-97401013D01*
X93872295Y-97367880D01*
X93852088Y-97330074D01*
X93839646Y-97289061D01*
X93835200Y-97243918D01*
X93835200Y-96710082D01*
X93839646Y-96664939D01*
X93852088Y-96623926D01*
X93872295Y-96586120D01*
X93899487Y-96552987D01*
X93932620Y-96525795D01*
X93970426Y-96505588D01*
X94011439Y-96493146D01*
X94056582Y-96488700D01*
X94665418Y-96488700D01*
X94710561Y-96493146D01*
X94710561Y-96493146D01*
G37*
G36*
X105177590Y-97241360D02*
G01*
X104377490Y-97241360D01*
X104377490Y-96921320D01*
X105177590Y-96921320D01*
X105177590Y-97241360D01*
X105177590Y-97241360D01*
G37*
G36*
X96282510Y-97241360D02*
G01*
X95482410Y-97241360D01*
X95482410Y-96921320D01*
X96282510Y-96921320D01*
X96282510Y-97241360D01*
X96282510Y-97241360D01*
G37*
G36*
X105177590Y-96740980D02*
G01*
X104377490Y-96740980D01*
X104377490Y-96420940D01*
X105177590Y-96420940D01*
X105177590Y-96740980D01*
X105177590Y-96740980D01*
G37*
G36*
X96282510Y-96740980D02*
G01*
X95482410Y-96740980D01*
X95482410Y-96420940D01*
X96282510Y-96420940D01*
X96282510Y-96740980D01*
X96282510Y-96740980D01*
G37*
G36*
X114950800Y-96500800D02*
G01*
X111849200Y-96500800D01*
X111849200Y-94899200D01*
X114950800Y-94899200D01*
X114950800Y-96500800D01*
X114950800Y-96500800D01*
G37*
G36*
X87450800Y-96500800D02*
G01*
X84349200Y-96500800D01*
X84349200Y-94899200D01*
X87450800Y-94899200D01*
X87450800Y-96500800D01*
X87450800Y-96500800D01*
G37*
G36*
X100738940Y-96282510D02*
G01*
X100418900Y-96282510D01*
X100418900Y-95482410D01*
X100738940Y-95482410D01*
X100738940Y-96282510D01*
X100738940Y-96282510D01*
G37*
G36*
X100241100Y-96282510D02*
G01*
X99921060Y-96282510D01*
X99921060Y-95482410D01*
X100241100Y-95482410D01*
X100241100Y-96282510D01*
X100241100Y-96282510D01*
G37*
G36*
X101239320Y-96282510D02*
G01*
X100919280Y-96282510D01*
X100919280Y-95482410D01*
X101239320Y-95482410D01*
X101239320Y-96282510D01*
X101239320Y-96282510D01*
G37*
G36*
X99240340Y-96282510D02*
G01*
X98920300Y-96282510D01*
X98920300Y-95482410D01*
X99240340Y-95482410D01*
X99240340Y-96282510D01*
X99240340Y-96282510D01*
G37*
G36*
X98742500Y-96282510D02*
G01*
X98422460Y-96282510D01*
X98422460Y-95482410D01*
X98742500Y-95482410D01*
X98742500Y-96282510D01*
X98742500Y-96282510D01*
G37*
G36*
X98242120Y-96282510D02*
G01*
X97922080Y-96282510D01*
X97922080Y-95482410D01*
X98242120Y-95482410D01*
X98242120Y-96282510D01*
X98242120Y-96282510D01*
G37*
G36*
X97741740Y-96282510D02*
G01*
X97421700Y-96282510D01*
X97421700Y-95482410D01*
X97741740Y-95482410D01*
X97741740Y-96282510D01*
X97741740Y-96282510D01*
G37*
G36*
X97241360Y-96282510D02*
G01*
X96921320Y-96282510D01*
X96921320Y-95482410D01*
X97241360Y-95482410D01*
X97241360Y-96282510D01*
X97241360Y-96282510D01*
G37*
G36*
X96740980Y-96282510D02*
G01*
X96420940Y-96282510D01*
X96420940Y-95482410D01*
X96740980Y-95482410D01*
X96740980Y-96282510D01*
X96740980Y-96282510D01*
G37*
G36*
X101739700Y-96282510D02*
G01*
X101419660Y-96282510D01*
X101419660Y-95482410D01*
X101739700Y-95482410D01*
X101739700Y-96282510D01*
X101739700Y-96282510D01*
G37*
G36*
X102237540Y-96282510D02*
G01*
X101917500Y-96282510D01*
X101917500Y-95482410D01*
X102237540Y-95482410D01*
X102237540Y-96282510D01*
X102237540Y-96282510D01*
G37*
G36*
X102737920Y-96282510D02*
G01*
X102417880Y-96282510D01*
X102417880Y-95482410D01*
X102737920Y-95482410D01*
X102737920Y-96282510D01*
X102737920Y-96282510D01*
G37*
G36*
X103238300Y-96282510D02*
G01*
X102918260Y-96282510D01*
X102918260Y-95482410D01*
X103238300Y-95482410D01*
X103238300Y-96282510D01*
X103238300Y-96282510D01*
G37*
G36*
X103738680Y-96282510D02*
G01*
X103418640Y-96282510D01*
X103418640Y-95482410D01*
X103738680Y-95482410D01*
X103738680Y-96282510D01*
X103738680Y-96282510D01*
G37*
G36*
X104239060Y-96282510D02*
G01*
X103919020Y-96282510D01*
X103919020Y-95482410D01*
X104239060Y-95482410D01*
X104239060Y-96282510D01*
X104239060Y-96282510D01*
G37*
G36*
X99740720Y-96282510D02*
G01*
X99420680Y-96282510D01*
X99420680Y-95482410D01*
X99740720Y-95482410D01*
X99740720Y-96282510D01*
X99740720Y-96282510D01*
G37*
G36*
X107524561Y-94855646D02*
G01*
X107565574Y-94868088D01*
X107603380Y-94888295D01*
X107636513Y-94915487D01*
X107663705Y-94948620D01*
X107683912Y-94986426D01*
X107696354Y-95027439D01*
X107700800Y-95072582D01*
X107700800Y-95681418D01*
X107696354Y-95726561D01*
X107683912Y-95767574D01*
X107663705Y-95805380D01*
X107636513Y-95838513D01*
X107603380Y-95865705D01*
X107565574Y-95885912D01*
X107524561Y-95898354D01*
X107479418Y-95902800D01*
X106945582Y-95902800D01*
X106900439Y-95898354D01*
X106859426Y-95885912D01*
X106821620Y-95865705D01*
X106788487Y-95838513D01*
X106761295Y-95805380D01*
X106741088Y-95767574D01*
X106728646Y-95726561D01*
X106724200Y-95681418D01*
X106724200Y-95072582D01*
X106728646Y-95027439D01*
X106741088Y-94986426D01*
X106761295Y-94948620D01*
X106788487Y-94915487D01*
X106821620Y-94888295D01*
X106859426Y-94868088D01*
X106900439Y-94855646D01*
X106945582Y-94851200D01*
X107479418Y-94851200D01*
X107524561Y-94855646D01*
X107524561Y-94855646D01*
G37*
G36*
X109099561Y-94855646D02*
G01*
X109140574Y-94868088D01*
X109178380Y-94888295D01*
X109211513Y-94915487D01*
X109238705Y-94948620D01*
X109258912Y-94986426D01*
X109271354Y-95027439D01*
X109275800Y-95072582D01*
X109275800Y-95681418D01*
X109271354Y-95726561D01*
X109258912Y-95767574D01*
X109238705Y-95805380D01*
X109211513Y-95838513D01*
X109178380Y-95865705D01*
X109140574Y-95885912D01*
X109099561Y-95898354D01*
X109054418Y-95902800D01*
X108520582Y-95902800D01*
X108475439Y-95898354D01*
X108434426Y-95885912D01*
X108396620Y-95865705D01*
X108363487Y-95838513D01*
X108336295Y-95805380D01*
X108316088Y-95767574D01*
X108303646Y-95726561D01*
X108299200Y-95681418D01*
X108299200Y-95072582D01*
X108303646Y-95027439D01*
X108316088Y-94986426D01*
X108336295Y-94948620D01*
X108363487Y-94915487D01*
X108396620Y-94888295D01*
X108434426Y-94868088D01*
X108475439Y-94855646D01*
X108520582Y-94851200D01*
X109054418Y-94851200D01*
X109099561Y-94855646D01*
X109099561Y-94855646D01*
G37*
G36*
X91015561Y-94093646D02*
G01*
X91056574Y-94106088D01*
X91094380Y-94126295D01*
X91127513Y-94153487D01*
X91154705Y-94186620D01*
X91174912Y-94224426D01*
X91187354Y-94265439D01*
X91191800Y-94310582D01*
X91191800Y-94919418D01*
X91187354Y-94964561D01*
X91174912Y-95005574D01*
X91154705Y-95043380D01*
X91127513Y-95076513D01*
X91094380Y-95103705D01*
X91056574Y-95123912D01*
X91015561Y-95136354D01*
X90970418Y-95140800D01*
X90436582Y-95140800D01*
X90391439Y-95136354D01*
X90350426Y-95123912D01*
X90312620Y-95103705D01*
X90279487Y-95076513D01*
X90252295Y-95043380D01*
X90232088Y-95005574D01*
X90219646Y-94964561D01*
X90215200Y-94919418D01*
X90215200Y-94310582D01*
X90219646Y-94265439D01*
X90232088Y-94224426D01*
X90252295Y-94186620D01*
X90279487Y-94153487D01*
X90312620Y-94126295D01*
X90350426Y-94106088D01*
X90391439Y-94093646D01*
X90436582Y-94089200D01*
X90970418Y-94089200D01*
X91015561Y-94093646D01*
X91015561Y-94093646D01*
G37*
G36*
X89440561Y-94093646D02*
G01*
X89481574Y-94106088D01*
X89519380Y-94126295D01*
X89552513Y-94153487D01*
X89579705Y-94186620D01*
X89599912Y-94224426D01*
X89612354Y-94265439D01*
X89616800Y-94310582D01*
X89616800Y-94919418D01*
X89612354Y-94964561D01*
X89599912Y-95005574D01*
X89579705Y-95043380D01*
X89552513Y-95076513D01*
X89519380Y-95103705D01*
X89481574Y-95123912D01*
X89440561Y-95136354D01*
X89395418Y-95140800D01*
X88861582Y-95140800D01*
X88816439Y-95136354D01*
X88775426Y-95123912D01*
X88737620Y-95103705D01*
X88704487Y-95076513D01*
X88677295Y-95043380D01*
X88657088Y-95005574D01*
X88644646Y-94964561D01*
X88640200Y-94919418D01*
X88640200Y-94310582D01*
X88644646Y-94265439D01*
X88657088Y-94224426D01*
X88677295Y-94186620D01*
X88704487Y-94153487D01*
X88737620Y-94126295D01*
X88775426Y-94106088D01*
X88816439Y-94093646D01*
X88861582Y-94089200D01*
X89395418Y-94089200D01*
X89440561Y-94093646D01*
X89440561Y-94093646D01*
G37*
G36*
X100933561Y-93648646D02*
G01*
X100974574Y-93661088D01*
X101012380Y-93681295D01*
X101045513Y-93708487D01*
X101072705Y-93741620D01*
X101092912Y-93779426D01*
X101105354Y-93820439D01*
X101109800Y-93865582D01*
X101109800Y-94399418D01*
X101105354Y-94444561D01*
X101092912Y-94485574D01*
X101072705Y-94523380D01*
X101045513Y-94556513D01*
X101012380Y-94583705D01*
X100974574Y-94603912D01*
X100933561Y-94616354D01*
X100888418Y-94620800D01*
X100279582Y-94620800D01*
X100234439Y-94616354D01*
X100193426Y-94603912D01*
X100155620Y-94583705D01*
X100122487Y-94556513D01*
X100095295Y-94523380D01*
X100075088Y-94485574D01*
X100062646Y-94444561D01*
X100058200Y-94399418D01*
X100058200Y-93865582D01*
X100062646Y-93820439D01*
X100075088Y-93779426D01*
X100095295Y-93741620D01*
X100122487Y-93708487D01*
X100155620Y-93681295D01*
X100193426Y-93661088D01*
X100234439Y-93648646D01*
X100279582Y-93644200D01*
X100888418Y-93644200D01*
X100933561Y-93648646D01*
X100933561Y-93648646D01*
G37*
G36*
X87450800Y-94500800D02*
G01*
X84349200Y-94500800D01*
X84349200Y-92899200D01*
X87450800Y-92899200D01*
X87450800Y-94500800D01*
X87450800Y-94500800D01*
G37*
G36*
X114950800Y-94500800D02*
G01*
X111849200Y-94500800D01*
X111849200Y-92899200D01*
X114950800Y-92899200D01*
X114950800Y-94500800D01*
X114950800Y-94500800D01*
G37*
G36*
X106010590Y-94345760D02*
G01*
X104809170Y-94345760D01*
X104809170Y-92344240D01*
X106010590Y-92344240D01*
X106010590Y-94345760D01*
X106010590Y-94345760D01*
G37*
G36*
X103612830Y-94345760D02*
G01*
X102411410Y-94345760D01*
X102411410Y-92344240D01*
X103612830Y-92344240D01*
X103612830Y-94345760D01*
X103612830Y-94345760D01*
G37*
G36*
X88907061Y-92553646D02*
G01*
X88948074Y-92566088D01*
X88985880Y-92586295D01*
X89019013Y-92613487D01*
X89046205Y-92646620D01*
X89066412Y-92684426D01*
X89078854Y-92725439D01*
X89083300Y-92770582D01*
X89083300Y-93379418D01*
X89078854Y-93424561D01*
X89066412Y-93465574D01*
X89046205Y-93503380D01*
X89019013Y-93536513D01*
X88985880Y-93563705D01*
X88948074Y-93583912D01*
X88907061Y-93596354D01*
X88861918Y-93600800D01*
X88328082Y-93600800D01*
X88282939Y-93596354D01*
X88241926Y-93583912D01*
X88204120Y-93563705D01*
X88170987Y-93536513D01*
X88143795Y-93503380D01*
X88123588Y-93465574D01*
X88111146Y-93424561D01*
X88106700Y-93379418D01*
X88106700Y-92770582D01*
X88111146Y-92725439D01*
X88123588Y-92684426D01*
X88143795Y-92646620D01*
X88170987Y-92613487D01*
X88204120Y-92586295D01*
X88241926Y-92566088D01*
X88282939Y-92553646D01*
X88328082Y-92549200D01*
X88861918Y-92549200D01*
X88907061Y-92553646D01*
X88907061Y-92553646D01*
G37*
G36*
X93657061Y-92553646D02*
G01*
X93698074Y-92566088D01*
X93735880Y-92586295D01*
X93769013Y-92613487D01*
X93796205Y-92646620D01*
X93816412Y-92684426D01*
X93828854Y-92725439D01*
X93833300Y-92770582D01*
X93833300Y-93379418D01*
X93828854Y-93424561D01*
X93816412Y-93465574D01*
X93796205Y-93503380D01*
X93769013Y-93536513D01*
X93735880Y-93563705D01*
X93698074Y-93583912D01*
X93657061Y-93596354D01*
X93611918Y-93600800D01*
X93078082Y-93600800D01*
X93032939Y-93596354D01*
X92991926Y-93583912D01*
X92954120Y-93563705D01*
X92920987Y-93536513D01*
X92893795Y-93503380D01*
X92873588Y-93465574D01*
X92861146Y-93424561D01*
X92856700Y-93379418D01*
X92856700Y-92770582D01*
X92861146Y-92725439D01*
X92873588Y-92684426D01*
X92893795Y-92646620D01*
X92920987Y-92613487D01*
X92954120Y-92586295D01*
X92991926Y-92566088D01*
X93032939Y-92553646D01*
X93078082Y-92549200D01*
X93611918Y-92549200D01*
X93657061Y-92553646D01*
X93657061Y-92553646D01*
G37*
G36*
X92082061Y-92553646D02*
G01*
X92123074Y-92566088D01*
X92160880Y-92586295D01*
X92194013Y-92613487D01*
X92221205Y-92646620D01*
X92241412Y-92684426D01*
X92253854Y-92725439D01*
X92258300Y-92770582D01*
X92258300Y-93379418D01*
X92253854Y-93424561D01*
X92241412Y-93465574D01*
X92221205Y-93503380D01*
X92194013Y-93536513D01*
X92160880Y-93563705D01*
X92123074Y-93583912D01*
X92082061Y-93596354D01*
X92036918Y-93600800D01*
X91503082Y-93600800D01*
X91457939Y-93596354D01*
X91416926Y-93583912D01*
X91379120Y-93563705D01*
X91345987Y-93536513D01*
X91318795Y-93503380D01*
X91298588Y-93465574D01*
X91286146Y-93424561D01*
X91281700Y-93379418D01*
X91281700Y-92770582D01*
X91286146Y-92725439D01*
X91298588Y-92684426D01*
X91318795Y-92646620D01*
X91345987Y-92613487D01*
X91379120Y-92586295D01*
X91416926Y-92566088D01*
X91457939Y-92553646D01*
X91503082Y-92549200D01*
X92036918Y-92549200D01*
X92082061Y-92553646D01*
X92082061Y-92553646D01*
G37*
G36*
X90482061Y-92553646D02*
G01*
X90523074Y-92566088D01*
X90560880Y-92586295D01*
X90594013Y-92613487D01*
X90621205Y-92646620D01*
X90641412Y-92684426D01*
X90653854Y-92725439D01*
X90658300Y-92770582D01*
X90658300Y-93379418D01*
X90653854Y-93424561D01*
X90641412Y-93465574D01*
X90621205Y-93503380D01*
X90594013Y-93536513D01*
X90560880Y-93563705D01*
X90523074Y-93583912D01*
X90482061Y-93596354D01*
X90436918Y-93600800D01*
X89903082Y-93600800D01*
X89857939Y-93596354D01*
X89816926Y-93583912D01*
X89779120Y-93563705D01*
X89745987Y-93536513D01*
X89718795Y-93503380D01*
X89698588Y-93465574D01*
X89686146Y-93424561D01*
X89681700Y-93379418D01*
X89681700Y-92770582D01*
X89686146Y-92725439D01*
X89698588Y-92684426D01*
X89718795Y-92646620D01*
X89745987Y-92613487D01*
X89779120Y-92586295D01*
X89816926Y-92566088D01*
X89857939Y-92553646D01*
X89903082Y-92549200D01*
X90436918Y-92549200D01*
X90482061Y-92553646D01*
X90482061Y-92553646D01*
G37*
G36*
X100933561Y-92073646D02*
G01*
X100974574Y-92086088D01*
X101012380Y-92106295D01*
X101045513Y-92133487D01*
X101072705Y-92166620D01*
X101092912Y-92204426D01*
X101105354Y-92245439D01*
X101109800Y-92290582D01*
X101109800Y-92824418D01*
X101105354Y-92869561D01*
X101092912Y-92910574D01*
X101072705Y-92948380D01*
X101045513Y-92981513D01*
X101012380Y-93008705D01*
X100974574Y-93028912D01*
X100933561Y-93041354D01*
X100888418Y-93045800D01*
X100279582Y-93045800D01*
X100234439Y-93041354D01*
X100193426Y-93028912D01*
X100155620Y-93008705D01*
X100122487Y-92981513D01*
X100095295Y-92948380D01*
X100075088Y-92910574D01*
X100062646Y-92869561D01*
X100058200Y-92824418D01*
X100058200Y-92290582D01*
X100062646Y-92245439D01*
X100075088Y-92204426D01*
X100095295Y-92166620D01*
X100122487Y-92133487D01*
X100155620Y-92106295D01*
X100193426Y-92086088D01*
X100234439Y-92073646D01*
X100279582Y-92069200D01*
X100888418Y-92069200D01*
X100933561Y-92073646D01*
X100933561Y-92073646D01*
G37*
G36*
X114950800Y-92500800D02*
G01*
X111849200Y-92500800D01*
X111849200Y-90899200D01*
X114950800Y-90899200D01*
X114950800Y-92500800D01*
X114950800Y-92500800D01*
G37*
G36*
X87450800Y-92500800D02*
G01*
X84349200Y-92500800D01*
X84349200Y-90899200D01*
X87450800Y-90899200D01*
X87450800Y-92500800D01*
X87450800Y-92500800D01*
G37*
G36*
X105759561Y-90880146D02*
G01*
X105800574Y-90892588D01*
X105838380Y-90912795D01*
X105871513Y-90939987D01*
X105898705Y-90973120D01*
X105918912Y-91010926D01*
X105931354Y-91051939D01*
X105935800Y-91097082D01*
X105935800Y-91630918D01*
X105931354Y-91676061D01*
X105918912Y-91717074D01*
X105898705Y-91754880D01*
X105871513Y-91788013D01*
X105838380Y-91815205D01*
X105800574Y-91835412D01*
X105759561Y-91847854D01*
X105714418Y-91852300D01*
X105105582Y-91852300D01*
X105060439Y-91847854D01*
X105019426Y-91835412D01*
X104981620Y-91815205D01*
X104948487Y-91788013D01*
X104921295Y-91754880D01*
X104901088Y-91717074D01*
X104888646Y-91676061D01*
X104884200Y-91630918D01*
X104884200Y-91097082D01*
X104888646Y-91051939D01*
X104901088Y-91010926D01*
X104921295Y-90973120D01*
X104948487Y-90939987D01*
X104981620Y-90912795D01*
X105019426Y-90892588D01*
X105060439Y-90880146D01*
X105105582Y-90875700D01*
X105714418Y-90875700D01*
X105759561Y-90880146D01*
X105759561Y-90880146D01*
G37*
G36*
X103346561Y-90854646D02*
G01*
X103387574Y-90867088D01*
X103425380Y-90887295D01*
X103458513Y-90914487D01*
X103485705Y-90947620D01*
X103505912Y-90985426D01*
X103518354Y-91026439D01*
X103522800Y-91071582D01*
X103522800Y-91605418D01*
X103518354Y-91650561D01*
X103505912Y-91691574D01*
X103485705Y-91729380D01*
X103458513Y-91762513D01*
X103425380Y-91789705D01*
X103387574Y-91809912D01*
X103346561Y-91822354D01*
X103301418Y-91826800D01*
X102692582Y-91826800D01*
X102647439Y-91822354D01*
X102606426Y-91809912D01*
X102568620Y-91789705D01*
X102535487Y-91762513D01*
X102508295Y-91729380D01*
X102488088Y-91691574D01*
X102475646Y-91650561D01*
X102471200Y-91605418D01*
X102471200Y-91071582D01*
X102475646Y-91026439D01*
X102488088Y-90985426D01*
X102508295Y-90947620D01*
X102535487Y-90914487D01*
X102568620Y-90887295D01*
X102606426Y-90867088D01*
X102647439Y-90854646D01*
X102692582Y-90850200D01*
X103301418Y-90850200D01*
X103346561Y-90854646D01*
X103346561Y-90854646D01*
G37*
G36*
X90482061Y-89648646D02*
G01*
X90523074Y-89661088D01*
X90560880Y-89681295D01*
X90594013Y-89708487D01*
X90621205Y-89741620D01*
X90641412Y-89779426D01*
X90653854Y-89820439D01*
X90658300Y-89865582D01*
X90658300Y-90474418D01*
X90653854Y-90519561D01*
X90641412Y-90560574D01*
X90621205Y-90598380D01*
X90594013Y-90631513D01*
X90560880Y-90658705D01*
X90523074Y-90678912D01*
X90482061Y-90691354D01*
X90436918Y-90695800D01*
X89903082Y-90695800D01*
X89857939Y-90691354D01*
X89816926Y-90678912D01*
X89779120Y-90658705D01*
X89745987Y-90631513D01*
X89718795Y-90598380D01*
X89698588Y-90560574D01*
X89686146Y-90519561D01*
X89681700Y-90474418D01*
X89681700Y-89865582D01*
X89686146Y-89820439D01*
X89698588Y-89779426D01*
X89718795Y-89741620D01*
X89745987Y-89708487D01*
X89779120Y-89681295D01*
X89816926Y-89661088D01*
X89857939Y-89648646D01*
X89903082Y-89644200D01*
X90436918Y-89644200D01*
X90482061Y-89648646D01*
X90482061Y-89648646D01*
G37*
G36*
X88907061Y-89648646D02*
G01*
X88948074Y-89661088D01*
X88985880Y-89681295D01*
X89019013Y-89708487D01*
X89046205Y-89741620D01*
X89066412Y-89779426D01*
X89078854Y-89820439D01*
X89083300Y-89865582D01*
X89083300Y-90474418D01*
X89078854Y-90519561D01*
X89066412Y-90560574D01*
X89046205Y-90598380D01*
X89019013Y-90631513D01*
X88985880Y-90658705D01*
X88948074Y-90678912D01*
X88907061Y-90691354D01*
X88861918Y-90695800D01*
X88328082Y-90695800D01*
X88282939Y-90691354D01*
X88241926Y-90678912D01*
X88204120Y-90658705D01*
X88170987Y-90631513D01*
X88143795Y-90598380D01*
X88123588Y-90560574D01*
X88111146Y-90519561D01*
X88106700Y-90474418D01*
X88106700Y-89865582D01*
X88111146Y-89820439D01*
X88123588Y-89779426D01*
X88143795Y-89741620D01*
X88170987Y-89708487D01*
X88204120Y-89681295D01*
X88241926Y-89661088D01*
X88282939Y-89648646D01*
X88328082Y-89644200D01*
X88861918Y-89644200D01*
X88907061Y-89648646D01*
X88907061Y-89648646D01*
G37*
G36*
X92082061Y-89648646D02*
G01*
X92123074Y-89661088D01*
X92160880Y-89681295D01*
X92194013Y-89708487D01*
X92221205Y-89741620D01*
X92241412Y-89779426D01*
X92253854Y-89820439D01*
X92258300Y-89865582D01*
X92258300Y-90474418D01*
X92253854Y-90519561D01*
X92241412Y-90560574D01*
X92221205Y-90598380D01*
X92194013Y-90631513D01*
X92160880Y-90658705D01*
X92123074Y-90678912D01*
X92082061Y-90691354D01*
X92036918Y-90695800D01*
X91503082Y-90695800D01*
X91457939Y-90691354D01*
X91416926Y-90678912D01*
X91379120Y-90658705D01*
X91345987Y-90631513D01*
X91318795Y-90598380D01*
X91298588Y-90560574D01*
X91286146Y-90519561D01*
X91281700Y-90474418D01*
X91281700Y-89865582D01*
X91286146Y-89820439D01*
X91298588Y-89779426D01*
X91318795Y-89741620D01*
X91345987Y-89708487D01*
X91379120Y-89681295D01*
X91416926Y-89661088D01*
X91457939Y-89648646D01*
X91503082Y-89644200D01*
X92036918Y-89644200D01*
X92082061Y-89648646D01*
X92082061Y-89648646D01*
G37*
G36*
X93657061Y-89648646D02*
G01*
X93698074Y-89661088D01*
X93735880Y-89681295D01*
X93769013Y-89708487D01*
X93796205Y-89741620D01*
X93816412Y-89779426D01*
X93828854Y-89820439D01*
X93833300Y-89865582D01*
X93833300Y-90474418D01*
X93828854Y-90519561D01*
X93816412Y-90560574D01*
X93796205Y-90598380D01*
X93769013Y-90631513D01*
X93735880Y-90658705D01*
X93698074Y-90678912D01*
X93657061Y-90691354D01*
X93611918Y-90695800D01*
X93078082Y-90695800D01*
X93032939Y-90691354D01*
X92991926Y-90678912D01*
X92954120Y-90658705D01*
X92920987Y-90631513D01*
X92893795Y-90598380D01*
X92873588Y-90560574D01*
X92861146Y-90519561D01*
X92856700Y-90474418D01*
X92856700Y-89865582D01*
X92861146Y-89820439D01*
X92873588Y-89779426D01*
X92893795Y-89741620D01*
X92920987Y-89708487D01*
X92954120Y-89681295D01*
X92991926Y-89661088D01*
X93032939Y-89648646D01*
X93078082Y-89644200D01*
X93611918Y-89644200D01*
X93657061Y-89648646D01*
X93657061Y-89648646D01*
G37*
G36*
X87450800Y-90500800D02*
G01*
X84349200Y-90500800D01*
X84349200Y-88899200D01*
X87450800Y-88899200D01*
X87450800Y-90500800D01*
X87450800Y-90500800D01*
G37*
G36*
X114950800Y-90500800D02*
G01*
X111849200Y-90500800D01*
X111849200Y-88899200D01*
X114950800Y-88899200D01*
X114950800Y-90500800D01*
X114950800Y-90500800D01*
G37*
G36*
X105759561Y-89305146D02*
G01*
X105800574Y-89317588D01*
X105838380Y-89337795D01*
X105871513Y-89364987D01*
X105898705Y-89398120D01*
X105918912Y-89435926D01*
X105931354Y-89476939D01*
X105935800Y-89522082D01*
X105935800Y-90055918D01*
X105931354Y-90101061D01*
X105918912Y-90142074D01*
X105898705Y-90179880D01*
X105871513Y-90213013D01*
X105838380Y-90240205D01*
X105800574Y-90260412D01*
X105759561Y-90272854D01*
X105714418Y-90277300D01*
X105105582Y-90277300D01*
X105060439Y-90272854D01*
X105019426Y-90260412D01*
X104981620Y-90240205D01*
X104948487Y-90213013D01*
X104921295Y-90179880D01*
X104901088Y-90142074D01*
X104888646Y-90101061D01*
X104884200Y-90055918D01*
X104884200Y-89522082D01*
X104888646Y-89476939D01*
X104901088Y-89435926D01*
X104921295Y-89398120D01*
X104948487Y-89364987D01*
X104981620Y-89337795D01*
X105019426Y-89317588D01*
X105060439Y-89305146D01*
X105105582Y-89300700D01*
X105714418Y-89300700D01*
X105759561Y-89305146D01*
X105759561Y-89305146D01*
G37*
G36*
X103346561Y-89279646D02*
G01*
X103387574Y-89292088D01*
X103425380Y-89312295D01*
X103458513Y-89339487D01*
X103485705Y-89372620D01*
X103505912Y-89410426D01*
X103518354Y-89451439D01*
X103522800Y-89496582D01*
X103522800Y-90030418D01*
X103518354Y-90075561D01*
X103505912Y-90116574D01*
X103485705Y-90154380D01*
X103458513Y-90187513D01*
X103425380Y-90214705D01*
X103387574Y-90234912D01*
X103346561Y-90247354D01*
X103301418Y-90251800D01*
X102692582Y-90251800D01*
X102647439Y-90247354D01*
X102606426Y-90234912D01*
X102568620Y-90214705D01*
X102535487Y-90187513D01*
X102508295Y-90154380D01*
X102488088Y-90116574D01*
X102475646Y-90075561D01*
X102471200Y-90030418D01*
X102471200Y-89496582D01*
X102475646Y-89451439D01*
X102488088Y-89410426D01*
X102508295Y-89372620D01*
X102535487Y-89339487D01*
X102568620Y-89312295D01*
X102606426Y-89292088D01*
X102647439Y-89279646D01*
X102692582Y-89275200D01*
X103301418Y-89275200D01*
X103346561Y-89279646D01*
X103346561Y-89279646D01*
G37*
G36*
X97450800Y-88750800D02*
G01*
X95849200Y-88750800D01*
X95849200Y-85649200D01*
X97450800Y-85649200D01*
X97450800Y-88750800D01*
X97450800Y-88750800D01*
G37*
G36*
X89450800Y-88750800D02*
G01*
X87849200Y-88750800D01*
X87849200Y-85649200D01*
X89450800Y-85649200D01*
X89450800Y-88750800D01*
X89450800Y-88750800D01*
G37*
G36*
X95450800Y-88750800D02*
G01*
X93849200Y-88750800D01*
X93849200Y-85649200D01*
X95450800Y-85649200D01*
X95450800Y-88750800D01*
X95450800Y-88750800D01*
G37*
G36*
X91450800Y-88750800D02*
G01*
X89849200Y-88750800D01*
X89849200Y-85649200D01*
X91450800Y-85649200D01*
X91450800Y-88750800D01*
X91450800Y-88750800D01*
G37*
G36*
X93450800Y-88750800D02*
G01*
X91849200Y-88750800D01*
X91849200Y-85649200D01*
X93450800Y-85649200D01*
X93450800Y-88750800D01*
X93450800Y-88750800D01*
G37*
G36*
X99450800Y-88750800D02*
G01*
X97849200Y-88750800D01*
X97849200Y-85649200D01*
X99450800Y-85649200D01*
X99450800Y-88750800D01*
X99450800Y-88750800D01*
G37*
G36*
X111450800Y-88750800D02*
G01*
X109849200Y-88750800D01*
X109849200Y-85649200D01*
X111450800Y-85649200D01*
X111450800Y-88750800D01*
X111450800Y-88750800D01*
G37*
G36*
X109450800Y-88750800D02*
G01*
X107849200Y-88750800D01*
X107849200Y-85649200D01*
X109450800Y-85649200D01*
X109450800Y-88750800D01*
X109450800Y-88750800D01*
G37*
G36*
X101450800Y-88750800D02*
G01*
X99849200Y-88750800D01*
X99849200Y-85649200D01*
X101450800Y-85649200D01*
X101450800Y-88750800D01*
X101450800Y-88750800D01*
G37*
G36*
X103450800Y-88750800D02*
G01*
X101849200Y-88750800D01*
X101849200Y-85649200D01*
X103450800Y-85649200D01*
X103450800Y-88750800D01*
X103450800Y-88750800D01*
G37*
G36*
X105450800Y-88750800D02*
G01*
X103849200Y-88750800D01*
X103849200Y-85649200D01*
X105450800Y-85649200D01*
X105450800Y-88750800D01*
X105450800Y-88750800D01*
G37*
G36*
X107450800Y-88750800D02*
G01*
X105849200Y-88750800D01*
X105849200Y-85649200D01*
X107450800Y-85649200D01*
X107450800Y-88750800D01*
X107450800Y-88750800D01*
G37*
M02*
