M48
; DRILL file {KiCad (5.1.4-0-10_14)} date Saturday, November 16, 2019 at 01:32:55 PM
; FORMAT={-:-/ absolute / inch / decimal}
; #@! TF.CreationDate,2019-11-16T13:32:55-06:00
; #@! TF.GenerationSoftware,Kicad,Pcbnew,(5.1.4-0-10_14)
FMAT,2
INCH
T1C0.0100
T2C0.0394
%
G90
G05
T1
X3.4843Y-3.5827
X3.5065Y-4.14
X3.5138Y-3.8878
X3.5236Y-3.622
X3.5631Y-4.0184
X3.5925Y-3.5827
X3.6122Y-4.1732
X3.6294Y-4.0179
X3.6457Y-3.7126
X3.6811Y-3.8976
X3.689Y-3.7874
X3.6929Y-4.1969
X3.7008Y-4.2441
X3.7047Y-4.0945
X3.7276Y-3.9581
X3.7794Y-3.768
X3.7795Y-4.3504
X3.8074Y-3.8218
X3.8091Y-3.9075
X3.81Y-3.9485
X3.8131Y-3.8482
X3.8189Y-4.1634
X3.8615Y-4.1554
X3.8692Y-4.1833
X3.9001Y-4.1675
X3.9616Y-3.7395
X3.9646Y-3.5984
X3.9764Y-3.8091
X3.9803Y-4.2244
X3.9948Y-4.1682
X4.0157Y-4.3209
X4.025Y-3.7425
X4.0334Y-4.1772
X4.0633Y-4.1772
X4.068Y-4.0399
X4.0755Y-3.945
X4.0769Y-3.8426
X4.0787Y-4.0945
X4.0846Y-3.9961
X4.0943Y-3.9009
X4.0947Y-4.0363
X4.0984Y-3.5236
X4.1378Y-4.2283
X4.1614Y-4.4016
X4.1733Y-3.8415
X4.2016Y-3.8906
X4.2165Y-4.2244
X4.2323Y-4.1693
X4.2559Y-4.3071
X4.2815Y-3.9961
X4.2913Y-3.9075
X4.2913Y-4.124
X4.3209Y-3.7894
X4.3495Y-4.1666
T2
X3.3543Y-3.5315
X3.3543Y-3.6102
X3.3543Y-3.689
X3.3543Y-3.7677
X3.3543Y-3.8465
X3.3543Y-3.9252
X3.3543Y-4.0039
X3.3543Y-4.0827
X3.3543Y-4.1614
X3.3543Y-4.2402
X3.3543Y-4.3189
X3.3543Y-4.3976
X3.4134Y-3.5315
X3.4134Y-3.6102
X3.4134Y-3.689
X3.4134Y-3.7677
X3.4134Y-3.8465
X3.4134Y-3.9252
X3.4134Y-4.0039
X3.4134Y-4.0827
X3.4134Y-4.1614
X3.4134Y-4.2402
X3.4134Y-4.3189
X3.4134Y-4.3976
X3.4902Y-3.4055
X3.4902Y-3.4646
X3.4902Y-4.4843
X3.4902Y-4.5433
X3.5689Y-3.4055
X3.5689Y-3.4646
X3.5689Y-4.4843
X3.5689Y-4.5433
X3.6476Y-3.4055
X3.6476Y-3.4646
X3.6476Y-4.4843
X3.6476Y-4.5433
X3.7264Y-3.4055
X3.7264Y-3.4646
X3.7264Y-4.4843
X3.7264Y-4.5433
X3.8051Y-3.4055
X3.8051Y-3.4646
X3.8051Y-4.4843
X3.8051Y-4.5433
X3.8839Y-3.4055
X3.8839Y-3.4646
X3.8839Y-4.4843
X3.8839Y-4.5433
X3.9626Y-3.4055
X3.9626Y-3.4646
X3.9626Y-4.4843
X3.9626Y-4.5433
X4.0413Y-3.4055
X4.0413Y-3.4646
X4.0413Y-4.4843
X4.0413Y-4.5433
X4.1201Y-3.4055
X4.1201Y-3.4646
X4.1201Y-4.4843
X4.1201Y-4.5433
X4.1988Y-3.4055
X4.1988Y-3.4646
X4.1988Y-4.4843
X4.1988Y-4.5433
X4.2776Y-3.4055
X4.2776Y-3.4646
X4.2776Y-4.4843
X4.2776Y-4.5433
X4.3563Y-3.4055
X4.3563Y-3.4646
X4.3563Y-4.4843
X4.3563Y-4.5433
X4.4331Y-3.5315
X4.4331Y-3.6102
X4.4331Y-3.689
X4.4331Y-3.7677
X4.4331Y-3.8465
X4.4331Y-3.9252
X4.4331Y-4.0039
X4.4331Y-4.0827
X4.4331Y-4.1614
X4.4331Y-4.2402
X4.4331Y-4.3189
X4.4331Y-4.3976
X4.4921Y-3.5315
X4.4921Y-3.6102
X4.4921Y-3.689
X4.4921Y-3.7677
X4.4921Y-3.8465
X4.4921Y-3.9252
X4.4921Y-4.0039
X4.4921Y-4.0827
X4.4921Y-4.1614
X4.4921Y-4.2402
X4.4921Y-4.3189
X4.4921Y-4.3976
T0
M30
