G04 #@! TF.GenerationSoftware,KiCad,Pcbnew,(5.1.4-0-10_14)*
G04 #@! TF.CreationDate,2019-11-16T13:32:52-06:00*
G04 #@! TF.ProjectId,CircuitBrains Deluxe v1_0,43697263-7569-4744-9272-61696e732044,rev?*
G04 #@! TF.SameCoordinates,Original*
G04 #@! TF.FileFunction,Legend,Bot*
G04 #@! TF.FilePolarity,Positive*
%FSLAX46Y46*%
G04 Gerber Fmt 4.6, Leading zero omitted, Abs format (unit mm)*
G04 Created by KiCad (PCBNEW (5.1.4-0-10_14)) date 2019-11-16 13:32:52*
%MOMM*%
%LPD*%
G04 APERTURE LIST*
%ADD10C,0.150000*%
G04 APERTURE END LIST*
D10*
X111130952Y-93952380D02*
X111130952Y-92952380D01*
X110702380Y-93952380D02*
X110702380Y-93428571D01*
X110750000Y-93333333D01*
X110845238Y-93285714D01*
X110988095Y-93285714D01*
X111083333Y-93333333D01*
X111130952Y-93380952D01*
X110369047Y-93285714D02*
X109988095Y-93285714D01*
X110226190Y-92952380D02*
X110226190Y-93809523D01*
X110178571Y-93904761D01*
X110083333Y-93952380D01*
X109988095Y-93952380D01*
X109797619Y-93285714D02*
X109416666Y-93285714D01*
X109654761Y-92952380D02*
X109654761Y-93809523D01*
X109607142Y-93904761D01*
X109511904Y-93952380D01*
X109416666Y-93952380D01*
X109083333Y-93285714D02*
X109083333Y-94285714D01*
X109083333Y-93333333D02*
X108988095Y-93285714D01*
X108797619Y-93285714D01*
X108702380Y-93333333D01*
X108654761Y-93380952D01*
X108607142Y-93476190D01*
X108607142Y-93761904D01*
X108654761Y-93857142D01*
X108702380Y-93904761D01*
X108797619Y-93952380D01*
X108988095Y-93952380D01*
X109083333Y-93904761D01*
X108178571Y-93857142D02*
X108130952Y-93904761D01*
X108178571Y-93952380D01*
X108226190Y-93904761D01*
X108178571Y-93857142D01*
X108178571Y-93952380D01*
X108178571Y-93333333D02*
X108130952Y-93380952D01*
X108178571Y-93428571D01*
X108226190Y-93380952D01*
X108178571Y-93333333D01*
X108178571Y-93428571D01*
X106988095Y-92904761D02*
X107845238Y-94190476D01*
X105940476Y-92904761D02*
X106797619Y-94190476D01*
X105607142Y-93952380D02*
X105607142Y-92952380D01*
X105607142Y-93333333D02*
X105511904Y-93285714D01*
X105321428Y-93285714D01*
X105226190Y-93333333D01*
X105178571Y-93380952D01*
X105130952Y-93476190D01*
X105130952Y-93761904D01*
X105178571Y-93857142D01*
X105226190Y-93904761D01*
X105321428Y-93952380D01*
X105511904Y-93952380D01*
X105607142Y-93904761D01*
X104702380Y-93952380D02*
X104702380Y-93285714D01*
X104702380Y-92952380D02*
X104750000Y-93000000D01*
X104702380Y-93047619D01*
X104654761Y-93000000D01*
X104702380Y-92952380D01*
X104702380Y-93047619D01*
X104369047Y-93285714D02*
X103988095Y-93285714D01*
X104226190Y-92952380D02*
X104226190Y-93809523D01*
X104178571Y-93904761D01*
X104083333Y-93952380D01*
X103988095Y-93952380D01*
X103654761Y-93857142D02*
X103607142Y-93904761D01*
X103654761Y-93952380D01*
X103702380Y-93904761D01*
X103654761Y-93857142D01*
X103654761Y-93952380D01*
X103035714Y-93952380D02*
X103130952Y-93904761D01*
X103178571Y-93809523D01*
X103178571Y-92952380D01*
X102750000Y-93285714D02*
X102511904Y-93952380D01*
X102273809Y-93285714D02*
X102511904Y-93952380D01*
X102607142Y-94190476D01*
X102654761Y-94238095D01*
X102750000Y-94285714D01*
X101178571Y-92904761D02*
X102035714Y-94190476D01*
X100273809Y-93857142D02*
X100321428Y-93904761D01*
X100464285Y-93952380D01*
X100559523Y-93952380D01*
X100702380Y-93904761D01*
X100797619Y-93809523D01*
X100845238Y-93714285D01*
X100892857Y-93523809D01*
X100892857Y-93380952D01*
X100845238Y-93190476D01*
X100797619Y-93095238D01*
X100702380Y-93000000D01*
X100559523Y-92952380D01*
X100464285Y-92952380D01*
X100321428Y-93000000D01*
X100273809Y-93047619D01*
X99511904Y-93428571D02*
X99369047Y-93476190D01*
X99321428Y-93523809D01*
X99273809Y-93619047D01*
X99273809Y-93761904D01*
X99321428Y-93857142D01*
X99369047Y-93904761D01*
X99464285Y-93952380D01*
X99845238Y-93952380D01*
X99845238Y-92952380D01*
X99511904Y-92952380D01*
X99416666Y-93000000D01*
X99369047Y-93047619D01*
X99321428Y-93142857D01*
X99321428Y-93238095D01*
X99369047Y-93333333D01*
X99416666Y-93380952D01*
X99511904Y-93428571D01*
X99845238Y-93428571D01*
X98845238Y-93952380D02*
X98845238Y-92952380D01*
X98607142Y-92952380D01*
X98464285Y-93000000D01*
X98369047Y-93095238D01*
X98321428Y-93190476D01*
X98273809Y-93380952D01*
X98273809Y-93523809D01*
X98321428Y-93714285D01*
X98369047Y-93809523D01*
X98464285Y-93904761D01*
X98607142Y-93952380D01*
X98845238Y-93952380D01*
X97464285Y-93904761D02*
X97559523Y-93952380D01*
X97750000Y-93952380D01*
X97845238Y-93904761D01*
X97892857Y-93809523D01*
X97892857Y-93428571D01*
X97845238Y-93333333D01*
X97750000Y-93285714D01*
X97559523Y-93285714D01*
X97464285Y-93333333D01*
X97416666Y-93428571D01*
X97416666Y-93523809D01*
X97892857Y-93619047D01*
X96845238Y-93952380D02*
X96940476Y-93904761D01*
X96988095Y-93809523D01*
X96988095Y-92952380D01*
X96035714Y-93285714D02*
X96035714Y-93952380D01*
X96464285Y-93285714D02*
X96464285Y-93809523D01*
X96416666Y-93904761D01*
X96321428Y-93952380D01*
X96178571Y-93952380D01*
X96083333Y-93904761D01*
X96035714Y-93857142D01*
X95654761Y-93952380D02*
X95130952Y-93285714D01*
X95654761Y-93285714D02*
X95130952Y-93952380D01*
X94369047Y-93904761D02*
X94464285Y-93952380D01*
X94654761Y-93952380D01*
X94750000Y-93904761D01*
X94797619Y-93809523D01*
X94797619Y-93428571D01*
X94750000Y-93333333D01*
X94654761Y-93285714D01*
X94464285Y-93285714D01*
X94369047Y-93333333D01*
X94321428Y-93428571D01*
X94321428Y-93523809D01*
X94797619Y-93619047D01*
X110369047Y-91726190D02*
X110416666Y-91678571D01*
X110511904Y-91630952D01*
X110607142Y-91630952D01*
X110702380Y-91678571D01*
X110750000Y-91726190D01*
X110797619Y-91821428D01*
X110797619Y-91916666D01*
X110750000Y-92011904D01*
X110702380Y-92059523D01*
X110607142Y-92107142D01*
X110511904Y-92107142D01*
X110416666Y-92059523D01*
X110369047Y-92011904D01*
X110369047Y-91630952D02*
X110369047Y-92011904D01*
X110321428Y-92059523D01*
X110273809Y-92059523D01*
X110178571Y-92011904D01*
X110130952Y-91916666D01*
X110130952Y-91678571D01*
X110226190Y-91535714D01*
X110369047Y-91440476D01*
X110559523Y-91392857D01*
X110750000Y-91440476D01*
X110892857Y-91535714D01*
X110988095Y-91678571D01*
X111035714Y-91869047D01*
X110988095Y-92059523D01*
X110892857Y-92202380D01*
X110750000Y-92297619D01*
X110559523Y-92345238D01*
X110369047Y-92297619D01*
X110226190Y-92202380D01*
X109702380Y-92202380D02*
X109702380Y-91202380D01*
X109607142Y-91821428D02*
X109321428Y-92202380D01*
X109321428Y-91535714D02*
X109702380Y-91916666D01*
X108511904Y-92154761D02*
X108607142Y-92202380D01*
X108797619Y-92202380D01*
X108892857Y-92154761D01*
X108940476Y-92059523D01*
X108940476Y-91678571D01*
X108892857Y-91583333D01*
X108797619Y-91535714D01*
X108607142Y-91535714D01*
X108511904Y-91583333D01*
X108464285Y-91678571D01*
X108464285Y-91773809D01*
X108940476Y-91869047D01*
X108130952Y-91535714D02*
X107892857Y-92202380D01*
X107654761Y-91535714D01*
X107273809Y-92202380D02*
X107273809Y-91535714D01*
X107273809Y-91202380D02*
X107321428Y-91250000D01*
X107273809Y-91297619D01*
X107226190Y-91250000D01*
X107273809Y-91202380D01*
X107273809Y-91297619D01*
X106797619Y-91535714D02*
X106797619Y-92202380D01*
X106797619Y-91630952D02*
X106750000Y-91583333D01*
X106654761Y-91535714D01*
X106511904Y-91535714D01*
X106416666Y-91583333D01*
X106369047Y-91678571D01*
X106369047Y-92202380D01*
X105892857Y-91535714D02*
X105892857Y-92202380D01*
X105892857Y-91630952D02*
X105845238Y-91583333D01*
X105750000Y-91535714D01*
X105607142Y-91535714D01*
X105511904Y-91583333D01*
X105464285Y-91678571D01*
X105464285Y-92202380D01*
X104607142Y-92154761D02*
X104702380Y-92202380D01*
X104892857Y-92202380D01*
X104988095Y-92154761D01*
X105035714Y-92059523D01*
X105035714Y-91678571D01*
X104988095Y-91583333D01*
X104892857Y-91535714D01*
X104702380Y-91535714D01*
X104607142Y-91583333D01*
X104559523Y-91678571D01*
X104559523Y-91773809D01*
X105035714Y-91869047D01*
X103702380Y-91535714D02*
X103702380Y-92202380D01*
X104130952Y-91535714D02*
X104130952Y-92059523D01*
X104083333Y-92154761D01*
X103988095Y-92202380D01*
X103845238Y-92202380D01*
X103750000Y-92154761D01*
X103702380Y-92107142D01*
X103226190Y-92202380D02*
X103226190Y-91202380D01*
X103226190Y-91583333D02*
X103130952Y-91535714D01*
X102940476Y-91535714D01*
X102845238Y-91583333D01*
X102797619Y-91630952D01*
X102750000Y-91726190D01*
X102750000Y-92011904D01*
X102797619Y-92107142D01*
X102845238Y-92154761D01*
X102940476Y-92202380D01*
X103130952Y-92202380D01*
X103226190Y-92154761D01*
X101892857Y-92202380D02*
X101892857Y-91678571D01*
X101940476Y-91583333D01*
X102035714Y-91535714D01*
X102226190Y-91535714D01*
X102321428Y-91583333D01*
X101892857Y-92154761D02*
X101988095Y-92202380D01*
X102226190Y-92202380D01*
X102321428Y-92154761D01*
X102369047Y-92059523D01*
X102369047Y-91964285D01*
X102321428Y-91869047D01*
X102226190Y-91821428D01*
X101988095Y-91821428D01*
X101892857Y-91773809D01*
X100988095Y-91535714D02*
X100988095Y-92202380D01*
X101416666Y-91535714D02*
X101416666Y-92059523D01*
X101369047Y-92154761D01*
X101273809Y-92202380D01*
X101130952Y-92202380D01*
X101035714Y-92154761D01*
X100988095Y-92107142D01*
X100130952Y-92154761D02*
X100226190Y-92202380D01*
X100416666Y-92202380D01*
X100511904Y-92154761D01*
X100559523Y-92059523D01*
X100559523Y-91678571D01*
X100511904Y-91583333D01*
X100416666Y-91535714D01*
X100226190Y-91535714D01*
X100130952Y-91583333D01*
X100083333Y-91678571D01*
X100083333Y-91773809D01*
X100559523Y-91869047D01*
X99654761Y-92202380D02*
X99654761Y-91535714D01*
X99654761Y-91726190D02*
X99607142Y-91630952D01*
X99559523Y-91583333D01*
X99464285Y-91535714D01*
X99369047Y-91535714D01*
X110357142Y-90607142D02*
X110404761Y-90654761D01*
X110547619Y-90702380D01*
X110642857Y-90702380D01*
X110785714Y-90654761D01*
X110880952Y-90559523D01*
X110928571Y-90464285D01*
X110976190Y-90273809D01*
X110976190Y-90130952D01*
X110928571Y-89940476D01*
X110880952Y-89845238D01*
X110785714Y-89750000D01*
X110642857Y-89702380D01*
X110547619Y-89702380D01*
X110404761Y-89750000D01*
X110357142Y-89797619D01*
X109928571Y-90702380D02*
X109928571Y-90035714D01*
X109928571Y-89702380D02*
X109976190Y-89750000D01*
X109928571Y-89797619D01*
X109880952Y-89750000D01*
X109928571Y-89702380D01*
X109928571Y-89797619D01*
X109452380Y-90702380D02*
X109452380Y-90035714D01*
X109452380Y-90226190D02*
X109404761Y-90130952D01*
X109357142Y-90083333D01*
X109261904Y-90035714D01*
X109166666Y-90035714D01*
X108404761Y-90654761D02*
X108500000Y-90702380D01*
X108690476Y-90702380D01*
X108785714Y-90654761D01*
X108833333Y-90607142D01*
X108880952Y-90511904D01*
X108880952Y-90226190D01*
X108833333Y-90130952D01*
X108785714Y-90083333D01*
X108690476Y-90035714D01*
X108500000Y-90035714D01*
X108404761Y-90083333D01*
X107547619Y-90035714D02*
X107547619Y-90702380D01*
X107976190Y-90035714D02*
X107976190Y-90559523D01*
X107928571Y-90654761D01*
X107833333Y-90702380D01*
X107690476Y-90702380D01*
X107595238Y-90654761D01*
X107547619Y-90607142D01*
X107071428Y-90702380D02*
X107071428Y-90035714D01*
X107071428Y-89702380D02*
X107119047Y-89750000D01*
X107071428Y-89797619D01*
X107023809Y-89750000D01*
X107071428Y-89702380D01*
X107071428Y-89797619D01*
X106738095Y-90035714D02*
X106357142Y-90035714D01*
X106595238Y-89702380D02*
X106595238Y-90559523D01*
X106547619Y-90654761D01*
X106452380Y-90702380D01*
X106357142Y-90702380D01*
X105690476Y-90178571D02*
X105547619Y-90226190D01*
X105500000Y-90273809D01*
X105452380Y-90369047D01*
X105452380Y-90511904D01*
X105500000Y-90607142D01*
X105547619Y-90654761D01*
X105642857Y-90702380D01*
X106023809Y-90702380D01*
X106023809Y-89702380D01*
X105690476Y-89702380D01*
X105595238Y-89750000D01*
X105547619Y-89797619D01*
X105500000Y-89892857D01*
X105500000Y-89988095D01*
X105547619Y-90083333D01*
X105595238Y-90130952D01*
X105690476Y-90178571D01*
X106023809Y-90178571D01*
X105023809Y-90702380D02*
X105023809Y-90035714D01*
X105023809Y-90226190D02*
X104976190Y-90130952D01*
X104928571Y-90083333D01*
X104833333Y-90035714D01*
X104738095Y-90035714D01*
X103976190Y-90702380D02*
X103976190Y-90178571D01*
X104023809Y-90083333D01*
X104119047Y-90035714D01*
X104309523Y-90035714D01*
X104404761Y-90083333D01*
X103976190Y-90654761D02*
X104071428Y-90702380D01*
X104309523Y-90702380D01*
X104404761Y-90654761D01*
X104452380Y-90559523D01*
X104452380Y-90464285D01*
X104404761Y-90369047D01*
X104309523Y-90321428D01*
X104071428Y-90321428D01*
X103976190Y-90273809D01*
X103500000Y-90702380D02*
X103500000Y-90035714D01*
X103500000Y-89702380D02*
X103547619Y-89750000D01*
X103500000Y-89797619D01*
X103452380Y-89750000D01*
X103500000Y-89702380D01*
X103500000Y-89797619D01*
X103023809Y-90035714D02*
X103023809Y-90702380D01*
X103023809Y-90130952D02*
X102976190Y-90083333D01*
X102880952Y-90035714D01*
X102738095Y-90035714D01*
X102642857Y-90083333D01*
X102595238Y-90178571D01*
X102595238Y-90702380D01*
X102166666Y-90654761D02*
X102071428Y-90702380D01*
X101880952Y-90702380D01*
X101785714Y-90654761D01*
X101738095Y-90559523D01*
X101738095Y-90511904D01*
X101785714Y-90416666D01*
X101880952Y-90369047D01*
X102023809Y-90369047D01*
X102119047Y-90321428D01*
X102166666Y-90226190D01*
X102166666Y-90178571D01*
X102119047Y-90083333D01*
X102023809Y-90035714D01*
X101880952Y-90035714D01*
X101785714Y-90083333D01*
X100547619Y-90702380D02*
X100547619Y-89702380D01*
X100309523Y-89702380D01*
X100166666Y-89750000D01*
X100071428Y-89845238D01*
X100023809Y-89940476D01*
X99976190Y-90130952D01*
X99976190Y-90273809D01*
X100023809Y-90464285D01*
X100071428Y-90559523D01*
X100166666Y-90654761D01*
X100309523Y-90702380D01*
X100547619Y-90702380D01*
X99166666Y-90654761D02*
X99261904Y-90702380D01*
X99452380Y-90702380D01*
X99547619Y-90654761D01*
X99595238Y-90559523D01*
X99595238Y-90178571D01*
X99547619Y-90083333D01*
X99452380Y-90035714D01*
X99261904Y-90035714D01*
X99166666Y-90083333D01*
X99119047Y-90178571D01*
X99119047Y-90273809D01*
X99595238Y-90369047D01*
X98547619Y-90702380D02*
X98642857Y-90654761D01*
X98690476Y-90559523D01*
X98690476Y-89702380D01*
X97738095Y-90035714D02*
X97738095Y-90702380D01*
X98166666Y-90035714D02*
X98166666Y-90559523D01*
X98119047Y-90654761D01*
X98023809Y-90702380D01*
X97880952Y-90702380D01*
X97785714Y-90654761D01*
X97738095Y-90607142D01*
X97357142Y-90702380D02*
X96833333Y-90035714D01*
X97357142Y-90035714D02*
X96833333Y-90702380D01*
X96071428Y-90654761D02*
X96166666Y-90702380D01*
X96357142Y-90702380D01*
X96452380Y-90654761D01*
X96500000Y-90559523D01*
X96500000Y-90178571D01*
X96452380Y-90083333D01*
X96357142Y-90035714D01*
X96166666Y-90035714D01*
X96071428Y-90083333D01*
X96023809Y-90178571D01*
X96023809Y-90273809D01*
X96500000Y-90369047D01*
M02*
