G04 #@! TF.GenerationSoftware,KiCad,Pcbnew,(5.1.4-0-10_14)*
G04 #@! TF.CreationDate,2019-11-16T13:32:52-06:00*
G04 #@! TF.ProjectId,CircuitBrains Deluxe v1_0,43697263-7569-4744-9272-61696e732044,rev?*
G04 #@! TF.SameCoordinates,Original*
G04 #@! TF.FileFunction,Copper,L4,Bot*
G04 #@! TF.FilePolarity,Positive*
%FSLAX46Y46*%
G04 Gerber Fmt 4.6, Leading zero omitted, Abs format (unit mm)*
G04 Created by KiCad (PCBNEW (5.1.4-0-10_14)) date 2019-11-16 13:32:52*
%MOMM*%
%LPD*%
G04 APERTURE LIST*
%ADD10R,1.500000X3.000000*%
%ADD11R,3.000000X1.500000*%
%ADD12C,1.400000*%
%ADD13C,0.508000*%
%ADD14C,0.152400*%
%ADD15C,0.200000*%
%ADD16C,0.254000*%
G04 APERTURE END LIST*
D10*
X88650000Y-87200000D03*
X90650000Y-87200000D03*
X92650000Y-87200000D03*
X94650000Y-87200000D03*
X96650000Y-87200000D03*
X98650000Y-87200000D03*
X100650000Y-87200000D03*
X102650000Y-87200000D03*
X104650000Y-87200000D03*
X106650000Y-87200000D03*
X108650000Y-87200000D03*
X110650000Y-87200000D03*
X88650000Y-114700000D03*
X90650000Y-114700000D03*
X92650000Y-114700000D03*
X94650000Y-114700000D03*
X96650000Y-114700000D03*
X98650000Y-114700000D03*
X100650000Y-114700000D03*
X102650000Y-114700000D03*
X104650000Y-114700000D03*
X106650000Y-114700000D03*
X108650000Y-114700000D03*
X110650000Y-114700000D03*
D11*
X113400000Y-111700000D03*
X113400000Y-109700000D03*
X113400000Y-107700000D03*
X113400000Y-105700000D03*
X113400000Y-103700000D03*
X113400000Y-101700000D03*
X113400000Y-99700000D03*
X113400000Y-97700000D03*
X113400000Y-95700000D03*
X113400000Y-93700000D03*
X113400000Y-91700000D03*
X113400000Y-89700000D03*
X85900000Y-89700000D03*
X85900000Y-91700000D03*
X85900000Y-93700000D03*
X85900000Y-95700000D03*
X85900000Y-97700000D03*
X85900000Y-99700000D03*
X85900000Y-101700000D03*
X85900000Y-103700000D03*
X85900000Y-105700000D03*
X85900000Y-107700000D03*
X85900000Y-109700000D03*
X85900000Y-111700000D03*
D12*
X88650000Y-115400000D03*
X90650000Y-115400000D03*
X92650000Y-115400000D03*
X94650000Y-115400000D03*
X96650000Y-115400000D03*
X98650000Y-115400000D03*
X100650000Y-115400000D03*
X102650000Y-115400000D03*
X104650000Y-115400000D03*
X106650000Y-115400000D03*
X108650000Y-115400000D03*
X88650000Y-113900000D03*
X90650000Y-113900000D03*
X92650000Y-113900000D03*
X94650000Y-113900000D03*
X96650000Y-113900000D03*
X98650000Y-113900000D03*
X100650000Y-113900000D03*
X102650000Y-113900000D03*
X104650000Y-113900000D03*
X106650000Y-113900000D03*
X108650000Y-113900000D03*
X110650000Y-115400000D03*
X110650000Y-113900000D03*
X88650000Y-86500000D03*
X90650000Y-86500000D03*
X92650000Y-86500000D03*
X94650000Y-86500000D03*
X96650000Y-86500000D03*
X98650000Y-86500000D03*
X100650000Y-86500000D03*
X102650000Y-86500000D03*
X104650000Y-86500000D03*
X106650000Y-86500000D03*
X108650000Y-86500000D03*
X88650000Y-88000000D03*
X90650000Y-88000000D03*
X92650000Y-88000000D03*
X94650000Y-88000000D03*
X96650000Y-88000000D03*
X98650000Y-88000000D03*
X100650000Y-88000000D03*
X102650000Y-88000000D03*
X104650000Y-88000000D03*
X106650000Y-88000000D03*
X108650000Y-88000000D03*
X110650000Y-86500000D03*
X114100000Y-111700000D03*
X112600000Y-111700000D03*
X114100000Y-109700000D03*
X112600000Y-109700000D03*
X114100000Y-107700000D03*
X112600000Y-107700000D03*
X114100000Y-105700000D03*
X112600000Y-105700000D03*
X114100000Y-103700000D03*
X112600000Y-103700000D03*
X114100000Y-101700000D03*
X112600000Y-101700000D03*
X114100000Y-99700000D03*
X112600000Y-99700000D03*
X114100000Y-97700000D03*
X112600000Y-97700000D03*
X114100000Y-95700000D03*
X112600000Y-95700000D03*
X114100000Y-93700000D03*
X112600000Y-93700000D03*
X114100000Y-91700000D03*
X112600000Y-91700000D03*
X114100000Y-89700000D03*
X112600000Y-89700000D03*
X85200000Y-89700000D03*
X86700000Y-89700000D03*
X85200000Y-91700000D03*
X86700000Y-91700000D03*
X85200000Y-93700000D03*
X86700000Y-93700000D03*
X85200000Y-95700000D03*
X86700000Y-95700000D03*
X85200000Y-97700000D03*
X86700000Y-97700000D03*
X85200000Y-99700000D03*
X86700000Y-99700000D03*
X85200000Y-101700000D03*
X86700000Y-101700000D03*
X85200000Y-103700000D03*
X86700000Y-103700000D03*
X85200000Y-105700000D03*
X86700000Y-105700000D03*
X85200000Y-109700000D03*
X86700000Y-109700000D03*
X85200000Y-111700000D03*
X85200000Y-107700000D03*
D13*
X103600000Y-104000000D03*
X103750000Y-101500000D03*
X109000000Y-99250000D03*
X101000000Y-96750000D03*
X88500000Y-91000000D03*
X91250000Y-91000000D03*
X96750000Y-99250000D03*
X96000000Y-110500000D03*
X109000000Y-104750000D03*
X108750000Y-101500000D03*
D12*
X86700000Y-111700000D03*
X110650000Y-88000000D03*
D13*
X101100000Y-107300000D03*
X94000000Y-107800000D03*
X93800000Y-106600000D03*
X94100000Y-104000000D03*
X110478094Y-105831857D03*
X105700000Y-111800000D03*
X107100000Y-107300000D03*
X100700000Y-91400000D03*
X104100000Y-89500000D03*
X93700000Y-96200000D03*
X92600000Y-94300000D03*
X104004300Y-102521700D03*
X100625000Y-94983100D03*
X105101000Y-107399000D03*
X93500000Y-99000000D03*
X109750000Y-96250000D03*
X102000000Y-109750000D03*
X97000000Y-105750000D03*
X91750000Y-106000000D03*
X89250000Y-98750000D03*
D12*
X86700000Y-107700000D03*
D13*
X106721675Y-98821675D03*
X89500000Y-92000000D03*
X103995100Y-99081600D03*
X103518000Y-100203500D03*
X96774400Y-100291200D03*
X89064200Y-105156800D03*
X90503600Y-102067200D03*
X96709000Y-97073800D03*
X92187200Y-102055900D03*
X96851800Y-97744500D03*
X102235300Y-95059000D03*
X95997500Y-95706700D03*
X94680400Y-100535300D03*
X98082100Y-105546500D03*
X98276700Y-106255900D03*
X99063500Y-105853500D03*
X107500000Y-105900000D03*
X101466800Y-105872500D03*
X102449000Y-106100000D03*
X103207000Y-106100000D03*
X103326300Y-102612500D03*
X108100000Y-109400000D03*
X103553900Y-97603200D03*
X106001100Y-97573000D03*
D14*
X86600000Y-107950000D02*
X85740000Y-107950000D01*
X85740000Y-107950000D02*
X85725000Y-107965000D01*
X104735400Y-99821900D02*
X103995100Y-99081600D01*
X111625700Y-99821900D02*
X111747600Y-99700000D01*
X111747600Y-99700000D02*
X113400000Y-99700000D01*
X104735400Y-99821900D02*
X111625700Y-99821900D01*
X112650000Y-101700000D02*
X113400000Y-101700000D01*
X111153500Y-100203500D02*
X112650000Y-101700000D01*
X103518000Y-100203500D02*
X111153500Y-100203500D01*
X86650000Y-93700000D02*
X85900000Y-93700000D01*
X93485300Y-100535300D02*
X86650000Y-93700000D01*
X93935300Y-100535300D02*
X93485300Y-100535300D01*
X93935300Y-100535300D02*
X94680400Y-100535300D01*
X109300000Y-107700000D02*
X112650000Y-107700000D01*
X107500000Y-105900000D02*
X109300000Y-107700000D01*
X112650000Y-107700000D02*
X113400000Y-107700000D01*
D15*
X108650000Y-113950000D02*
X108650000Y-114700000D01*
X109425000Y-113175000D02*
X108650000Y-113950000D01*
X109425000Y-113076000D02*
X109425000Y-113175000D01*
X102449000Y-106100000D02*
X109425000Y-113076000D01*
X103207000Y-106100000D02*
X103207000Y-106222000D01*
X110650000Y-113950000D02*
X110650000Y-114700000D01*
X103207000Y-106100000D02*
X103207000Y-106221603D01*
X103207000Y-106221603D02*
X109875000Y-112889603D01*
X109875000Y-113175000D02*
X110650000Y-113950000D01*
X109875000Y-112889603D02*
X109875000Y-113175000D01*
D14*
X112650000Y-111700000D02*
X113110051Y-111700000D01*
X113110051Y-111700000D02*
X114100000Y-111700000D01*
X110603999Y-109653999D02*
X112650000Y-111700000D01*
X108353999Y-109653999D02*
X110603999Y-109653999D01*
X108100000Y-109400000D02*
X108353999Y-109653999D01*
X104013100Y-98062400D02*
X103553900Y-97603200D01*
X111747600Y-97700000D02*
X113400000Y-97700000D01*
X111047601Y-97000001D02*
X111747600Y-97700000D01*
X105075499Y-97000001D02*
X111047601Y-97000001D01*
X104013100Y-98062400D02*
X105075499Y-97000001D01*
D16*
G36*
X113490001Y-88311928D02*
G01*
X112037090Y-88311928D01*
X112035000Y-87485750D01*
X111876250Y-87327000D01*
X110777000Y-87327000D01*
X110777000Y-89176250D01*
X110935750Y-89335000D01*
X111261928Y-89337158D01*
X111261928Y-90450000D01*
X111274188Y-90574482D01*
X111310498Y-90694180D01*
X111313609Y-90700000D01*
X111310498Y-90705820D01*
X111274188Y-90825518D01*
X111261928Y-90950000D01*
X111261928Y-92450000D01*
X111274188Y-92574482D01*
X111310498Y-92694180D01*
X111313609Y-92700000D01*
X111310498Y-92705820D01*
X111274188Y-92825518D01*
X111261928Y-92950000D01*
X111261928Y-94450000D01*
X111274188Y-94574482D01*
X111310498Y-94694180D01*
X111313609Y-94700000D01*
X111310498Y-94705820D01*
X111274188Y-94825518D01*
X111261928Y-94950000D01*
X111261928Y-96321815D01*
X111187021Y-96299092D01*
X111082537Y-96288801D01*
X111082527Y-96288801D01*
X111047601Y-96285361D01*
X111012675Y-96288801D01*
X110639000Y-96288801D01*
X110639000Y-96162441D01*
X110604836Y-95990688D01*
X110537821Y-95828901D01*
X110440531Y-95683296D01*
X110316704Y-95559469D01*
X110171099Y-95462179D01*
X110009312Y-95395164D01*
X109837559Y-95361000D01*
X109662441Y-95361000D01*
X109490688Y-95395164D01*
X109328901Y-95462179D01*
X109183296Y-95559469D01*
X109059469Y-95683296D01*
X108962179Y-95828901D01*
X108895164Y-95990688D01*
X108861000Y-96162441D01*
X108861000Y-96288801D01*
X105110424Y-96288801D01*
X105075498Y-96285361D01*
X105040572Y-96288801D01*
X105040563Y-96288801D01*
X104936079Y-96299092D01*
X104802018Y-96339759D01*
X104678466Y-96405799D01*
X104570172Y-96494674D01*
X104547902Y-96521810D01*
X104138824Y-96930889D01*
X104120604Y-96912669D01*
X103974999Y-96815379D01*
X103813212Y-96748364D01*
X103641459Y-96714200D01*
X103466341Y-96714200D01*
X103294588Y-96748364D01*
X103132801Y-96815379D01*
X102987196Y-96912669D01*
X102863369Y-97036496D01*
X102766079Y-97182101D01*
X102699064Y-97343888D01*
X102664900Y-97515641D01*
X102664900Y-97690759D01*
X102699064Y-97862512D01*
X102766079Y-98024299D01*
X102863369Y-98169904D01*
X102987196Y-98293731D01*
X103132801Y-98391021D01*
X103294588Y-98458036D01*
X103350339Y-98469126D01*
X103304569Y-98514896D01*
X103207279Y-98660501D01*
X103140264Y-98822288D01*
X103106100Y-98994041D01*
X103106100Y-99169159D01*
X103140264Y-99340912D01*
X103160348Y-99389398D01*
X103096901Y-99415679D01*
X102951296Y-99512969D01*
X102827469Y-99636796D01*
X102730179Y-99782401D01*
X102663164Y-99944188D01*
X102629000Y-100115941D01*
X102629000Y-100291059D01*
X102663164Y-100462812D01*
X102730179Y-100624599D01*
X102827469Y-100770204D01*
X102951296Y-100894031D01*
X103096901Y-100991321D01*
X103258688Y-101058336D01*
X103430441Y-101092500D01*
X103605559Y-101092500D01*
X103777312Y-101058336D01*
X103939099Y-100991321D01*
X104053771Y-100914700D01*
X110858913Y-100914700D01*
X111261928Y-101317716D01*
X111261928Y-102450000D01*
X111274188Y-102574482D01*
X111310498Y-102694180D01*
X111313609Y-102700000D01*
X111310498Y-102705820D01*
X111274188Y-102825518D01*
X111261928Y-102950000D01*
X111261928Y-104450000D01*
X111274188Y-104574482D01*
X111310498Y-104694180D01*
X111313609Y-104700000D01*
X111310498Y-104705820D01*
X111274188Y-104825518D01*
X111261928Y-104950000D01*
X111261928Y-106450000D01*
X111274188Y-106574482D01*
X111310498Y-106694180D01*
X111313609Y-106700000D01*
X111310498Y-106705820D01*
X111274188Y-106825518D01*
X111261928Y-106950000D01*
X111261928Y-106988800D01*
X109594589Y-106988800D01*
X108381742Y-105775955D01*
X108354836Y-105640688D01*
X108287821Y-105478901D01*
X108190531Y-105333296D01*
X108066704Y-105209469D01*
X107921099Y-105112179D01*
X107759312Y-105045164D01*
X107587559Y-105011000D01*
X107412441Y-105011000D01*
X107240688Y-105045164D01*
X107078901Y-105112179D01*
X106933296Y-105209469D01*
X106809469Y-105333296D01*
X106712179Y-105478901D01*
X106645164Y-105640688D01*
X106611000Y-105812441D01*
X106611000Y-105987559D01*
X106645164Y-106159312D01*
X106712179Y-106321099D01*
X106809469Y-106466704D01*
X106933296Y-106590531D01*
X107078901Y-106687821D01*
X107240688Y-106754836D01*
X107375955Y-106781742D01*
X108772407Y-108178196D01*
X108794673Y-108205327D01*
X108821804Y-108227593D01*
X108821808Y-108227597D01*
X108853781Y-108253836D01*
X108902967Y-108294202D01*
X109026519Y-108360242D01*
X109160580Y-108400909D01*
X109265064Y-108411200D01*
X109265073Y-108411200D01*
X109299999Y-108414640D01*
X109334925Y-108411200D01*
X111261928Y-108411200D01*
X111261928Y-108450000D01*
X111274188Y-108574482D01*
X111310498Y-108694180D01*
X111313609Y-108700000D01*
X111310498Y-108705820D01*
X111274188Y-108825518D01*
X111261928Y-108950000D01*
X111261928Y-109306141D01*
X111131601Y-109175814D01*
X111109326Y-109148672D01*
X111001032Y-109059797D01*
X110877480Y-108993757D01*
X110743419Y-108953090D01*
X110638935Y-108942799D01*
X110638925Y-108942799D01*
X110603999Y-108939359D01*
X110569073Y-108942799D01*
X108863698Y-108942799D01*
X108790531Y-108833296D01*
X108666704Y-108709469D01*
X108521099Y-108612179D01*
X108359312Y-108545164D01*
X108187559Y-108511000D01*
X108012441Y-108511000D01*
X107840688Y-108545164D01*
X107678901Y-108612179D01*
X107533296Y-108709469D01*
X107409469Y-108833296D01*
X107312179Y-108978901D01*
X107245164Y-109140688D01*
X107231952Y-109207109D01*
X105871246Y-107846402D01*
X105888821Y-107820099D01*
X105955836Y-107658312D01*
X105990000Y-107486559D01*
X105990000Y-107311441D01*
X105955836Y-107139688D01*
X105888821Y-106977901D01*
X105791531Y-106832296D01*
X105667704Y-106708469D01*
X105522099Y-106611179D01*
X105360312Y-106544164D01*
X105188559Y-106510000D01*
X105013441Y-106510000D01*
X104841688Y-106544164D01*
X104679901Y-106611179D01*
X104653598Y-106628754D01*
X104096000Y-106071157D01*
X104096000Y-106012441D01*
X104061836Y-105840688D01*
X103994821Y-105678901D01*
X103897531Y-105533296D01*
X103773704Y-105409469D01*
X103628099Y-105312179D01*
X103466312Y-105245164D01*
X103294559Y-105211000D01*
X103119441Y-105211000D01*
X102947688Y-105245164D01*
X102828000Y-105294741D01*
X102708312Y-105245164D01*
X102536559Y-105211000D01*
X102361441Y-105211000D01*
X102189688Y-105245164D01*
X102123935Y-105272400D01*
X102033504Y-105181969D01*
X101887899Y-105084679D01*
X101726112Y-105017664D01*
X101554359Y-104983500D01*
X101379241Y-104983500D01*
X101207488Y-105017664D01*
X101045701Y-105084679D01*
X100900096Y-105181969D01*
X100776269Y-105305796D01*
X100678979Y-105451401D01*
X100611964Y-105613188D01*
X100577800Y-105784941D01*
X100577800Y-105960059D01*
X100611964Y-106131812D01*
X100678979Y-106293599D01*
X100776269Y-106439204D01*
X100900096Y-106563031D01*
X101045701Y-106660321D01*
X101207488Y-106727336D01*
X101379241Y-106761500D01*
X101554359Y-106761500D01*
X101726112Y-106727336D01*
X101791865Y-106700100D01*
X101882296Y-106790531D01*
X102027901Y-106887821D01*
X102189688Y-106954836D01*
X102282939Y-106973385D01*
X107874038Y-112564485D01*
X107775518Y-112574188D01*
X107655820Y-112610498D01*
X107650000Y-112613609D01*
X107644180Y-112610498D01*
X107524482Y-112574188D01*
X107400000Y-112561928D01*
X105900000Y-112561928D01*
X105775518Y-112574188D01*
X105655820Y-112610498D01*
X105650000Y-112613609D01*
X105644180Y-112610498D01*
X105524482Y-112574188D01*
X105400000Y-112561928D01*
X103900000Y-112561928D01*
X103775518Y-112574188D01*
X103655820Y-112610498D01*
X103650000Y-112613609D01*
X103644180Y-112610498D01*
X103524482Y-112574188D01*
X103400000Y-112561928D01*
X101900000Y-112561928D01*
X101775518Y-112574188D01*
X101655820Y-112610498D01*
X101650000Y-112613609D01*
X101644180Y-112610498D01*
X101524482Y-112574188D01*
X101400000Y-112561928D01*
X99900000Y-112561928D01*
X99775518Y-112574188D01*
X99655820Y-112610498D01*
X99650000Y-112613609D01*
X99644180Y-112610498D01*
X99524482Y-112574188D01*
X99400000Y-112561928D01*
X97900000Y-112561928D01*
X97775518Y-112574188D01*
X97655820Y-112610498D01*
X97650000Y-112613609D01*
X97644180Y-112610498D01*
X97524482Y-112574188D01*
X97400000Y-112561928D01*
X95900000Y-112561928D01*
X95775518Y-112574188D01*
X95655820Y-112610498D01*
X95650000Y-112613609D01*
X95644180Y-112610498D01*
X95524482Y-112574188D01*
X95400000Y-112561928D01*
X93900000Y-112561928D01*
X93775518Y-112574188D01*
X93655820Y-112610498D01*
X93650000Y-112613609D01*
X93644180Y-112610498D01*
X93524482Y-112574188D01*
X93400000Y-112561928D01*
X91900000Y-112561928D01*
X91775518Y-112574188D01*
X91655820Y-112610498D01*
X91650000Y-112613609D01*
X91644180Y-112610498D01*
X91524482Y-112574188D01*
X91400000Y-112561928D01*
X89900000Y-112561928D01*
X89775518Y-112574188D01*
X89655820Y-112610498D01*
X89650000Y-112613609D01*
X89644180Y-112610498D01*
X89524482Y-112574188D01*
X89400000Y-112561928D01*
X88027048Y-112561928D01*
X88038072Y-112450000D01*
X88035000Y-111985750D01*
X87876250Y-111827000D01*
X86027000Y-111827000D01*
X86027000Y-112926250D01*
X86185750Y-113085000D01*
X87272983Y-113087751D01*
X87261928Y-113200000D01*
X87261928Y-114790000D01*
X85810000Y-114790000D01*
X85810000Y-111553000D01*
X86027000Y-111553000D01*
X86027000Y-111573000D01*
X87876250Y-111573000D01*
X88035000Y-111414250D01*
X88038072Y-110950000D01*
X88025812Y-110825518D01*
X87989502Y-110705820D01*
X87986391Y-110700000D01*
X87989502Y-110694180D01*
X88025812Y-110574482D01*
X88038072Y-110450000D01*
X88038072Y-109662441D01*
X101111000Y-109662441D01*
X101111000Y-109837559D01*
X101145164Y-110009312D01*
X101212179Y-110171099D01*
X101309469Y-110316704D01*
X101433296Y-110440531D01*
X101578901Y-110537821D01*
X101740688Y-110604836D01*
X101912441Y-110639000D01*
X102087559Y-110639000D01*
X102259312Y-110604836D01*
X102421099Y-110537821D01*
X102566704Y-110440531D01*
X102690531Y-110316704D01*
X102787821Y-110171099D01*
X102854836Y-110009312D01*
X102889000Y-109837559D01*
X102889000Y-109662441D01*
X102854836Y-109490688D01*
X102787821Y-109328901D01*
X102690531Y-109183296D01*
X102566704Y-109059469D01*
X102421099Y-108962179D01*
X102259312Y-108895164D01*
X102087559Y-108861000D01*
X101912441Y-108861000D01*
X101740688Y-108895164D01*
X101578901Y-108962179D01*
X101433296Y-109059469D01*
X101309469Y-109183296D01*
X101212179Y-109328901D01*
X101145164Y-109490688D01*
X101111000Y-109662441D01*
X88038072Y-109662441D01*
X88038072Y-108950000D01*
X88025812Y-108825518D01*
X87989502Y-108705820D01*
X87986391Y-108700000D01*
X87989502Y-108694180D01*
X88025812Y-108574482D01*
X88038072Y-108450000D01*
X88038072Y-106950000D01*
X88025812Y-106825518D01*
X87989502Y-106705820D01*
X87986391Y-106700000D01*
X87989502Y-106694180D01*
X88025812Y-106574482D01*
X88038072Y-106450000D01*
X88038072Y-105069241D01*
X88175200Y-105069241D01*
X88175200Y-105244359D01*
X88209364Y-105416112D01*
X88276379Y-105577899D01*
X88373669Y-105723504D01*
X88497496Y-105847331D01*
X88643101Y-105944621D01*
X88804888Y-106011636D01*
X88976641Y-106045800D01*
X89151759Y-106045800D01*
X89323512Y-106011636D01*
X89485299Y-105944621D01*
X89533459Y-105912441D01*
X90861000Y-105912441D01*
X90861000Y-106087559D01*
X90895164Y-106259312D01*
X90962179Y-106421099D01*
X91059469Y-106566704D01*
X91183296Y-106690531D01*
X91328901Y-106787821D01*
X91490688Y-106854836D01*
X91662441Y-106889000D01*
X91837559Y-106889000D01*
X92009312Y-106854836D01*
X92171099Y-106787821D01*
X92316704Y-106690531D01*
X92440531Y-106566704D01*
X92537821Y-106421099D01*
X92604836Y-106259312D01*
X92639000Y-106087559D01*
X92639000Y-105912441D01*
X92604836Y-105740688D01*
X92572425Y-105662441D01*
X96111000Y-105662441D01*
X96111000Y-105837559D01*
X96145164Y-106009312D01*
X96212179Y-106171099D01*
X96309469Y-106316704D01*
X96433296Y-106440531D01*
X96578901Y-106537821D01*
X96740688Y-106604836D01*
X96912441Y-106639000D01*
X97087559Y-106639000D01*
X97259312Y-106604836D01*
X97421099Y-106537821D01*
X97429033Y-106532520D01*
X97488879Y-106676999D01*
X97586169Y-106822604D01*
X97709996Y-106946431D01*
X97855601Y-107043721D01*
X98017388Y-107110736D01*
X98189141Y-107144900D01*
X98364259Y-107144900D01*
X98536012Y-107110736D01*
X98697799Y-107043721D01*
X98843404Y-106946431D01*
X98967231Y-106822604D01*
X99020755Y-106742500D01*
X99151059Y-106742500D01*
X99322812Y-106708336D01*
X99484599Y-106641321D01*
X99630204Y-106544031D01*
X99754031Y-106420204D01*
X99851321Y-106274599D01*
X99918336Y-106112812D01*
X99952500Y-105941059D01*
X99952500Y-105765941D01*
X99918336Y-105594188D01*
X99851321Y-105432401D01*
X99754031Y-105286796D01*
X99630204Y-105162969D01*
X99484599Y-105065679D01*
X99322812Y-104998664D01*
X99151059Y-104964500D01*
X98975941Y-104964500D01*
X98804188Y-104998664D01*
X98789346Y-105004812D01*
X98772631Y-104979796D01*
X98648804Y-104855969D01*
X98503199Y-104758679D01*
X98341412Y-104691664D01*
X98169659Y-104657500D01*
X97994541Y-104657500D01*
X97822788Y-104691664D01*
X97661001Y-104758679D01*
X97515396Y-104855969D01*
X97412675Y-104958690D01*
X97259312Y-104895164D01*
X97087559Y-104861000D01*
X96912441Y-104861000D01*
X96740688Y-104895164D01*
X96578901Y-104962179D01*
X96433296Y-105059469D01*
X96309469Y-105183296D01*
X96212179Y-105328901D01*
X96145164Y-105490688D01*
X96111000Y-105662441D01*
X92572425Y-105662441D01*
X92537821Y-105578901D01*
X92440531Y-105433296D01*
X92316704Y-105309469D01*
X92171099Y-105212179D01*
X92009312Y-105145164D01*
X91837559Y-105111000D01*
X91662441Y-105111000D01*
X91490688Y-105145164D01*
X91328901Y-105212179D01*
X91183296Y-105309469D01*
X91059469Y-105433296D01*
X90962179Y-105578901D01*
X90895164Y-105740688D01*
X90861000Y-105912441D01*
X89533459Y-105912441D01*
X89630904Y-105847331D01*
X89754731Y-105723504D01*
X89852021Y-105577899D01*
X89919036Y-105416112D01*
X89953200Y-105244359D01*
X89953200Y-105069241D01*
X89919036Y-104897488D01*
X89852021Y-104735701D01*
X89754731Y-104590096D01*
X89630904Y-104466269D01*
X89485299Y-104368979D01*
X89323512Y-104301964D01*
X89151759Y-104267800D01*
X88976641Y-104267800D01*
X88804888Y-104301964D01*
X88643101Y-104368979D01*
X88497496Y-104466269D01*
X88373669Y-104590096D01*
X88276379Y-104735701D01*
X88209364Y-104897488D01*
X88175200Y-105069241D01*
X88038072Y-105069241D01*
X88038072Y-104950000D01*
X88025812Y-104825518D01*
X87989502Y-104705820D01*
X87986391Y-104700000D01*
X87989502Y-104694180D01*
X88025812Y-104574482D01*
X88038072Y-104450000D01*
X88038072Y-102950000D01*
X88025812Y-102825518D01*
X87989502Y-102705820D01*
X87986391Y-102700000D01*
X87989502Y-102694180D01*
X88025812Y-102574482D01*
X88038072Y-102450000D01*
X88038072Y-101979641D01*
X89614600Y-101979641D01*
X89614600Y-102154759D01*
X89648764Y-102326512D01*
X89715779Y-102488299D01*
X89813069Y-102633904D01*
X89936896Y-102757731D01*
X90082501Y-102855021D01*
X90244288Y-102922036D01*
X90416041Y-102956200D01*
X90591159Y-102956200D01*
X90762912Y-102922036D01*
X90924699Y-102855021D01*
X91070304Y-102757731D01*
X91194131Y-102633904D01*
X91291421Y-102488299D01*
X91347740Y-102352333D01*
X91399379Y-102476999D01*
X91496669Y-102622604D01*
X91620496Y-102746431D01*
X91766101Y-102843721D01*
X91927888Y-102910736D01*
X92099641Y-102944900D01*
X92274759Y-102944900D01*
X92446512Y-102910736D01*
X92608299Y-102843721D01*
X92753904Y-102746431D01*
X92877731Y-102622604D01*
X92942987Y-102524941D01*
X102437300Y-102524941D01*
X102437300Y-102700059D01*
X102471464Y-102871812D01*
X102538479Y-103033599D01*
X102635769Y-103179204D01*
X102759596Y-103303031D01*
X102905201Y-103400321D01*
X103066988Y-103467336D01*
X103238741Y-103501500D01*
X103413859Y-103501500D01*
X103585612Y-103467336D01*
X103747399Y-103400321D01*
X103774277Y-103382362D01*
X103916741Y-103410700D01*
X104091859Y-103410700D01*
X104263612Y-103376536D01*
X104425399Y-103309521D01*
X104571004Y-103212231D01*
X104694831Y-103088404D01*
X104792121Y-102942799D01*
X104859136Y-102781012D01*
X104893300Y-102609259D01*
X104893300Y-102434141D01*
X104859136Y-102262388D01*
X104792121Y-102100601D01*
X104694831Y-101954996D01*
X104571004Y-101831169D01*
X104425399Y-101733879D01*
X104263612Y-101666864D01*
X104091859Y-101632700D01*
X103916741Y-101632700D01*
X103744988Y-101666864D01*
X103583201Y-101733879D01*
X103556323Y-101751838D01*
X103413859Y-101723500D01*
X103238741Y-101723500D01*
X103066988Y-101757664D01*
X102905201Y-101824679D01*
X102759596Y-101921969D01*
X102635769Y-102045796D01*
X102538479Y-102191401D01*
X102471464Y-102353188D01*
X102437300Y-102524941D01*
X92942987Y-102524941D01*
X92975021Y-102476999D01*
X93042036Y-102315212D01*
X93076200Y-102143459D01*
X93076200Y-101968341D01*
X93042036Y-101796588D01*
X92975021Y-101634801D01*
X92877731Y-101489196D01*
X92753904Y-101365369D01*
X92608299Y-101268079D01*
X92446512Y-101201064D01*
X92274759Y-101166900D01*
X92099641Y-101166900D01*
X91927888Y-101201064D01*
X91766101Y-101268079D01*
X91620496Y-101365369D01*
X91496669Y-101489196D01*
X91399379Y-101634801D01*
X91343060Y-101770767D01*
X91291421Y-101646101D01*
X91194131Y-101500496D01*
X91070304Y-101376669D01*
X90924699Y-101279379D01*
X90762912Y-101212364D01*
X90591159Y-101178200D01*
X90416041Y-101178200D01*
X90244288Y-101212364D01*
X90082501Y-101279379D01*
X89936896Y-101376669D01*
X89813069Y-101500496D01*
X89715779Y-101646101D01*
X89648764Y-101807888D01*
X89614600Y-101979641D01*
X88038072Y-101979641D01*
X88038072Y-100950000D01*
X88025812Y-100825518D01*
X87989502Y-100705820D01*
X87986391Y-100700000D01*
X87989502Y-100694180D01*
X88025812Y-100574482D01*
X88038072Y-100450000D01*
X88038072Y-98950000D01*
X88025812Y-98825518D01*
X87989502Y-98705820D01*
X87986391Y-98700000D01*
X87989502Y-98694180D01*
X87999129Y-98662441D01*
X88361000Y-98662441D01*
X88361000Y-98837559D01*
X88395164Y-99009312D01*
X88462179Y-99171099D01*
X88559469Y-99316704D01*
X88683296Y-99440531D01*
X88828901Y-99537821D01*
X88990688Y-99604836D01*
X89162441Y-99639000D01*
X89337559Y-99639000D01*
X89509312Y-99604836D01*
X89671099Y-99537821D01*
X89816704Y-99440531D01*
X89940531Y-99316704D01*
X90037821Y-99171099D01*
X90104836Y-99009312D01*
X90139000Y-98837559D01*
X90139000Y-98662441D01*
X90104836Y-98490688D01*
X90037821Y-98328901D01*
X89940531Y-98183296D01*
X89816704Y-98059469D01*
X89671099Y-97962179D01*
X89509312Y-97895164D01*
X89337559Y-97861000D01*
X89162441Y-97861000D01*
X88990688Y-97895164D01*
X88828901Y-97962179D01*
X88683296Y-98059469D01*
X88559469Y-98183296D01*
X88462179Y-98328901D01*
X88395164Y-98490688D01*
X88361000Y-98662441D01*
X87999129Y-98662441D01*
X88025812Y-98574482D01*
X88038072Y-98450000D01*
X88038072Y-96950000D01*
X88025812Y-96825518D01*
X87989502Y-96705820D01*
X87986391Y-96700000D01*
X87989502Y-96694180D01*
X88025812Y-96574482D01*
X88038072Y-96450000D01*
X88038072Y-96093859D01*
X92957703Y-101013491D01*
X92979973Y-101040627D01*
X93088267Y-101129502D01*
X93211819Y-101195542D01*
X93345880Y-101236209D01*
X93450364Y-101246500D01*
X93450371Y-101246500D01*
X93485300Y-101249940D01*
X93520228Y-101246500D01*
X94144629Y-101246500D01*
X94259301Y-101323121D01*
X94421088Y-101390136D01*
X94592841Y-101424300D01*
X94767959Y-101424300D01*
X94939712Y-101390136D01*
X95101499Y-101323121D01*
X95247104Y-101225831D01*
X95370931Y-101102004D01*
X95468221Y-100956399D01*
X95535236Y-100794612D01*
X95569400Y-100622859D01*
X95569400Y-100447741D01*
X95535236Y-100275988D01*
X95505269Y-100203641D01*
X95885400Y-100203641D01*
X95885400Y-100378759D01*
X95919564Y-100550512D01*
X95986579Y-100712299D01*
X96083869Y-100857904D01*
X96207696Y-100981731D01*
X96353301Y-101079021D01*
X96515088Y-101146036D01*
X96686841Y-101180200D01*
X96861959Y-101180200D01*
X97033712Y-101146036D01*
X97195499Y-101079021D01*
X97341104Y-100981731D01*
X97464931Y-100857904D01*
X97562221Y-100712299D01*
X97629236Y-100550512D01*
X97663400Y-100378759D01*
X97663400Y-100203641D01*
X97629236Y-100031888D01*
X97562221Y-99870101D01*
X97464931Y-99724496D01*
X97341104Y-99600669D01*
X97195499Y-99503379D01*
X97033712Y-99436364D01*
X96861959Y-99402200D01*
X96686841Y-99402200D01*
X96515088Y-99436364D01*
X96353301Y-99503379D01*
X96207696Y-99600669D01*
X96083869Y-99724496D01*
X95986579Y-99870101D01*
X95919564Y-100031888D01*
X95885400Y-100203641D01*
X95505269Y-100203641D01*
X95468221Y-100114201D01*
X95370931Y-99968596D01*
X95247104Y-99844769D01*
X95101499Y-99747479D01*
X94939712Y-99680464D01*
X94767959Y-99646300D01*
X94592841Y-99646300D01*
X94421088Y-99680464D01*
X94259301Y-99747479D01*
X94144629Y-99824100D01*
X93833515Y-99824100D01*
X93921099Y-99787821D01*
X94066704Y-99690531D01*
X94190531Y-99566704D01*
X94287821Y-99421099D01*
X94354836Y-99259312D01*
X94389000Y-99087559D01*
X94389000Y-98912441D01*
X94354836Y-98740688D01*
X94287821Y-98578901D01*
X94190531Y-98433296D01*
X94066704Y-98309469D01*
X93921099Y-98212179D01*
X93759312Y-98145164D01*
X93587559Y-98111000D01*
X93412441Y-98111000D01*
X93240688Y-98145164D01*
X93078901Y-98212179D01*
X92933296Y-98309469D01*
X92809469Y-98433296D01*
X92712179Y-98578901D01*
X92660193Y-98704405D01*
X89574929Y-95619141D01*
X95108500Y-95619141D01*
X95108500Y-95794259D01*
X95142664Y-95966012D01*
X95209679Y-96127799D01*
X95306969Y-96273404D01*
X95430796Y-96397231D01*
X95576401Y-96494521D01*
X95738188Y-96561536D01*
X95909941Y-96595700D01*
X95959266Y-96595700D01*
X95921179Y-96652701D01*
X95854164Y-96814488D01*
X95820000Y-96986241D01*
X95820000Y-97161359D01*
X95854164Y-97333112D01*
X95921179Y-97494899D01*
X95978090Y-97580073D01*
X95962800Y-97656941D01*
X95962800Y-97832059D01*
X95996964Y-98003812D01*
X96063979Y-98165599D01*
X96161269Y-98311204D01*
X96285096Y-98435031D01*
X96430701Y-98532321D01*
X96592488Y-98599336D01*
X96764241Y-98633500D01*
X96939359Y-98633500D01*
X97111112Y-98599336D01*
X97272899Y-98532321D01*
X97418504Y-98435031D01*
X97542331Y-98311204D01*
X97639621Y-98165599D01*
X97706636Y-98003812D01*
X97740800Y-97832059D01*
X97740800Y-97656941D01*
X97706636Y-97485188D01*
X97639621Y-97323401D01*
X97582710Y-97238227D01*
X97598000Y-97161359D01*
X97598000Y-96986241D01*
X97563836Y-96814488D01*
X97496821Y-96652701D01*
X97399531Y-96507096D01*
X97275704Y-96383269D01*
X97130099Y-96285979D01*
X96968312Y-96218964D01*
X96796559Y-96184800D01*
X96747234Y-96184800D01*
X96785321Y-96127799D01*
X96852336Y-95966012D01*
X96886500Y-95794259D01*
X96886500Y-95619141D01*
X96852336Y-95447388D01*
X96785321Y-95285601D01*
X96688031Y-95139996D01*
X96564204Y-95016169D01*
X96418599Y-94918879D01*
X96362257Y-94895541D01*
X99736000Y-94895541D01*
X99736000Y-95070659D01*
X99770164Y-95242412D01*
X99837179Y-95404199D01*
X99934469Y-95549804D01*
X100058296Y-95673631D01*
X100203901Y-95770921D01*
X100365688Y-95837936D01*
X100537441Y-95872100D01*
X100712559Y-95872100D01*
X100884312Y-95837936D01*
X101046099Y-95770921D01*
X101191704Y-95673631D01*
X101315531Y-95549804D01*
X101412821Y-95404199D01*
X101414430Y-95400313D01*
X101447479Y-95480099D01*
X101544769Y-95625704D01*
X101668596Y-95749531D01*
X101814201Y-95846821D01*
X101975988Y-95913836D01*
X102147741Y-95948000D01*
X102322859Y-95948000D01*
X102494612Y-95913836D01*
X102656399Y-95846821D01*
X102802004Y-95749531D01*
X102925831Y-95625704D01*
X103023121Y-95480099D01*
X103090136Y-95318312D01*
X103124300Y-95146559D01*
X103124300Y-94971441D01*
X103090136Y-94799688D01*
X103023121Y-94637901D01*
X102925831Y-94492296D01*
X102802004Y-94368469D01*
X102656399Y-94271179D01*
X102494612Y-94204164D01*
X102322859Y-94170000D01*
X102147741Y-94170000D01*
X101975988Y-94204164D01*
X101814201Y-94271179D01*
X101668596Y-94368469D01*
X101544769Y-94492296D01*
X101447479Y-94637901D01*
X101445870Y-94641787D01*
X101412821Y-94562001D01*
X101315531Y-94416396D01*
X101191704Y-94292569D01*
X101046099Y-94195279D01*
X100884312Y-94128264D01*
X100712559Y-94094100D01*
X100537441Y-94094100D01*
X100365688Y-94128264D01*
X100203901Y-94195279D01*
X100058296Y-94292569D01*
X99934469Y-94416396D01*
X99837179Y-94562001D01*
X99770164Y-94723788D01*
X99736000Y-94895541D01*
X96362257Y-94895541D01*
X96256812Y-94851864D01*
X96085059Y-94817700D01*
X95909941Y-94817700D01*
X95738188Y-94851864D01*
X95576401Y-94918879D01*
X95430796Y-95016169D01*
X95306969Y-95139996D01*
X95209679Y-95285601D01*
X95142664Y-95447388D01*
X95108500Y-95619141D01*
X89574929Y-95619141D01*
X88038072Y-94082285D01*
X88038072Y-92950000D01*
X88025812Y-92825518D01*
X87989502Y-92705820D01*
X87986391Y-92700000D01*
X87989502Y-92694180D01*
X88025812Y-92574482D01*
X88038072Y-92450000D01*
X88038072Y-91912441D01*
X88611000Y-91912441D01*
X88611000Y-92087559D01*
X88645164Y-92259312D01*
X88712179Y-92421099D01*
X88809469Y-92566704D01*
X88933296Y-92690531D01*
X89078901Y-92787821D01*
X89240688Y-92854836D01*
X89412441Y-92889000D01*
X89587559Y-92889000D01*
X89759312Y-92854836D01*
X89921099Y-92787821D01*
X90066704Y-92690531D01*
X90190531Y-92566704D01*
X90287821Y-92421099D01*
X90354836Y-92259312D01*
X90389000Y-92087559D01*
X90389000Y-91912441D01*
X90354836Y-91740688D01*
X90287821Y-91578901D01*
X90190531Y-91433296D01*
X90066704Y-91309469D01*
X89921099Y-91212179D01*
X89759312Y-91145164D01*
X89587559Y-91111000D01*
X89412441Y-91111000D01*
X89240688Y-91145164D01*
X89078901Y-91212179D01*
X88933296Y-91309469D01*
X88809469Y-91433296D01*
X88712179Y-91578901D01*
X88645164Y-91740688D01*
X88611000Y-91912441D01*
X88038072Y-91912441D01*
X88038072Y-90950000D01*
X88025812Y-90825518D01*
X87989502Y-90705820D01*
X87986391Y-90700000D01*
X87989502Y-90694180D01*
X88025812Y-90574482D01*
X88038072Y-90450000D01*
X88038072Y-89338072D01*
X89400000Y-89338072D01*
X89524482Y-89325812D01*
X89644180Y-89289502D01*
X89650000Y-89286391D01*
X89655820Y-89289502D01*
X89775518Y-89325812D01*
X89900000Y-89338072D01*
X91400000Y-89338072D01*
X91524482Y-89325812D01*
X91644180Y-89289502D01*
X91650000Y-89286391D01*
X91655820Y-89289502D01*
X91775518Y-89325812D01*
X91900000Y-89338072D01*
X93400000Y-89338072D01*
X93524482Y-89325812D01*
X93644180Y-89289502D01*
X93650000Y-89286391D01*
X93655820Y-89289502D01*
X93775518Y-89325812D01*
X93900000Y-89338072D01*
X95400000Y-89338072D01*
X95524482Y-89325812D01*
X95644180Y-89289502D01*
X95650000Y-89286391D01*
X95655820Y-89289502D01*
X95775518Y-89325812D01*
X95900000Y-89338072D01*
X97400000Y-89338072D01*
X97524482Y-89325812D01*
X97644180Y-89289502D01*
X97650000Y-89286391D01*
X97655820Y-89289502D01*
X97775518Y-89325812D01*
X97900000Y-89338072D01*
X99400000Y-89338072D01*
X99524482Y-89325812D01*
X99644180Y-89289502D01*
X99650000Y-89286391D01*
X99655820Y-89289502D01*
X99775518Y-89325812D01*
X99900000Y-89338072D01*
X101400000Y-89338072D01*
X101524482Y-89325812D01*
X101644180Y-89289502D01*
X101650000Y-89286391D01*
X101655820Y-89289502D01*
X101775518Y-89325812D01*
X101900000Y-89338072D01*
X103400000Y-89338072D01*
X103524482Y-89325812D01*
X103644180Y-89289502D01*
X103650000Y-89286391D01*
X103655820Y-89289502D01*
X103775518Y-89325812D01*
X103900000Y-89338072D01*
X105400000Y-89338072D01*
X105524482Y-89325812D01*
X105644180Y-89289502D01*
X105650000Y-89286391D01*
X105655820Y-89289502D01*
X105775518Y-89325812D01*
X105900000Y-89338072D01*
X107400000Y-89338072D01*
X107524482Y-89325812D01*
X107644180Y-89289502D01*
X107650000Y-89286391D01*
X107655820Y-89289502D01*
X107775518Y-89325812D01*
X107900000Y-89338072D01*
X109400000Y-89338072D01*
X109524482Y-89325812D01*
X109644180Y-89289502D01*
X109650000Y-89286391D01*
X109655820Y-89289502D01*
X109775518Y-89325812D01*
X109900000Y-89338072D01*
X110364250Y-89335000D01*
X110523000Y-89176250D01*
X110523000Y-87327000D01*
X110503000Y-87327000D01*
X110503000Y-87110000D01*
X113490001Y-87110000D01*
X113490001Y-88311928D01*
X113490001Y-88311928D01*
G37*
X113490001Y-88311928D02*
X112037090Y-88311928D01*
X112035000Y-87485750D01*
X111876250Y-87327000D01*
X110777000Y-87327000D01*
X110777000Y-89176250D01*
X110935750Y-89335000D01*
X111261928Y-89337158D01*
X111261928Y-90450000D01*
X111274188Y-90574482D01*
X111310498Y-90694180D01*
X111313609Y-90700000D01*
X111310498Y-90705820D01*
X111274188Y-90825518D01*
X111261928Y-90950000D01*
X111261928Y-92450000D01*
X111274188Y-92574482D01*
X111310498Y-92694180D01*
X111313609Y-92700000D01*
X111310498Y-92705820D01*
X111274188Y-92825518D01*
X111261928Y-92950000D01*
X111261928Y-94450000D01*
X111274188Y-94574482D01*
X111310498Y-94694180D01*
X111313609Y-94700000D01*
X111310498Y-94705820D01*
X111274188Y-94825518D01*
X111261928Y-94950000D01*
X111261928Y-96321815D01*
X111187021Y-96299092D01*
X111082537Y-96288801D01*
X111082527Y-96288801D01*
X111047601Y-96285361D01*
X111012675Y-96288801D01*
X110639000Y-96288801D01*
X110639000Y-96162441D01*
X110604836Y-95990688D01*
X110537821Y-95828901D01*
X110440531Y-95683296D01*
X110316704Y-95559469D01*
X110171099Y-95462179D01*
X110009312Y-95395164D01*
X109837559Y-95361000D01*
X109662441Y-95361000D01*
X109490688Y-95395164D01*
X109328901Y-95462179D01*
X109183296Y-95559469D01*
X109059469Y-95683296D01*
X108962179Y-95828901D01*
X108895164Y-95990688D01*
X108861000Y-96162441D01*
X108861000Y-96288801D01*
X105110424Y-96288801D01*
X105075498Y-96285361D01*
X105040572Y-96288801D01*
X105040563Y-96288801D01*
X104936079Y-96299092D01*
X104802018Y-96339759D01*
X104678466Y-96405799D01*
X104570172Y-96494674D01*
X104547902Y-96521810D01*
X104138824Y-96930889D01*
X104120604Y-96912669D01*
X103974999Y-96815379D01*
X103813212Y-96748364D01*
X103641459Y-96714200D01*
X103466341Y-96714200D01*
X103294588Y-96748364D01*
X103132801Y-96815379D01*
X102987196Y-96912669D01*
X102863369Y-97036496D01*
X102766079Y-97182101D01*
X102699064Y-97343888D01*
X102664900Y-97515641D01*
X102664900Y-97690759D01*
X102699064Y-97862512D01*
X102766079Y-98024299D01*
X102863369Y-98169904D01*
X102987196Y-98293731D01*
X103132801Y-98391021D01*
X103294588Y-98458036D01*
X103350339Y-98469126D01*
X103304569Y-98514896D01*
X103207279Y-98660501D01*
X103140264Y-98822288D01*
X103106100Y-98994041D01*
X103106100Y-99169159D01*
X103140264Y-99340912D01*
X103160348Y-99389398D01*
X103096901Y-99415679D01*
X102951296Y-99512969D01*
X102827469Y-99636796D01*
X102730179Y-99782401D01*
X102663164Y-99944188D01*
X102629000Y-100115941D01*
X102629000Y-100291059D01*
X102663164Y-100462812D01*
X102730179Y-100624599D01*
X102827469Y-100770204D01*
X102951296Y-100894031D01*
X103096901Y-100991321D01*
X103258688Y-101058336D01*
X103430441Y-101092500D01*
X103605559Y-101092500D01*
X103777312Y-101058336D01*
X103939099Y-100991321D01*
X104053771Y-100914700D01*
X110858913Y-100914700D01*
X111261928Y-101317716D01*
X111261928Y-102450000D01*
X111274188Y-102574482D01*
X111310498Y-102694180D01*
X111313609Y-102700000D01*
X111310498Y-102705820D01*
X111274188Y-102825518D01*
X111261928Y-102950000D01*
X111261928Y-104450000D01*
X111274188Y-104574482D01*
X111310498Y-104694180D01*
X111313609Y-104700000D01*
X111310498Y-104705820D01*
X111274188Y-104825518D01*
X111261928Y-104950000D01*
X111261928Y-106450000D01*
X111274188Y-106574482D01*
X111310498Y-106694180D01*
X111313609Y-106700000D01*
X111310498Y-106705820D01*
X111274188Y-106825518D01*
X111261928Y-106950000D01*
X111261928Y-106988800D01*
X109594589Y-106988800D01*
X108381742Y-105775955D01*
X108354836Y-105640688D01*
X108287821Y-105478901D01*
X108190531Y-105333296D01*
X108066704Y-105209469D01*
X107921099Y-105112179D01*
X107759312Y-105045164D01*
X107587559Y-105011000D01*
X107412441Y-105011000D01*
X107240688Y-105045164D01*
X107078901Y-105112179D01*
X106933296Y-105209469D01*
X106809469Y-105333296D01*
X106712179Y-105478901D01*
X106645164Y-105640688D01*
X106611000Y-105812441D01*
X106611000Y-105987559D01*
X106645164Y-106159312D01*
X106712179Y-106321099D01*
X106809469Y-106466704D01*
X106933296Y-106590531D01*
X107078901Y-106687821D01*
X107240688Y-106754836D01*
X107375955Y-106781742D01*
X108772407Y-108178196D01*
X108794673Y-108205327D01*
X108821804Y-108227593D01*
X108821808Y-108227597D01*
X108853781Y-108253836D01*
X108902967Y-108294202D01*
X109026519Y-108360242D01*
X109160580Y-108400909D01*
X109265064Y-108411200D01*
X109265073Y-108411200D01*
X109299999Y-108414640D01*
X109334925Y-108411200D01*
X111261928Y-108411200D01*
X111261928Y-108450000D01*
X111274188Y-108574482D01*
X111310498Y-108694180D01*
X111313609Y-108700000D01*
X111310498Y-108705820D01*
X111274188Y-108825518D01*
X111261928Y-108950000D01*
X111261928Y-109306141D01*
X111131601Y-109175814D01*
X111109326Y-109148672D01*
X111001032Y-109059797D01*
X110877480Y-108993757D01*
X110743419Y-108953090D01*
X110638935Y-108942799D01*
X110638925Y-108942799D01*
X110603999Y-108939359D01*
X110569073Y-108942799D01*
X108863698Y-108942799D01*
X108790531Y-108833296D01*
X108666704Y-108709469D01*
X108521099Y-108612179D01*
X108359312Y-108545164D01*
X108187559Y-108511000D01*
X108012441Y-108511000D01*
X107840688Y-108545164D01*
X107678901Y-108612179D01*
X107533296Y-108709469D01*
X107409469Y-108833296D01*
X107312179Y-108978901D01*
X107245164Y-109140688D01*
X107231952Y-109207109D01*
X105871246Y-107846402D01*
X105888821Y-107820099D01*
X105955836Y-107658312D01*
X105990000Y-107486559D01*
X105990000Y-107311441D01*
X105955836Y-107139688D01*
X105888821Y-106977901D01*
X105791531Y-106832296D01*
X105667704Y-106708469D01*
X105522099Y-106611179D01*
X105360312Y-106544164D01*
X105188559Y-106510000D01*
X105013441Y-106510000D01*
X104841688Y-106544164D01*
X104679901Y-106611179D01*
X104653598Y-106628754D01*
X104096000Y-106071157D01*
X104096000Y-106012441D01*
X104061836Y-105840688D01*
X103994821Y-105678901D01*
X103897531Y-105533296D01*
X103773704Y-105409469D01*
X103628099Y-105312179D01*
X103466312Y-105245164D01*
X103294559Y-105211000D01*
X103119441Y-105211000D01*
X102947688Y-105245164D01*
X102828000Y-105294741D01*
X102708312Y-105245164D01*
X102536559Y-105211000D01*
X102361441Y-105211000D01*
X102189688Y-105245164D01*
X102123935Y-105272400D01*
X102033504Y-105181969D01*
X101887899Y-105084679D01*
X101726112Y-105017664D01*
X101554359Y-104983500D01*
X101379241Y-104983500D01*
X101207488Y-105017664D01*
X101045701Y-105084679D01*
X100900096Y-105181969D01*
X100776269Y-105305796D01*
X100678979Y-105451401D01*
X100611964Y-105613188D01*
X100577800Y-105784941D01*
X100577800Y-105960059D01*
X100611964Y-106131812D01*
X100678979Y-106293599D01*
X100776269Y-106439204D01*
X100900096Y-106563031D01*
X101045701Y-106660321D01*
X101207488Y-106727336D01*
X101379241Y-106761500D01*
X101554359Y-106761500D01*
X101726112Y-106727336D01*
X101791865Y-106700100D01*
X101882296Y-106790531D01*
X102027901Y-106887821D01*
X102189688Y-106954836D01*
X102282939Y-106973385D01*
X107874038Y-112564485D01*
X107775518Y-112574188D01*
X107655820Y-112610498D01*
X107650000Y-112613609D01*
X107644180Y-112610498D01*
X107524482Y-112574188D01*
X107400000Y-112561928D01*
X105900000Y-112561928D01*
X105775518Y-112574188D01*
X105655820Y-112610498D01*
X105650000Y-112613609D01*
X105644180Y-112610498D01*
X105524482Y-112574188D01*
X105400000Y-112561928D01*
X103900000Y-112561928D01*
X103775518Y-112574188D01*
X103655820Y-112610498D01*
X103650000Y-112613609D01*
X103644180Y-112610498D01*
X103524482Y-112574188D01*
X103400000Y-112561928D01*
X101900000Y-112561928D01*
X101775518Y-112574188D01*
X101655820Y-112610498D01*
X101650000Y-112613609D01*
X101644180Y-112610498D01*
X101524482Y-112574188D01*
X101400000Y-112561928D01*
X99900000Y-112561928D01*
X99775518Y-112574188D01*
X99655820Y-112610498D01*
X99650000Y-112613609D01*
X99644180Y-112610498D01*
X99524482Y-112574188D01*
X99400000Y-112561928D01*
X97900000Y-112561928D01*
X97775518Y-112574188D01*
X97655820Y-112610498D01*
X97650000Y-112613609D01*
X97644180Y-112610498D01*
X97524482Y-112574188D01*
X97400000Y-112561928D01*
X95900000Y-112561928D01*
X95775518Y-112574188D01*
X95655820Y-112610498D01*
X95650000Y-112613609D01*
X95644180Y-112610498D01*
X95524482Y-112574188D01*
X95400000Y-112561928D01*
X93900000Y-112561928D01*
X93775518Y-112574188D01*
X93655820Y-112610498D01*
X93650000Y-112613609D01*
X93644180Y-112610498D01*
X93524482Y-112574188D01*
X93400000Y-112561928D01*
X91900000Y-112561928D01*
X91775518Y-112574188D01*
X91655820Y-112610498D01*
X91650000Y-112613609D01*
X91644180Y-112610498D01*
X91524482Y-112574188D01*
X91400000Y-112561928D01*
X89900000Y-112561928D01*
X89775518Y-112574188D01*
X89655820Y-112610498D01*
X89650000Y-112613609D01*
X89644180Y-112610498D01*
X89524482Y-112574188D01*
X89400000Y-112561928D01*
X88027048Y-112561928D01*
X88038072Y-112450000D01*
X88035000Y-111985750D01*
X87876250Y-111827000D01*
X86027000Y-111827000D01*
X86027000Y-112926250D01*
X86185750Y-113085000D01*
X87272983Y-113087751D01*
X87261928Y-113200000D01*
X87261928Y-114790000D01*
X85810000Y-114790000D01*
X85810000Y-111553000D01*
X86027000Y-111553000D01*
X86027000Y-111573000D01*
X87876250Y-111573000D01*
X88035000Y-111414250D01*
X88038072Y-110950000D01*
X88025812Y-110825518D01*
X87989502Y-110705820D01*
X87986391Y-110700000D01*
X87989502Y-110694180D01*
X88025812Y-110574482D01*
X88038072Y-110450000D01*
X88038072Y-109662441D01*
X101111000Y-109662441D01*
X101111000Y-109837559D01*
X101145164Y-110009312D01*
X101212179Y-110171099D01*
X101309469Y-110316704D01*
X101433296Y-110440531D01*
X101578901Y-110537821D01*
X101740688Y-110604836D01*
X101912441Y-110639000D01*
X102087559Y-110639000D01*
X102259312Y-110604836D01*
X102421099Y-110537821D01*
X102566704Y-110440531D01*
X102690531Y-110316704D01*
X102787821Y-110171099D01*
X102854836Y-110009312D01*
X102889000Y-109837559D01*
X102889000Y-109662441D01*
X102854836Y-109490688D01*
X102787821Y-109328901D01*
X102690531Y-109183296D01*
X102566704Y-109059469D01*
X102421099Y-108962179D01*
X102259312Y-108895164D01*
X102087559Y-108861000D01*
X101912441Y-108861000D01*
X101740688Y-108895164D01*
X101578901Y-108962179D01*
X101433296Y-109059469D01*
X101309469Y-109183296D01*
X101212179Y-109328901D01*
X101145164Y-109490688D01*
X101111000Y-109662441D01*
X88038072Y-109662441D01*
X88038072Y-108950000D01*
X88025812Y-108825518D01*
X87989502Y-108705820D01*
X87986391Y-108700000D01*
X87989502Y-108694180D01*
X88025812Y-108574482D01*
X88038072Y-108450000D01*
X88038072Y-106950000D01*
X88025812Y-106825518D01*
X87989502Y-106705820D01*
X87986391Y-106700000D01*
X87989502Y-106694180D01*
X88025812Y-106574482D01*
X88038072Y-106450000D01*
X88038072Y-105069241D01*
X88175200Y-105069241D01*
X88175200Y-105244359D01*
X88209364Y-105416112D01*
X88276379Y-105577899D01*
X88373669Y-105723504D01*
X88497496Y-105847331D01*
X88643101Y-105944621D01*
X88804888Y-106011636D01*
X88976641Y-106045800D01*
X89151759Y-106045800D01*
X89323512Y-106011636D01*
X89485299Y-105944621D01*
X89533459Y-105912441D01*
X90861000Y-105912441D01*
X90861000Y-106087559D01*
X90895164Y-106259312D01*
X90962179Y-106421099D01*
X91059469Y-106566704D01*
X91183296Y-106690531D01*
X91328901Y-106787821D01*
X91490688Y-106854836D01*
X91662441Y-106889000D01*
X91837559Y-106889000D01*
X92009312Y-106854836D01*
X92171099Y-106787821D01*
X92316704Y-106690531D01*
X92440531Y-106566704D01*
X92537821Y-106421099D01*
X92604836Y-106259312D01*
X92639000Y-106087559D01*
X92639000Y-105912441D01*
X92604836Y-105740688D01*
X92572425Y-105662441D01*
X96111000Y-105662441D01*
X96111000Y-105837559D01*
X96145164Y-106009312D01*
X96212179Y-106171099D01*
X96309469Y-106316704D01*
X96433296Y-106440531D01*
X96578901Y-106537821D01*
X96740688Y-106604836D01*
X96912441Y-106639000D01*
X97087559Y-106639000D01*
X97259312Y-106604836D01*
X97421099Y-106537821D01*
X97429033Y-106532520D01*
X97488879Y-106676999D01*
X97586169Y-106822604D01*
X97709996Y-106946431D01*
X97855601Y-107043721D01*
X98017388Y-107110736D01*
X98189141Y-107144900D01*
X98364259Y-107144900D01*
X98536012Y-107110736D01*
X98697799Y-107043721D01*
X98843404Y-106946431D01*
X98967231Y-106822604D01*
X99020755Y-106742500D01*
X99151059Y-106742500D01*
X99322812Y-106708336D01*
X99484599Y-106641321D01*
X99630204Y-106544031D01*
X99754031Y-106420204D01*
X99851321Y-106274599D01*
X99918336Y-106112812D01*
X99952500Y-105941059D01*
X99952500Y-105765941D01*
X99918336Y-105594188D01*
X99851321Y-105432401D01*
X99754031Y-105286796D01*
X99630204Y-105162969D01*
X99484599Y-105065679D01*
X99322812Y-104998664D01*
X99151059Y-104964500D01*
X98975941Y-104964500D01*
X98804188Y-104998664D01*
X98789346Y-105004812D01*
X98772631Y-104979796D01*
X98648804Y-104855969D01*
X98503199Y-104758679D01*
X98341412Y-104691664D01*
X98169659Y-104657500D01*
X97994541Y-104657500D01*
X97822788Y-104691664D01*
X97661001Y-104758679D01*
X97515396Y-104855969D01*
X97412675Y-104958690D01*
X97259312Y-104895164D01*
X97087559Y-104861000D01*
X96912441Y-104861000D01*
X96740688Y-104895164D01*
X96578901Y-104962179D01*
X96433296Y-105059469D01*
X96309469Y-105183296D01*
X96212179Y-105328901D01*
X96145164Y-105490688D01*
X96111000Y-105662441D01*
X92572425Y-105662441D01*
X92537821Y-105578901D01*
X92440531Y-105433296D01*
X92316704Y-105309469D01*
X92171099Y-105212179D01*
X92009312Y-105145164D01*
X91837559Y-105111000D01*
X91662441Y-105111000D01*
X91490688Y-105145164D01*
X91328901Y-105212179D01*
X91183296Y-105309469D01*
X91059469Y-105433296D01*
X90962179Y-105578901D01*
X90895164Y-105740688D01*
X90861000Y-105912441D01*
X89533459Y-105912441D01*
X89630904Y-105847331D01*
X89754731Y-105723504D01*
X89852021Y-105577899D01*
X89919036Y-105416112D01*
X89953200Y-105244359D01*
X89953200Y-105069241D01*
X89919036Y-104897488D01*
X89852021Y-104735701D01*
X89754731Y-104590096D01*
X89630904Y-104466269D01*
X89485299Y-104368979D01*
X89323512Y-104301964D01*
X89151759Y-104267800D01*
X88976641Y-104267800D01*
X88804888Y-104301964D01*
X88643101Y-104368979D01*
X88497496Y-104466269D01*
X88373669Y-104590096D01*
X88276379Y-104735701D01*
X88209364Y-104897488D01*
X88175200Y-105069241D01*
X88038072Y-105069241D01*
X88038072Y-104950000D01*
X88025812Y-104825518D01*
X87989502Y-104705820D01*
X87986391Y-104700000D01*
X87989502Y-104694180D01*
X88025812Y-104574482D01*
X88038072Y-104450000D01*
X88038072Y-102950000D01*
X88025812Y-102825518D01*
X87989502Y-102705820D01*
X87986391Y-102700000D01*
X87989502Y-102694180D01*
X88025812Y-102574482D01*
X88038072Y-102450000D01*
X88038072Y-101979641D01*
X89614600Y-101979641D01*
X89614600Y-102154759D01*
X89648764Y-102326512D01*
X89715779Y-102488299D01*
X89813069Y-102633904D01*
X89936896Y-102757731D01*
X90082501Y-102855021D01*
X90244288Y-102922036D01*
X90416041Y-102956200D01*
X90591159Y-102956200D01*
X90762912Y-102922036D01*
X90924699Y-102855021D01*
X91070304Y-102757731D01*
X91194131Y-102633904D01*
X91291421Y-102488299D01*
X91347740Y-102352333D01*
X91399379Y-102476999D01*
X91496669Y-102622604D01*
X91620496Y-102746431D01*
X91766101Y-102843721D01*
X91927888Y-102910736D01*
X92099641Y-102944900D01*
X92274759Y-102944900D01*
X92446512Y-102910736D01*
X92608299Y-102843721D01*
X92753904Y-102746431D01*
X92877731Y-102622604D01*
X92942987Y-102524941D01*
X102437300Y-102524941D01*
X102437300Y-102700059D01*
X102471464Y-102871812D01*
X102538479Y-103033599D01*
X102635769Y-103179204D01*
X102759596Y-103303031D01*
X102905201Y-103400321D01*
X103066988Y-103467336D01*
X103238741Y-103501500D01*
X103413859Y-103501500D01*
X103585612Y-103467336D01*
X103747399Y-103400321D01*
X103774277Y-103382362D01*
X103916741Y-103410700D01*
X104091859Y-103410700D01*
X104263612Y-103376536D01*
X104425399Y-103309521D01*
X104571004Y-103212231D01*
X104694831Y-103088404D01*
X104792121Y-102942799D01*
X104859136Y-102781012D01*
X104893300Y-102609259D01*
X104893300Y-102434141D01*
X104859136Y-102262388D01*
X104792121Y-102100601D01*
X104694831Y-101954996D01*
X104571004Y-101831169D01*
X104425399Y-101733879D01*
X104263612Y-101666864D01*
X104091859Y-101632700D01*
X103916741Y-101632700D01*
X103744988Y-101666864D01*
X103583201Y-101733879D01*
X103556323Y-101751838D01*
X103413859Y-101723500D01*
X103238741Y-101723500D01*
X103066988Y-101757664D01*
X102905201Y-101824679D01*
X102759596Y-101921969D01*
X102635769Y-102045796D01*
X102538479Y-102191401D01*
X102471464Y-102353188D01*
X102437300Y-102524941D01*
X92942987Y-102524941D01*
X92975021Y-102476999D01*
X93042036Y-102315212D01*
X93076200Y-102143459D01*
X93076200Y-101968341D01*
X93042036Y-101796588D01*
X92975021Y-101634801D01*
X92877731Y-101489196D01*
X92753904Y-101365369D01*
X92608299Y-101268079D01*
X92446512Y-101201064D01*
X92274759Y-101166900D01*
X92099641Y-101166900D01*
X91927888Y-101201064D01*
X91766101Y-101268079D01*
X91620496Y-101365369D01*
X91496669Y-101489196D01*
X91399379Y-101634801D01*
X91343060Y-101770767D01*
X91291421Y-101646101D01*
X91194131Y-101500496D01*
X91070304Y-101376669D01*
X90924699Y-101279379D01*
X90762912Y-101212364D01*
X90591159Y-101178200D01*
X90416041Y-101178200D01*
X90244288Y-101212364D01*
X90082501Y-101279379D01*
X89936896Y-101376669D01*
X89813069Y-101500496D01*
X89715779Y-101646101D01*
X89648764Y-101807888D01*
X89614600Y-101979641D01*
X88038072Y-101979641D01*
X88038072Y-100950000D01*
X88025812Y-100825518D01*
X87989502Y-100705820D01*
X87986391Y-100700000D01*
X87989502Y-100694180D01*
X88025812Y-100574482D01*
X88038072Y-100450000D01*
X88038072Y-98950000D01*
X88025812Y-98825518D01*
X87989502Y-98705820D01*
X87986391Y-98700000D01*
X87989502Y-98694180D01*
X87999129Y-98662441D01*
X88361000Y-98662441D01*
X88361000Y-98837559D01*
X88395164Y-99009312D01*
X88462179Y-99171099D01*
X88559469Y-99316704D01*
X88683296Y-99440531D01*
X88828901Y-99537821D01*
X88990688Y-99604836D01*
X89162441Y-99639000D01*
X89337559Y-99639000D01*
X89509312Y-99604836D01*
X89671099Y-99537821D01*
X89816704Y-99440531D01*
X89940531Y-99316704D01*
X90037821Y-99171099D01*
X90104836Y-99009312D01*
X90139000Y-98837559D01*
X90139000Y-98662441D01*
X90104836Y-98490688D01*
X90037821Y-98328901D01*
X89940531Y-98183296D01*
X89816704Y-98059469D01*
X89671099Y-97962179D01*
X89509312Y-97895164D01*
X89337559Y-97861000D01*
X89162441Y-97861000D01*
X88990688Y-97895164D01*
X88828901Y-97962179D01*
X88683296Y-98059469D01*
X88559469Y-98183296D01*
X88462179Y-98328901D01*
X88395164Y-98490688D01*
X88361000Y-98662441D01*
X87999129Y-98662441D01*
X88025812Y-98574482D01*
X88038072Y-98450000D01*
X88038072Y-96950000D01*
X88025812Y-96825518D01*
X87989502Y-96705820D01*
X87986391Y-96700000D01*
X87989502Y-96694180D01*
X88025812Y-96574482D01*
X88038072Y-96450000D01*
X88038072Y-96093859D01*
X92957703Y-101013491D01*
X92979973Y-101040627D01*
X93088267Y-101129502D01*
X93211819Y-101195542D01*
X93345880Y-101236209D01*
X93450364Y-101246500D01*
X93450371Y-101246500D01*
X93485300Y-101249940D01*
X93520228Y-101246500D01*
X94144629Y-101246500D01*
X94259301Y-101323121D01*
X94421088Y-101390136D01*
X94592841Y-101424300D01*
X94767959Y-101424300D01*
X94939712Y-101390136D01*
X95101499Y-101323121D01*
X95247104Y-101225831D01*
X95370931Y-101102004D01*
X95468221Y-100956399D01*
X95535236Y-100794612D01*
X95569400Y-100622859D01*
X95569400Y-100447741D01*
X95535236Y-100275988D01*
X95505269Y-100203641D01*
X95885400Y-100203641D01*
X95885400Y-100378759D01*
X95919564Y-100550512D01*
X95986579Y-100712299D01*
X96083869Y-100857904D01*
X96207696Y-100981731D01*
X96353301Y-101079021D01*
X96515088Y-101146036D01*
X96686841Y-101180200D01*
X96861959Y-101180200D01*
X97033712Y-101146036D01*
X97195499Y-101079021D01*
X97341104Y-100981731D01*
X97464931Y-100857904D01*
X97562221Y-100712299D01*
X97629236Y-100550512D01*
X97663400Y-100378759D01*
X97663400Y-100203641D01*
X97629236Y-100031888D01*
X97562221Y-99870101D01*
X97464931Y-99724496D01*
X97341104Y-99600669D01*
X97195499Y-99503379D01*
X97033712Y-99436364D01*
X96861959Y-99402200D01*
X96686841Y-99402200D01*
X96515088Y-99436364D01*
X96353301Y-99503379D01*
X96207696Y-99600669D01*
X96083869Y-99724496D01*
X95986579Y-99870101D01*
X95919564Y-100031888D01*
X95885400Y-100203641D01*
X95505269Y-100203641D01*
X95468221Y-100114201D01*
X95370931Y-99968596D01*
X95247104Y-99844769D01*
X95101499Y-99747479D01*
X94939712Y-99680464D01*
X94767959Y-99646300D01*
X94592841Y-99646300D01*
X94421088Y-99680464D01*
X94259301Y-99747479D01*
X94144629Y-99824100D01*
X93833515Y-99824100D01*
X93921099Y-99787821D01*
X94066704Y-99690531D01*
X94190531Y-99566704D01*
X94287821Y-99421099D01*
X94354836Y-99259312D01*
X94389000Y-99087559D01*
X94389000Y-98912441D01*
X94354836Y-98740688D01*
X94287821Y-98578901D01*
X94190531Y-98433296D01*
X94066704Y-98309469D01*
X93921099Y-98212179D01*
X93759312Y-98145164D01*
X93587559Y-98111000D01*
X93412441Y-98111000D01*
X93240688Y-98145164D01*
X93078901Y-98212179D01*
X92933296Y-98309469D01*
X92809469Y-98433296D01*
X92712179Y-98578901D01*
X92660193Y-98704405D01*
X89574929Y-95619141D01*
X95108500Y-95619141D01*
X95108500Y-95794259D01*
X95142664Y-95966012D01*
X95209679Y-96127799D01*
X95306969Y-96273404D01*
X95430796Y-96397231D01*
X95576401Y-96494521D01*
X95738188Y-96561536D01*
X95909941Y-96595700D01*
X95959266Y-96595700D01*
X95921179Y-96652701D01*
X95854164Y-96814488D01*
X95820000Y-96986241D01*
X95820000Y-97161359D01*
X95854164Y-97333112D01*
X95921179Y-97494899D01*
X95978090Y-97580073D01*
X95962800Y-97656941D01*
X95962800Y-97832059D01*
X95996964Y-98003812D01*
X96063979Y-98165599D01*
X96161269Y-98311204D01*
X96285096Y-98435031D01*
X96430701Y-98532321D01*
X96592488Y-98599336D01*
X96764241Y-98633500D01*
X96939359Y-98633500D01*
X97111112Y-98599336D01*
X97272899Y-98532321D01*
X97418504Y-98435031D01*
X97542331Y-98311204D01*
X97639621Y-98165599D01*
X97706636Y-98003812D01*
X97740800Y-97832059D01*
X97740800Y-97656941D01*
X97706636Y-97485188D01*
X97639621Y-97323401D01*
X97582710Y-97238227D01*
X97598000Y-97161359D01*
X97598000Y-96986241D01*
X97563836Y-96814488D01*
X97496821Y-96652701D01*
X97399531Y-96507096D01*
X97275704Y-96383269D01*
X97130099Y-96285979D01*
X96968312Y-96218964D01*
X96796559Y-96184800D01*
X96747234Y-96184800D01*
X96785321Y-96127799D01*
X96852336Y-95966012D01*
X96886500Y-95794259D01*
X96886500Y-95619141D01*
X96852336Y-95447388D01*
X96785321Y-95285601D01*
X96688031Y-95139996D01*
X96564204Y-95016169D01*
X96418599Y-94918879D01*
X96362257Y-94895541D01*
X99736000Y-94895541D01*
X99736000Y-95070659D01*
X99770164Y-95242412D01*
X99837179Y-95404199D01*
X99934469Y-95549804D01*
X100058296Y-95673631D01*
X100203901Y-95770921D01*
X100365688Y-95837936D01*
X100537441Y-95872100D01*
X100712559Y-95872100D01*
X100884312Y-95837936D01*
X101046099Y-95770921D01*
X101191704Y-95673631D01*
X101315531Y-95549804D01*
X101412821Y-95404199D01*
X101414430Y-95400313D01*
X101447479Y-95480099D01*
X101544769Y-95625704D01*
X101668596Y-95749531D01*
X101814201Y-95846821D01*
X101975988Y-95913836D01*
X102147741Y-95948000D01*
X102322859Y-95948000D01*
X102494612Y-95913836D01*
X102656399Y-95846821D01*
X102802004Y-95749531D01*
X102925831Y-95625704D01*
X103023121Y-95480099D01*
X103090136Y-95318312D01*
X103124300Y-95146559D01*
X103124300Y-94971441D01*
X103090136Y-94799688D01*
X103023121Y-94637901D01*
X102925831Y-94492296D01*
X102802004Y-94368469D01*
X102656399Y-94271179D01*
X102494612Y-94204164D01*
X102322859Y-94170000D01*
X102147741Y-94170000D01*
X101975988Y-94204164D01*
X101814201Y-94271179D01*
X101668596Y-94368469D01*
X101544769Y-94492296D01*
X101447479Y-94637901D01*
X101445870Y-94641787D01*
X101412821Y-94562001D01*
X101315531Y-94416396D01*
X101191704Y-94292569D01*
X101046099Y-94195279D01*
X100884312Y-94128264D01*
X100712559Y-94094100D01*
X100537441Y-94094100D01*
X100365688Y-94128264D01*
X100203901Y-94195279D01*
X100058296Y-94292569D01*
X99934469Y-94416396D01*
X99837179Y-94562001D01*
X99770164Y-94723788D01*
X99736000Y-94895541D01*
X96362257Y-94895541D01*
X96256812Y-94851864D01*
X96085059Y-94817700D01*
X95909941Y-94817700D01*
X95738188Y-94851864D01*
X95576401Y-94918879D01*
X95430796Y-95016169D01*
X95306969Y-95139996D01*
X95209679Y-95285601D01*
X95142664Y-95447388D01*
X95108500Y-95619141D01*
X89574929Y-95619141D01*
X88038072Y-94082285D01*
X88038072Y-92950000D01*
X88025812Y-92825518D01*
X87989502Y-92705820D01*
X87986391Y-92700000D01*
X87989502Y-92694180D01*
X88025812Y-92574482D01*
X88038072Y-92450000D01*
X88038072Y-91912441D01*
X88611000Y-91912441D01*
X88611000Y-92087559D01*
X88645164Y-92259312D01*
X88712179Y-92421099D01*
X88809469Y-92566704D01*
X88933296Y-92690531D01*
X89078901Y-92787821D01*
X89240688Y-92854836D01*
X89412441Y-92889000D01*
X89587559Y-92889000D01*
X89759312Y-92854836D01*
X89921099Y-92787821D01*
X90066704Y-92690531D01*
X90190531Y-92566704D01*
X90287821Y-92421099D01*
X90354836Y-92259312D01*
X90389000Y-92087559D01*
X90389000Y-91912441D01*
X90354836Y-91740688D01*
X90287821Y-91578901D01*
X90190531Y-91433296D01*
X90066704Y-91309469D01*
X89921099Y-91212179D01*
X89759312Y-91145164D01*
X89587559Y-91111000D01*
X89412441Y-91111000D01*
X89240688Y-91145164D01*
X89078901Y-91212179D01*
X88933296Y-91309469D01*
X88809469Y-91433296D01*
X88712179Y-91578901D01*
X88645164Y-91740688D01*
X88611000Y-91912441D01*
X88038072Y-91912441D01*
X88038072Y-90950000D01*
X88025812Y-90825518D01*
X87989502Y-90705820D01*
X87986391Y-90700000D01*
X87989502Y-90694180D01*
X88025812Y-90574482D01*
X88038072Y-90450000D01*
X88038072Y-89338072D01*
X89400000Y-89338072D01*
X89524482Y-89325812D01*
X89644180Y-89289502D01*
X89650000Y-89286391D01*
X89655820Y-89289502D01*
X89775518Y-89325812D01*
X89900000Y-89338072D01*
X91400000Y-89338072D01*
X91524482Y-89325812D01*
X91644180Y-89289502D01*
X91650000Y-89286391D01*
X91655820Y-89289502D01*
X91775518Y-89325812D01*
X91900000Y-89338072D01*
X93400000Y-89338072D01*
X93524482Y-89325812D01*
X93644180Y-89289502D01*
X93650000Y-89286391D01*
X93655820Y-89289502D01*
X93775518Y-89325812D01*
X93900000Y-89338072D01*
X95400000Y-89338072D01*
X95524482Y-89325812D01*
X95644180Y-89289502D01*
X95650000Y-89286391D01*
X95655820Y-89289502D01*
X95775518Y-89325812D01*
X95900000Y-89338072D01*
X97400000Y-89338072D01*
X97524482Y-89325812D01*
X97644180Y-89289502D01*
X97650000Y-89286391D01*
X97655820Y-89289502D01*
X97775518Y-89325812D01*
X97900000Y-89338072D01*
X99400000Y-89338072D01*
X99524482Y-89325812D01*
X99644180Y-89289502D01*
X99650000Y-89286391D01*
X99655820Y-89289502D01*
X99775518Y-89325812D01*
X99900000Y-89338072D01*
X101400000Y-89338072D01*
X101524482Y-89325812D01*
X101644180Y-89289502D01*
X101650000Y-89286391D01*
X101655820Y-89289502D01*
X101775518Y-89325812D01*
X101900000Y-89338072D01*
X103400000Y-89338072D01*
X103524482Y-89325812D01*
X103644180Y-89289502D01*
X103650000Y-89286391D01*
X103655820Y-89289502D01*
X103775518Y-89325812D01*
X103900000Y-89338072D01*
X105400000Y-89338072D01*
X105524482Y-89325812D01*
X105644180Y-89289502D01*
X105650000Y-89286391D01*
X105655820Y-89289502D01*
X105775518Y-89325812D01*
X105900000Y-89338072D01*
X107400000Y-89338072D01*
X107524482Y-89325812D01*
X107644180Y-89289502D01*
X107650000Y-89286391D01*
X107655820Y-89289502D01*
X107775518Y-89325812D01*
X107900000Y-89338072D01*
X109400000Y-89338072D01*
X109524482Y-89325812D01*
X109644180Y-89289502D01*
X109650000Y-89286391D01*
X109655820Y-89289502D01*
X109775518Y-89325812D01*
X109900000Y-89338072D01*
X110364250Y-89335000D01*
X110523000Y-89176250D01*
X110523000Y-87327000D01*
X110503000Y-87327000D01*
X110503000Y-87110000D01*
X113490001Y-87110000D01*
X113490001Y-88311928D01*
M02*
