G04 #@! TF.GenerationSoftware,KiCad,Pcbnew,(5.1.4-0-10_14)*
G04 #@! TF.CreationDate,2019-11-16T13:32:52-06:00*
G04 #@! TF.ProjectId,CircuitBrains Deluxe v1_0,43697263-7569-4744-9272-61696e732044,rev?*
G04 #@! TF.SameCoordinates,Original*
G04 #@! TF.FileFunction,Copper,L3,Inr*
G04 #@! TF.FilePolarity,Positive*
%FSLAX46Y46*%
G04 Gerber Fmt 4.6, Leading zero omitted, Abs format (unit mm)*
G04 Created by KiCad (PCBNEW (5.1.4-0-10_14)) date 2019-11-16 13:32:52*
%MOMM*%
%LPD*%
G04 APERTURE LIST*
%ADD10C,1.400000*%
%ADD11C,0.508000*%
%ADD12C,0.254000*%
G04 APERTURE END LIST*
D10*
X88650000Y-115400000D03*
X90650000Y-115400000D03*
X92650000Y-115400000D03*
X94650000Y-115400000D03*
X96650000Y-115400000D03*
X98650000Y-115400000D03*
X100650000Y-115400000D03*
X102650000Y-115400000D03*
X104650000Y-115400000D03*
X106650000Y-115400000D03*
X108650000Y-115400000D03*
X88650000Y-113900000D03*
X90650000Y-113900000D03*
X92650000Y-113900000D03*
X94650000Y-113900000D03*
X96650000Y-113900000D03*
X98650000Y-113900000D03*
X100650000Y-113900000D03*
X102650000Y-113900000D03*
X104650000Y-113900000D03*
X106650000Y-113900000D03*
X108650000Y-113900000D03*
X110650000Y-115400000D03*
X110650000Y-113900000D03*
X88650000Y-86500000D03*
X90650000Y-86500000D03*
X92650000Y-86500000D03*
X94650000Y-86500000D03*
X96650000Y-86500000D03*
X98650000Y-86500000D03*
X100650000Y-86500000D03*
X102650000Y-86500000D03*
X104650000Y-86500000D03*
X106650000Y-86500000D03*
X108650000Y-86500000D03*
X88650000Y-88000000D03*
X90650000Y-88000000D03*
X92650000Y-88000000D03*
X94650000Y-88000000D03*
X96650000Y-88000000D03*
X98650000Y-88000000D03*
X100650000Y-88000000D03*
X102650000Y-88000000D03*
X104650000Y-88000000D03*
X106650000Y-88000000D03*
X108650000Y-88000000D03*
X110650000Y-86500000D03*
X114100000Y-111700000D03*
X112600000Y-111700000D03*
X114100000Y-109700000D03*
X112600000Y-109700000D03*
X114100000Y-107700000D03*
X112600000Y-107700000D03*
X114100000Y-105700000D03*
X112600000Y-105700000D03*
X114100000Y-103700000D03*
X112600000Y-103700000D03*
X114100000Y-101700000D03*
X112600000Y-101700000D03*
X114100000Y-99700000D03*
X112600000Y-99700000D03*
X114100000Y-97700000D03*
X112600000Y-97700000D03*
X114100000Y-95700000D03*
X112600000Y-95700000D03*
X114100000Y-93700000D03*
X112600000Y-93700000D03*
X114100000Y-91700000D03*
X112600000Y-91700000D03*
X114100000Y-89700000D03*
X112600000Y-89700000D03*
X85200000Y-89700000D03*
X86700000Y-89700000D03*
X85200000Y-91700000D03*
X86700000Y-91700000D03*
X85200000Y-93700000D03*
X86700000Y-93700000D03*
X85200000Y-95700000D03*
X86700000Y-95700000D03*
X85200000Y-97700000D03*
X86700000Y-97700000D03*
X85200000Y-99700000D03*
X86700000Y-99700000D03*
X85200000Y-101700000D03*
X86700000Y-101700000D03*
X85200000Y-103700000D03*
X86700000Y-103700000D03*
X85200000Y-105700000D03*
X86700000Y-105700000D03*
X85200000Y-109700000D03*
X86700000Y-109700000D03*
X85200000Y-111700000D03*
X85200000Y-107700000D03*
D11*
X103600000Y-104000000D03*
X103750000Y-101500000D03*
X109000000Y-99250000D03*
X101000000Y-96750000D03*
X88500000Y-91000000D03*
X91250000Y-91000000D03*
X96750000Y-99250000D03*
X96000000Y-110500000D03*
X109000000Y-104750000D03*
X108750000Y-101500000D03*
D10*
X86700000Y-111700000D03*
X110650000Y-88000000D03*
D11*
X101100000Y-107300000D03*
X94000000Y-107800000D03*
X93800000Y-106600000D03*
X94100000Y-104000000D03*
X110478094Y-105831857D03*
X105700000Y-111800000D03*
X107100000Y-107300000D03*
X100700000Y-91400000D03*
X104100000Y-89500000D03*
X93700000Y-96200000D03*
X92600000Y-94300000D03*
X104004300Y-102521700D03*
X100625000Y-94983100D03*
X105101000Y-107399000D03*
X93500000Y-99000000D03*
X109750000Y-96250000D03*
X102000000Y-109750000D03*
X97000000Y-105750000D03*
X91750000Y-106000000D03*
X89250000Y-98750000D03*
D10*
X86700000Y-107700000D03*
D11*
X106721675Y-98821675D03*
X89500000Y-92000000D03*
X103995100Y-99081600D03*
X103518000Y-100203500D03*
X96774400Y-100291200D03*
X89064200Y-105156800D03*
X90503600Y-102067200D03*
X96709000Y-97073800D03*
X92187200Y-102055900D03*
X96851800Y-97744500D03*
X102235300Y-95059000D03*
X95997500Y-95706700D03*
X94680400Y-100535300D03*
X98082100Y-105546500D03*
X98276700Y-106255900D03*
X99063500Y-105853500D03*
X107500000Y-105900000D03*
X101466800Y-105872500D03*
X102449000Y-106100000D03*
X103207000Y-106100000D03*
X103326300Y-102612500D03*
X108100000Y-109400000D03*
X103553900Y-97603200D03*
X106001100Y-97573000D03*
D12*
G36*
X109798987Y-89036962D02*
G01*
X110017641Y-89183061D01*
X110260595Y-89283696D01*
X110518514Y-89335000D01*
X110781486Y-89335000D01*
X111039405Y-89283696D01*
X111282359Y-89183061D01*
X111402336Y-89102895D01*
X111316304Y-89310595D01*
X111265000Y-89568514D01*
X111265000Y-89831486D01*
X111316304Y-90089405D01*
X111416939Y-90332359D01*
X111563038Y-90551013D01*
X111712025Y-90700000D01*
X111563038Y-90848987D01*
X111416939Y-91067641D01*
X111316304Y-91310595D01*
X111265000Y-91568514D01*
X111265000Y-91831486D01*
X111316304Y-92089405D01*
X111416939Y-92332359D01*
X111563038Y-92551013D01*
X111712025Y-92700000D01*
X111563038Y-92848987D01*
X111416939Y-93067641D01*
X111316304Y-93310595D01*
X111265000Y-93568514D01*
X111265000Y-93831486D01*
X111316304Y-94089405D01*
X111416939Y-94332359D01*
X111563038Y-94551013D01*
X111712025Y-94700000D01*
X111563038Y-94848987D01*
X111416939Y-95067641D01*
X111316304Y-95310595D01*
X111265000Y-95568514D01*
X111265000Y-95831486D01*
X111316304Y-96089405D01*
X111416939Y-96332359D01*
X111563038Y-96551013D01*
X111712025Y-96700000D01*
X111563038Y-96848987D01*
X111416939Y-97067641D01*
X111316304Y-97310595D01*
X111265000Y-97568514D01*
X111265000Y-97831486D01*
X111316304Y-98089405D01*
X111416939Y-98332359D01*
X111563038Y-98551013D01*
X111712025Y-98700000D01*
X111563038Y-98848987D01*
X111416939Y-99067641D01*
X111316304Y-99310595D01*
X111265000Y-99568514D01*
X111265000Y-99831486D01*
X111316304Y-100089405D01*
X111416939Y-100332359D01*
X111563038Y-100551013D01*
X111712025Y-100700000D01*
X111563038Y-100848987D01*
X111416939Y-101067641D01*
X111316304Y-101310595D01*
X111265000Y-101568514D01*
X111265000Y-101831486D01*
X111316304Y-102089405D01*
X111416939Y-102332359D01*
X111563038Y-102551013D01*
X111712025Y-102700000D01*
X111563038Y-102848987D01*
X111416939Y-103067641D01*
X111316304Y-103310595D01*
X111265000Y-103568514D01*
X111265000Y-103831486D01*
X111316304Y-104089405D01*
X111416939Y-104332359D01*
X111563038Y-104551013D01*
X111712025Y-104700000D01*
X111563038Y-104848987D01*
X111416939Y-105067641D01*
X111316304Y-105310595D01*
X111286496Y-105460446D01*
X111265915Y-105410758D01*
X111168625Y-105265153D01*
X111044798Y-105141326D01*
X110899193Y-105044036D01*
X110737406Y-104977021D01*
X110565653Y-104942857D01*
X110390535Y-104942857D01*
X110218782Y-104977021D01*
X110056995Y-105044036D01*
X109911390Y-105141326D01*
X109787563Y-105265153D01*
X109690273Y-105410758D01*
X109623258Y-105572545D01*
X109589094Y-105744298D01*
X109589094Y-105919416D01*
X109623258Y-106091169D01*
X109690273Y-106252956D01*
X109787563Y-106398561D01*
X109911390Y-106522388D01*
X110056995Y-106619678D01*
X110218782Y-106686693D01*
X110390535Y-106720857D01*
X110565653Y-106720857D01*
X110737406Y-106686693D01*
X110899193Y-106619678D01*
X111044798Y-106522388D01*
X111168625Y-106398561D01*
X111265915Y-106252956D01*
X111324982Y-106110356D01*
X111416939Y-106332359D01*
X111563038Y-106551013D01*
X111712025Y-106700000D01*
X111563038Y-106848987D01*
X111416939Y-107067641D01*
X111316304Y-107310595D01*
X111265000Y-107568514D01*
X111265000Y-107831486D01*
X111316304Y-108089405D01*
X111416939Y-108332359D01*
X111563038Y-108551013D01*
X111712025Y-108700000D01*
X111563038Y-108848987D01*
X111416939Y-109067641D01*
X111316304Y-109310595D01*
X111265000Y-109568514D01*
X111265000Y-109831486D01*
X111316304Y-110089405D01*
X111416939Y-110332359D01*
X111563038Y-110551013D01*
X111712025Y-110700000D01*
X111563038Y-110848987D01*
X111416939Y-111067641D01*
X111316304Y-111310595D01*
X111265000Y-111568514D01*
X111265000Y-111831486D01*
X111316304Y-112089405D01*
X111416939Y-112332359D01*
X111563038Y-112551013D01*
X111748987Y-112736962D01*
X111967641Y-112883061D01*
X112210595Y-112983696D01*
X112468514Y-113035000D01*
X112731486Y-113035000D01*
X112989405Y-112983696D01*
X113232359Y-112883061D01*
X113350000Y-112804456D01*
X113467641Y-112883061D01*
X113490000Y-112892322D01*
X113490000Y-114790000D01*
X111842322Y-114790000D01*
X111833061Y-114767641D01*
X111754456Y-114650000D01*
X111833061Y-114532359D01*
X111933696Y-114289405D01*
X111985000Y-114031486D01*
X111985000Y-113768514D01*
X111933696Y-113510595D01*
X111833061Y-113267641D01*
X111686962Y-113048987D01*
X111501013Y-112863038D01*
X111282359Y-112716939D01*
X111039405Y-112616304D01*
X110781486Y-112565000D01*
X110518514Y-112565000D01*
X110260595Y-112616304D01*
X110017641Y-112716939D01*
X109798987Y-112863038D01*
X109650000Y-113012025D01*
X109501013Y-112863038D01*
X109282359Y-112716939D01*
X109039405Y-112616304D01*
X108781486Y-112565000D01*
X108518514Y-112565000D01*
X108260595Y-112616304D01*
X108017641Y-112716939D01*
X107798987Y-112863038D01*
X107650000Y-113012025D01*
X107501013Y-112863038D01*
X107282359Y-112716939D01*
X107039405Y-112616304D01*
X106781486Y-112565000D01*
X106518514Y-112565000D01*
X106260595Y-112616304D01*
X106017641Y-112716939D01*
X105798987Y-112863038D01*
X105650000Y-113012025D01*
X105501013Y-112863038D01*
X105282359Y-112716939D01*
X105039405Y-112616304D01*
X104781486Y-112565000D01*
X104518514Y-112565000D01*
X104260595Y-112616304D01*
X104017641Y-112716939D01*
X103798987Y-112863038D01*
X103650000Y-113012025D01*
X103501013Y-112863038D01*
X103282359Y-112716939D01*
X103039405Y-112616304D01*
X102781486Y-112565000D01*
X102518514Y-112565000D01*
X102260595Y-112616304D01*
X102017641Y-112716939D01*
X101798987Y-112863038D01*
X101650000Y-113012025D01*
X101501013Y-112863038D01*
X101282359Y-112716939D01*
X101039405Y-112616304D01*
X100781486Y-112565000D01*
X100518514Y-112565000D01*
X100260595Y-112616304D01*
X100017641Y-112716939D01*
X99798987Y-112863038D01*
X99650000Y-113012025D01*
X99501013Y-112863038D01*
X99282359Y-112716939D01*
X99039405Y-112616304D01*
X98781486Y-112565000D01*
X98518514Y-112565000D01*
X98260595Y-112616304D01*
X98017641Y-112716939D01*
X97798987Y-112863038D01*
X97650000Y-113012025D01*
X97501013Y-112863038D01*
X97282359Y-112716939D01*
X97039405Y-112616304D01*
X96781486Y-112565000D01*
X96518514Y-112565000D01*
X96260595Y-112616304D01*
X96017641Y-112716939D01*
X95798987Y-112863038D01*
X95650000Y-113012025D01*
X95501013Y-112863038D01*
X95282359Y-112716939D01*
X95039405Y-112616304D01*
X94781486Y-112565000D01*
X94518514Y-112565000D01*
X94260595Y-112616304D01*
X94017641Y-112716939D01*
X93798987Y-112863038D01*
X93650000Y-113012025D01*
X93501013Y-112863038D01*
X93282359Y-112716939D01*
X93039405Y-112616304D01*
X92781486Y-112565000D01*
X92518514Y-112565000D01*
X92260595Y-112616304D01*
X92017641Y-112716939D01*
X91798987Y-112863038D01*
X91650000Y-113012025D01*
X91501013Y-112863038D01*
X91282359Y-112716939D01*
X91039405Y-112616304D01*
X90781486Y-112565000D01*
X90518514Y-112565000D01*
X90260595Y-112616304D01*
X90017641Y-112716939D01*
X89798987Y-112863038D01*
X89650000Y-113012025D01*
X89501013Y-112863038D01*
X89282359Y-112716939D01*
X89039405Y-112616304D01*
X88781486Y-112565000D01*
X88518514Y-112565000D01*
X88260595Y-112616304D01*
X88017641Y-112716939D01*
X87798987Y-112863038D01*
X87613038Y-113048987D01*
X87466939Y-113267641D01*
X87366304Y-113510595D01*
X87315000Y-113768514D01*
X87315000Y-114031486D01*
X87366304Y-114289405D01*
X87466939Y-114532359D01*
X87545544Y-114650000D01*
X87466939Y-114767641D01*
X87457678Y-114790000D01*
X85810000Y-114790000D01*
X85810000Y-112892322D01*
X85832359Y-112883061D01*
X85950000Y-112804456D01*
X86067641Y-112883061D01*
X86310595Y-112983696D01*
X86568514Y-113035000D01*
X86831486Y-113035000D01*
X87089405Y-112983696D01*
X87332359Y-112883061D01*
X87551013Y-112736962D01*
X87736962Y-112551013D01*
X87883061Y-112332359D01*
X87983696Y-112089405D01*
X88035000Y-111831486D01*
X88035000Y-111712441D01*
X104811000Y-111712441D01*
X104811000Y-111887559D01*
X104845164Y-112059312D01*
X104912179Y-112221099D01*
X105009469Y-112366704D01*
X105133296Y-112490531D01*
X105278901Y-112587821D01*
X105440688Y-112654836D01*
X105612441Y-112689000D01*
X105787559Y-112689000D01*
X105959312Y-112654836D01*
X106121099Y-112587821D01*
X106266704Y-112490531D01*
X106390531Y-112366704D01*
X106487821Y-112221099D01*
X106554836Y-112059312D01*
X106589000Y-111887559D01*
X106589000Y-111712441D01*
X106554836Y-111540688D01*
X106487821Y-111378901D01*
X106390531Y-111233296D01*
X106266704Y-111109469D01*
X106121099Y-111012179D01*
X105959312Y-110945164D01*
X105787559Y-110911000D01*
X105612441Y-110911000D01*
X105440688Y-110945164D01*
X105278901Y-111012179D01*
X105133296Y-111109469D01*
X105009469Y-111233296D01*
X104912179Y-111378901D01*
X104845164Y-111540688D01*
X104811000Y-111712441D01*
X88035000Y-111712441D01*
X88035000Y-111568514D01*
X87983696Y-111310595D01*
X87883061Y-111067641D01*
X87736962Y-110848987D01*
X87587975Y-110700000D01*
X87736962Y-110551013D01*
X87829552Y-110412441D01*
X95111000Y-110412441D01*
X95111000Y-110587559D01*
X95145164Y-110759312D01*
X95212179Y-110921099D01*
X95309469Y-111066704D01*
X95433296Y-111190531D01*
X95578901Y-111287821D01*
X95740688Y-111354836D01*
X95912441Y-111389000D01*
X96087559Y-111389000D01*
X96259312Y-111354836D01*
X96421099Y-111287821D01*
X96566704Y-111190531D01*
X96690531Y-111066704D01*
X96787821Y-110921099D01*
X96854836Y-110759312D01*
X96889000Y-110587559D01*
X96889000Y-110412441D01*
X96854836Y-110240688D01*
X96787821Y-110078901D01*
X96690531Y-109933296D01*
X96566704Y-109809469D01*
X96421099Y-109712179D01*
X96259312Y-109645164D01*
X96087559Y-109611000D01*
X95912441Y-109611000D01*
X95740688Y-109645164D01*
X95578901Y-109712179D01*
X95433296Y-109809469D01*
X95309469Y-109933296D01*
X95212179Y-110078901D01*
X95145164Y-110240688D01*
X95111000Y-110412441D01*
X87829552Y-110412441D01*
X87883061Y-110332359D01*
X87983696Y-110089405D01*
X88035000Y-109831486D01*
X88035000Y-109568514D01*
X87984064Y-109312441D01*
X107211000Y-109312441D01*
X107211000Y-109487559D01*
X107245164Y-109659312D01*
X107312179Y-109821099D01*
X107409469Y-109966704D01*
X107533296Y-110090531D01*
X107678901Y-110187821D01*
X107840688Y-110254836D01*
X108012441Y-110289000D01*
X108187559Y-110289000D01*
X108359312Y-110254836D01*
X108521099Y-110187821D01*
X108666704Y-110090531D01*
X108790531Y-109966704D01*
X108887821Y-109821099D01*
X108954836Y-109659312D01*
X108989000Y-109487559D01*
X108989000Y-109312441D01*
X108954836Y-109140688D01*
X108887821Y-108978901D01*
X108790531Y-108833296D01*
X108666704Y-108709469D01*
X108521099Y-108612179D01*
X108359312Y-108545164D01*
X108187559Y-108511000D01*
X108012441Y-108511000D01*
X107840688Y-108545164D01*
X107678901Y-108612179D01*
X107533296Y-108709469D01*
X107409469Y-108833296D01*
X107312179Y-108978901D01*
X107245164Y-109140688D01*
X107211000Y-109312441D01*
X87984064Y-109312441D01*
X87983696Y-109310595D01*
X87883061Y-109067641D01*
X87736962Y-108848987D01*
X87551013Y-108663038D01*
X87332359Y-108516939D01*
X87089405Y-108416304D01*
X86831486Y-108365000D01*
X86568514Y-108365000D01*
X86310595Y-108416304D01*
X86067641Y-108516939D01*
X85950000Y-108595544D01*
X85832359Y-108516939D01*
X85810000Y-108507678D01*
X85810000Y-106892322D01*
X85832359Y-106883061D01*
X85950000Y-106804456D01*
X86067641Y-106883061D01*
X86310595Y-106983696D01*
X86568514Y-107035000D01*
X86831486Y-107035000D01*
X87089405Y-106983696D01*
X87332359Y-106883061D01*
X87551013Y-106736962D01*
X87736962Y-106551013D01*
X87762734Y-106512441D01*
X92911000Y-106512441D01*
X92911000Y-106687559D01*
X92945164Y-106859312D01*
X93012179Y-107021099D01*
X93109469Y-107166704D01*
X93233296Y-107290531D01*
X93259519Y-107308052D01*
X93212179Y-107378901D01*
X93145164Y-107540688D01*
X93111000Y-107712441D01*
X93111000Y-107887559D01*
X93145164Y-108059312D01*
X93212179Y-108221099D01*
X93309469Y-108366704D01*
X93433296Y-108490531D01*
X93578901Y-108587821D01*
X93740688Y-108654836D01*
X93912441Y-108689000D01*
X94087559Y-108689000D01*
X94259312Y-108654836D01*
X94421099Y-108587821D01*
X94566704Y-108490531D01*
X94690531Y-108366704D01*
X94787821Y-108221099D01*
X94854836Y-108059312D01*
X94889000Y-107887559D01*
X94889000Y-107712441D01*
X94854836Y-107540688D01*
X94787821Y-107378901D01*
X94690531Y-107233296D01*
X94669676Y-107212441D01*
X100211000Y-107212441D01*
X100211000Y-107387559D01*
X100245164Y-107559312D01*
X100312179Y-107721099D01*
X100409469Y-107866704D01*
X100533296Y-107990531D01*
X100678901Y-108087821D01*
X100840688Y-108154836D01*
X101012441Y-108189000D01*
X101187559Y-108189000D01*
X101359312Y-108154836D01*
X101521099Y-108087821D01*
X101666704Y-107990531D01*
X101790531Y-107866704D01*
X101887821Y-107721099D01*
X101954836Y-107559312D01*
X101989000Y-107387559D01*
X101989000Y-107212441D01*
X106211000Y-107212441D01*
X106211000Y-107387559D01*
X106245164Y-107559312D01*
X106312179Y-107721099D01*
X106409469Y-107866704D01*
X106533296Y-107990531D01*
X106678901Y-108087821D01*
X106840688Y-108154836D01*
X107012441Y-108189000D01*
X107187559Y-108189000D01*
X107359312Y-108154836D01*
X107521099Y-108087821D01*
X107666704Y-107990531D01*
X107790531Y-107866704D01*
X107887821Y-107721099D01*
X107954836Y-107559312D01*
X107989000Y-107387559D01*
X107989000Y-107212441D01*
X107954836Y-107040688D01*
X107887821Y-106878901D01*
X107795036Y-106740038D01*
X107921099Y-106687821D01*
X108066704Y-106590531D01*
X108190531Y-106466704D01*
X108287821Y-106321099D01*
X108354836Y-106159312D01*
X108389000Y-105987559D01*
X108389000Y-105812441D01*
X108354836Y-105640688D01*
X108287821Y-105478901D01*
X108190531Y-105333296D01*
X108066704Y-105209469D01*
X107921099Y-105112179D01*
X107759312Y-105045164D01*
X107587559Y-105011000D01*
X107412441Y-105011000D01*
X107240688Y-105045164D01*
X107078901Y-105112179D01*
X106933296Y-105209469D01*
X106809469Y-105333296D01*
X106712179Y-105478901D01*
X106645164Y-105640688D01*
X106611000Y-105812441D01*
X106611000Y-105987559D01*
X106645164Y-106159312D01*
X106712179Y-106321099D01*
X106804964Y-106459962D01*
X106678901Y-106512179D01*
X106533296Y-106609469D01*
X106409469Y-106733296D01*
X106312179Y-106878901D01*
X106245164Y-107040688D01*
X106211000Y-107212441D01*
X101989000Y-107212441D01*
X101954836Y-107040688D01*
X101887821Y-106878901D01*
X101790531Y-106733296D01*
X101767449Y-106710214D01*
X101791865Y-106700100D01*
X101882296Y-106790531D01*
X102027901Y-106887821D01*
X102189688Y-106954836D01*
X102361441Y-106989000D01*
X102536559Y-106989000D01*
X102708312Y-106954836D01*
X102828000Y-106905259D01*
X102947688Y-106954836D01*
X103119441Y-106989000D01*
X103294559Y-106989000D01*
X103466312Y-106954836D01*
X103628099Y-106887821D01*
X103773704Y-106790531D01*
X103897531Y-106666704D01*
X103994821Y-106521099D01*
X104061836Y-106359312D01*
X104096000Y-106187559D01*
X104096000Y-106012441D01*
X104061836Y-105840688D01*
X103994821Y-105678901D01*
X103897531Y-105533296D01*
X103773704Y-105409469D01*
X103628099Y-105312179D01*
X103466312Y-105245164D01*
X103294559Y-105211000D01*
X103119441Y-105211000D01*
X102947688Y-105245164D01*
X102828000Y-105294741D01*
X102708312Y-105245164D01*
X102536559Y-105211000D01*
X102361441Y-105211000D01*
X102189688Y-105245164D01*
X102123935Y-105272400D01*
X102033504Y-105181969D01*
X101887899Y-105084679D01*
X101726112Y-105017664D01*
X101554359Y-104983500D01*
X101379241Y-104983500D01*
X101207488Y-105017664D01*
X101045701Y-105084679D01*
X100900096Y-105181969D01*
X100776269Y-105305796D01*
X100678979Y-105451401D01*
X100611964Y-105613188D01*
X100577800Y-105784941D01*
X100577800Y-105960059D01*
X100611964Y-106131812D01*
X100678979Y-106293599D01*
X100776269Y-106439204D01*
X100799351Y-106462286D01*
X100678901Y-106512179D01*
X100533296Y-106609469D01*
X100409469Y-106733296D01*
X100312179Y-106878901D01*
X100245164Y-107040688D01*
X100211000Y-107212441D01*
X94669676Y-107212441D01*
X94566704Y-107109469D01*
X94540481Y-107091948D01*
X94587821Y-107021099D01*
X94654836Y-106859312D01*
X94689000Y-106687559D01*
X94689000Y-106512441D01*
X94654836Y-106340688D01*
X94587821Y-106178901D01*
X94490531Y-106033296D01*
X94366704Y-105909469D01*
X94221099Y-105812179D01*
X94059312Y-105745164D01*
X93887559Y-105711000D01*
X93712441Y-105711000D01*
X93540688Y-105745164D01*
X93378901Y-105812179D01*
X93233296Y-105909469D01*
X93109469Y-106033296D01*
X93012179Y-106178901D01*
X92945164Y-106340688D01*
X92911000Y-106512441D01*
X87762734Y-106512441D01*
X87883061Y-106332359D01*
X87983696Y-106089405D01*
X88035000Y-105831486D01*
X88035000Y-105568514D01*
X87983696Y-105310595D01*
X87883724Y-105069241D01*
X88175200Y-105069241D01*
X88175200Y-105244359D01*
X88209364Y-105416112D01*
X88276379Y-105577899D01*
X88373669Y-105723504D01*
X88497496Y-105847331D01*
X88643101Y-105944621D01*
X88804888Y-106011636D01*
X88976641Y-106045800D01*
X89151759Y-106045800D01*
X89323512Y-106011636D01*
X89485299Y-105944621D01*
X89630904Y-105847331D01*
X89754731Y-105723504D01*
X89852021Y-105577899D01*
X89901295Y-105458941D01*
X97193100Y-105458941D01*
X97193100Y-105634059D01*
X97227264Y-105805812D01*
X97294279Y-105967599D01*
X97391569Y-106113204D01*
X97397490Y-106119125D01*
X97387700Y-106168341D01*
X97387700Y-106343459D01*
X97421864Y-106515212D01*
X97488879Y-106676999D01*
X97586169Y-106822604D01*
X97709996Y-106946431D01*
X97855601Y-107043721D01*
X98017388Y-107110736D01*
X98189141Y-107144900D01*
X98364259Y-107144900D01*
X98536012Y-107110736D01*
X98697799Y-107043721D01*
X98843404Y-106946431D01*
X98967231Y-106822604D01*
X99020755Y-106742500D01*
X99151059Y-106742500D01*
X99322812Y-106708336D01*
X99484599Y-106641321D01*
X99630204Y-106544031D01*
X99754031Y-106420204D01*
X99851321Y-106274599D01*
X99918336Y-106112812D01*
X99952500Y-105941059D01*
X99952500Y-105765941D01*
X99918336Y-105594188D01*
X99851321Y-105432401D01*
X99754031Y-105286796D01*
X99630204Y-105162969D01*
X99484599Y-105065679D01*
X99322812Y-104998664D01*
X99151059Y-104964500D01*
X98975941Y-104964500D01*
X98804188Y-104998664D01*
X98789346Y-105004812D01*
X98772631Y-104979796D01*
X98648804Y-104855969D01*
X98503199Y-104758679D01*
X98341412Y-104691664D01*
X98169659Y-104657500D01*
X97994541Y-104657500D01*
X97822788Y-104691664D01*
X97661001Y-104758679D01*
X97515396Y-104855969D01*
X97391569Y-104979796D01*
X97294279Y-105125401D01*
X97227264Y-105287188D01*
X97193100Y-105458941D01*
X89901295Y-105458941D01*
X89919036Y-105416112D01*
X89953200Y-105244359D01*
X89953200Y-105069241D01*
X89919036Y-104897488D01*
X89852021Y-104735701D01*
X89754731Y-104590096D01*
X89630904Y-104466269D01*
X89485299Y-104368979D01*
X89323512Y-104301964D01*
X89151759Y-104267800D01*
X88976641Y-104267800D01*
X88804888Y-104301964D01*
X88643101Y-104368979D01*
X88497496Y-104466269D01*
X88373669Y-104590096D01*
X88276379Y-104735701D01*
X88209364Y-104897488D01*
X88175200Y-105069241D01*
X87883724Y-105069241D01*
X87883061Y-105067641D01*
X87736962Y-104848987D01*
X87587975Y-104700000D01*
X87736962Y-104551013D01*
X87883061Y-104332359D01*
X87983696Y-104089405D01*
X88018896Y-103912441D01*
X93211000Y-103912441D01*
X93211000Y-104087559D01*
X93245164Y-104259312D01*
X93312179Y-104421099D01*
X93409469Y-104566704D01*
X93533296Y-104690531D01*
X93678901Y-104787821D01*
X93840688Y-104854836D01*
X94012441Y-104889000D01*
X94187559Y-104889000D01*
X94359312Y-104854836D01*
X94521099Y-104787821D01*
X94666704Y-104690531D01*
X94790531Y-104566704D01*
X94887821Y-104421099D01*
X94954836Y-104259312D01*
X94989000Y-104087559D01*
X94989000Y-103912441D01*
X94954836Y-103740688D01*
X94887821Y-103578901D01*
X94790531Y-103433296D01*
X94666704Y-103309469D01*
X94521099Y-103212179D01*
X94359312Y-103145164D01*
X94187559Y-103111000D01*
X94012441Y-103111000D01*
X93840688Y-103145164D01*
X93678901Y-103212179D01*
X93533296Y-103309469D01*
X93409469Y-103433296D01*
X93312179Y-103578901D01*
X93245164Y-103740688D01*
X93211000Y-103912441D01*
X88018896Y-103912441D01*
X88035000Y-103831486D01*
X88035000Y-103568514D01*
X87983696Y-103310595D01*
X87883061Y-103067641D01*
X87736962Y-102848987D01*
X87587975Y-102700000D01*
X87736962Y-102551013D01*
X87883061Y-102332359D01*
X87983696Y-102089405D01*
X88005529Y-101979641D01*
X89614600Y-101979641D01*
X89614600Y-102154759D01*
X89648764Y-102326512D01*
X89715779Y-102488299D01*
X89813069Y-102633904D01*
X89936896Y-102757731D01*
X90082501Y-102855021D01*
X90244288Y-102922036D01*
X90416041Y-102956200D01*
X90591159Y-102956200D01*
X90762912Y-102922036D01*
X90924699Y-102855021D01*
X91070304Y-102757731D01*
X91194131Y-102633904D01*
X91291421Y-102488299D01*
X91347740Y-102352333D01*
X91399379Y-102476999D01*
X91496669Y-102622604D01*
X91620496Y-102746431D01*
X91766101Y-102843721D01*
X91927888Y-102910736D01*
X92099641Y-102944900D01*
X92274759Y-102944900D01*
X92446512Y-102910736D01*
X92608299Y-102843721D01*
X92753904Y-102746431D01*
X92877731Y-102622604D01*
X92942987Y-102524941D01*
X102437300Y-102524941D01*
X102437300Y-102700059D01*
X102471464Y-102871812D01*
X102538479Y-103033599D01*
X102635769Y-103179204D01*
X102759596Y-103303031D01*
X102905201Y-103400321D01*
X102931536Y-103411229D01*
X102909469Y-103433296D01*
X102812179Y-103578901D01*
X102745164Y-103740688D01*
X102711000Y-103912441D01*
X102711000Y-104087559D01*
X102745164Y-104259312D01*
X102812179Y-104421099D01*
X102909469Y-104566704D01*
X103033296Y-104690531D01*
X103178901Y-104787821D01*
X103340688Y-104854836D01*
X103512441Y-104889000D01*
X103687559Y-104889000D01*
X103859312Y-104854836D01*
X104021099Y-104787821D01*
X104166704Y-104690531D01*
X104194794Y-104662441D01*
X108111000Y-104662441D01*
X108111000Y-104837559D01*
X108145164Y-105009312D01*
X108212179Y-105171099D01*
X108309469Y-105316704D01*
X108433296Y-105440531D01*
X108578901Y-105537821D01*
X108740688Y-105604836D01*
X108912441Y-105639000D01*
X109087559Y-105639000D01*
X109259312Y-105604836D01*
X109421099Y-105537821D01*
X109566704Y-105440531D01*
X109690531Y-105316704D01*
X109787821Y-105171099D01*
X109854836Y-105009312D01*
X109889000Y-104837559D01*
X109889000Y-104662441D01*
X109854836Y-104490688D01*
X109787821Y-104328901D01*
X109690531Y-104183296D01*
X109566704Y-104059469D01*
X109421099Y-103962179D01*
X109259312Y-103895164D01*
X109087559Y-103861000D01*
X108912441Y-103861000D01*
X108740688Y-103895164D01*
X108578901Y-103962179D01*
X108433296Y-104059469D01*
X108309469Y-104183296D01*
X108212179Y-104328901D01*
X108145164Y-104490688D01*
X108111000Y-104662441D01*
X104194794Y-104662441D01*
X104290531Y-104566704D01*
X104387821Y-104421099D01*
X104454836Y-104259312D01*
X104489000Y-104087559D01*
X104489000Y-103912441D01*
X104454836Y-103740688D01*
X104387821Y-103578901D01*
X104290531Y-103433296D01*
X104238722Y-103381487D01*
X104263612Y-103376536D01*
X104425399Y-103309521D01*
X104571004Y-103212231D01*
X104694831Y-103088404D01*
X104792121Y-102942799D01*
X104859136Y-102781012D01*
X104893300Y-102609259D01*
X104893300Y-102434141D01*
X104859136Y-102262388D01*
X104792121Y-102100601D01*
X104694831Y-101954996D01*
X104573880Y-101834045D01*
X104604836Y-101759312D01*
X104639000Y-101587559D01*
X104639000Y-101412441D01*
X107861000Y-101412441D01*
X107861000Y-101587559D01*
X107895164Y-101759312D01*
X107962179Y-101921099D01*
X108059469Y-102066704D01*
X108183296Y-102190531D01*
X108328901Y-102287821D01*
X108490688Y-102354836D01*
X108662441Y-102389000D01*
X108837559Y-102389000D01*
X109009312Y-102354836D01*
X109171099Y-102287821D01*
X109316704Y-102190531D01*
X109440531Y-102066704D01*
X109537821Y-101921099D01*
X109604836Y-101759312D01*
X109639000Y-101587559D01*
X109639000Y-101412441D01*
X109604836Y-101240688D01*
X109537821Y-101078901D01*
X109440531Y-100933296D01*
X109316704Y-100809469D01*
X109171099Y-100712179D01*
X109009312Y-100645164D01*
X108837559Y-100611000D01*
X108662441Y-100611000D01*
X108490688Y-100645164D01*
X108328901Y-100712179D01*
X108183296Y-100809469D01*
X108059469Y-100933296D01*
X107962179Y-101078901D01*
X107895164Y-101240688D01*
X107861000Y-101412441D01*
X104639000Y-101412441D01*
X104604836Y-101240688D01*
X104537821Y-101078901D01*
X104440531Y-100933296D01*
X104316704Y-100809469D01*
X104223781Y-100747380D01*
X104305821Y-100624599D01*
X104372836Y-100462812D01*
X104407000Y-100291059D01*
X104407000Y-100115941D01*
X104372836Y-99944188D01*
X104352752Y-99895702D01*
X104416199Y-99869421D01*
X104561804Y-99772131D01*
X104685631Y-99648304D01*
X104782921Y-99502699D01*
X104849936Y-99340912D01*
X104884100Y-99169159D01*
X104884100Y-99162441D01*
X108111000Y-99162441D01*
X108111000Y-99337559D01*
X108145164Y-99509312D01*
X108212179Y-99671099D01*
X108309469Y-99816704D01*
X108433296Y-99940531D01*
X108578901Y-100037821D01*
X108740688Y-100104836D01*
X108912441Y-100139000D01*
X109087559Y-100139000D01*
X109259312Y-100104836D01*
X109421099Y-100037821D01*
X109566704Y-99940531D01*
X109690531Y-99816704D01*
X109787821Y-99671099D01*
X109854836Y-99509312D01*
X109889000Y-99337559D01*
X109889000Y-99162441D01*
X109854836Y-98990688D01*
X109787821Y-98828901D01*
X109690531Y-98683296D01*
X109566704Y-98559469D01*
X109421099Y-98462179D01*
X109259312Y-98395164D01*
X109087559Y-98361000D01*
X108912441Y-98361000D01*
X108740688Y-98395164D01*
X108578901Y-98462179D01*
X108433296Y-98559469D01*
X108309469Y-98683296D01*
X108212179Y-98828901D01*
X108145164Y-98990688D01*
X108111000Y-99162441D01*
X104884100Y-99162441D01*
X104884100Y-98994041D01*
X104849936Y-98822288D01*
X104782921Y-98660501D01*
X104685631Y-98514896D01*
X104561804Y-98391069D01*
X104416199Y-98293779D01*
X104254412Y-98226764D01*
X104198661Y-98215674D01*
X104244431Y-98169904D01*
X104341721Y-98024299D01*
X104408736Y-97862512D01*
X104442900Y-97690759D01*
X104442900Y-97515641D01*
X104436893Y-97485441D01*
X105112100Y-97485441D01*
X105112100Y-97660559D01*
X105146264Y-97832312D01*
X105213279Y-97994099D01*
X105310569Y-98139704D01*
X105434396Y-98263531D01*
X105580001Y-98360821D01*
X105741788Y-98427836D01*
X105913541Y-98462000D01*
X106088659Y-98462000D01*
X106260412Y-98427836D01*
X106422199Y-98360821D01*
X106567804Y-98263531D01*
X106691631Y-98139704D01*
X106788921Y-97994099D01*
X106855936Y-97832312D01*
X106890100Y-97660559D01*
X106890100Y-97485441D01*
X106855936Y-97313688D01*
X106788921Y-97151901D01*
X106691631Y-97006296D01*
X106567804Y-96882469D01*
X106422199Y-96785179D01*
X106260412Y-96718164D01*
X106088659Y-96684000D01*
X105913541Y-96684000D01*
X105741788Y-96718164D01*
X105580001Y-96785179D01*
X105434396Y-96882469D01*
X105310569Y-97006296D01*
X105213279Y-97151901D01*
X105146264Y-97313688D01*
X105112100Y-97485441D01*
X104436893Y-97485441D01*
X104408736Y-97343888D01*
X104341721Y-97182101D01*
X104244431Y-97036496D01*
X104120604Y-96912669D01*
X103974999Y-96815379D01*
X103813212Y-96748364D01*
X103641459Y-96714200D01*
X103466341Y-96714200D01*
X103294588Y-96748364D01*
X103132801Y-96815379D01*
X102987196Y-96912669D01*
X102863369Y-97036496D01*
X102766079Y-97182101D01*
X102699064Y-97343888D01*
X102664900Y-97515641D01*
X102664900Y-97690759D01*
X102699064Y-97862512D01*
X102766079Y-98024299D01*
X102863369Y-98169904D01*
X102987196Y-98293731D01*
X103132801Y-98391021D01*
X103294588Y-98458036D01*
X103350339Y-98469126D01*
X103304569Y-98514896D01*
X103207279Y-98660501D01*
X103140264Y-98822288D01*
X103106100Y-98994041D01*
X103106100Y-99169159D01*
X103140264Y-99340912D01*
X103160348Y-99389398D01*
X103096901Y-99415679D01*
X102951296Y-99512969D01*
X102827469Y-99636796D01*
X102730179Y-99782401D01*
X102663164Y-99944188D01*
X102629000Y-100115941D01*
X102629000Y-100291059D01*
X102663164Y-100462812D01*
X102730179Y-100624599D01*
X102827469Y-100770204D01*
X102951296Y-100894031D01*
X103044219Y-100956120D01*
X102962179Y-101078901D01*
X102895164Y-101240688D01*
X102861000Y-101412441D01*
X102861000Y-101587559D01*
X102895164Y-101759312D01*
X102919745Y-101818655D01*
X102905201Y-101824679D01*
X102759596Y-101921969D01*
X102635769Y-102045796D01*
X102538479Y-102191401D01*
X102471464Y-102353188D01*
X102437300Y-102524941D01*
X92942987Y-102524941D01*
X92975021Y-102476999D01*
X93042036Y-102315212D01*
X93076200Y-102143459D01*
X93076200Y-101968341D01*
X93042036Y-101796588D01*
X92975021Y-101634801D01*
X92877731Y-101489196D01*
X92753904Y-101365369D01*
X92608299Y-101268079D01*
X92446512Y-101201064D01*
X92274759Y-101166900D01*
X92099641Y-101166900D01*
X91927888Y-101201064D01*
X91766101Y-101268079D01*
X91620496Y-101365369D01*
X91496669Y-101489196D01*
X91399379Y-101634801D01*
X91343060Y-101770767D01*
X91291421Y-101646101D01*
X91194131Y-101500496D01*
X91070304Y-101376669D01*
X90924699Y-101279379D01*
X90762912Y-101212364D01*
X90591159Y-101178200D01*
X90416041Y-101178200D01*
X90244288Y-101212364D01*
X90082501Y-101279379D01*
X89936896Y-101376669D01*
X89813069Y-101500496D01*
X89715779Y-101646101D01*
X89648764Y-101807888D01*
X89614600Y-101979641D01*
X88005529Y-101979641D01*
X88035000Y-101831486D01*
X88035000Y-101568514D01*
X87983696Y-101310595D01*
X87883061Y-101067641D01*
X87736962Y-100848987D01*
X87587975Y-100700000D01*
X87736962Y-100551013D01*
X87805965Y-100447741D01*
X93791400Y-100447741D01*
X93791400Y-100622859D01*
X93825564Y-100794612D01*
X93892579Y-100956399D01*
X93989869Y-101102004D01*
X94113696Y-101225831D01*
X94259301Y-101323121D01*
X94421088Y-101390136D01*
X94592841Y-101424300D01*
X94767959Y-101424300D01*
X94939712Y-101390136D01*
X95101499Y-101323121D01*
X95247104Y-101225831D01*
X95370931Y-101102004D01*
X95468221Y-100956399D01*
X95535236Y-100794612D01*
X95569400Y-100622859D01*
X95569400Y-100447741D01*
X95535236Y-100275988D01*
X95468221Y-100114201D01*
X95370931Y-99968596D01*
X95247104Y-99844769D01*
X95101499Y-99747479D01*
X94939712Y-99680464D01*
X94767959Y-99646300D01*
X94592841Y-99646300D01*
X94421088Y-99680464D01*
X94259301Y-99747479D01*
X94113696Y-99844769D01*
X93989869Y-99968596D01*
X93892579Y-100114201D01*
X93825564Y-100275988D01*
X93791400Y-100447741D01*
X87805965Y-100447741D01*
X87883061Y-100332359D01*
X87983696Y-100089405D01*
X88035000Y-99831486D01*
X88035000Y-99568514D01*
X87983696Y-99310595D01*
X87883061Y-99067641D01*
X87736962Y-98848987D01*
X87587975Y-98700000D01*
X87736962Y-98551013D01*
X87883061Y-98332359D01*
X87983696Y-98089405D01*
X88035000Y-97831486D01*
X88035000Y-97568514D01*
X87983696Y-97310595D01*
X87883061Y-97067641D01*
X87736962Y-96848987D01*
X87587975Y-96700000D01*
X87736962Y-96551013D01*
X87883061Y-96332359D01*
X87974154Y-96112441D01*
X92811000Y-96112441D01*
X92811000Y-96287559D01*
X92845164Y-96459312D01*
X92912179Y-96621099D01*
X93009469Y-96766704D01*
X93133296Y-96890531D01*
X93278901Y-96987821D01*
X93440688Y-97054836D01*
X93612441Y-97089000D01*
X93787559Y-97089000D01*
X93959312Y-97054836D01*
X94121099Y-96987821D01*
X94266704Y-96890531D01*
X94390531Y-96766704D01*
X94487821Y-96621099D01*
X94554836Y-96459312D01*
X94589000Y-96287559D01*
X94589000Y-96112441D01*
X94554836Y-95940688D01*
X94487821Y-95778901D01*
X94390531Y-95633296D01*
X94376376Y-95619141D01*
X95108500Y-95619141D01*
X95108500Y-95794259D01*
X95142664Y-95966012D01*
X95209679Y-96127799D01*
X95306969Y-96273404D01*
X95430796Y-96397231D01*
X95576401Y-96494521D01*
X95738188Y-96561536D01*
X95909941Y-96595700D01*
X95959266Y-96595700D01*
X95921179Y-96652701D01*
X95854164Y-96814488D01*
X95820000Y-96986241D01*
X95820000Y-97161359D01*
X95854164Y-97333112D01*
X95921179Y-97494899D01*
X95978090Y-97580073D01*
X95962800Y-97656941D01*
X95962800Y-97832059D01*
X95996964Y-98003812D01*
X96063979Y-98165599D01*
X96161269Y-98311204D01*
X96285096Y-98435031D01*
X96327313Y-98463240D01*
X96183296Y-98559469D01*
X96059469Y-98683296D01*
X95962179Y-98828901D01*
X95895164Y-98990688D01*
X95861000Y-99162441D01*
X95861000Y-99337559D01*
X95895164Y-99509312D01*
X95962179Y-99671099D01*
X96040863Y-99788859D01*
X95986579Y-99870101D01*
X95919564Y-100031888D01*
X95885400Y-100203641D01*
X95885400Y-100378759D01*
X95919564Y-100550512D01*
X95986579Y-100712299D01*
X96083869Y-100857904D01*
X96207696Y-100981731D01*
X96353301Y-101079021D01*
X96515088Y-101146036D01*
X96686841Y-101180200D01*
X96861959Y-101180200D01*
X97033712Y-101146036D01*
X97195499Y-101079021D01*
X97341104Y-100981731D01*
X97464931Y-100857904D01*
X97562221Y-100712299D01*
X97629236Y-100550512D01*
X97663400Y-100378759D01*
X97663400Y-100203641D01*
X97629236Y-100031888D01*
X97562221Y-99870101D01*
X97483537Y-99752341D01*
X97537821Y-99671099D01*
X97604836Y-99509312D01*
X97639000Y-99337559D01*
X97639000Y-99162441D01*
X97604836Y-98990688D01*
X97537821Y-98828901D01*
X97440531Y-98683296D01*
X97316704Y-98559469D01*
X97274487Y-98531260D01*
X97418504Y-98435031D01*
X97542331Y-98311204D01*
X97639621Y-98165599D01*
X97706636Y-98003812D01*
X97740800Y-97832059D01*
X97740800Y-97656941D01*
X97706636Y-97485188D01*
X97639621Y-97323401D01*
X97582710Y-97238227D01*
X97598000Y-97161359D01*
X97598000Y-96986241D01*
X97563836Y-96814488D01*
X97500856Y-96662441D01*
X100111000Y-96662441D01*
X100111000Y-96837559D01*
X100145164Y-97009312D01*
X100212179Y-97171099D01*
X100309469Y-97316704D01*
X100433296Y-97440531D01*
X100578901Y-97537821D01*
X100740688Y-97604836D01*
X100912441Y-97639000D01*
X101087559Y-97639000D01*
X101259312Y-97604836D01*
X101421099Y-97537821D01*
X101566704Y-97440531D01*
X101690531Y-97316704D01*
X101787821Y-97171099D01*
X101854836Y-97009312D01*
X101889000Y-96837559D01*
X101889000Y-96662441D01*
X101854836Y-96490688D01*
X101787821Y-96328901D01*
X101690531Y-96183296D01*
X101566704Y-96059469D01*
X101421099Y-95962179D01*
X101259312Y-95895164D01*
X101087559Y-95861000D01*
X100912441Y-95861000D01*
X100740688Y-95895164D01*
X100578901Y-95962179D01*
X100433296Y-96059469D01*
X100309469Y-96183296D01*
X100212179Y-96328901D01*
X100145164Y-96490688D01*
X100111000Y-96662441D01*
X97500856Y-96662441D01*
X97496821Y-96652701D01*
X97399531Y-96507096D01*
X97275704Y-96383269D01*
X97130099Y-96285979D01*
X96968312Y-96218964D01*
X96796559Y-96184800D01*
X96747234Y-96184800D01*
X96785321Y-96127799D01*
X96852336Y-95966012D01*
X96886500Y-95794259D01*
X96886500Y-95619141D01*
X96852336Y-95447388D01*
X96785321Y-95285601D01*
X96688031Y-95139996D01*
X96564204Y-95016169D01*
X96497264Y-94971441D01*
X101346300Y-94971441D01*
X101346300Y-95146559D01*
X101380464Y-95318312D01*
X101447479Y-95480099D01*
X101544769Y-95625704D01*
X101668596Y-95749531D01*
X101814201Y-95846821D01*
X101975988Y-95913836D01*
X102147741Y-95948000D01*
X102322859Y-95948000D01*
X102494612Y-95913836D01*
X102656399Y-95846821D01*
X102802004Y-95749531D01*
X102925831Y-95625704D01*
X103023121Y-95480099D01*
X103090136Y-95318312D01*
X103124300Y-95146559D01*
X103124300Y-94971441D01*
X103090136Y-94799688D01*
X103023121Y-94637901D01*
X102925831Y-94492296D01*
X102802004Y-94368469D01*
X102656399Y-94271179D01*
X102494612Y-94204164D01*
X102322859Y-94170000D01*
X102147741Y-94170000D01*
X101975988Y-94204164D01*
X101814201Y-94271179D01*
X101668596Y-94368469D01*
X101544769Y-94492296D01*
X101447479Y-94637901D01*
X101380464Y-94799688D01*
X101346300Y-94971441D01*
X96497264Y-94971441D01*
X96418599Y-94918879D01*
X96256812Y-94851864D01*
X96085059Y-94817700D01*
X95909941Y-94817700D01*
X95738188Y-94851864D01*
X95576401Y-94918879D01*
X95430796Y-95016169D01*
X95306969Y-95139996D01*
X95209679Y-95285601D01*
X95142664Y-95447388D01*
X95108500Y-95619141D01*
X94376376Y-95619141D01*
X94266704Y-95509469D01*
X94121099Y-95412179D01*
X93959312Y-95345164D01*
X93787559Y-95311000D01*
X93612441Y-95311000D01*
X93440688Y-95345164D01*
X93278901Y-95412179D01*
X93133296Y-95509469D01*
X93009469Y-95633296D01*
X92912179Y-95778901D01*
X92845164Y-95940688D01*
X92811000Y-96112441D01*
X87974154Y-96112441D01*
X87983696Y-96089405D01*
X88035000Y-95831486D01*
X88035000Y-95568514D01*
X87983696Y-95310595D01*
X87883061Y-95067641D01*
X87736962Y-94848987D01*
X87587975Y-94700000D01*
X87736962Y-94551013D01*
X87883061Y-94332359D01*
X87932732Y-94212441D01*
X91711000Y-94212441D01*
X91711000Y-94387559D01*
X91745164Y-94559312D01*
X91812179Y-94721099D01*
X91909469Y-94866704D01*
X92033296Y-94990531D01*
X92178901Y-95087821D01*
X92340688Y-95154836D01*
X92512441Y-95189000D01*
X92687559Y-95189000D01*
X92859312Y-95154836D01*
X93021099Y-95087821D01*
X93166704Y-94990531D01*
X93290531Y-94866704D01*
X93387821Y-94721099D01*
X93454836Y-94559312D01*
X93489000Y-94387559D01*
X93489000Y-94212441D01*
X93454836Y-94040688D01*
X93387821Y-93878901D01*
X93290531Y-93733296D01*
X93166704Y-93609469D01*
X93021099Y-93512179D01*
X92859312Y-93445164D01*
X92687559Y-93411000D01*
X92512441Y-93411000D01*
X92340688Y-93445164D01*
X92178901Y-93512179D01*
X92033296Y-93609469D01*
X91909469Y-93733296D01*
X91812179Y-93878901D01*
X91745164Y-94040688D01*
X91711000Y-94212441D01*
X87932732Y-94212441D01*
X87983696Y-94089405D01*
X88035000Y-93831486D01*
X88035000Y-93568514D01*
X87983696Y-93310595D01*
X87883061Y-93067641D01*
X87736962Y-92848987D01*
X87587975Y-92700000D01*
X87736962Y-92551013D01*
X87883061Y-92332359D01*
X87983696Y-92089405D01*
X88035000Y-91831486D01*
X88035000Y-91758487D01*
X88078901Y-91787821D01*
X88240688Y-91854836D01*
X88412441Y-91889000D01*
X88587559Y-91889000D01*
X88759312Y-91854836D01*
X88921099Y-91787821D01*
X89066704Y-91690531D01*
X89190531Y-91566704D01*
X89287821Y-91421099D01*
X89354836Y-91259312D01*
X89389000Y-91087559D01*
X89389000Y-90912441D01*
X90361000Y-90912441D01*
X90361000Y-91087559D01*
X90395164Y-91259312D01*
X90462179Y-91421099D01*
X90559469Y-91566704D01*
X90683296Y-91690531D01*
X90828901Y-91787821D01*
X90990688Y-91854836D01*
X91162441Y-91889000D01*
X91337559Y-91889000D01*
X91509312Y-91854836D01*
X91671099Y-91787821D01*
X91816704Y-91690531D01*
X91940531Y-91566704D01*
X92037821Y-91421099D01*
X92082829Y-91312441D01*
X99811000Y-91312441D01*
X99811000Y-91487559D01*
X99845164Y-91659312D01*
X99912179Y-91821099D01*
X100009469Y-91966704D01*
X100133296Y-92090531D01*
X100278901Y-92187821D01*
X100440688Y-92254836D01*
X100612441Y-92289000D01*
X100787559Y-92289000D01*
X100959312Y-92254836D01*
X101121099Y-92187821D01*
X101266704Y-92090531D01*
X101390531Y-91966704D01*
X101487821Y-91821099D01*
X101554836Y-91659312D01*
X101589000Y-91487559D01*
X101589000Y-91312441D01*
X101554836Y-91140688D01*
X101487821Y-90978901D01*
X101390531Y-90833296D01*
X101266704Y-90709469D01*
X101121099Y-90612179D01*
X100959312Y-90545164D01*
X100787559Y-90511000D01*
X100612441Y-90511000D01*
X100440688Y-90545164D01*
X100278901Y-90612179D01*
X100133296Y-90709469D01*
X100009469Y-90833296D01*
X99912179Y-90978901D01*
X99845164Y-91140688D01*
X99811000Y-91312441D01*
X92082829Y-91312441D01*
X92104836Y-91259312D01*
X92139000Y-91087559D01*
X92139000Y-90912441D01*
X92104836Y-90740688D01*
X92037821Y-90578901D01*
X91940531Y-90433296D01*
X91816704Y-90309469D01*
X91671099Y-90212179D01*
X91509312Y-90145164D01*
X91337559Y-90111000D01*
X91162441Y-90111000D01*
X90990688Y-90145164D01*
X90828901Y-90212179D01*
X90683296Y-90309469D01*
X90559469Y-90433296D01*
X90462179Y-90578901D01*
X90395164Y-90740688D01*
X90361000Y-90912441D01*
X89389000Y-90912441D01*
X89354836Y-90740688D01*
X89287821Y-90578901D01*
X89190531Y-90433296D01*
X89066704Y-90309469D01*
X88921099Y-90212179D01*
X88759312Y-90145164D01*
X88587559Y-90111000D01*
X88412441Y-90111000D01*
X88240688Y-90145164D01*
X88078901Y-90212179D01*
X87933296Y-90309469D01*
X87827998Y-90414767D01*
X87883061Y-90332359D01*
X87983696Y-90089405D01*
X88035000Y-89831486D01*
X88035000Y-89568514D01*
X87983696Y-89310595D01*
X87897664Y-89102895D01*
X88017641Y-89183061D01*
X88260595Y-89283696D01*
X88518514Y-89335000D01*
X88781486Y-89335000D01*
X89039405Y-89283696D01*
X89282359Y-89183061D01*
X89501013Y-89036962D01*
X89650000Y-88887975D01*
X89798987Y-89036962D01*
X90017641Y-89183061D01*
X90260595Y-89283696D01*
X90518514Y-89335000D01*
X90781486Y-89335000D01*
X91039405Y-89283696D01*
X91282359Y-89183061D01*
X91501013Y-89036962D01*
X91650000Y-88887975D01*
X91798987Y-89036962D01*
X92017641Y-89183061D01*
X92260595Y-89283696D01*
X92518514Y-89335000D01*
X92781486Y-89335000D01*
X93039405Y-89283696D01*
X93282359Y-89183061D01*
X93501013Y-89036962D01*
X93650000Y-88887975D01*
X93798987Y-89036962D01*
X94017641Y-89183061D01*
X94260595Y-89283696D01*
X94518514Y-89335000D01*
X94781486Y-89335000D01*
X95039405Y-89283696D01*
X95282359Y-89183061D01*
X95501013Y-89036962D01*
X95650000Y-88887975D01*
X95798987Y-89036962D01*
X96017641Y-89183061D01*
X96260595Y-89283696D01*
X96518514Y-89335000D01*
X96781486Y-89335000D01*
X97039405Y-89283696D01*
X97282359Y-89183061D01*
X97501013Y-89036962D01*
X97650000Y-88887975D01*
X97798987Y-89036962D01*
X98017641Y-89183061D01*
X98260595Y-89283696D01*
X98518514Y-89335000D01*
X98781486Y-89335000D01*
X99039405Y-89283696D01*
X99282359Y-89183061D01*
X99501013Y-89036962D01*
X99650000Y-88887975D01*
X99798987Y-89036962D01*
X100017641Y-89183061D01*
X100260595Y-89283696D01*
X100518514Y-89335000D01*
X100781486Y-89335000D01*
X101039405Y-89283696D01*
X101282359Y-89183061D01*
X101501013Y-89036962D01*
X101650000Y-88887975D01*
X101798987Y-89036962D01*
X102017641Y-89183061D01*
X102260595Y-89283696D01*
X102518514Y-89335000D01*
X102781486Y-89335000D01*
X103039405Y-89283696D01*
X103266274Y-89189723D01*
X103245164Y-89240688D01*
X103211000Y-89412441D01*
X103211000Y-89587559D01*
X103245164Y-89759312D01*
X103312179Y-89921099D01*
X103409469Y-90066704D01*
X103533296Y-90190531D01*
X103678901Y-90287821D01*
X103840688Y-90354836D01*
X104012441Y-90389000D01*
X104187559Y-90389000D01*
X104359312Y-90354836D01*
X104521099Y-90287821D01*
X104666704Y-90190531D01*
X104790531Y-90066704D01*
X104887821Y-89921099D01*
X104954836Y-89759312D01*
X104989000Y-89587559D01*
X104989000Y-89412441D01*
X104966284Y-89298241D01*
X105039405Y-89283696D01*
X105282359Y-89183061D01*
X105501013Y-89036962D01*
X105650000Y-88887975D01*
X105798987Y-89036962D01*
X106017641Y-89183061D01*
X106260595Y-89283696D01*
X106518514Y-89335000D01*
X106781486Y-89335000D01*
X107039405Y-89283696D01*
X107282359Y-89183061D01*
X107501013Y-89036962D01*
X107650000Y-88887975D01*
X107798987Y-89036962D01*
X108017641Y-89183061D01*
X108260595Y-89283696D01*
X108518514Y-89335000D01*
X108781486Y-89335000D01*
X109039405Y-89283696D01*
X109282359Y-89183061D01*
X109501013Y-89036962D01*
X109650000Y-88887975D01*
X109798987Y-89036962D01*
X109798987Y-89036962D01*
G37*
X109798987Y-89036962D02*
X110017641Y-89183061D01*
X110260595Y-89283696D01*
X110518514Y-89335000D01*
X110781486Y-89335000D01*
X111039405Y-89283696D01*
X111282359Y-89183061D01*
X111402336Y-89102895D01*
X111316304Y-89310595D01*
X111265000Y-89568514D01*
X111265000Y-89831486D01*
X111316304Y-90089405D01*
X111416939Y-90332359D01*
X111563038Y-90551013D01*
X111712025Y-90700000D01*
X111563038Y-90848987D01*
X111416939Y-91067641D01*
X111316304Y-91310595D01*
X111265000Y-91568514D01*
X111265000Y-91831486D01*
X111316304Y-92089405D01*
X111416939Y-92332359D01*
X111563038Y-92551013D01*
X111712025Y-92700000D01*
X111563038Y-92848987D01*
X111416939Y-93067641D01*
X111316304Y-93310595D01*
X111265000Y-93568514D01*
X111265000Y-93831486D01*
X111316304Y-94089405D01*
X111416939Y-94332359D01*
X111563038Y-94551013D01*
X111712025Y-94700000D01*
X111563038Y-94848987D01*
X111416939Y-95067641D01*
X111316304Y-95310595D01*
X111265000Y-95568514D01*
X111265000Y-95831486D01*
X111316304Y-96089405D01*
X111416939Y-96332359D01*
X111563038Y-96551013D01*
X111712025Y-96700000D01*
X111563038Y-96848987D01*
X111416939Y-97067641D01*
X111316304Y-97310595D01*
X111265000Y-97568514D01*
X111265000Y-97831486D01*
X111316304Y-98089405D01*
X111416939Y-98332359D01*
X111563038Y-98551013D01*
X111712025Y-98700000D01*
X111563038Y-98848987D01*
X111416939Y-99067641D01*
X111316304Y-99310595D01*
X111265000Y-99568514D01*
X111265000Y-99831486D01*
X111316304Y-100089405D01*
X111416939Y-100332359D01*
X111563038Y-100551013D01*
X111712025Y-100700000D01*
X111563038Y-100848987D01*
X111416939Y-101067641D01*
X111316304Y-101310595D01*
X111265000Y-101568514D01*
X111265000Y-101831486D01*
X111316304Y-102089405D01*
X111416939Y-102332359D01*
X111563038Y-102551013D01*
X111712025Y-102700000D01*
X111563038Y-102848987D01*
X111416939Y-103067641D01*
X111316304Y-103310595D01*
X111265000Y-103568514D01*
X111265000Y-103831486D01*
X111316304Y-104089405D01*
X111416939Y-104332359D01*
X111563038Y-104551013D01*
X111712025Y-104700000D01*
X111563038Y-104848987D01*
X111416939Y-105067641D01*
X111316304Y-105310595D01*
X111286496Y-105460446D01*
X111265915Y-105410758D01*
X111168625Y-105265153D01*
X111044798Y-105141326D01*
X110899193Y-105044036D01*
X110737406Y-104977021D01*
X110565653Y-104942857D01*
X110390535Y-104942857D01*
X110218782Y-104977021D01*
X110056995Y-105044036D01*
X109911390Y-105141326D01*
X109787563Y-105265153D01*
X109690273Y-105410758D01*
X109623258Y-105572545D01*
X109589094Y-105744298D01*
X109589094Y-105919416D01*
X109623258Y-106091169D01*
X109690273Y-106252956D01*
X109787563Y-106398561D01*
X109911390Y-106522388D01*
X110056995Y-106619678D01*
X110218782Y-106686693D01*
X110390535Y-106720857D01*
X110565653Y-106720857D01*
X110737406Y-106686693D01*
X110899193Y-106619678D01*
X111044798Y-106522388D01*
X111168625Y-106398561D01*
X111265915Y-106252956D01*
X111324982Y-106110356D01*
X111416939Y-106332359D01*
X111563038Y-106551013D01*
X111712025Y-106700000D01*
X111563038Y-106848987D01*
X111416939Y-107067641D01*
X111316304Y-107310595D01*
X111265000Y-107568514D01*
X111265000Y-107831486D01*
X111316304Y-108089405D01*
X111416939Y-108332359D01*
X111563038Y-108551013D01*
X111712025Y-108700000D01*
X111563038Y-108848987D01*
X111416939Y-109067641D01*
X111316304Y-109310595D01*
X111265000Y-109568514D01*
X111265000Y-109831486D01*
X111316304Y-110089405D01*
X111416939Y-110332359D01*
X111563038Y-110551013D01*
X111712025Y-110700000D01*
X111563038Y-110848987D01*
X111416939Y-111067641D01*
X111316304Y-111310595D01*
X111265000Y-111568514D01*
X111265000Y-111831486D01*
X111316304Y-112089405D01*
X111416939Y-112332359D01*
X111563038Y-112551013D01*
X111748987Y-112736962D01*
X111967641Y-112883061D01*
X112210595Y-112983696D01*
X112468514Y-113035000D01*
X112731486Y-113035000D01*
X112989405Y-112983696D01*
X113232359Y-112883061D01*
X113350000Y-112804456D01*
X113467641Y-112883061D01*
X113490000Y-112892322D01*
X113490000Y-114790000D01*
X111842322Y-114790000D01*
X111833061Y-114767641D01*
X111754456Y-114650000D01*
X111833061Y-114532359D01*
X111933696Y-114289405D01*
X111985000Y-114031486D01*
X111985000Y-113768514D01*
X111933696Y-113510595D01*
X111833061Y-113267641D01*
X111686962Y-113048987D01*
X111501013Y-112863038D01*
X111282359Y-112716939D01*
X111039405Y-112616304D01*
X110781486Y-112565000D01*
X110518514Y-112565000D01*
X110260595Y-112616304D01*
X110017641Y-112716939D01*
X109798987Y-112863038D01*
X109650000Y-113012025D01*
X109501013Y-112863038D01*
X109282359Y-112716939D01*
X109039405Y-112616304D01*
X108781486Y-112565000D01*
X108518514Y-112565000D01*
X108260595Y-112616304D01*
X108017641Y-112716939D01*
X107798987Y-112863038D01*
X107650000Y-113012025D01*
X107501013Y-112863038D01*
X107282359Y-112716939D01*
X107039405Y-112616304D01*
X106781486Y-112565000D01*
X106518514Y-112565000D01*
X106260595Y-112616304D01*
X106017641Y-112716939D01*
X105798987Y-112863038D01*
X105650000Y-113012025D01*
X105501013Y-112863038D01*
X105282359Y-112716939D01*
X105039405Y-112616304D01*
X104781486Y-112565000D01*
X104518514Y-112565000D01*
X104260595Y-112616304D01*
X104017641Y-112716939D01*
X103798987Y-112863038D01*
X103650000Y-113012025D01*
X103501013Y-112863038D01*
X103282359Y-112716939D01*
X103039405Y-112616304D01*
X102781486Y-112565000D01*
X102518514Y-112565000D01*
X102260595Y-112616304D01*
X102017641Y-112716939D01*
X101798987Y-112863038D01*
X101650000Y-113012025D01*
X101501013Y-112863038D01*
X101282359Y-112716939D01*
X101039405Y-112616304D01*
X100781486Y-112565000D01*
X100518514Y-112565000D01*
X100260595Y-112616304D01*
X100017641Y-112716939D01*
X99798987Y-112863038D01*
X99650000Y-113012025D01*
X99501013Y-112863038D01*
X99282359Y-112716939D01*
X99039405Y-112616304D01*
X98781486Y-112565000D01*
X98518514Y-112565000D01*
X98260595Y-112616304D01*
X98017641Y-112716939D01*
X97798987Y-112863038D01*
X97650000Y-113012025D01*
X97501013Y-112863038D01*
X97282359Y-112716939D01*
X97039405Y-112616304D01*
X96781486Y-112565000D01*
X96518514Y-112565000D01*
X96260595Y-112616304D01*
X96017641Y-112716939D01*
X95798987Y-112863038D01*
X95650000Y-113012025D01*
X95501013Y-112863038D01*
X95282359Y-112716939D01*
X95039405Y-112616304D01*
X94781486Y-112565000D01*
X94518514Y-112565000D01*
X94260595Y-112616304D01*
X94017641Y-112716939D01*
X93798987Y-112863038D01*
X93650000Y-113012025D01*
X93501013Y-112863038D01*
X93282359Y-112716939D01*
X93039405Y-112616304D01*
X92781486Y-112565000D01*
X92518514Y-112565000D01*
X92260595Y-112616304D01*
X92017641Y-112716939D01*
X91798987Y-112863038D01*
X91650000Y-113012025D01*
X91501013Y-112863038D01*
X91282359Y-112716939D01*
X91039405Y-112616304D01*
X90781486Y-112565000D01*
X90518514Y-112565000D01*
X90260595Y-112616304D01*
X90017641Y-112716939D01*
X89798987Y-112863038D01*
X89650000Y-113012025D01*
X89501013Y-112863038D01*
X89282359Y-112716939D01*
X89039405Y-112616304D01*
X88781486Y-112565000D01*
X88518514Y-112565000D01*
X88260595Y-112616304D01*
X88017641Y-112716939D01*
X87798987Y-112863038D01*
X87613038Y-113048987D01*
X87466939Y-113267641D01*
X87366304Y-113510595D01*
X87315000Y-113768514D01*
X87315000Y-114031486D01*
X87366304Y-114289405D01*
X87466939Y-114532359D01*
X87545544Y-114650000D01*
X87466939Y-114767641D01*
X87457678Y-114790000D01*
X85810000Y-114790000D01*
X85810000Y-112892322D01*
X85832359Y-112883061D01*
X85950000Y-112804456D01*
X86067641Y-112883061D01*
X86310595Y-112983696D01*
X86568514Y-113035000D01*
X86831486Y-113035000D01*
X87089405Y-112983696D01*
X87332359Y-112883061D01*
X87551013Y-112736962D01*
X87736962Y-112551013D01*
X87883061Y-112332359D01*
X87983696Y-112089405D01*
X88035000Y-111831486D01*
X88035000Y-111712441D01*
X104811000Y-111712441D01*
X104811000Y-111887559D01*
X104845164Y-112059312D01*
X104912179Y-112221099D01*
X105009469Y-112366704D01*
X105133296Y-112490531D01*
X105278901Y-112587821D01*
X105440688Y-112654836D01*
X105612441Y-112689000D01*
X105787559Y-112689000D01*
X105959312Y-112654836D01*
X106121099Y-112587821D01*
X106266704Y-112490531D01*
X106390531Y-112366704D01*
X106487821Y-112221099D01*
X106554836Y-112059312D01*
X106589000Y-111887559D01*
X106589000Y-111712441D01*
X106554836Y-111540688D01*
X106487821Y-111378901D01*
X106390531Y-111233296D01*
X106266704Y-111109469D01*
X106121099Y-111012179D01*
X105959312Y-110945164D01*
X105787559Y-110911000D01*
X105612441Y-110911000D01*
X105440688Y-110945164D01*
X105278901Y-111012179D01*
X105133296Y-111109469D01*
X105009469Y-111233296D01*
X104912179Y-111378901D01*
X104845164Y-111540688D01*
X104811000Y-111712441D01*
X88035000Y-111712441D01*
X88035000Y-111568514D01*
X87983696Y-111310595D01*
X87883061Y-111067641D01*
X87736962Y-110848987D01*
X87587975Y-110700000D01*
X87736962Y-110551013D01*
X87829552Y-110412441D01*
X95111000Y-110412441D01*
X95111000Y-110587559D01*
X95145164Y-110759312D01*
X95212179Y-110921099D01*
X95309469Y-111066704D01*
X95433296Y-111190531D01*
X95578901Y-111287821D01*
X95740688Y-111354836D01*
X95912441Y-111389000D01*
X96087559Y-111389000D01*
X96259312Y-111354836D01*
X96421099Y-111287821D01*
X96566704Y-111190531D01*
X96690531Y-111066704D01*
X96787821Y-110921099D01*
X96854836Y-110759312D01*
X96889000Y-110587559D01*
X96889000Y-110412441D01*
X96854836Y-110240688D01*
X96787821Y-110078901D01*
X96690531Y-109933296D01*
X96566704Y-109809469D01*
X96421099Y-109712179D01*
X96259312Y-109645164D01*
X96087559Y-109611000D01*
X95912441Y-109611000D01*
X95740688Y-109645164D01*
X95578901Y-109712179D01*
X95433296Y-109809469D01*
X95309469Y-109933296D01*
X95212179Y-110078901D01*
X95145164Y-110240688D01*
X95111000Y-110412441D01*
X87829552Y-110412441D01*
X87883061Y-110332359D01*
X87983696Y-110089405D01*
X88035000Y-109831486D01*
X88035000Y-109568514D01*
X87984064Y-109312441D01*
X107211000Y-109312441D01*
X107211000Y-109487559D01*
X107245164Y-109659312D01*
X107312179Y-109821099D01*
X107409469Y-109966704D01*
X107533296Y-110090531D01*
X107678901Y-110187821D01*
X107840688Y-110254836D01*
X108012441Y-110289000D01*
X108187559Y-110289000D01*
X108359312Y-110254836D01*
X108521099Y-110187821D01*
X108666704Y-110090531D01*
X108790531Y-109966704D01*
X108887821Y-109821099D01*
X108954836Y-109659312D01*
X108989000Y-109487559D01*
X108989000Y-109312441D01*
X108954836Y-109140688D01*
X108887821Y-108978901D01*
X108790531Y-108833296D01*
X108666704Y-108709469D01*
X108521099Y-108612179D01*
X108359312Y-108545164D01*
X108187559Y-108511000D01*
X108012441Y-108511000D01*
X107840688Y-108545164D01*
X107678901Y-108612179D01*
X107533296Y-108709469D01*
X107409469Y-108833296D01*
X107312179Y-108978901D01*
X107245164Y-109140688D01*
X107211000Y-109312441D01*
X87984064Y-109312441D01*
X87983696Y-109310595D01*
X87883061Y-109067641D01*
X87736962Y-108848987D01*
X87551013Y-108663038D01*
X87332359Y-108516939D01*
X87089405Y-108416304D01*
X86831486Y-108365000D01*
X86568514Y-108365000D01*
X86310595Y-108416304D01*
X86067641Y-108516939D01*
X85950000Y-108595544D01*
X85832359Y-108516939D01*
X85810000Y-108507678D01*
X85810000Y-106892322D01*
X85832359Y-106883061D01*
X85950000Y-106804456D01*
X86067641Y-106883061D01*
X86310595Y-106983696D01*
X86568514Y-107035000D01*
X86831486Y-107035000D01*
X87089405Y-106983696D01*
X87332359Y-106883061D01*
X87551013Y-106736962D01*
X87736962Y-106551013D01*
X87762734Y-106512441D01*
X92911000Y-106512441D01*
X92911000Y-106687559D01*
X92945164Y-106859312D01*
X93012179Y-107021099D01*
X93109469Y-107166704D01*
X93233296Y-107290531D01*
X93259519Y-107308052D01*
X93212179Y-107378901D01*
X93145164Y-107540688D01*
X93111000Y-107712441D01*
X93111000Y-107887559D01*
X93145164Y-108059312D01*
X93212179Y-108221099D01*
X93309469Y-108366704D01*
X93433296Y-108490531D01*
X93578901Y-108587821D01*
X93740688Y-108654836D01*
X93912441Y-108689000D01*
X94087559Y-108689000D01*
X94259312Y-108654836D01*
X94421099Y-108587821D01*
X94566704Y-108490531D01*
X94690531Y-108366704D01*
X94787821Y-108221099D01*
X94854836Y-108059312D01*
X94889000Y-107887559D01*
X94889000Y-107712441D01*
X94854836Y-107540688D01*
X94787821Y-107378901D01*
X94690531Y-107233296D01*
X94669676Y-107212441D01*
X100211000Y-107212441D01*
X100211000Y-107387559D01*
X100245164Y-107559312D01*
X100312179Y-107721099D01*
X100409469Y-107866704D01*
X100533296Y-107990531D01*
X100678901Y-108087821D01*
X100840688Y-108154836D01*
X101012441Y-108189000D01*
X101187559Y-108189000D01*
X101359312Y-108154836D01*
X101521099Y-108087821D01*
X101666704Y-107990531D01*
X101790531Y-107866704D01*
X101887821Y-107721099D01*
X101954836Y-107559312D01*
X101989000Y-107387559D01*
X101989000Y-107212441D01*
X106211000Y-107212441D01*
X106211000Y-107387559D01*
X106245164Y-107559312D01*
X106312179Y-107721099D01*
X106409469Y-107866704D01*
X106533296Y-107990531D01*
X106678901Y-108087821D01*
X106840688Y-108154836D01*
X107012441Y-108189000D01*
X107187559Y-108189000D01*
X107359312Y-108154836D01*
X107521099Y-108087821D01*
X107666704Y-107990531D01*
X107790531Y-107866704D01*
X107887821Y-107721099D01*
X107954836Y-107559312D01*
X107989000Y-107387559D01*
X107989000Y-107212441D01*
X107954836Y-107040688D01*
X107887821Y-106878901D01*
X107795036Y-106740038D01*
X107921099Y-106687821D01*
X108066704Y-106590531D01*
X108190531Y-106466704D01*
X108287821Y-106321099D01*
X108354836Y-106159312D01*
X108389000Y-105987559D01*
X108389000Y-105812441D01*
X108354836Y-105640688D01*
X108287821Y-105478901D01*
X108190531Y-105333296D01*
X108066704Y-105209469D01*
X107921099Y-105112179D01*
X107759312Y-105045164D01*
X107587559Y-105011000D01*
X107412441Y-105011000D01*
X107240688Y-105045164D01*
X107078901Y-105112179D01*
X106933296Y-105209469D01*
X106809469Y-105333296D01*
X106712179Y-105478901D01*
X106645164Y-105640688D01*
X106611000Y-105812441D01*
X106611000Y-105987559D01*
X106645164Y-106159312D01*
X106712179Y-106321099D01*
X106804964Y-106459962D01*
X106678901Y-106512179D01*
X106533296Y-106609469D01*
X106409469Y-106733296D01*
X106312179Y-106878901D01*
X106245164Y-107040688D01*
X106211000Y-107212441D01*
X101989000Y-107212441D01*
X101954836Y-107040688D01*
X101887821Y-106878901D01*
X101790531Y-106733296D01*
X101767449Y-106710214D01*
X101791865Y-106700100D01*
X101882296Y-106790531D01*
X102027901Y-106887821D01*
X102189688Y-106954836D01*
X102361441Y-106989000D01*
X102536559Y-106989000D01*
X102708312Y-106954836D01*
X102828000Y-106905259D01*
X102947688Y-106954836D01*
X103119441Y-106989000D01*
X103294559Y-106989000D01*
X103466312Y-106954836D01*
X103628099Y-106887821D01*
X103773704Y-106790531D01*
X103897531Y-106666704D01*
X103994821Y-106521099D01*
X104061836Y-106359312D01*
X104096000Y-106187559D01*
X104096000Y-106012441D01*
X104061836Y-105840688D01*
X103994821Y-105678901D01*
X103897531Y-105533296D01*
X103773704Y-105409469D01*
X103628099Y-105312179D01*
X103466312Y-105245164D01*
X103294559Y-105211000D01*
X103119441Y-105211000D01*
X102947688Y-105245164D01*
X102828000Y-105294741D01*
X102708312Y-105245164D01*
X102536559Y-105211000D01*
X102361441Y-105211000D01*
X102189688Y-105245164D01*
X102123935Y-105272400D01*
X102033504Y-105181969D01*
X101887899Y-105084679D01*
X101726112Y-105017664D01*
X101554359Y-104983500D01*
X101379241Y-104983500D01*
X101207488Y-105017664D01*
X101045701Y-105084679D01*
X100900096Y-105181969D01*
X100776269Y-105305796D01*
X100678979Y-105451401D01*
X100611964Y-105613188D01*
X100577800Y-105784941D01*
X100577800Y-105960059D01*
X100611964Y-106131812D01*
X100678979Y-106293599D01*
X100776269Y-106439204D01*
X100799351Y-106462286D01*
X100678901Y-106512179D01*
X100533296Y-106609469D01*
X100409469Y-106733296D01*
X100312179Y-106878901D01*
X100245164Y-107040688D01*
X100211000Y-107212441D01*
X94669676Y-107212441D01*
X94566704Y-107109469D01*
X94540481Y-107091948D01*
X94587821Y-107021099D01*
X94654836Y-106859312D01*
X94689000Y-106687559D01*
X94689000Y-106512441D01*
X94654836Y-106340688D01*
X94587821Y-106178901D01*
X94490531Y-106033296D01*
X94366704Y-105909469D01*
X94221099Y-105812179D01*
X94059312Y-105745164D01*
X93887559Y-105711000D01*
X93712441Y-105711000D01*
X93540688Y-105745164D01*
X93378901Y-105812179D01*
X93233296Y-105909469D01*
X93109469Y-106033296D01*
X93012179Y-106178901D01*
X92945164Y-106340688D01*
X92911000Y-106512441D01*
X87762734Y-106512441D01*
X87883061Y-106332359D01*
X87983696Y-106089405D01*
X88035000Y-105831486D01*
X88035000Y-105568514D01*
X87983696Y-105310595D01*
X87883724Y-105069241D01*
X88175200Y-105069241D01*
X88175200Y-105244359D01*
X88209364Y-105416112D01*
X88276379Y-105577899D01*
X88373669Y-105723504D01*
X88497496Y-105847331D01*
X88643101Y-105944621D01*
X88804888Y-106011636D01*
X88976641Y-106045800D01*
X89151759Y-106045800D01*
X89323512Y-106011636D01*
X89485299Y-105944621D01*
X89630904Y-105847331D01*
X89754731Y-105723504D01*
X89852021Y-105577899D01*
X89901295Y-105458941D01*
X97193100Y-105458941D01*
X97193100Y-105634059D01*
X97227264Y-105805812D01*
X97294279Y-105967599D01*
X97391569Y-106113204D01*
X97397490Y-106119125D01*
X97387700Y-106168341D01*
X97387700Y-106343459D01*
X97421864Y-106515212D01*
X97488879Y-106676999D01*
X97586169Y-106822604D01*
X97709996Y-106946431D01*
X97855601Y-107043721D01*
X98017388Y-107110736D01*
X98189141Y-107144900D01*
X98364259Y-107144900D01*
X98536012Y-107110736D01*
X98697799Y-107043721D01*
X98843404Y-106946431D01*
X98967231Y-106822604D01*
X99020755Y-106742500D01*
X99151059Y-106742500D01*
X99322812Y-106708336D01*
X99484599Y-106641321D01*
X99630204Y-106544031D01*
X99754031Y-106420204D01*
X99851321Y-106274599D01*
X99918336Y-106112812D01*
X99952500Y-105941059D01*
X99952500Y-105765941D01*
X99918336Y-105594188D01*
X99851321Y-105432401D01*
X99754031Y-105286796D01*
X99630204Y-105162969D01*
X99484599Y-105065679D01*
X99322812Y-104998664D01*
X99151059Y-104964500D01*
X98975941Y-104964500D01*
X98804188Y-104998664D01*
X98789346Y-105004812D01*
X98772631Y-104979796D01*
X98648804Y-104855969D01*
X98503199Y-104758679D01*
X98341412Y-104691664D01*
X98169659Y-104657500D01*
X97994541Y-104657500D01*
X97822788Y-104691664D01*
X97661001Y-104758679D01*
X97515396Y-104855969D01*
X97391569Y-104979796D01*
X97294279Y-105125401D01*
X97227264Y-105287188D01*
X97193100Y-105458941D01*
X89901295Y-105458941D01*
X89919036Y-105416112D01*
X89953200Y-105244359D01*
X89953200Y-105069241D01*
X89919036Y-104897488D01*
X89852021Y-104735701D01*
X89754731Y-104590096D01*
X89630904Y-104466269D01*
X89485299Y-104368979D01*
X89323512Y-104301964D01*
X89151759Y-104267800D01*
X88976641Y-104267800D01*
X88804888Y-104301964D01*
X88643101Y-104368979D01*
X88497496Y-104466269D01*
X88373669Y-104590096D01*
X88276379Y-104735701D01*
X88209364Y-104897488D01*
X88175200Y-105069241D01*
X87883724Y-105069241D01*
X87883061Y-105067641D01*
X87736962Y-104848987D01*
X87587975Y-104700000D01*
X87736962Y-104551013D01*
X87883061Y-104332359D01*
X87983696Y-104089405D01*
X88018896Y-103912441D01*
X93211000Y-103912441D01*
X93211000Y-104087559D01*
X93245164Y-104259312D01*
X93312179Y-104421099D01*
X93409469Y-104566704D01*
X93533296Y-104690531D01*
X93678901Y-104787821D01*
X93840688Y-104854836D01*
X94012441Y-104889000D01*
X94187559Y-104889000D01*
X94359312Y-104854836D01*
X94521099Y-104787821D01*
X94666704Y-104690531D01*
X94790531Y-104566704D01*
X94887821Y-104421099D01*
X94954836Y-104259312D01*
X94989000Y-104087559D01*
X94989000Y-103912441D01*
X94954836Y-103740688D01*
X94887821Y-103578901D01*
X94790531Y-103433296D01*
X94666704Y-103309469D01*
X94521099Y-103212179D01*
X94359312Y-103145164D01*
X94187559Y-103111000D01*
X94012441Y-103111000D01*
X93840688Y-103145164D01*
X93678901Y-103212179D01*
X93533296Y-103309469D01*
X93409469Y-103433296D01*
X93312179Y-103578901D01*
X93245164Y-103740688D01*
X93211000Y-103912441D01*
X88018896Y-103912441D01*
X88035000Y-103831486D01*
X88035000Y-103568514D01*
X87983696Y-103310595D01*
X87883061Y-103067641D01*
X87736962Y-102848987D01*
X87587975Y-102700000D01*
X87736962Y-102551013D01*
X87883061Y-102332359D01*
X87983696Y-102089405D01*
X88005529Y-101979641D01*
X89614600Y-101979641D01*
X89614600Y-102154759D01*
X89648764Y-102326512D01*
X89715779Y-102488299D01*
X89813069Y-102633904D01*
X89936896Y-102757731D01*
X90082501Y-102855021D01*
X90244288Y-102922036D01*
X90416041Y-102956200D01*
X90591159Y-102956200D01*
X90762912Y-102922036D01*
X90924699Y-102855021D01*
X91070304Y-102757731D01*
X91194131Y-102633904D01*
X91291421Y-102488299D01*
X91347740Y-102352333D01*
X91399379Y-102476999D01*
X91496669Y-102622604D01*
X91620496Y-102746431D01*
X91766101Y-102843721D01*
X91927888Y-102910736D01*
X92099641Y-102944900D01*
X92274759Y-102944900D01*
X92446512Y-102910736D01*
X92608299Y-102843721D01*
X92753904Y-102746431D01*
X92877731Y-102622604D01*
X92942987Y-102524941D01*
X102437300Y-102524941D01*
X102437300Y-102700059D01*
X102471464Y-102871812D01*
X102538479Y-103033599D01*
X102635769Y-103179204D01*
X102759596Y-103303031D01*
X102905201Y-103400321D01*
X102931536Y-103411229D01*
X102909469Y-103433296D01*
X102812179Y-103578901D01*
X102745164Y-103740688D01*
X102711000Y-103912441D01*
X102711000Y-104087559D01*
X102745164Y-104259312D01*
X102812179Y-104421099D01*
X102909469Y-104566704D01*
X103033296Y-104690531D01*
X103178901Y-104787821D01*
X103340688Y-104854836D01*
X103512441Y-104889000D01*
X103687559Y-104889000D01*
X103859312Y-104854836D01*
X104021099Y-104787821D01*
X104166704Y-104690531D01*
X104194794Y-104662441D01*
X108111000Y-104662441D01*
X108111000Y-104837559D01*
X108145164Y-105009312D01*
X108212179Y-105171099D01*
X108309469Y-105316704D01*
X108433296Y-105440531D01*
X108578901Y-105537821D01*
X108740688Y-105604836D01*
X108912441Y-105639000D01*
X109087559Y-105639000D01*
X109259312Y-105604836D01*
X109421099Y-105537821D01*
X109566704Y-105440531D01*
X109690531Y-105316704D01*
X109787821Y-105171099D01*
X109854836Y-105009312D01*
X109889000Y-104837559D01*
X109889000Y-104662441D01*
X109854836Y-104490688D01*
X109787821Y-104328901D01*
X109690531Y-104183296D01*
X109566704Y-104059469D01*
X109421099Y-103962179D01*
X109259312Y-103895164D01*
X109087559Y-103861000D01*
X108912441Y-103861000D01*
X108740688Y-103895164D01*
X108578901Y-103962179D01*
X108433296Y-104059469D01*
X108309469Y-104183296D01*
X108212179Y-104328901D01*
X108145164Y-104490688D01*
X108111000Y-104662441D01*
X104194794Y-104662441D01*
X104290531Y-104566704D01*
X104387821Y-104421099D01*
X104454836Y-104259312D01*
X104489000Y-104087559D01*
X104489000Y-103912441D01*
X104454836Y-103740688D01*
X104387821Y-103578901D01*
X104290531Y-103433296D01*
X104238722Y-103381487D01*
X104263612Y-103376536D01*
X104425399Y-103309521D01*
X104571004Y-103212231D01*
X104694831Y-103088404D01*
X104792121Y-102942799D01*
X104859136Y-102781012D01*
X104893300Y-102609259D01*
X104893300Y-102434141D01*
X104859136Y-102262388D01*
X104792121Y-102100601D01*
X104694831Y-101954996D01*
X104573880Y-101834045D01*
X104604836Y-101759312D01*
X104639000Y-101587559D01*
X104639000Y-101412441D01*
X107861000Y-101412441D01*
X107861000Y-101587559D01*
X107895164Y-101759312D01*
X107962179Y-101921099D01*
X108059469Y-102066704D01*
X108183296Y-102190531D01*
X108328901Y-102287821D01*
X108490688Y-102354836D01*
X108662441Y-102389000D01*
X108837559Y-102389000D01*
X109009312Y-102354836D01*
X109171099Y-102287821D01*
X109316704Y-102190531D01*
X109440531Y-102066704D01*
X109537821Y-101921099D01*
X109604836Y-101759312D01*
X109639000Y-101587559D01*
X109639000Y-101412441D01*
X109604836Y-101240688D01*
X109537821Y-101078901D01*
X109440531Y-100933296D01*
X109316704Y-100809469D01*
X109171099Y-100712179D01*
X109009312Y-100645164D01*
X108837559Y-100611000D01*
X108662441Y-100611000D01*
X108490688Y-100645164D01*
X108328901Y-100712179D01*
X108183296Y-100809469D01*
X108059469Y-100933296D01*
X107962179Y-101078901D01*
X107895164Y-101240688D01*
X107861000Y-101412441D01*
X104639000Y-101412441D01*
X104604836Y-101240688D01*
X104537821Y-101078901D01*
X104440531Y-100933296D01*
X104316704Y-100809469D01*
X104223781Y-100747380D01*
X104305821Y-100624599D01*
X104372836Y-100462812D01*
X104407000Y-100291059D01*
X104407000Y-100115941D01*
X104372836Y-99944188D01*
X104352752Y-99895702D01*
X104416199Y-99869421D01*
X104561804Y-99772131D01*
X104685631Y-99648304D01*
X104782921Y-99502699D01*
X104849936Y-99340912D01*
X104884100Y-99169159D01*
X104884100Y-99162441D01*
X108111000Y-99162441D01*
X108111000Y-99337559D01*
X108145164Y-99509312D01*
X108212179Y-99671099D01*
X108309469Y-99816704D01*
X108433296Y-99940531D01*
X108578901Y-100037821D01*
X108740688Y-100104836D01*
X108912441Y-100139000D01*
X109087559Y-100139000D01*
X109259312Y-100104836D01*
X109421099Y-100037821D01*
X109566704Y-99940531D01*
X109690531Y-99816704D01*
X109787821Y-99671099D01*
X109854836Y-99509312D01*
X109889000Y-99337559D01*
X109889000Y-99162441D01*
X109854836Y-98990688D01*
X109787821Y-98828901D01*
X109690531Y-98683296D01*
X109566704Y-98559469D01*
X109421099Y-98462179D01*
X109259312Y-98395164D01*
X109087559Y-98361000D01*
X108912441Y-98361000D01*
X108740688Y-98395164D01*
X108578901Y-98462179D01*
X108433296Y-98559469D01*
X108309469Y-98683296D01*
X108212179Y-98828901D01*
X108145164Y-98990688D01*
X108111000Y-99162441D01*
X104884100Y-99162441D01*
X104884100Y-98994041D01*
X104849936Y-98822288D01*
X104782921Y-98660501D01*
X104685631Y-98514896D01*
X104561804Y-98391069D01*
X104416199Y-98293779D01*
X104254412Y-98226764D01*
X104198661Y-98215674D01*
X104244431Y-98169904D01*
X104341721Y-98024299D01*
X104408736Y-97862512D01*
X104442900Y-97690759D01*
X104442900Y-97515641D01*
X104436893Y-97485441D01*
X105112100Y-97485441D01*
X105112100Y-97660559D01*
X105146264Y-97832312D01*
X105213279Y-97994099D01*
X105310569Y-98139704D01*
X105434396Y-98263531D01*
X105580001Y-98360821D01*
X105741788Y-98427836D01*
X105913541Y-98462000D01*
X106088659Y-98462000D01*
X106260412Y-98427836D01*
X106422199Y-98360821D01*
X106567804Y-98263531D01*
X106691631Y-98139704D01*
X106788921Y-97994099D01*
X106855936Y-97832312D01*
X106890100Y-97660559D01*
X106890100Y-97485441D01*
X106855936Y-97313688D01*
X106788921Y-97151901D01*
X106691631Y-97006296D01*
X106567804Y-96882469D01*
X106422199Y-96785179D01*
X106260412Y-96718164D01*
X106088659Y-96684000D01*
X105913541Y-96684000D01*
X105741788Y-96718164D01*
X105580001Y-96785179D01*
X105434396Y-96882469D01*
X105310569Y-97006296D01*
X105213279Y-97151901D01*
X105146264Y-97313688D01*
X105112100Y-97485441D01*
X104436893Y-97485441D01*
X104408736Y-97343888D01*
X104341721Y-97182101D01*
X104244431Y-97036496D01*
X104120604Y-96912669D01*
X103974999Y-96815379D01*
X103813212Y-96748364D01*
X103641459Y-96714200D01*
X103466341Y-96714200D01*
X103294588Y-96748364D01*
X103132801Y-96815379D01*
X102987196Y-96912669D01*
X102863369Y-97036496D01*
X102766079Y-97182101D01*
X102699064Y-97343888D01*
X102664900Y-97515641D01*
X102664900Y-97690759D01*
X102699064Y-97862512D01*
X102766079Y-98024299D01*
X102863369Y-98169904D01*
X102987196Y-98293731D01*
X103132801Y-98391021D01*
X103294588Y-98458036D01*
X103350339Y-98469126D01*
X103304569Y-98514896D01*
X103207279Y-98660501D01*
X103140264Y-98822288D01*
X103106100Y-98994041D01*
X103106100Y-99169159D01*
X103140264Y-99340912D01*
X103160348Y-99389398D01*
X103096901Y-99415679D01*
X102951296Y-99512969D01*
X102827469Y-99636796D01*
X102730179Y-99782401D01*
X102663164Y-99944188D01*
X102629000Y-100115941D01*
X102629000Y-100291059D01*
X102663164Y-100462812D01*
X102730179Y-100624599D01*
X102827469Y-100770204D01*
X102951296Y-100894031D01*
X103044219Y-100956120D01*
X102962179Y-101078901D01*
X102895164Y-101240688D01*
X102861000Y-101412441D01*
X102861000Y-101587559D01*
X102895164Y-101759312D01*
X102919745Y-101818655D01*
X102905201Y-101824679D01*
X102759596Y-101921969D01*
X102635769Y-102045796D01*
X102538479Y-102191401D01*
X102471464Y-102353188D01*
X102437300Y-102524941D01*
X92942987Y-102524941D01*
X92975021Y-102476999D01*
X93042036Y-102315212D01*
X93076200Y-102143459D01*
X93076200Y-101968341D01*
X93042036Y-101796588D01*
X92975021Y-101634801D01*
X92877731Y-101489196D01*
X92753904Y-101365369D01*
X92608299Y-101268079D01*
X92446512Y-101201064D01*
X92274759Y-101166900D01*
X92099641Y-101166900D01*
X91927888Y-101201064D01*
X91766101Y-101268079D01*
X91620496Y-101365369D01*
X91496669Y-101489196D01*
X91399379Y-101634801D01*
X91343060Y-101770767D01*
X91291421Y-101646101D01*
X91194131Y-101500496D01*
X91070304Y-101376669D01*
X90924699Y-101279379D01*
X90762912Y-101212364D01*
X90591159Y-101178200D01*
X90416041Y-101178200D01*
X90244288Y-101212364D01*
X90082501Y-101279379D01*
X89936896Y-101376669D01*
X89813069Y-101500496D01*
X89715779Y-101646101D01*
X89648764Y-101807888D01*
X89614600Y-101979641D01*
X88005529Y-101979641D01*
X88035000Y-101831486D01*
X88035000Y-101568514D01*
X87983696Y-101310595D01*
X87883061Y-101067641D01*
X87736962Y-100848987D01*
X87587975Y-100700000D01*
X87736962Y-100551013D01*
X87805965Y-100447741D01*
X93791400Y-100447741D01*
X93791400Y-100622859D01*
X93825564Y-100794612D01*
X93892579Y-100956399D01*
X93989869Y-101102004D01*
X94113696Y-101225831D01*
X94259301Y-101323121D01*
X94421088Y-101390136D01*
X94592841Y-101424300D01*
X94767959Y-101424300D01*
X94939712Y-101390136D01*
X95101499Y-101323121D01*
X95247104Y-101225831D01*
X95370931Y-101102004D01*
X95468221Y-100956399D01*
X95535236Y-100794612D01*
X95569400Y-100622859D01*
X95569400Y-100447741D01*
X95535236Y-100275988D01*
X95468221Y-100114201D01*
X95370931Y-99968596D01*
X95247104Y-99844769D01*
X95101499Y-99747479D01*
X94939712Y-99680464D01*
X94767959Y-99646300D01*
X94592841Y-99646300D01*
X94421088Y-99680464D01*
X94259301Y-99747479D01*
X94113696Y-99844769D01*
X93989869Y-99968596D01*
X93892579Y-100114201D01*
X93825564Y-100275988D01*
X93791400Y-100447741D01*
X87805965Y-100447741D01*
X87883061Y-100332359D01*
X87983696Y-100089405D01*
X88035000Y-99831486D01*
X88035000Y-99568514D01*
X87983696Y-99310595D01*
X87883061Y-99067641D01*
X87736962Y-98848987D01*
X87587975Y-98700000D01*
X87736962Y-98551013D01*
X87883061Y-98332359D01*
X87983696Y-98089405D01*
X88035000Y-97831486D01*
X88035000Y-97568514D01*
X87983696Y-97310595D01*
X87883061Y-97067641D01*
X87736962Y-96848987D01*
X87587975Y-96700000D01*
X87736962Y-96551013D01*
X87883061Y-96332359D01*
X87974154Y-96112441D01*
X92811000Y-96112441D01*
X92811000Y-96287559D01*
X92845164Y-96459312D01*
X92912179Y-96621099D01*
X93009469Y-96766704D01*
X93133296Y-96890531D01*
X93278901Y-96987821D01*
X93440688Y-97054836D01*
X93612441Y-97089000D01*
X93787559Y-97089000D01*
X93959312Y-97054836D01*
X94121099Y-96987821D01*
X94266704Y-96890531D01*
X94390531Y-96766704D01*
X94487821Y-96621099D01*
X94554836Y-96459312D01*
X94589000Y-96287559D01*
X94589000Y-96112441D01*
X94554836Y-95940688D01*
X94487821Y-95778901D01*
X94390531Y-95633296D01*
X94376376Y-95619141D01*
X95108500Y-95619141D01*
X95108500Y-95794259D01*
X95142664Y-95966012D01*
X95209679Y-96127799D01*
X95306969Y-96273404D01*
X95430796Y-96397231D01*
X95576401Y-96494521D01*
X95738188Y-96561536D01*
X95909941Y-96595700D01*
X95959266Y-96595700D01*
X95921179Y-96652701D01*
X95854164Y-96814488D01*
X95820000Y-96986241D01*
X95820000Y-97161359D01*
X95854164Y-97333112D01*
X95921179Y-97494899D01*
X95978090Y-97580073D01*
X95962800Y-97656941D01*
X95962800Y-97832059D01*
X95996964Y-98003812D01*
X96063979Y-98165599D01*
X96161269Y-98311204D01*
X96285096Y-98435031D01*
X96327313Y-98463240D01*
X96183296Y-98559469D01*
X96059469Y-98683296D01*
X95962179Y-98828901D01*
X95895164Y-98990688D01*
X95861000Y-99162441D01*
X95861000Y-99337559D01*
X95895164Y-99509312D01*
X95962179Y-99671099D01*
X96040863Y-99788859D01*
X95986579Y-99870101D01*
X95919564Y-100031888D01*
X95885400Y-100203641D01*
X95885400Y-100378759D01*
X95919564Y-100550512D01*
X95986579Y-100712299D01*
X96083869Y-100857904D01*
X96207696Y-100981731D01*
X96353301Y-101079021D01*
X96515088Y-101146036D01*
X96686841Y-101180200D01*
X96861959Y-101180200D01*
X97033712Y-101146036D01*
X97195499Y-101079021D01*
X97341104Y-100981731D01*
X97464931Y-100857904D01*
X97562221Y-100712299D01*
X97629236Y-100550512D01*
X97663400Y-100378759D01*
X97663400Y-100203641D01*
X97629236Y-100031888D01*
X97562221Y-99870101D01*
X97483537Y-99752341D01*
X97537821Y-99671099D01*
X97604836Y-99509312D01*
X97639000Y-99337559D01*
X97639000Y-99162441D01*
X97604836Y-98990688D01*
X97537821Y-98828901D01*
X97440531Y-98683296D01*
X97316704Y-98559469D01*
X97274487Y-98531260D01*
X97418504Y-98435031D01*
X97542331Y-98311204D01*
X97639621Y-98165599D01*
X97706636Y-98003812D01*
X97740800Y-97832059D01*
X97740800Y-97656941D01*
X97706636Y-97485188D01*
X97639621Y-97323401D01*
X97582710Y-97238227D01*
X97598000Y-97161359D01*
X97598000Y-96986241D01*
X97563836Y-96814488D01*
X97500856Y-96662441D01*
X100111000Y-96662441D01*
X100111000Y-96837559D01*
X100145164Y-97009312D01*
X100212179Y-97171099D01*
X100309469Y-97316704D01*
X100433296Y-97440531D01*
X100578901Y-97537821D01*
X100740688Y-97604836D01*
X100912441Y-97639000D01*
X101087559Y-97639000D01*
X101259312Y-97604836D01*
X101421099Y-97537821D01*
X101566704Y-97440531D01*
X101690531Y-97316704D01*
X101787821Y-97171099D01*
X101854836Y-97009312D01*
X101889000Y-96837559D01*
X101889000Y-96662441D01*
X101854836Y-96490688D01*
X101787821Y-96328901D01*
X101690531Y-96183296D01*
X101566704Y-96059469D01*
X101421099Y-95962179D01*
X101259312Y-95895164D01*
X101087559Y-95861000D01*
X100912441Y-95861000D01*
X100740688Y-95895164D01*
X100578901Y-95962179D01*
X100433296Y-96059469D01*
X100309469Y-96183296D01*
X100212179Y-96328901D01*
X100145164Y-96490688D01*
X100111000Y-96662441D01*
X97500856Y-96662441D01*
X97496821Y-96652701D01*
X97399531Y-96507096D01*
X97275704Y-96383269D01*
X97130099Y-96285979D01*
X96968312Y-96218964D01*
X96796559Y-96184800D01*
X96747234Y-96184800D01*
X96785321Y-96127799D01*
X96852336Y-95966012D01*
X96886500Y-95794259D01*
X96886500Y-95619141D01*
X96852336Y-95447388D01*
X96785321Y-95285601D01*
X96688031Y-95139996D01*
X96564204Y-95016169D01*
X96497264Y-94971441D01*
X101346300Y-94971441D01*
X101346300Y-95146559D01*
X101380464Y-95318312D01*
X101447479Y-95480099D01*
X101544769Y-95625704D01*
X101668596Y-95749531D01*
X101814201Y-95846821D01*
X101975988Y-95913836D01*
X102147741Y-95948000D01*
X102322859Y-95948000D01*
X102494612Y-95913836D01*
X102656399Y-95846821D01*
X102802004Y-95749531D01*
X102925831Y-95625704D01*
X103023121Y-95480099D01*
X103090136Y-95318312D01*
X103124300Y-95146559D01*
X103124300Y-94971441D01*
X103090136Y-94799688D01*
X103023121Y-94637901D01*
X102925831Y-94492296D01*
X102802004Y-94368469D01*
X102656399Y-94271179D01*
X102494612Y-94204164D01*
X102322859Y-94170000D01*
X102147741Y-94170000D01*
X101975988Y-94204164D01*
X101814201Y-94271179D01*
X101668596Y-94368469D01*
X101544769Y-94492296D01*
X101447479Y-94637901D01*
X101380464Y-94799688D01*
X101346300Y-94971441D01*
X96497264Y-94971441D01*
X96418599Y-94918879D01*
X96256812Y-94851864D01*
X96085059Y-94817700D01*
X95909941Y-94817700D01*
X95738188Y-94851864D01*
X95576401Y-94918879D01*
X95430796Y-95016169D01*
X95306969Y-95139996D01*
X95209679Y-95285601D01*
X95142664Y-95447388D01*
X95108500Y-95619141D01*
X94376376Y-95619141D01*
X94266704Y-95509469D01*
X94121099Y-95412179D01*
X93959312Y-95345164D01*
X93787559Y-95311000D01*
X93612441Y-95311000D01*
X93440688Y-95345164D01*
X93278901Y-95412179D01*
X93133296Y-95509469D01*
X93009469Y-95633296D01*
X92912179Y-95778901D01*
X92845164Y-95940688D01*
X92811000Y-96112441D01*
X87974154Y-96112441D01*
X87983696Y-96089405D01*
X88035000Y-95831486D01*
X88035000Y-95568514D01*
X87983696Y-95310595D01*
X87883061Y-95067641D01*
X87736962Y-94848987D01*
X87587975Y-94700000D01*
X87736962Y-94551013D01*
X87883061Y-94332359D01*
X87932732Y-94212441D01*
X91711000Y-94212441D01*
X91711000Y-94387559D01*
X91745164Y-94559312D01*
X91812179Y-94721099D01*
X91909469Y-94866704D01*
X92033296Y-94990531D01*
X92178901Y-95087821D01*
X92340688Y-95154836D01*
X92512441Y-95189000D01*
X92687559Y-95189000D01*
X92859312Y-95154836D01*
X93021099Y-95087821D01*
X93166704Y-94990531D01*
X93290531Y-94866704D01*
X93387821Y-94721099D01*
X93454836Y-94559312D01*
X93489000Y-94387559D01*
X93489000Y-94212441D01*
X93454836Y-94040688D01*
X93387821Y-93878901D01*
X93290531Y-93733296D01*
X93166704Y-93609469D01*
X93021099Y-93512179D01*
X92859312Y-93445164D01*
X92687559Y-93411000D01*
X92512441Y-93411000D01*
X92340688Y-93445164D01*
X92178901Y-93512179D01*
X92033296Y-93609469D01*
X91909469Y-93733296D01*
X91812179Y-93878901D01*
X91745164Y-94040688D01*
X91711000Y-94212441D01*
X87932732Y-94212441D01*
X87983696Y-94089405D01*
X88035000Y-93831486D01*
X88035000Y-93568514D01*
X87983696Y-93310595D01*
X87883061Y-93067641D01*
X87736962Y-92848987D01*
X87587975Y-92700000D01*
X87736962Y-92551013D01*
X87883061Y-92332359D01*
X87983696Y-92089405D01*
X88035000Y-91831486D01*
X88035000Y-91758487D01*
X88078901Y-91787821D01*
X88240688Y-91854836D01*
X88412441Y-91889000D01*
X88587559Y-91889000D01*
X88759312Y-91854836D01*
X88921099Y-91787821D01*
X89066704Y-91690531D01*
X89190531Y-91566704D01*
X89287821Y-91421099D01*
X89354836Y-91259312D01*
X89389000Y-91087559D01*
X89389000Y-90912441D01*
X90361000Y-90912441D01*
X90361000Y-91087559D01*
X90395164Y-91259312D01*
X90462179Y-91421099D01*
X90559469Y-91566704D01*
X90683296Y-91690531D01*
X90828901Y-91787821D01*
X90990688Y-91854836D01*
X91162441Y-91889000D01*
X91337559Y-91889000D01*
X91509312Y-91854836D01*
X91671099Y-91787821D01*
X91816704Y-91690531D01*
X91940531Y-91566704D01*
X92037821Y-91421099D01*
X92082829Y-91312441D01*
X99811000Y-91312441D01*
X99811000Y-91487559D01*
X99845164Y-91659312D01*
X99912179Y-91821099D01*
X100009469Y-91966704D01*
X100133296Y-92090531D01*
X100278901Y-92187821D01*
X100440688Y-92254836D01*
X100612441Y-92289000D01*
X100787559Y-92289000D01*
X100959312Y-92254836D01*
X101121099Y-92187821D01*
X101266704Y-92090531D01*
X101390531Y-91966704D01*
X101487821Y-91821099D01*
X101554836Y-91659312D01*
X101589000Y-91487559D01*
X101589000Y-91312441D01*
X101554836Y-91140688D01*
X101487821Y-90978901D01*
X101390531Y-90833296D01*
X101266704Y-90709469D01*
X101121099Y-90612179D01*
X100959312Y-90545164D01*
X100787559Y-90511000D01*
X100612441Y-90511000D01*
X100440688Y-90545164D01*
X100278901Y-90612179D01*
X100133296Y-90709469D01*
X100009469Y-90833296D01*
X99912179Y-90978901D01*
X99845164Y-91140688D01*
X99811000Y-91312441D01*
X92082829Y-91312441D01*
X92104836Y-91259312D01*
X92139000Y-91087559D01*
X92139000Y-90912441D01*
X92104836Y-90740688D01*
X92037821Y-90578901D01*
X91940531Y-90433296D01*
X91816704Y-90309469D01*
X91671099Y-90212179D01*
X91509312Y-90145164D01*
X91337559Y-90111000D01*
X91162441Y-90111000D01*
X90990688Y-90145164D01*
X90828901Y-90212179D01*
X90683296Y-90309469D01*
X90559469Y-90433296D01*
X90462179Y-90578901D01*
X90395164Y-90740688D01*
X90361000Y-90912441D01*
X89389000Y-90912441D01*
X89354836Y-90740688D01*
X89287821Y-90578901D01*
X89190531Y-90433296D01*
X89066704Y-90309469D01*
X88921099Y-90212179D01*
X88759312Y-90145164D01*
X88587559Y-90111000D01*
X88412441Y-90111000D01*
X88240688Y-90145164D01*
X88078901Y-90212179D01*
X87933296Y-90309469D01*
X87827998Y-90414767D01*
X87883061Y-90332359D01*
X87983696Y-90089405D01*
X88035000Y-89831486D01*
X88035000Y-89568514D01*
X87983696Y-89310595D01*
X87897664Y-89102895D01*
X88017641Y-89183061D01*
X88260595Y-89283696D01*
X88518514Y-89335000D01*
X88781486Y-89335000D01*
X89039405Y-89283696D01*
X89282359Y-89183061D01*
X89501013Y-89036962D01*
X89650000Y-88887975D01*
X89798987Y-89036962D01*
X90017641Y-89183061D01*
X90260595Y-89283696D01*
X90518514Y-89335000D01*
X90781486Y-89335000D01*
X91039405Y-89283696D01*
X91282359Y-89183061D01*
X91501013Y-89036962D01*
X91650000Y-88887975D01*
X91798987Y-89036962D01*
X92017641Y-89183061D01*
X92260595Y-89283696D01*
X92518514Y-89335000D01*
X92781486Y-89335000D01*
X93039405Y-89283696D01*
X93282359Y-89183061D01*
X93501013Y-89036962D01*
X93650000Y-88887975D01*
X93798987Y-89036962D01*
X94017641Y-89183061D01*
X94260595Y-89283696D01*
X94518514Y-89335000D01*
X94781486Y-89335000D01*
X95039405Y-89283696D01*
X95282359Y-89183061D01*
X95501013Y-89036962D01*
X95650000Y-88887975D01*
X95798987Y-89036962D01*
X96017641Y-89183061D01*
X96260595Y-89283696D01*
X96518514Y-89335000D01*
X96781486Y-89335000D01*
X97039405Y-89283696D01*
X97282359Y-89183061D01*
X97501013Y-89036962D01*
X97650000Y-88887975D01*
X97798987Y-89036962D01*
X98017641Y-89183061D01*
X98260595Y-89283696D01*
X98518514Y-89335000D01*
X98781486Y-89335000D01*
X99039405Y-89283696D01*
X99282359Y-89183061D01*
X99501013Y-89036962D01*
X99650000Y-88887975D01*
X99798987Y-89036962D01*
X100017641Y-89183061D01*
X100260595Y-89283696D01*
X100518514Y-89335000D01*
X100781486Y-89335000D01*
X101039405Y-89283696D01*
X101282359Y-89183061D01*
X101501013Y-89036962D01*
X101650000Y-88887975D01*
X101798987Y-89036962D01*
X102017641Y-89183061D01*
X102260595Y-89283696D01*
X102518514Y-89335000D01*
X102781486Y-89335000D01*
X103039405Y-89283696D01*
X103266274Y-89189723D01*
X103245164Y-89240688D01*
X103211000Y-89412441D01*
X103211000Y-89587559D01*
X103245164Y-89759312D01*
X103312179Y-89921099D01*
X103409469Y-90066704D01*
X103533296Y-90190531D01*
X103678901Y-90287821D01*
X103840688Y-90354836D01*
X104012441Y-90389000D01*
X104187559Y-90389000D01*
X104359312Y-90354836D01*
X104521099Y-90287821D01*
X104666704Y-90190531D01*
X104790531Y-90066704D01*
X104887821Y-89921099D01*
X104954836Y-89759312D01*
X104989000Y-89587559D01*
X104989000Y-89412441D01*
X104966284Y-89298241D01*
X105039405Y-89283696D01*
X105282359Y-89183061D01*
X105501013Y-89036962D01*
X105650000Y-88887975D01*
X105798987Y-89036962D01*
X106017641Y-89183061D01*
X106260595Y-89283696D01*
X106518514Y-89335000D01*
X106781486Y-89335000D01*
X107039405Y-89283696D01*
X107282359Y-89183061D01*
X107501013Y-89036962D01*
X107650000Y-88887975D01*
X107798987Y-89036962D01*
X108017641Y-89183061D01*
X108260595Y-89283696D01*
X108518514Y-89335000D01*
X108781486Y-89335000D01*
X109039405Y-89283696D01*
X109282359Y-89183061D01*
X109501013Y-89036962D01*
X109650000Y-88887975D01*
X109798987Y-89036962D01*
M02*
