G04 #@! TF.GenerationSoftware,KiCad,Pcbnew,(5.1.5-0-10_14)*
G04 #@! TF.CreationDate,2019-12-28T15:12:34-06:00*
G04 #@! TF.ProjectId,CircuitBrains Deluxe v1_3,43697263-7569-4744-9272-61696e732044,rev?*
G04 #@! TF.SameCoordinates,Original*
G04 #@! TF.FileFunction,Copper,L2,Bot*
G04 #@! TF.FilePolarity,Positive*
%FSLAX46Y46*%
G04 Gerber Fmt 4.6, Leading zero omitted, Abs format (unit mm)*
G04 Created by KiCad (PCBNEW (5.1.5-0-10_14)) date 2019-12-28 15:12:34*
%MOMM*%
%LPD*%
G04 APERTURE LIST*
%ADD10R,1.500000X3.000000*%
%ADD11R,3.000000X1.500000*%
%ADD12C,1.400000*%
%ADD13C,0.508000*%
%ADD14C,0.152400*%
%ADD15C,0.200000*%
%ADD16C,0.254000*%
G04 APERTURE END LIST*
D10*
X88650000Y-87200000D03*
X90650000Y-87200000D03*
X92650000Y-87200000D03*
X94650000Y-87200000D03*
X96650000Y-87200000D03*
X98650000Y-87200000D03*
X100650000Y-87200000D03*
X102650000Y-87200000D03*
X104650000Y-87200000D03*
X106650000Y-87200000D03*
X108650000Y-87200000D03*
X110650000Y-87200000D03*
X88650000Y-114700000D03*
X90650000Y-114700000D03*
X92650000Y-114700000D03*
X94650000Y-114700000D03*
X96650000Y-114700000D03*
X98650000Y-114700000D03*
X100650000Y-114700000D03*
X102650000Y-114700000D03*
X104650000Y-114700000D03*
X106650000Y-114700000D03*
X108650000Y-114700000D03*
X110650000Y-114700000D03*
D11*
X113400000Y-111700000D03*
X113400000Y-109700000D03*
X113400000Y-107700000D03*
X113400000Y-105700000D03*
X113400000Y-103700000D03*
X113400000Y-101700000D03*
X113400000Y-99700000D03*
X113400000Y-97700000D03*
X113400000Y-95700000D03*
X113400000Y-93700000D03*
X113400000Y-91700000D03*
X113400000Y-89700000D03*
X85900000Y-89700000D03*
X85900000Y-91700000D03*
X85900000Y-93700000D03*
X85900000Y-95700000D03*
X85900000Y-97700000D03*
X85900000Y-99700000D03*
X85900000Y-101700000D03*
X85900000Y-103700000D03*
X85900000Y-105700000D03*
X85900000Y-107700000D03*
X85900000Y-109700000D03*
X85900000Y-111700000D03*
D12*
X110650000Y-86450000D03*
X85150000Y-111700000D03*
D13*
X91267900Y-93841700D03*
X96707200Y-103874400D03*
X101387300Y-96729300D03*
X103361000Y-104017000D03*
X104005600Y-101569400D03*
X90883000Y-106683200D03*
D12*
X110650000Y-87950000D03*
X86650000Y-111700000D03*
X114150000Y-105700000D03*
D13*
X105701900Y-102565700D03*
D12*
X112650000Y-105700000D03*
D13*
X110300000Y-110450000D03*
X108950000Y-108550000D03*
D12*
X85150000Y-107700000D03*
X86650000Y-107700000D03*
X85150000Y-109700000D03*
X86650000Y-109700000D03*
X114150000Y-99700000D03*
D13*
X103982300Y-99051500D03*
D12*
X112650000Y-99700000D03*
X114150000Y-103700000D03*
D13*
X104001000Y-99959200D03*
D12*
X112650000Y-103700000D03*
X114150000Y-101700000D03*
D13*
X105544500Y-99432700D03*
D12*
X112650000Y-101700000D03*
D13*
X94141700Y-100117100D03*
X90886600Y-98741800D03*
X107028200Y-105740100D03*
X101700200Y-109553400D03*
D12*
X114150000Y-89700000D03*
X112650000Y-89700000D03*
X114150000Y-91700000D03*
X112650000Y-91700000D03*
X85150000Y-93700000D03*
D13*
X94584700Y-100621900D03*
D12*
X86650000Y-93700000D03*
D13*
X95100000Y-97050000D03*
X94722500Y-98922500D03*
X93230500Y-97030800D03*
X90246300Y-98447400D03*
X96677400Y-99826500D03*
X91624000Y-106029500D03*
X96776000Y-97562500D03*
X94151700Y-105490300D03*
D12*
X106650000Y-86450000D03*
D13*
X103067200Y-96639400D03*
D12*
X106650000Y-87950000D03*
X104650000Y-86450000D03*
D13*
X101575300Y-94646100D03*
D12*
X104650000Y-87950000D03*
X114150000Y-95700000D03*
X112650000Y-95700000D03*
X85150000Y-89700000D03*
X86650000Y-89700000D03*
X88650000Y-86450000D03*
X88650000Y-87950000D03*
X90650000Y-86450000D03*
X90650000Y-87950000D03*
X92650000Y-86450000D03*
X92650000Y-87950000D03*
X94650000Y-86450000D03*
X94650000Y-87950000D03*
X102650000Y-86450000D03*
D13*
X101021700Y-94076500D03*
D12*
X102650000Y-87950000D03*
X100650000Y-86450000D03*
D13*
X99827300Y-95089800D03*
D12*
X100650000Y-87950000D03*
X98650000Y-86450000D03*
D13*
X99096900Y-94888600D03*
D12*
X98650000Y-87950000D03*
X96650000Y-86450000D03*
D13*
X98841700Y-96772800D03*
D12*
X96650000Y-87950000D03*
X114150000Y-109700000D03*
X112650000Y-109700000D03*
X114150000Y-107700000D03*
X112650000Y-107700000D03*
X114150000Y-97700000D03*
D13*
X104019100Y-98177200D03*
D12*
X112650000Y-97700000D03*
X85150000Y-91700000D03*
D13*
X96643100Y-100585300D03*
D12*
X86650000Y-91700000D03*
X85150000Y-99700000D03*
D13*
X94253700Y-102701200D03*
D12*
X86650000Y-99700000D03*
X85150000Y-101700000D03*
D13*
X95007700Y-103134300D03*
D12*
X86650000Y-101700000D03*
X85150000Y-103700000D03*
D13*
X94234800Y-103837900D03*
D12*
X86650000Y-103700000D03*
X102650000Y-115450000D03*
D13*
X100884800Y-105817200D03*
D12*
X102650000Y-113950000D03*
X100650000Y-115450000D03*
D13*
X100546900Y-107744200D03*
D12*
X100650000Y-113950000D03*
X98650000Y-115450000D03*
D13*
X99965500Y-106298200D03*
D12*
X98650000Y-113950000D03*
X96650000Y-115450000D03*
D13*
X99254700Y-108095600D03*
D12*
X96650000Y-113950000D03*
X94650000Y-115450000D03*
D13*
X98934400Y-105778800D03*
D12*
X94650000Y-113950000D03*
X85150000Y-95700000D03*
D13*
X94223300Y-101321400D03*
D12*
X86650000Y-95700000D03*
X92650000Y-115450000D03*
D13*
X98055400Y-107813200D03*
D12*
X92650000Y-113950000D03*
X90650000Y-115450000D03*
D13*
X97968500Y-105687500D03*
D12*
X90650000Y-113950000D03*
X104650000Y-115450000D03*
X104650000Y-113950000D03*
X106650000Y-115450000D03*
X106650000Y-113950000D03*
X108650000Y-115450000D03*
X108650000Y-113950000D03*
D13*
X102449000Y-105909000D03*
D12*
X110650000Y-115450000D03*
X110650000Y-113950000D03*
D13*
X103207000Y-105909000D03*
D12*
X85150000Y-97700000D03*
D13*
X94578100Y-102072000D03*
D12*
X86650000Y-97700000D03*
X85150000Y-105700000D03*
D13*
X94242400Y-104501400D03*
D12*
X86650000Y-105700000D03*
X114150000Y-111700000D03*
X112650000Y-111700000D03*
X88650000Y-115450000D03*
D13*
X97435100Y-106114200D03*
D12*
X88650000Y-113950000D03*
X114150000Y-93700000D03*
X112650000Y-93700000D03*
X108650000Y-86450000D03*
D13*
X103847900Y-96704600D03*
D12*
X108650000Y-87950000D03*
D14*
X103459800Y-97289900D02*
X103459800Y-101023600D01*
X103459800Y-101023600D02*
X104005600Y-101569400D01*
X99027000Y-99089600D02*
X93779100Y-93841700D01*
X93779100Y-93841700D02*
X91267900Y-93841700D01*
X96707200Y-103874400D02*
X99027000Y-101554600D01*
X99027000Y-101554600D02*
X99027000Y-99089600D01*
X99027000Y-99089600D02*
X101387300Y-96729300D01*
X90883000Y-106683200D02*
X93898400Y-106683200D01*
X93898400Y-106683200D02*
X96707200Y-103874400D01*
X104005600Y-101569400D02*
X103361000Y-102214000D01*
X103361000Y-102214000D02*
X103361000Y-104017000D01*
X101387300Y-96729300D02*
X101947900Y-97289900D01*
X101947900Y-97289900D02*
X103459800Y-97289900D01*
X103459800Y-97289900D02*
X103983200Y-97289900D01*
X103983200Y-97289900D02*
X110650000Y-90623100D01*
X110650000Y-90623100D02*
X110650000Y-87950000D01*
X90883000Y-106683200D02*
X90883000Y-107467000D01*
X90883000Y-107467000D02*
X86650000Y-111700000D01*
X110650000Y-87200000D02*
X110650000Y-87950000D01*
X85900000Y-111700000D02*
X86650000Y-111700000D01*
X112650000Y-105700000D02*
X109515700Y-102565700D01*
X109515700Y-102565700D02*
X105701900Y-102565700D01*
X113400000Y-105700000D02*
X112650000Y-105700000D01*
X108950000Y-109100000D02*
X108950000Y-108550000D01*
X110300000Y-110450000D02*
X108950000Y-109100000D01*
X86650000Y-107700000D02*
X85900000Y-107700000D01*
X86650000Y-109700000D02*
X85900000Y-109700000D01*
X112650000Y-99700000D02*
X111845800Y-98895800D01*
X111845800Y-98895800D02*
X104138000Y-98895800D01*
X104138000Y-98895800D02*
X103982300Y-99051500D01*
X113400000Y-99700000D02*
X112650000Y-99700000D01*
X112650000Y-103700000D02*
X108909200Y-99959200D01*
X108909200Y-99959200D02*
X104001000Y-99959200D01*
X113400000Y-103700000D02*
X112650000Y-103700000D01*
X112650000Y-101700000D02*
X110382700Y-99432700D01*
X110382700Y-99432700D02*
X105544500Y-99432700D01*
X113400000Y-101700000D02*
X112650000Y-101700000D01*
X94141700Y-100117100D02*
X92261900Y-100117100D01*
X92261900Y-100117100D02*
X90886600Y-98741800D01*
X101700200Y-109553400D02*
X101700200Y-105935600D01*
X101700200Y-105935600D02*
X102210800Y-105425000D01*
X102210800Y-105425000D02*
X106713100Y-105425000D01*
X106713100Y-105425000D02*
X107028200Y-105740100D01*
X112650000Y-89700000D02*
X113400000Y-89700000D01*
X112650000Y-91700000D02*
X113400000Y-91700000D01*
X86650000Y-93700000D02*
X89763400Y-96813400D01*
X89763400Y-96813400D02*
X89763400Y-98647500D01*
X89763400Y-98647500D02*
X91737800Y-100621900D01*
X91737800Y-100621900D02*
X94584700Y-100621900D01*
X85900000Y-93700000D02*
X86650000Y-93700000D01*
X94722500Y-98922500D02*
X94722500Y-97427500D01*
X94722500Y-97427500D02*
X95100000Y-97050000D01*
X90246300Y-98447400D02*
X91662900Y-97030800D01*
X91662900Y-97030800D02*
X93230500Y-97030800D01*
X91624000Y-106029500D02*
X92669200Y-104984300D01*
X92669200Y-104984300D02*
X94467100Y-104984300D01*
X94467100Y-104984300D02*
X97130700Y-102320700D01*
X97130700Y-102320700D02*
X97130700Y-100279800D01*
X97130700Y-100279800D02*
X96677400Y-99826500D01*
X94151700Y-105490300D02*
X94392800Y-105490300D01*
X94392800Y-105490300D02*
X97504200Y-102378900D01*
X97504200Y-102378900D02*
X97504200Y-98290700D01*
X97504200Y-98290700D02*
X96776000Y-97562500D01*
X106650000Y-87950000D02*
X106650000Y-93056600D01*
X106650000Y-93056600D02*
X103067200Y-96639400D01*
X106650000Y-87200000D02*
X106650000Y-87950000D01*
X104650000Y-87950000D02*
X104650000Y-91571400D01*
X104650000Y-91571400D02*
X101575300Y-94646100D01*
X104650000Y-87200000D02*
X104650000Y-87950000D01*
X112650000Y-95700000D02*
X113400000Y-95700000D01*
X85900000Y-89700000D02*
X86650000Y-89700000D01*
X88650000Y-87950000D02*
X88650000Y-87200000D01*
X90650000Y-87950000D02*
X90650000Y-87200000D01*
X92650000Y-87950000D02*
X92650000Y-87200000D01*
X94650000Y-87950000D02*
X94650000Y-87200000D01*
X102650000Y-87950000D02*
X102650000Y-92448200D01*
X102650000Y-92448200D02*
X101021700Y-94076500D01*
X102650000Y-87200000D02*
X102650000Y-87950000D01*
X100650000Y-87950000D02*
X100650000Y-87200000D01*
X99827300Y-95089800D02*
X99827300Y-88772700D01*
X99827300Y-88772700D02*
X100650000Y-87950000D01*
X98650000Y-87950000D02*
X98650000Y-94441700D01*
X98650000Y-94441700D02*
X99096900Y-94888600D01*
X98650000Y-87200000D02*
X98650000Y-87950000D01*
X96650000Y-87950000D02*
X96650000Y-94581100D01*
X96650000Y-94581100D02*
X98841700Y-96772800D01*
X96650000Y-87200000D02*
X96650000Y-87950000D01*
X112650000Y-109700000D02*
X113400000Y-109700000D01*
X113400000Y-107700000D02*
X112650000Y-107700000D01*
X112650000Y-97700000D02*
X112172800Y-98177200D01*
X112172800Y-98177200D02*
X104019100Y-98177200D01*
X112650000Y-97700000D02*
X113400000Y-97700000D01*
X86650000Y-91700000D02*
X89274600Y-94324600D01*
X89274600Y-94324600D02*
X91207400Y-94324600D01*
X91207400Y-94324600D02*
X93713400Y-96830600D01*
X93713400Y-96830600D02*
X93713400Y-98628700D01*
X93713400Y-98628700D02*
X95669900Y-100585200D01*
X95669900Y-100585200D02*
X96643100Y-100585200D01*
X96643100Y-100585200D02*
X96643100Y-100585300D01*
X85900000Y-91700000D02*
X86650000Y-91700000D01*
X86650000Y-99700000D02*
X89651200Y-102701200D01*
X89651200Y-102701200D02*
X94253700Y-102701200D01*
X85900000Y-99700000D02*
X86650000Y-99700000D01*
X86650000Y-101700000D02*
X88134100Y-103184100D01*
X88134100Y-103184100D02*
X94957900Y-103184100D01*
X94957900Y-103184100D02*
X95007700Y-103134300D01*
X85900000Y-101700000D02*
X86650000Y-101700000D01*
X86650000Y-103700000D02*
X86787900Y-103837900D01*
X86787900Y-103837900D02*
X94234800Y-103837900D01*
X86650000Y-103700000D02*
X85900000Y-103700000D01*
X102650000Y-113950000D02*
X101029900Y-112329900D01*
X101029900Y-112329900D02*
X101029900Y-105962300D01*
X101029900Y-105962300D02*
X100884800Y-105817200D01*
X102650000Y-114700000D02*
X102650000Y-113950000D01*
X100650000Y-113950000D02*
X100546900Y-113846900D01*
X100546900Y-113846900D02*
X100546900Y-107744200D01*
X100650000Y-113950000D02*
X100650000Y-114700000D01*
X98650000Y-113950000D02*
X99965500Y-112634500D01*
X99965500Y-112634500D02*
X99965500Y-106298200D01*
X98650000Y-114700000D02*
X98650000Y-113950000D01*
X96650000Y-113950000D02*
X99254700Y-111345300D01*
X99254700Y-111345300D02*
X99254700Y-108095600D01*
X96650000Y-114700000D02*
X96650000Y-113950000D01*
X98934400Y-105778800D02*
X98771800Y-105941400D01*
X98771800Y-105941400D02*
X98771800Y-109828200D01*
X98771800Y-109828200D02*
X94650000Y-113950000D01*
X94650000Y-113950000D02*
X94650000Y-114700000D01*
X86650000Y-95700000D02*
X87955900Y-97005900D01*
X87955900Y-97005900D02*
X87955900Y-97273300D01*
X87955900Y-97273300D02*
X92004000Y-101321400D01*
X92004000Y-101321400D02*
X94223300Y-101321400D01*
X85900000Y-95700000D02*
X86650000Y-95700000D01*
X92650000Y-113950000D02*
X92650000Y-113218600D01*
X92650000Y-113218600D02*
X98055400Y-107813200D01*
X92650000Y-114700000D02*
X92650000Y-113950000D01*
X90650000Y-113950000D02*
X97968500Y-106631500D01*
X97968500Y-106631500D02*
X97968500Y-105687500D01*
X90650000Y-114700000D02*
X90650000Y-113950000D01*
X104650000Y-114700000D02*
X104650000Y-113950000D01*
X106650000Y-114700000D02*
X106650000Y-113950000D01*
D15*
X102449000Y-105909000D02*
X109425000Y-112885000D01*
X109425000Y-112885000D02*
X109425000Y-113175000D01*
X109425000Y-113175000D02*
X108650000Y-113950000D01*
X108650000Y-113950000D02*
X108650000Y-114700000D01*
X103207000Y-105909000D02*
X103207000Y-106031000D01*
X103207000Y-106031000D02*
X109875000Y-112699000D01*
X109875000Y-112699000D02*
X109875000Y-113175000D01*
X109875000Y-113175000D02*
X110650000Y-113950000D01*
X110650000Y-113950000D02*
X110650000Y-114700000D01*
D14*
X86650000Y-97700000D02*
X91022000Y-102072000D01*
X91022000Y-102072000D02*
X94578100Y-102072000D01*
X85900000Y-97700000D02*
X86650000Y-97700000D01*
X86650000Y-105700000D02*
X87848600Y-104501400D01*
X87848600Y-104501400D02*
X94242400Y-104501400D01*
X85900000Y-105700000D02*
X86650000Y-105700000D01*
X112650000Y-111700000D02*
X113400000Y-111700000D01*
X88650000Y-113950000D02*
X88650000Y-114700000D01*
X97435100Y-106114200D02*
X97435100Y-106114300D01*
X97435100Y-106114300D02*
X96485700Y-106114300D01*
X96485700Y-106114300D02*
X88650000Y-113950000D01*
X113400000Y-93700000D02*
X112650000Y-93700000D01*
X108650000Y-87950000D02*
X108650000Y-87200000D01*
X103847900Y-96704600D02*
X108650000Y-91902500D01*
X108650000Y-91902500D02*
X108650000Y-87950000D01*
D16*
G36*
X105655820Y-89289502D02*
G01*
X105775518Y-89325812D01*
X105900000Y-89338072D01*
X105938800Y-89338072D01*
X105938801Y-92762010D01*
X102943155Y-95757658D01*
X102807888Y-95784564D01*
X102646101Y-95851579D01*
X102500496Y-95948869D01*
X102376669Y-96072696D01*
X102279379Y-96218301D01*
X102212364Y-96380088D01*
X102178200Y-96551841D01*
X102178200Y-96726959D01*
X102212364Y-96898712D01*
X102279379Y-97060499D01*
X102376669Y-97206104D01*
X102500496Y-97329931D01*
X102646101Y-97427221D01*
X102807888Y-97494236D01*
X102979641Y-97528400D01*
X103154759Y-97528400D01*
X103326512Y-97494236D01*
X103390099Y-97467897D01*
X103426801Y-97492421D01*
X103440832Y-97498233D01*
X103328569Y-97610496D01*
X103231279Y-97756101D01*
X103164264Y-97917888D01*
X103130100Y-98089641D01*
X103130100Y-98264759D01*
X103164264Y-98436512D01*
X103225405Y-98584117D01*
X103194479Y-98630401D01*
X103127464Y-98792188D01*
X103093300Y-98963941D01*
X103093300Y-99139059D01*
X103127464Y-99310812D01*
X103194479Y-99472599D01*
X103225712Y-99519343D01*
X103213179Y-99538101D01*
X103146164Y-99699888D01*
X103112000Y-99871641D01*
X103112000Y-100046759D01*
X103146164Y-100218512D01*
X103213179Y-100380299D01*
X103310469Y-100525904D01*
X103434296Y-100649731D01*
X103579901Y-100747021D01*
X103741688Y-100814036D01*
X103913441Y-100848200D01*
X104088559Y-100848200D01*
X104260312Y-100814036D01*
X104422099Y-100747021D01*
X104536771Y-100670400D01*
X108614613Y-100670400D01*
X109929338Y-101985126D01*
X109912733Y-101971498D01*
X109789181Y-101905458D01*
X109655120Y-101864791D01*
X109550636Y-101854500D01*
X109550626Y-101854500D01*
X109515700Y-101851060D01*
X109480774Y-101854500D01*
X106237671Y-101854500D01*
X106122999Y-101777879D01*
X105961212Y-101710864D01*
X105789459Y-101676700D01*
X105614341Y-101676700D01*
X105442588Y-101710864D01*
X105280801Y-101777879D01*
X105135196Y-101875169D01*
X105011369Y-101998996D01*
X104914079Y-102144601D01*
X104847064Y-102306388D01*
X104812900Y-102478141D01*
X104812900Y-102653259D01*
X104847064Y-102825012D01*
X104914079Y-102986799D01*
X105011369Y-103132404D01*
X105135196Y-103256231D01*
X105280801Y-103353521D01*
X105442588Y-103420536D01*
X105614341Y-103454700D01*
X105789459Y-103454700D01*
X105961212Y-103420536D01*
X106122999Y-103353521D01*
X106237671Y-103276900D01*
X109221113Y-103276900D01*
X111261928Y-105317716D01*
X111261928Y-106450000D01*
X111274188Y-106574482D01*
X111310498Y-106694180D01*
X111313609Y-106700000D01*
X111310498Y-106705820D01*
X111274188Y-106825518D01*
X111261928Y-106950000D01*
X111261928Y-108450000D01*
X111274188Y-108574482D01*
X111310498Y-108694180D01*
X111313609Y-108700000D01*
X111310498Y-108705820D01*
X111274188Y-108825518D01*
X111261928Y-108950000D01*
X111261928Y-110450000D01*
X111274188Y-110574482D01*
X111310498Y-110694180D01*
X111313609Y-110700000D01*
X111310498Y-110705820D01*
X111274188Y-110825518D01*
X111261928Y-110950000D01*
X111261928Y-112450000D01*
X111272952Y-112561928D01*
X110600056Y-112561928D01*
X110599365Y-112554914D01*
X110583908Y-112503959D01*
X110557337Y-112416367D01*
X110489087Y-112288680D01*
X110445117Y-112235103D01*
X110420253Y-112204806D01*
X110420250Y-112204803D01*
X110397237Y-112176762D01*
X110369198Y-112153751D01*
X106677888Y-108462441D01*
X108061000Y-108462441D01*
X108061000Y-108637559D01*
X108095164Y-108809312D01*
X108162179Y-108971099D01*
X108237023Y-109083112D01*
X108235360Y-109100000D01*
X108238800Y-109134926D01*
X108238800Y-109134935D01*
X108249091Y-109239419D01*
X108289758Y-109373480D01*
X108355798Y-109497032D01*
X108444673Y-109605326D01*
X108471810Y-109627597D01*
X109418258Y-110574046D01*
X109445164Y-110709312D01*
X109512179Y-110871099D01*
X109609469Y-111016704D01*
X109733296Y-111140531D01*
X109878901Y-111237821D01*
X110040688Y-111304836D01*
X110212441Y-111339000D01*
X110387559Y-111339000D01*
X110559312Y-111304836D01*
X110721099Y-111237821D01*
X110866704Y-111140531D01*
X110990531Y-111016704D01*
X111087821Y-110871099D01*
X111154836Y-110709312D01*
X111189000Y-110537559D01*
X111189000Y-110362441D01*
X111154836Y-110190688D01*
X111087821Y-110028901D01*
X110990531Y-109883296D01*
X110866704Y-109759469D01*
X110721099Y-109662179D01*
X110559312Y-109595164D01*
X110424046Y-109568258D01*
X109763908Y-108908120D01*
X109804836Y-108809312D01*
X109839000Y-108637559D01*
X109839000Y-108462441D01*
X109804836Y-108290688D01*
X109737821Y-108128901D01*
X109640531Y-107983296D01*
X109516704Y-107859469D01*
X109371099Y-107762179D01*
X109209312Y-107695164D01*
X109037559Y-107661000D01*
X108862441Y-107661000D01*
X108690688Y-107695164D01*
X108528901Y-107762179D01*
X108383296Y-107859469D01*
X108259469Y-107983296D01*
X108162179Y-108128901D01*
X108095164Y-108290688D01*
X108061000Y-108462441D01*
X106677888Y-108462441D01*
X104351646Y-106136200D01*
X106230024Y-106136200D01*
X106240379Y-106161199D01*
X106337669Y-106306804D01*
X106461496Y-106430631D01*
X106607101Y-106527921D01*
X106768888Y-106594936D01*
X106940641Y-106629100D01*
X107115759Y-106629100D01*
X107287512Y-106594936D01*
X107449299Y-106527921D01*
X107594904Y-106430631D01*
X107718731Y-106306804D01*
X107816021Y-106161199D01*
X107883036Y-105999412D01*
X107917200Y-105827659D01*
X107917200Y-105652541D01*
X107883036Y-105480788D01*
X107816021Y-105319001D01*
X107718731Y-105173396D01*
X107594904Y-105049569D01*
X107449299Y-104952279D01*
X107287512Y-104885264D01*
X107140985Y-104856118D01*
X107110133Y-104830798D01*
X106986581Y-104764758D01*
X106852520Y-104724091D01*
X106748036Y-104713800D01*
X106748026Y-104713800D01*
X106713100Y-104710360D01*
X106678174Y-104713800D01*
X102245717Y-104713800D01*
X102210799Y-104710361D01*
X102175881Y-104713800D01*
X102175864Y-104713800D01*
X102071380Y-104724091D01*
X101937319Y-104764758D01*
X101823645Y-104825518D01*
X101813767Y-104830798D01*
X101732608Y-104897403D01*
X101732604Y-104897407D01*
X101705473Y-104919673D01*
X101683207Y-104946805D01*
X101477423Y-105152588D01*
X101451504Y-105126669D01*
X101305899Y-105029379D01*
X101144112Y-104962364D01*
X100972359Y-104928200D01*
X100797241Y-104928200D01*
X100625488Y-104962364D01*
X100463701Y-105029379D01*
X100318096Y-105126669D01*
X100194269Y-105250496D01*
X100096979Y-105396101D01*
X100088623Y-105416274D01*
X100053059Y-105409200D01*
X99877941Y-105409200D01*
X99753783Y-105433897D01*
X99722221Y-105357701D01*
X99624931Y-105212096D01*
X99501104Y-105088269D01*
X99355499Y-104990979D01*
X99193712Y-104923964D01*
X99021959Y-104889800D01*
X98846841Y-104889800D01*
X98675088Y-104923964D01*
X98521288Y-104987671D01*
X98389599Y-104899679D01*
X98227812Y-104832664D01*
X98056059Y-104798500D01*
X97880941Y-104798500D01*
X97709188Y-104832664D01*
X97547401Y-104899679D01*
X97401796Y-104996969D01*
X97277969Y-105120796D01*
X97186851Y-105257163D01*
X97175788Y-105259364D01*
X97014001Y-105326379D01*
X96899180Y-105403100D01*
X96520625Y-105403100D01*
X96485699Y-105399660D01*
X96450773Y-105403100D01*
X96450764Y-105403100D01*
X96346280Y-105413391D01*
X96212219Y-105454058D01*
X96116317Y-105505319D01*
X96088667Y-105520098D01*
X96007508Y-105586703D01*
X96007504Y-105586707D01*
X95980373Y-105608973D01*
X95958107Y-105636104D01*
X89032285Y-112561928D01*
X88027048Y-112561928D01*
X88038072Y-112450000D01*
X88035000Y-111985750D01*
X87876250Y-111827000D01*
X86027000Y-111827000D01*
X86027000Y-112926250D01*
X86185750Y-113085000D01*
X87272983Y-113087751D01*
X87261928Y-113200000D01*
X87261928Y-114790000D01*
X85810000Y-114790000D01*
X85810000Y-111553000D01*
X86027000Y-111553000D01*
X86027000Y-111573000D01*
X87876250Y-111573000D01*
X88035000Y-111414250D01*
X88038072Y-110950000D01*
X88025812Y-110825518D01*
X87989502Y-110705820D01*
X87986391Y-110700000D01*
X87989502Y-110694180D01*
X88025812Y-110574482D01*
X88038072Y-110450000D01*
X88038072Y-108950000D01*
X88025812Y-108825518D01*
X87989502Y-108705820D01*
X87986391Y-108700000D01*
X87989502Y-108694180D01*
X88025812Y-108574482D01*
X88038072Y-108450000D01*
X88038072Y-106950000D01*
X88025812Y-106825518D01*
X87989502Y-106705820D01*
X87986391Y-106700000D01*
X87989502Y-106694180D01*
X88025812Y-106574482D01*
X88038072Y-106450000D01*
X88038072Y-105317716D01*
X88143189Y-105212600D01*
X91273103Y-105212600D01*
X91202901Y-105241679D01*
X91057296Y-105338969D01*
X90933469Y-105462796D01*
X90836179Y-105608401D01*
X90769164Y-105770188D01*
X90735000Y-105941941D01*
X90735000Y-106117059D01*
X90769164Y-106288812D01*
X90836179Y-106450599D01*
X90933469Y-106596204D01*
X91057296Y-106720031D01*
X91202901Y-106817321D01*
X91364688Y-106884336D01*
X91536441Y-106918500D01*
X91711559Y-106918500D01*
X91883312Y-106884336D01*
X92045099Y-106817321D01*
X92190704Y-106720031D01*
X92314531Y-106596204D01*
X92411821Y-106450599D01*
X92478836Y-106288812D01*
X92505742Y-106153545D01*
X92963788Y-105695500D01*
X93286100Y-105695500D01*
X93296864Y-105749612D01*
X93363879Y-105911399D01*
X93461169Y-106057004D01*
X93584996Y-106180831D01*
X93730601Y-106278121D01*
X93892388Y-106345136D01*
X94064141Y-106379300D01*
X94239259Y-106379300D01*
X94411012Y-106345136D01*
X94572799Y-106278121D01*
X94718404Y-106180831D01*
X94842231Y-106057004D01*
X94865169Y-106022675D01*
X94898127Y-105995627D01*
X94920402Y-105968485D01*
X97982395Y-102906493D01*
X98009526Y-102884227D01*
X98031793Y-102857095D01*
X98031797Y-102857091D01*
X98098402Y-102775933D01*
X98100018Y-102772909D01*
X98164442Y-102652381D01*
X98205109Y-102518320D01*
X98215400Y-102413836D01*
X98215400Y-102413827D01*
X98218840Y-102378901D01*
X98215400Y-102343975D01*
X98215400Y-98325625D01*
X98218840Y-98290699D01*
X98215400Y-98255773D01*
X98215400Y-98255764D01*
X98205109Y-98151280D01*
X98164442Y-98017219D01*
X98098402Y-97893667D01*
X98076929Y-97867502D01*
X98031797Y-97812508D01*
X98031793Y-97812504D01*
X98009527Y-97785373D01*
X97982396Y-97763107D01*
X97657742Y-97438454D01*
X97630836Y-97303188D01*
X97563821Y-97141401D01*
X97466531Y-96995796D01*
X97342704Y-96871969D01*
X97197099Y-96774679D01*
X97035312Y-96707664D01*
X96863559Y-96673500D01*
X96688441Y-96673500D01*
X96516688Y-96707664D01*
X96354901Y-96774679D01*
X96209296Y-96871969D01*
X96085469Y-96995796D01*
X95988260Y-97141280D01*
X95989000Y-97137559D01*
X95989000Y-96962441D01*
X95954836Y-96790688D01*
X95887821Y-96628901D01*
X95790531Y-96483296D01*
X95666704Y-96359469D01*
X95521099Y-96262179D01*
X95359312Y-96195164D01*
X95187559Y-96161000D01*
X95012441Y-96161000D01*
X94840688Y-96195164D01*
X94678901Y-96262179D01*
X94533296Y-96359469D01*
X94409469Y-96483296D01*
X94367642Y-96545894D01*
X94307602Y-96433567D01*
X94293486Y-96416367D01*
X94240997Y-96352409D01*
X94240993Y-96352405D01*
X94218726Y-96325273D01*
X94191595Y-96303007D01*
X91735002Y-93846415D01*
X91712727Y-93819273D01*
X91604433Y-93730398D01*
X91480881Y-93664358D01*
X91346820Y-93623691D01*
X91242336Y-93613400D01*
X91242326Y-93613400D01*
X91207400Y-93609960D01*
X91172474Y-93613400D01*
X89569188Y-93613400D01*
X88038072Y-92082285D01*
X88038072Y-90950000D01*
X88025812Y-90825518D01*
X87989502Y-90705820D01*
X87986391Y-90700000D01*
X87989502Y-90694180D01*
X88025812Y-90574482D01*
X88038072Y-90450000D01*
X88038072Y-89338072D01*
X89400000Y-89338072D01*
X89524482Y-89325812D01*
X89644180Y-89289502D01*
X89650000Y-89286391D01*
X89655820Y-89289502D01*
X89775518Y-89325812D01*
X89900000Y-89338072D01*
X91400000Y-89338072D01*
X91524482Y-89325812D01*
X91644180Y-89289502D01*
X91650000Y-89286391D01*
X91655820Y-89289502D01*
X91775518Y-89325812D01*
X91900000Y-89338072D01*
X93400000Y-89338072D01*
X93524482Y-89325812D01*
X93644180Y-89289502D01*
X93650000Y-89286391D01*
X93655820Y-89289502D01*
X93775518Y-89325812D01*
X93900000Y-89338072D01*
X95400000Y-89338072D01*
X95524482Y-89325812D01*
X95644180Y-89289502D01*
X95650000Y-89286391D01*
X95655820Y-89289502D01*
X95775518Y-89325812D01*
X95900000Y-89338072D01*
X95938800Y-89338072D01*
X95938801Y-94546164D01*
X95935360Y-94581100D01*
X95938801Y-94616036D01*
X95949092Y-94720520D01*
X95984951Y-94838732D01*
X95989759Y-94854581D01*
X96055798Y-94978132D01*
X96122403Y-95059290D01*
X96144674Y-95086427D01*
X96171810Y-95108697D01*
X97959958Y-96896845D01*
X97986864Y-97032112D01*
X98053879Y-97193899D01*
X98151169Y-97339504D01*
X98274996Y-97463331D01*
X98420601Y-97560621D01*
X98582388Y-97627636D01*
X98754141Y-97661800D01*
X98929259Y-97661800D01*
X99101012Y-97627636D01*
X99262799Y-97560621D01*
X99408404Y-97463331D01*
X99532231Y-97339504D01*
X99629521Y-97193899D01*
X99696536Y-97032112D01*
X99730700Y-96860359D01*
X99730700Y-96685241D01*
X99696536Y-96513488D01*
X99629521Y-96351701D01*
X99532231Y-96206096D01*
X99408404Y-96082269D01*
X99262799Y-95984979D01*
X99101012Y-95917964D01*
X98965745Y-95891058D01*
X98804360Y-95729672D01*
X98837588Y-95743436D01*
X99009341Y-95777600D01*
X99184459Y-95777600D01*
X99245686Y-95765421D01*
X99260596Y-95780331D01*
X99406201Y-95877621D01*
X99567988Y-95944636D01*
X99739741Y-95978800D01*
X99914859Y-95978800D01*
X100086612Y-95944636D01*
X100248399Y-95877621D01*
X100394004Y-95780331D01*
X100517831Y-95656504D01*
X100615121Y-95510899D01*
X100682136Y-95349112D01*
X100716300Y-95177359D01*
X100716300Y-95002241D01*
X100696791Y-94904165D01*
X100724743Y-94915743D01*
X100787479Y-95067199D01*
X100884769Y-95212804D01*
X101008596Y-95336631D01*
X101154201Y-95433921D01*
X101315988Y-95500936D01*
X101487741Y-95535100D01*
X101662859Y-95535100D01*
X101834612Y-95500936D01*
X101996399Y-95433921D01*
X102142004Y-95336631D01*
X102265831Y-95212804D01*
X102363121Y-95067199D01*
X102430136Y-94905412D01*
X102457042Y-94770145D01*
X105128196Y-92098993D01*
X105155327Y-92076727D01*
X105177593Y-92049596D01*
X105177597Y-92049592D01*
X105244202Y-91968433D01*
X105279444Y-91902500D01*
X105310242Y-91844881D01*
X105350909Y-91710820D01*
X105361200Y-91606336D01*
X105361200Y-91606319D01*
X105364639Y-91571401D01*
X105361200Y-91536483D01*
X105361200Y-89338072D01*
X105400000Y-89338072D01*
X105524482Y-89325812D01*
X105644180Y-89289502D01*
X105650000Y-89286391D01*
X105655820Y-89289502D01*
G37*
X105655820Y-89289502D02*
X105775518Y-89325812D01*
X105900000Y-89338072D01*
X105938800Y-89338072D01*
X105938801Y-92762010D01*
X102943155Y-95757658D01*
X102807888Y-95784564D01*
X102646101Y-95851579D01*
X102500496Y-95948869D01*
X102376669Y-96072696D01*
X102279379Y-96218301D01*
X102212364Y-96380088D01*
X102178200Y-96551841D01*
X102178200Y-96726959D01*
X102212364Y-96898712D01*
X102279379Y-97060499D01*
X102376669Y-97206104D01*
X102500496Y-97329931D01*
X102646101Y-97427221D01*
X102807888Y-97494236D01*
X102979641Y-97528400D01*
X103154759Y-97528400D01*
X103326512Y-97494236D01*
X103390099Y-97467897D01*
X103426801Y-97492421D01*
X103440832Y-97498233D01*
X103328569Y-97610496D01*
X103231279Y-97756101D01*
X103164264Y-97917888D01*
X103130100Y-98089641D01*
X103130100Y-98264759D01*
X103164264Y-98436512D01*
X103225405Y-98584117D01*
X103194479Y-98630401D01*
X103127464Y-98792188D01*
X103093300Y-98963941D01*
X103093300Y-99139059D01*
X103127464Y-99310812D01*
X103194479Y-99472599D01*
X103225712Y-99519343D01*
X103213179Y-99538101D01*
X103146164Y-99699888D01*
X103112000Y-99871641D01*
X103112000Y-100046759D01*
X103146164Y-100218512D01*
X103213179Y-100380299D01*
X103310469Y-100525904D01*
X103434296Y-100649731D01*
X103579901Y-100747021D01*
X103741688Y-100814036D01*
X103913441Y-100848200D01*
X104088559Y-100848200D01*
X104260312Y-100814036D01*
X104422099Y-100747021D01*
X104536771Y-100670400D01*
X108614613Y-100670400D01*
X109929338Y-101985126D01*
X109912733Y-101971498D01*
X109789181Y-101905458D01*
X109655120Y-101864791D01*
X109550636Y-101854500D01*
X109550626Y-101854500D01*
X109515700Y-101851060D01*
X109480774Y-101854500D01*
X106237671Y-101854500D01*
X106122999Y-101777879D01*
X105961212Y-101710864D01*
X105789459Y-101676700D01*
X105614341Y-101676700D01*
X105442588Y-101710864D01*
X105280801Y-101777879D01*
X105135196Y-101875169D01*
X105011369Y-101998996D01*
X104914079Y-102144601D01*
X104847064Y-102306388D01*
X104812900Y-102478141D01*
X104812900Y-102653259D01*
X104847064Y-102825012D01*
X104914079Y-102986799D01*
X105011369Y-103132404D01*
X105135196Y-103256231D01*
X105280801Y-103353521D01*
X105442588Y-103420536D01*
X105614341Y-103454700D01*
X105789459Y-103454700D01*
X105961212Y-103420536D01*
X106122999Y-103353521D01*
X106237671Y-103276900D01*
X109221113Y-103276900D01*
X111261928Y-105317716D01*
X111261928Y-106450000D01*
X111274188Y-106574482D01*
X111310498Y-106694180D01*
X111313609Y-106700000D01*
X111310498Y-106705820D01*
X111274188Y-106825518D01*
X111261928Y-106950000D01*
X111261928Y-108450000D01*
X111274188Y-108574482D01*
X111310498Y-108694180D01*
X111313609Y-108700000D01*
X111310498Y-108705820D01*
X111274188Y-108825518D01*
X111261928Y-108950000D01*
X111261928Y-110450000D01*
X111274188Y-110574482D01*
X111310498Y-110694180D01*
X111313609Y-110700000D01*
X111310498Y-110705820D01*
X111274188Y-110825518D01*
X111261928Y-110950000D01*
X111261928Y-112450000D01*
X111272952Y-112561928D01*
X110600056Y-112561928D01*
X110599365Y-112554914D01*
X110583908Y-112503959D01*
X110557337Y-112416367D01*
X110489087Y-112288680D01*
X110445117Y-112235103D01*
X110420253Y-112204806D01*
X110420250Y-112204803D01*
X110397237Y-112176762D01*
X110369198Y-112153751D01*
X106677888Y-108462441D01*
X108061000Y-108462441D01*
X108061000Y-108637559D01*
X108095164Y-108809312D01*
X108162179Y-108971099D01*
X108237023Y-109083112D01*
X108235360Y-109100000D01*
X108238800Y-109134926D01*
X108238800Y-109134935D01*
X108249091Y-109239419D01*
X108289758Y-109373480D01*
X108355798Y-109497032D01*
X108444673Y-109605326D01*
X108471810Y-109627597D01*
X109418258Y-110574046D01*
X109445164Y-110709312D01*
X109512179Y-110871099D01*
X109609469Y-111016704D01*
X109733296Y-111140531D01*
X109878901Y-111237821D01*
X110040688Y-111304836D01*
X110212441Y-111339000D01*
X110387559Y-111339000D01*
X110559312Y-111304836D01*
X110721099Y-111237821D01*
X110866704Y-111140531D01*
X110990531Y-111016704D01*
X111087821Y-110871099D01*
X111154836Y-110709312D01*
X111189000Y-110537559D01*
X111189000Y-110362441D01*
X111154836Y-110190688D01*
X111087821Y-110028901D01*
X110990531Y-109883296D01*
X110866704Y-109759469D01*
X110721099Y-109662179D01*
X110559312Y-109595164D01*
X110424046Y-109568258D01*
X109763908Y-108908120D01*
X109804836Y-108809312D01*
X109839000Y-108637559D01*
X109839000Y-108462441D01*
X109804836Y-108290688D01*
X109737821Y-108128901D01*
X109640531Y-107983296D01*
X109516704Y-107859469D01*
X109371099Y-107762179D01*
X109209312Y-107695164D01*
X109037559Y-107661000D01*
X108862441Y-107661000D01*
X108690688Y-107695164D01*
X108528901Y-107762179D01*
X108383296Y-107859469D01*
X108259469Y-107983296D01*
X108162179Y-108128901D01*
X108095164Y-108290688D01*
X108061000Y-108462441D01*
X106677888Y-108462441D01*
X104351646Y-106136200D01*
X106230024Y-106136200D01*
X106240379Y-106161199D01*
X106337669Y-106306804D01*
X106461496Y-106430631D01*
X106607101Y-106527921D01*
X106768888Y-106594936D01*
X106940641Y-106629100D01*
X107115759Y-106629100D01*
X107287512Y-106594936D01*
X107449299Y-106527921D01*
X107594904Y-106430631D01*
X107718731Y-106306804D01*
X107816021Y-106161199D01*
X107883036Y-105999412D01*
X107917200Y-105827659D01*
X107917200Y-105652541D01*
X107883036Y-105480788D01*
X107816021Y-105319001D01*
X107718731Y-105173396D01*
X107594904Y-105049569D01*
X107449299Y-104952279D01*
X107287512Y-104885264D01*
X107140985Y-104856118D01*
X107110133Y-104830798D01*
X106986581Y-104764758D01*
X106852520Y-104724091D01*
X106748036Y-104713800D01*
X106748026Y-104713800D01*
X106713100Y-104710360D01*
X106678174Y-104713800D01*
X102245717Y-104713800D01*
X102210799Y-104710361D01*
X102175881Y-104713800D01*
X102175864Y-104713800D01*
X102071380Y-104724091D01*
X101937319Y-104764758D01*
X101823645Y-104825518D01*
X101813767Y-104830798D01*
X101732608Y-104897403D01*
X101732604Y-104897407D01*
X101705473Y-104919673D01*
X101683207Y-104946805D01*
X101477423Y-105152588D01*
X101451504Y-105126669D01*
X101305899Y-105029379D01*
X101144112Y-104962364D01*
X100972359Y-104928200D01*
X100797241Y-104928200D01*
X100625488Y-104962364D01*
X100463701Y-105029379D01*
X100318096Y-105126669D01*
X100194269Y-105250496D01*
X100096979Y-105396101D01*
X100088623Y-105416274D01*
X100053059Y-105409200D01*
X99877941Y-105409200D01*
X99753783Y-105433897D01*
X99722221Y-105357701D01*
X99624931Y-105212096D01*
X99501104Y-105088269D01*
X99355499Y-104990979D01*
X99193712Y-104923964D01*
X99021959Y-104889800D01*
X98846841Y-104889800D01*
X98675088Y-104923964D01*
X98521288Y-104987671D01*
X98389599Y-104899679D01*
X98227812Y-104832664D01*
X98056059Y-104798500D01*
X97880941Y-104798500D01*
X97709188Y-104832664D01*
X97547401Y-104899679D01*
X97401796Y-104996969D01*
X97277969Y-105120796D01*
X97186851Y-105257163D01*
X97175788Y-105259364D01*
X97014001Y-105326379D01*
X96899180Y-105403100D01*
X96520625Y-105403100D01*
X96485699Y-105399660D01*
X96450773Y-105403100D01*
X96450764Y-105403100D01*
X96346280Y-105413391D01*
X96212219Y-105454058D01*
X96116317Y-105505319D01*
X96088667Y-105520098D01*
X96007508Y-105586703D01*
X96007504Y-105586707D01*
X95980373Y-105608973D01*
X95958107Y-105636104D01*
X89032285Y-112561928D01*
X88027048Y-112561928D01*
X88038072Y-112450000D01*
X88035000Y-111985750D01*
X87876250Y-111827000D01*
X86027000Y-111827000D01*
X86027000Y-112926250D01*
X86185750Y-113085000D01*
X87272983Y-113087751D01*
X87261928Y-113200000D01*
X87261928Y-114790000D01*
X85810000Y-114790000D01*
X85810000Y-111553000D01*
X86027000Y-111553000D01*
X86027000Y-111573000D01*
X87876250Y-111573000D01*
X88035000Y-111414250D01*
X88038072Y-110950000D01*
X88025812Y-110825518D01*
X87989502Y-110705820D01*
X87986391Y-110700000D01*
X87989502Y-110694180D01*
X88025812Y-110574482D01*
X88038072Y-110450000D01*
X88038072Y-108950000D01*
X88025812Y-108825518D01*
X87989502Y-108705820D01*
X87986391Y-108700000D01*
X87989502Y-108694180D01*
X88025812Y-108574482D01*
X88038072Y-108450000D01*
X88038072Y-106950000D01*
X88025812Y-106825518D01*
X87989502Y-106705820D01*
X87986391Y-106700000D01*
X87989502Y-106694180D01*
X88025812Y-106574482D01*
X88038072Y-106450000D01*
X88038072Y-105317716D01*
X88143189Y-105212600D01*
X91273103Y-105212600D01*
X91202901Y-105241679D01*
X91057296Y-105338969D01*
X90933469Y-105462796D01*
X90836179Y-105608401D01*
X90769164Y-105770188D01*
X90735000Y-105941941D01*
X90735000Y-106117059D01*
X90769164Y-106288812D01*
X90836179Y-106450599D01*
X90933469Y-106596204D01*
X91057296Y-106720031D01*
X91202901Y-106817321D01*
X91364688Y-106884336D01*
X91536441Y-106918500D01*
X91711559Y-106918500D01*
X91883312Y-106884336D01*
X92045099Y-106817321D01*
X92190704Y-106720031D01*
X92314531Y-106596204D01*
X92411821Y-106450599D01*
X92478836Y-106288812D01*
X92505742Y-106153545D01*
X92963788Y-105695500D01*
X93286100Y-105695500D01*
X93296864Y-105749612D01*
X93363879Y-105911399D01*
X93461169Y-106057004D01*
X93584996Y-106180831D01*
X93730601Y-106278121D01*
X93892388Y-106345136D01*
X94064141Y-106379300D01*
X94239259Y-106379300D01*
X94411012Y-106345136D01*
X94572799Y-106278121D01*
X94718404Y-106180831D01*
X94842231Y-106057004D01*
X94865169Y-106022675D01*
X94898127Y-105995627D01*
X94920402Y-105968485D01*
X97982395Y-102906493D01*
X98009526Y-102884227D01*
X98031793Y-102857095D01*
X98031797Y-102857091D01*
X98098402Y-102775933D01*
X98100018Y-102772909D01*
X98164442Y-102652381D01*
X98205109Y-102518320D01*
X98215400Y-102413836D01*
X98215400Y-102413827D01*
X98218840Y-102378901D01*
X98215400Y-102343975D01*
X98215400Y-98325625D01*
X98218840Y-98290699D01*
X98215400Y-98255773D01*
X98215400Y-98255764D01*
X98205109Y-98151280D01*
X98164442Y-98017219D01*
X98098402Y-97893667D01*
X98076929Y-97867502D01*
X98031797Y-97812508D01*
X98031793Y-97812504D01*
X98009527Y-97785373D01*
X97982396Y-97763107D01*
X97657742Y-97438454D01*
X97630836Y-97303188D01*
X97563821Y-97141401D01*
X97466531Y-96995796D01*
X97342704Y-96871969D01*
X97197099Y-96774679D01*
X97035312Y-96707664D01*
X96863559Y-96673500D01*
X96688441Y-96673500D01*
X96516688Y-96707664D01*
X96354901Y-96774679D01*
X96209296Y-96871969D01*
X96085469Y-96995796D01*
X95988260Y-97141280D01*
X95989000Y-97137559D01*
X95989000Y-96962441D01*
X95954836Y-96790688D01*
X95887821Y-96628901D01*
X95790531Y-96483296D01*
X95666704Y-96359469D01*
X95521099Y-96262179D01*
X95359312Y-96195164D01*
X95187559Y-96161000D01*
X95012441Y-96161000D01*
X94840688Y-96195164D01*
X94678901Y-96262179D01*
X94533296Y-96359469D01*
X94409469Y-96483296D01*
X94367642Y-96545894D01*
X94307602Y-96433567D01*
X94293486Y-96416367D01*
X94240997Y-96352409D01*
X94240993Y-96352405D01*
X94218726Y-96325273D01*
X94191595Y-96303007D01*
X91735002Y-93846415D01*
X91712727Y-93819273D01*
X91604433Y-93730398D01*
X91480881Y-93664358D01*
X91346820Y-93623691D01*
X91242336Y-93613400D01*
X91242326Y-93613400D01*
X91207400Y-93609960D01*
X91172474Y-93613400D01*
X89569188Y-93613400D01*
X88038072Y-92082285D01*
X88038072Y-90950000D01*
X88025812Y-90825518D01*
X87989502Y-90705820D01*
X87986391Y-90700000D01*
X87989502Y-90694180D01*
X88025812Y-90574482D01*
X88038072Y-90450000D01*
X88038072Y-89338072D01*
X89400000Y-89338072D01*
X89524482Y-89325812D01*
X89644180Y-89289502D01*
X89650000Y-89286391D01*
X89655820Y-89289502D01*
X89775518Y-89325812D01*
X89900000Y-89338072D01*
X91400000Y-89338072D01*
X91524482Y-89325812D01*
X91644180Y-89289502D01*
X91650000Y-89286391D01*
X91655820Y-89289502D01*
X91775518Y-89325812D01*
X91900000Y-89338072D01*
X93400000Y-89338072D01*
X93524482Y-89325812D01*
X93644180Y-89289502D01*
X93650000Y-89286391D01*
X93655820Y-89289502D01*
X93775518Y-89325812D01*
X93900000Y-89338072D01*
X95400000Y-89338072D01*
X95524482Y-89325812D01*
X95644180Y-89289502D01*
X95650000Y-89286391D01*
X95655820Y-89289502D01*
X95775518Y-89325812D01*
X95900000Y-89338072D01*
X95938800Y-89338072D01*
X95938801Y-94546164D01*
X95935360Y-94581100D01*
X95938801Y-94616036D01*
X95949092Y-94720520D01*
X95984951Y-94838732D01*
X95989759Y-94854581D01*
X96055798Y-94978132D01*
X96122403Y-95059290D01*
X96144674Y-95086427D01*
X96171810Y-95108697D01*
X97959958Y-96896845D01*
X97986864Y-97032112D01*
X98053879Y-97193899D01*
X98151169Y-97339504D01*
X98274996Y-97463331D01*
X98420601Y-97560621D01*
X98582388Y-97627636D01*
X98754141Y-97661800D01*
X98929259Y-97661800D01*
X99101012Y-97627636D01*
X99262799Y-97560621D01*
X99408404Y-97463331D01*
X99532231Y-97339504D01*
X99629521Y-97193899D01*
X99696536Y-97032112D01*
X99730700Y-96860359D01*
X99730700Y-96685241D01*
X99696536Y-96513488D01*
X99629521Y-96351701D01*
X99532231Y-96206096D01*
X99408404Y-96082269D01*
X99262799Y-95984979D01*
X99101012Y-95917964D01*
X98965745Y-95891058D01*
X98804360Y-95729672D01*
X98837588Y-95743436D01*
X99009341Y-95777600D01*
X99184459Y-95777600D01*
X99245686Y-95765421D01*
X99260596Y-95780331D01*
X99406201Y-95877621D01*
X99567988Y-95944636D01*
X99739741Y-95978800D01*
X99914859Y-95978800D01*
X100086612Y-95944636D01*
X100248399Y-95877621D01*
X100394004Y-95780331D01*
X100517831Y-95656504D01*
X100615121Y-95510899D01*
X100682136Y-95349112D01*
X100716300Y-95177359D01*
X100716300Y-95002241D01*
X100696791Y-94904165D01*
X100724743Y-94915743D01*
X100787479Y-95067199D01*
X100884769Y-95212804D01*
X101008596Y-95336631D01*
X101154201Y-95433921D01*
X101315988Y-95500936D01*
X101487741Y-95535100D01*
X101662859Y-95535100D01*
X101834612Y-95500936D01*
X101996399Y-95433921D01*
X102142004Y-95336631D01*
X102265831Y-95212804D01*
X102363121Y-95067199D01*
X102430136Y-94905412D01*
X102457042Y-94770145D01*
X105128196Y-92098993D01*
X105155327Y-92076727D01*
X105177593Y-92049596D01*
X105177597Y-92049592D01*
X105244202Y-91968433D01*
X105279444Y-91902500D01*
X105310242Y-91844881D01*
X105350909Y-91710820D01*
X105361200Y-91606336D01*
X105361200Y-91606319D01*
X105364639Y-91571401D01*
X105361200Y-91536483D01*
X105361200Y-89338072D01*
X105400000Y-89338072D01*
X105524482Y-89325812D01*
X105644180Y-89289502D01*
X105650000Y-89286391D01*
X105655820Y-89289502D01*
G36*
X113490001Y-88311928D02*
G01*
X112037090Y-88311928D01*
X112035000Y-87485750D01*
X111876250Y-87327000D01*
X110777000Y-87327000D01*
X110777000Y-89176250D01*
X110935750Y-89335000D01*
X111261928Y-89337158D01*
X111261928Y-90450000D01*
X111274188Y-90574482D01*
X111310498Y-90694180D01*
X111313609Y-90700000D01*
X111310498Y-90705820D01*
X111274188Y-90825518D01*
X111261928Y-90950000D01*
X111261928Y-92450000D01*
X111274188Y-92574482D01*
X111310498Y-92694180D01*
X111313609Y-92700000D01*
X111310498Y-92705820D01*
X111274188Y-92825518D01*
X111261928Y-92950000D01*
X111261928Y-94450000D01*
X111274188Y-94574482D01*
X111310498Y-94694180D01*
X111313609Y-94700000D01*
X111310498Y-94705820D01*
X111274188Y-94825518D01*
X111261928Y-94950000D01*
X111261928Y-96450000D01*
X111274188Y-96574482D01*
X111310498Y-96694180D01*
X111313609Y-96700000D01*
X111310498Y-96705820D01*
X111274188Y-96825518D01*
X111261928Y-96950000D01*
X111261928Y-97466000D01*
X104554871Y-97466000D01*
X104440199Y-97389379D01*
X104426168Y-97383567D01*
X104538431Y-97271304D01*
X104635721Y-97125699D01*
X104702736Y-96963912D01*
X104729643Y-96828645D01*
X109128195Y-92430093D01*
X109155326Y-92407827D01*
X109177593Y-92380695D01*
X109177597Y-92380691D01*
X109244202Y-92299533D01*
X109251414Y-92286041D01*
X109310242Y-92175981D01*
X109350909Y-92041920D01*
X109361200Y-91937436D01*
X109361200Y-91937429D01*
X109364640Y-91902500D01*
X109361200Y-91867572D01*
X109361200Y-89338072D01*
X109400000Y-89338072D01*
X109524482Y-89325812D01*
X109644180Y-89289502D01*
X109650000Y-89286391D01*
X109655820Y-89289502D01*
X109775518Y-89325812D01*
X109900000Y-89338072D01*
X110364250Y-89335000D01*
X110523000Y-89176250D01*
X110523000Y-87327000D01*
X110503000Y-87327000D01*
X110503000Y-87110000D01*
X113490001Y-87110000D01*
X113490001Y-88311928D01*
G37*
X113490001Y-88311928D02*
X112037090Y-88311928D01*
X112035000Y-87485750D01*
X111876250Y-87327000D01*
X110777000Y-87327000D01*
X110777000Y-89176250D01*
X110935750Y-89335000D01*
X111261928Y-89337158D01*
X111261928Y-90450000D01*
X111274188Y-90574482D01*
X111310498Y-90694180D01*
X111313609Y-90700000D01*
X111310498Y-90705820D01*
X111274188Y-90825518D01*
X111261928Y-90950000D01*
X111261928Y-92450000D01*
X111274188Y-92574482D01*
X111310498Y-92694180D01*
X111313609Y-92700000D01*
X111310498Y-92705820D01*
X111274188Y-92825518D01*
X111261928Y-92950000D01*
X111261928Y-94450000D01*
X111274188Y-94574482D01*
X111310498Y-94694180D01*
X111313609Y-94700000D01*
X111310498Y-94705820D01*
X111274188Y-94825518D01*
X111261928Y-94950000D01*
X111261928Y-96450000D01*
X111274188Y-96574482D01*
X111310498Y-96694180D01*
X111313609Y-96700000D01*
X111310498Y-96705820D01*
X111274188Y-96825518D01*
X111261928Y-96950000D01*
X111261928Y-97466000D01*
X104554871Y-97466000D01*
X104440199Y-97389379D01*
X104426168Y-97383567D01*
X104538431Y-97271304D01*
X104635721Y-97125699D01*
X104702736Y-96963912D01*
X104729643Y-96828645D01*
X109128195Y-92430093D01*
X109155326Y-92407827D01*
X109177593Y-92380695D01*
X109177597Y-92380691D01*
X109244202Y-92299533D01*
X109251414Y-92286041D01*
X109310242Y-92175981D01*
X109350909Y-92041920D01*
X109361200Y-91937436D01*
X109361200Y-91937429D01*
X109364640Y-91902500D01*
X109361200Y-91867572D01*
X109361200Y-89338072D01*
X109400000Y-89338072D01*
X109524482Y-89325812D01*
X109644180Y-89289502D01*
X109650000Y-89286391D01*
X109655820Y-89289502D01*
X109775518Y-89325812D01*
X109900000Y-89338072D01*
X110364250Y-89335000D01*
X110523000Y-89176250D01*
X110523000Y-87327000D01*
X110503000Y-87327000D01*
X110503000Y-87110000D01*
X113490001Y-87110000D01*
X113490001Y-88311928D01*
M02*
