G04 #@! TF.GenerationSoftware,KiCad,Pcbnew,(5.1.5-0-10_14)*
G04 #@! TF.CreationDate,2019-12-28T15:12:34-06:00*
G04 #@! TF.ProjectId,CircuitBrains Deluxe v1_3,43697263-7569-4744-9272-61696e732044,rev?*
G04 #@! TF.SameCoordinates,Original*
G04 #@! TF.FileFunction,Paste,Top*
G04 #@! TF.FilePolarity,Positive*
%FSLAX46Y46*%
G04 Gerber Fmt 4.6, Leading zero omitted, Abs format (unit mm)*
G04 Created by KiCad (PCBNEW (5.1.5-0-10_14)) date 2019-12-28 15:12:34*
%MOMM*%
%LPD*%
G04 APERTURE LIST*
%ADD10C,0.066040*%
%ADD11R,4.699000X4.699000*%
%ADD12R,0.698500X0.218440*%
%ADD13R,0.218440X0.698500*%
%ADD14C,0.100000*%
%ADD15R,1.000000X1.000000*%
%ADD16R,1.060000X0.650000*%
%ADD17R,1.099820X1.899920*%
%ADD18R,0.300000X0.600000*%
%ADD19R,3.000000X2.600000*%
G04 APERTURE END LIST*
D10*
X98425000Y-98425000D02*
X99949000Y-98425000D01*
X99949000Y-98425000D02*
X99949000Y-99949000D01*
X98425000Y-99949000D02*
X99949000Y-99949000D01*
X98425000Y-98425000D02*
X98425000Y-99949000D01*
X98425000Y-100711000D02*
X99949000Y-100711000D01*
X99949000Y-100711000D02*
X99949000Y-102235000D01*
X98425000Y-102235000D02*
X99949000Y-102235000D01*
X98425000Y-100711000D02*
X98425000Y-102235000D01*
X100711000Y-100711000D02*
X102235000Y-100711000D01*
X102235000Y-100711000D02*
X102235000Y-102235000D01*
X100711000Y-102235000D02*
X102235000Y-102235000D01*
X100711000Y-100711000D02*
X100711000Y-102235000D01*
X100711000Y-98425000D02*
X102235000Y-98425000D01*
X102235000Y-98425000D02*
X102235000Y-99949000D01*
X100711000Y-99949000D02*
X102235000Y-99949000D01*
X100711000Y-98425000D02*
X100711000Y-99949000D01*
D11*
X100330000Y-100330000D03*
D12*
X104777540Y-96580960D03*
X104777540Y-97081340D03*
X104777540Y-97581720D03*
X104777540Y-98082100D03*
X104777540Y-98582480D03*
X104777540Y-99080320D03*
X104777540Y-99580700D03*
X104777540Y-100081080D03*
X104777540Y-100578920D03*
X104777540Y-101079300D03*
X104777540Y-101579680D03*
X104777540Y-102077520D03*
X104777540Y-102577900D03*
X104777540Y-103078280D03*
X104777540Y-103578660D03*
X104777540Y-104079040D03*
D13*
X104079040Y-104777540D03*
X103578660Y-104777540D03*
X103078280Y-104777540D03*
X102577900Y-104777540D03*
X102077520Y-104777540D03*
X101579680Y-104777540D03*
X101079300Y-104777540D03*
X100578920Y-104777540D03*
X100081080Y-104777540D03*
X99580700Y-104777540D03*
X99080320Y-104777540D03*
X98582480Y-104777540D03*
X98082100Y-104777540D03*
X97581720Y-104777540D03*
X97081340Y-104777540D03*
X96580960Y-104777540D03*
D12*
X95882460Y-104079040D03*
X95882460Y-103578660D03*
X95882460Y-103078280D03*
X95882460Y-102577900D03*
X95882460Y-102077520D03*
X95882460Y-101579680D03*
X95882460Y-101079300D03*
X95882460Y-100578920D03*
X95882460Y-100081080D03*
X95882460Y-99580700D03*
X95882460Y-99080320D03*
X95882460Y-98582480D03*
X95882460Y-98082100D03*
X95882460Y-97581720D03*
X95882460Y-97081340D03*
X95882460Y-96580960D03*
D13*
X96580960Y-95882460D03*
X97081340Y-95882460D03*
X97581720Y-95882460D03*
X98082100Y-95882460D03*
X98582480Y-95882460D03*
X99080320Y-95882460D03*
X99580700Y-95882460D03*
X100081080Y-95882460D03*
X100578920Y-95882460D03*
X101079300Y-95882460D03*
X101579680Y-95882460D03*
X102077520Y-95882460D03*
X102577900Y-95882460D03*
X103078280Y-95882460D03*
X103578660Y-95882460D03*
X104079040Y-95882460D03*
D14*
G36*
X101544691Y-91029553D02*
G01*
X101565926Y-91032703D01*
X101586750Y-91037919D01*
X101606962Y-91045151D01*
X101626368Y-91054330D01*
X101644781Y-91065366D01*
X101662024Y-91078154D01*
X101677930Y-91092570D01*
X101692346Y-91108476D01*
X101705134Y-91125719D01*
X101716170Y-91144132D01*
X101725349Y-91163538D01*
X101732581Y-91183750D01*
X101737797Y-91204574D01*
X101740947Y-91225809D01*
X101742000Y-91247250D01*
X101742000Y-91759750D01*
X101740947Y-91781191D01*
X101737797Y-91802426D01*
X101732581Y-91823250D01*
X101725349Y-91843462D01*
X101716170Y-91862868D01*
X101705134Y-91881281D01*
X101692346Y-91898524D01*
X101677930Y-91914430D01*
X101662024Y-91928846D01*
X101644781Y-91941634D01*
X101626368Y-91952670D01*
X101606962Y-91961849D01*
X101586750Y-91969081D01*
X101565926Y-91974297D01*
X101544691Y-91977447D01*
X101523250Y-91978500D01*
X101085750Y-91978500D01*
X101064309Y-91977447D01*
X101043074Y-91974297D01*
X101022250Y-91969081D01*
X101002038Y-91961849D01*
X100982632Y-91952670D01*
X100964219Y-91941634D01*
X100946976Y-91928846D01*
X100931070Y-91914430D01*
X100916654Y-91898524D01*
X100903866Y-91881281D01*
X100892830Y-91862868D01*
X100883651Y-91843462D01*
X100876419Y-91823250D01*
X100871203Y-91802426D01*
X100868053Y-91781191D01*
X100867000Y-91759750D01*
X100867000Y-91247250D01*
X100868053Y-91225809D01*
X100871203Y-91204574D01*
X100876419Y-91183750D01*
X100883651Y-91163538D01*
X100892830Y-91144132D01*
X100903866Y-91125719D01*
X100916654Y-91108476D01*
X100931070Y-91092570D01*
X100946976Y-91078154D01*
X100964219Y-91065366D01*
X100982632Y-91054330D01*
X101002038Y-91045151D01*
X101022250Y-91037919D01*
X101043074Y-91032703D01*
X101064309Y-91029553D01*
X101085750Y-91028500D01*
X101523250Y-91028500D01*
X101544691Y-91029553D01*
G37*
G36*
X103119691Y-91029553D02*
G01*
X103140926Y-91032703D01*
X103161750Y-91037919D01*
X103181962Y-91045151D01*
X103201368Y-91054330D01*
X103219781Y-91065366D01*
X103237024Y-91078154D01*
X103252930Y-91092570D01*
X103267346Y-91108476D01*
X103280134Y-91125719D01*
X103291170Y-91144132D01*
X103300349Y-91163538D01*
X103307581Y-91183750D01*
X103312797Y-91204574D01*
X103315947Y-91225809D01*
X103317000Y-91247250D01*
X103317000Y-91759750D01*
X103315947Y-91781191D01*
X103312797Y-91802426D01*
X103307581Y-91823250D01*
X103300349Y-91843462D01*
X103291170Y-91862868D01*
X103280134Y-91881281D01*
X103267346Y-91898524D01*
X103252930Y-91914430D01*
X103237024Y-91928846D01*
X103219781Y-91941634D01*
X103201368Y-91952670D01*
X103181962Y-91961849D01*
X103161750Y-91969081D01*
X103140926Y-91974297D01*
X103119691Y-91977447D01*
X103098250Y-91978500D01*
X102660750Y-91978500D01*
X102639309Y-91977447D01*
X102618074Y-91974297D01*
X102597250Y-91969081D01*
X102577038Y-91961849D01*
X102557632Y-91952670D01*
X102539219Y-91941634D01*
X102521976Y-91928846D01*
X102506070Y-91914430D01*
X102491654Y-91898524D01*
X102478866Y-91881281D01*
X102467830Y-91862868D01*
X102458651Y-91843462D01*
X102451419Y-91823250D01*
X102446203Y-91802426D01*
X102443053Y-91781191D01*
X102442000Y-91759750D01*
X102442000Y-91247250D01*
X102443053Y-91225809D01*
X102446203Y-91204574D01*
X102451419Y-91183750D01*
X102458651Y-91163538D01*
X102467830Y-91144132D01*
X102478866Y-91125719D01*
X102491654Y-91108476D01*
X102506070Y-91092570D01*
X102521976Y-91078154D01*
X102539219Y-91065366D01*
X102557632Y-91054330D01*
X102577038Y-91045151D01*
X102597250Y-91037919D01*
X102618074Y-91032703D01*
X102639309Y-91029553D01*
X102660750Y-91028500D01*
X103098250Y-91028500D01*
X103119691Y-91029553D01*
G37*
G36*
X104719691Y-91029553D02*
G01*
X104740926Y-91032703D01*
X104761750Y-91037919D01*
X104781962Y-91045151D01*
X104801368Y-91054330D01*
X104819781Y-91065366D01*
X104837024Y-91078154D01*
X104852930Y-91092570D01*
X104867346Y-91108476D01*
X104880134Y-91125719D01*
X104891170Y-91144132D01*
X104900349Y-91163538D01*
X104907581Y-91183750D01*
X104912797Y-91204574D01*
X104915947Y-91225809D01*
X104917000Y-91247250D01*
X104917000Y-91759750D01*
X104915947Y-91781191D01*
X104912797Y-91802426D01*
X104907581Y-91823250D01*
X104900349Y-91843462D01*
X104891170Y-91862868D01*
X104880134Y-91881281D01*
X104867346Y-91898524D01*
X104852930Y-91914430D01*
X104837024Y-91928846D01*
X104819781Y-91941634D01*
X104801368Y-91952670D01*
X104781962Y-91961849D01*
X104761750Y-91969081D01*
X104740926Y-91974297D01*
X104719691Y-91977447D01*
X104698250Y-91978500D01*
X104260750Y-91978500D01*
X104239309Y-91977447D01*
X104218074Y-91974297D01*
X104197250Y-91969081D01*
X104177038Y-91961849D01*
X104157632Y-91952670D01*
X104139219Y-91941634D01*
X104121976Y-91928846D01*
X104106070Y-91914430D01*
X104091654Y-91898524D01*
X104078866Y-91881281D01*
X104067830Y-91862868D01*
X104058651Y-91843462D01*
X104051419Y-91823250D01*
X104046203Y-91802426D01*
X104043053Y-91781191D01*
X104042000Y-91759750D01*
X104042000Y-91247250D01*
X104043053Y-91225809D01*
X104046203Y-91204574D01*
X104051419Y-91183750D01*
X104058651Y-91163538D01*
X104067830Y-91144132D01*
X104078866Y-91125719D01*
X104091654Y-91108476D01*
X104106070Y-91092570D01*
X104121976Y-91078154D01*
X104139219Y-91065366D01*
X104157632Y-91054330D01*
X104177038Y-91045151D01*
X104197250Y-91037919D01*
X104218074Y-91032703D01*
X104239309Y-91029553D01*
X104260750Y-91028500D01*
X104698250Y-91028500D01*
X104719691Y-91029553D01*
G37*
G36*
X106294691Y-91029553D02*
G01*
X106315926Y-91032703D01*
X106336750Y-91037919D01*
X106356962Y-91045151D01*
X106376368Y-91054330D01*
X106394781Y-91065366D01*
X106412024Y-91078154D01*
X106427930Y-91092570D01*
X106442346Y-91108476D01*
X106455134Y-91125719D01*
X106466170Y-91144132D01*
X106475349Y-91163538D01*
X106482581Y-91183750D01*
X106487797Y-91204574D01*
X106490947Y-91225809D01*
X106492000Y-91247250D01*
X106492000Y-91759750D01*
X106490947Y-91781191D01*
X106487797Y-91802426D01*
X106482581Y-91823250D01*
X106475349Y-91843462D01*
X106466170Y-91862868D01*
X106455134Y-91881281D01*
X106442346Y-91898524D01*
X106427930Y-91914430D01*
X106412024Y-91928846D01*
X106394781Y-91941634D01*
X106376368Y-91952670D01*
X106356962Y-91961849D01*
X106336750Y-91969081D01*
X106315926Y-91974297D01*
X106294691Y-91977447D01*
X106273250Y-91978500D01*
X105835750Y-91978500D01*
X105814309Y-91977447D01*
X105793074Y-91974297D01*
X105772250Y-91969081D01*
X105752038Y-91961849D01*
X105732632Y-91952670D01*
X105714219Y-91941634D01*
X105696976Y-91928846D01*
X105681070Y-91914430D01*
X105666654Y-91898524D01*
X105653866Y-91881281D01*
X105642830Y-91862868D01*
X105633651Y-91843462D01*
X105626419Y-91823250D01*
X105621203Y-91802426D01*
X105618053Y-91781191D01*
X105617000Y-91759750D01*
X105617000Y-91247250D01*
X105618053Y-91225809D01*
X105621203Y-91204574D01*
X105626419Y-91183750D01*
X105633651Y-91163538D01*
X105642830Y-91144132D01*
X105653866Y-91125719D01*
X105666654Y-91108476D01*
X105681070Y-91092570D01*
X105696976Y-91078154D01*
X105714219Y-91065366D01*
X105732632Y-91054330D01*
X105752038Y-91045151D01*
X105772250Y-91037919D01*
X105793074Y-91032703D01*
X105814309Y-91029553D01*
X105835750Y-91028500D01*
X106273250Y-91028500D01*
X106294691Y-91029553D01*
G37*
G36*
X108183691Y-107984053D02*
G01*
X108204926Y-107987203D01*
X108225750Y-107992419D01*
X108245962Y-107999651D01*
X108265368Y-108008830D01*
X108283781Y-108019866D01*
X108301024Y-108032654D01*
X108316930Y-108047070D01*
X108331346Y-108062976D01*
X108344134Y-108080219D01*
X108355170Y-108098632D01*
X108364349Y-108118038D01*
X108371581Y-108138250D01*
X108376797Y-108159074D01*
X108379947Y-108180309D01*
X108381000Y-108201750D01*
X108381000Y-108714250D01*
X108379947Y-108735691D01*
X108376797Y-108756926D01*
X108371581Y-108777750D01*
X108364349Y-108797962D01*
X108355170Y-108817368D01*
X108344134Y-108835781D01*
X108331346Y-108853024D01*
X108316930Y-108868930D01*
X108301024Y-108883346D01*
X108283781Y-108896134D01*
X108265368Y-108907170D01*
X108245962Y-108916349D01*
X108225750Y-108923581D01*
X108204926Y-108928797D01*
X108183691Y-108931947D01*
X108162250Y-108933000D01*
X107724750Y-108933000D01*
X107703309Y-108931947D01*
X107682074Y-108928797D01*
X107661250Y-108923581D01*
X107641038Y-108916349D01*
X107621632Y-108907170D01*
X107603219Y-108896134D01*
X107585976Y-108883346D01*
X107570070Y-108868930D01*
X107555654Y-108853024D01*
X107542866Y-108835781D01*
X107531830Y-108817368D01*
X107522651Y-108797962D01*
X107515419Y-108777750D01*
X107510203Y-108756926D01*
X107507053Y-108735691D01*
X107506000Y-108714250D01*
X107506000Y-108201750D01*
X107507053Y-108180309D01*
X107510203Y-108159074D01*
X107515419Y-108138250D01*
X107522651Y-108118038D01*
X107531830Y-108098632D01*
X107542866Y-108080219D01*
X107555654Y-108062976D01*
X107570070Y-108047070D01*
X107585976Y-108032654D01*
X107603219Y-108019866D01*
X107621632Y-108008830D01*
X107641038Y-107999651D01*
X107661250Y-107992419D01*
X107682074Y-107987203D01*
X107703309Y-107984053D01*
X107724750Y-107983000D01*
X108162250Y-107983000D01*
X108183691Y-107984053D01*
G37*
G36*
X106608691Y-107984053D02*
G01*
X106629926Y-107987203D01*
X106650750Y-107992419D01*
X106670962Y-107999651D01*
X106690368Y-108008830D01*
X106708781Y-108019866D01*
X106726024Y-108032654D01*
X106741930Y-108047070D01*
X106756346Y-108062976D01*
X106769134Y-108080219D01*
X106780170Y-108098632D01*
X106789349Y-108118038D01*
X106796581Y-108138250D01*
X106801797Y-108159074D01*
X106804947Y-108180309D01*
X106806000Y-108201750D01*
X106806000Y-108714250D01*
X106804947Y-108735691D01*
X106801797Y-108756926D01*
X106796581Y-108777750D01*
X106789349Y-108797962D01*
X106780170Y-108817368D01*
X106769134Y-108835781D01*
X106756346Y-108853024D01*
X106741930Y-108868930D01*
X106726024Y-108883346D01*
X106708781Y-108896134D01*
X106690368Y-108907170D01*
X106670962Y-108916349D01*
X106650750Y-108923581D01*
X106629926Y-108928797D01*
X106608691Y-108931947D01*
X106587250Y-108933000D01*
X106149750Y-108933000D01*
X106128309Y-108931947D01*
X106107074Y-108928797D01*
X106086250Y-108923581D01*
X106066038Y-108916349D01*
X106046632Y-108907170D01*
X106028219Y-108896134D01*
X106010976Y-108883346D01*
X105995070Y-108868930D01*
X105980654Y-108853024D01*
X105967866Y-108835781D01*
X105956830Y-108817368D01*
X105947651Y-108797962D01*
X105940419Y-108777750D01*
X105935203Y-108756926D01*
X105932053Y-108735691D01*
X105931000Y-108714250D01*
X105931000Y-108201750D01*
X105932053Y-108180309D01*
X105935203Y-108159074D01*
X105940419Y-108138250D01*
X105947651Y-108118038D01*
X105956830Y-108098632D01*
X105967866Y-108080219D01*
X105980654Y-108062976D01*
X105995070Y-108047070D01*
X106010976Y-108032654D01*
X106028219Y-108019866D01*
X106046632Y-108008830D01*
X106066038Y-107999651D01*
X106086250Y-107992419D01*
X106107074Y-107987203D01*
X106128309Y-107984053D01*
X106149750Y-107983000D01*
X106587250Y-107983000D01*
X106608691Y-107984053D01*
G37*
G36*
X90685691Y-110117053D02*
G01*
X90706926Y-110120203D01*
X90727750Y-110125419D01*
X90747962Y-110132651D01*
X90767368Y-110141830D01*
X90785781Y-110152866D01*
X90803024Y-110165654D01*
X90818930Y-110180070D01*
X90833346Y-110195976D01*
X90846134Y-110213219D01*
X90857170Y-110231632D01*
X90866349Y-110251038D01*
X90873581Y-110271250D01*
X90878797Y-110292074D01*
X90881947Y-110313309D01*
X90883000Y-110334750D01*
X90883000Y-110772250D01*
X90881947Y-110793691D01*
X90878797Y-110814926D01*
X90873581Y-110835750D01*
X90866349Y-110855962D01*
X90857170Y-110875368D01*
X90846134Y-110893781D01*
X90833346Y-110911024D01*
X90818930Y-110926930D01*
X90803024Y-110941346D01*
X90785781Y-110954134D01*
X90767368Y-110965170D01*
X90747962Y-110974349D01*
X90727750Y-110981581D01*
X90706926Y-110986797D01*
X90685691Y-110989947D01*
X90664250Y-110991000D01*
X90151750Y-110991000D01*
X90130309Y-110989947D01*
X90109074Y-110986797D01*
X90088250Y-110981581D01*
X90068038Y-110974349D01*
X90048632Y-110965170D01*
X90030219Y-110954134D01*
X90012976Y-110941346D01*
X89997070Y-110926930D01*
X89982654Y-110911024D01*
X89969866Y-110893781D01*
X89958830Y-110875368D01*
X89949651Y-110855962D01*
X89942419Y-110835750D01*
X89937203Y-110814926D01*
X89934053Y-110793691D01*
X89933000Y-110772250D01*
X89933000Y-110334750D01*
X89934053Y-110313309D01*
X89937203Y-110292074D01*
X89942419Y-110271250D01*
X89949651Y-110251038D01*
X89958830Y-110231632D01*
X89969866Y-110213219D01*
X89982654Y-110195976D01*
X89997070Y-110180070D01*
X90012976Y-110165654D01*
X90030219Y-110152866D01*
X90048632Y-110141830D01*
X90068038Y-110132651D01*
X90088250Y-110125419D01*
X90109074Y-110120203D01*
X90130309Y-110117053D01*
X90151750Y-110116000D01*
X90664250Y-110116000D01*
X90685691Y-110117053D01*
G37*
G36*
X90685691Y-108542053D02*
G01*
X90706926Y-108545203D01*
X90727750Y-108550419D01*
X90747962Y-108557651D01*
X90767368Y-108566830D01*
X90785781Y-108577866D01*
X90803024Y-108590654D01*
X90818930Y-108605070D01*
X90833346Y-108620976D01*
X90846134Y-108638219D01*
X90857170Y-108656632D01*
X90866349Y-108676038D01*
X90873581Y-108696250D01*
X90878797Y-108717074D01*
X90881947Y-108738309D01*
X90883000Y-108759750D01*
X90883000Y-109197250D01*
X90881947Y-109218691D01*
X90878797Y-109239926D01*
X90873581Y-109260750D01*
X90866349Y-109280962D01*
X90857170Y-109300368D01*
X90846134Y-109318781D01*
X90833346Y-109336024D01*
X90818930Y-109351930D01*
X90803024Y-109366346D01*
X90785781Y-109379134D01*
X90767368Y-109390170D01*
X90747962Y-109399349D01*
X90727750Y-109406581D01*
X90706926Y-109411797D01*
X90685691Y-109414947D01*
X90664250Y-109416000D01*
X90151750Y-109416000D01*
X90130309Y-109414947D01*
X90109074Y-109411797D01*
X90088250Y-109406581D01*
X90068038Y-109399349D01*
X90048632Y-109390170D01*
X90030219Y-109379134D01*
X90012976Y-109366346D01*
X89997070Y-109351930D01*
X89982654Y-109336024D01*
X89969866Y-109318781D01*
X89958830Y-109300368D01*
X89949651Y-109280962D01*
X89942419Y-109260750D01*
X89937203Y-109239926D01*
X89934053Y-109218691D01*
X89933000Y-109197250D01*
X89933000Y-108759750D01*
X89934053Y-108738309D01*
X89937203Y-108717074D01*
X89942419Y-108696250D01*
X89949651Y-108676038D01*
X89958830Y-108656632D01*
X89969866Y-108638219D01*
X89982654Y-108620976D01*
X89997070Y-108605070D01*
X90012976Y-108590654D01*
X90030219Y-108577866D01*
X90048632Y-108566830D01*
X90068038Y-108557651D01*
X90088250Y-108550419D01*
X90109074Y-108545203D01*
X90130309Y-108542053D01*
X90151750Y-108541000D01*
X90664250Y-108541000D01*
X90685691Y-108542053D01*
G37*
G36*
X92527691Y-106270053D02*
G01*
X92548926Y-106273203D01*
X92569750Y-106278419D01*
X92589962Y-106285651D01*
X92609368Y-106294830D01*
X92627781Y-106305866D01*
X92645024Y-106318654D01*
X92660930Y-106333070D01*
X92675346Y-106348976D01*
X92688134Y-106366219D01*
X92699170Y-106384632D01*
X92708349Y-106404038D01*
X92715581Y-106424250D01*
X92720797Y-106445074D01*
X92723947Y-106466309D01*
X92725000Y-106487750D01*
X92725000Y-107000250D01*
X92723947Y-107021691D01*
X92720797Y-107042926D01*
X92715581Y-107063750D01*
X92708349Y-107083962D01*
X92699170Y-107103368D01*
X92688134Y-107121781D01*
X92675346Y-107139024D01*
X92660930Y-107154930D01*
X92645024Y-107169346D01*
X92627781Y-107182134D01*
X92609368Y-107193170D01*
X92589962Y-107202349D01*
X92569750Y-107209581D01*
X92548926Y-107214797D01*
X92527691Y-107217947D01*
X92506250Y-107219000D01*
X92068750Y-107219000D01*
X92047309Y-107217947D01*
X92026074Y-107214797D01*
X92005250Y-107209581D01*
X91985038Y-107202349D01*
X91965632Y-107193170D01*
X91947219Y-107182134D01*
X91929976Y-107169346D01*
X91914070Y-107154930D01*
X91899654Y-107139024D01*
X91886866Y-107121781D01*
X91875830Y-107103368D01*
X91866651Y-107083962D01*
X91859419Y-107063750D01*
X91854203Y-107042926D01*
X91851053Y-107021691D01*
X91850000Y-107000250D01*
X91850000Y-106487750D01*
X91851053Y-106466309D01*
X91854203Y-106445074D01*
X91859419Y-106424250D01*
X91866651Y-106404038D01*
X91875830Y-106384632D01*
X91886866Y-106366219D01*
X91899654Y-106348976D01*
X91914070Y-106333070D01*
X91929976Y-106318654D01*
X91947219Y-106305866D01*
X91965632Y-106294830D01*
X91985038Y-106285651D01*
X92005250Y-106278419D01*
X92026074Y-106273203D01*
X92047309Y-106270053D01*
X92068750Y-106269000D01*
X92506250Y-106269000D01*
X92527691Y-106270053D01*
G37*
G36*
X94102691Y-106270053D02*
G01*
X94123926Y-106273203D01*
X94144750Y-106278419D01*
X94164962Y-106285651D01*
X94184368Y-106294830D01*
X94202781Y-106305866D01*
X94220024Y-106318654D01*
X94235930Y-106333070D01*
X94250346Y-106348976D01*
X94263134Y-106366219D01*
X94274170Y-106384632D01*
X94283349Y-106404038D01*
X94290581Y-106424250D01*
X94295797Y-106445074D01*
X94298947Y-106466309D01*
X94300000Y-106487750D01*
X94300000Y-107000250D01*
X94298947Y-107021691D01*
X94295797Y-107042926D01*
X94290581Y-107063750D01*
X94283349Y-107083962D01*
X94274170Y-107103368D01*
X94263134Y-107121781D01*
X94250346Y-107139024D01*
X94235930Y-107154930D01*
X94220024Y-107169346D01*
X94202781Y-107182134D01*
X94184368Y-107193170D01*
X94164962Y-107202349D01*
X94144750Y-107209581D01*
X94123926Y-107214797D01*
X94102691Y-107217947D01*
X94081250Y-107219000D01*
X93643750Y-107219000D01*
X93622309Y-107217947D01*
X93601074Y-107214797D01*
X93580250Y-107209581D01*
X93560038Y-107202349D01*
X93540632Y-107193170D01*
X93522219Y-107182134D01*
X93504976Y-107169346D01*
X93489070Y-107154930D01*
X93474654Y-107139024D01*
X93461866Y-107121781D01*
X93450830Y-107103368D01*
X93441651Y-107083962D01*
X93434419Y-107063750D01*
X93429203Y-107042926D01*
X93426053Y-107021691D01*
X93425000Y-107000250D01*
X93425000Y-106487750D01*
X93426053Y-106466309D01*
X93429203Y-106445074D01*
X93434419Y-106424250D01*
X93441651Y-106404038D01*
X93450830Y-106384632D01*
X93461866Y-106366219D01*
X93474654Y-106348976D01*
X93489070Y-106333070D01*
X93504976Y-106318654D01*
X93522219Y-106305866D01*
X93540632Y-106294830D01*
X93560038Y-106285651D01*
X93580250Y-106278419D01*
X93601074Y-106273203D01*
X93622309Y-106270053D01*
X93643750Y-106269000D01*
X94081250Y-106269000D01*
X94102691Y-106270053D01*
G37*
G36*
X106640691Y-104428053D02*
G01*
X106661926Y-104431203D01*
X106682750Y-104436419D01*
X106702962Y-104443651D01*
X106722368Y-104452830D01*
X106740781Y-104463866D01*
X106758024Y-104476654D01*
X106773930Y-104491070D01*
X106788346Y-104506976D01*
X106801134Y-104524219D01*
X106812170Y-104542632D01*
X106821349Y-104562038D01*
X106828581Y-104582250D01*
X106833797Y-104603074D01*
X106836947Y-104624309D01*
X106838000Y-104645750D01*
X106838000Y-105158250D01*
X106836947Y-105179691D01*
X106833797Y-105200926D01*
X106828581Y-105221750D01*
X106821349Y-105241962D01*
X106812170Y-105261368D01*
X106801134Y-105279781D01*
X106788346Y-105297024D01*
X106773930Y-105312930D01*
X106758024Y-105327346D01*
X106740781Y-105340134D01*
X106722368Y-105351170D01*
X106702962Y-105360349D01*
X106682750Y-105367581D01*
X106661926Y-105372797D01*
X106640691Y-105375947D01*
X106619250Y-105377000D01*
X106181750Y-105377000D01*
X106160309Y-105375947D01*
X106139074Y-105372797D01*
X106118250Y-105367581D01*
X106098038Y-105360349D01*
X106078632Y-105351170D01*
X106060219Y-105340134D01*
X106042976Y-105327346D01*
X106027070Y-105312930D01*
X106012654Y-105297024D01*
X105999866Y-105279781D01*
X105988830Y-105261368D01*
X105979651Y-105241962D01*
X105972419Y-105221750D01*
X105967203Y-105200926D01*
X105964053Y-105179691D01*
X105963000Y-105158250D01*
X105963000Y-104645750D01*
X105964053Y-104624309D01*
X105967203Y-104603074D01*
X105972419Y-104582250D01*
X105979651Y-104562038D01*
X105988830Y-104542632D01*
X105999866Y-104524219D01*
X106012654Y-104506976D01*
X106027070Y-104491070D01*
X106042976Y-104476654D01*
X106060219Y-104463866D01*
X106078632Y-104452830D01*
X106098038Y-104443651D01*
X106118250Y-104436419D01*
X106139074Y-104431203D01*
X106160309Y-104428053D01*
X106181750Y-104427000D01*
X106619250Y-104427000D01*
X106640691Y-104428053D01*
G37*
G36*
X108215691Y-104428053D02*
G01*
X108236926Y-104431203D01*
X108257750Y-104436419D01*
X108277962Y-104443651D01*
X108297368Y-104452830D01*
X108315781Y-104463866D01*
X108333024Y-104476654D01*
X108348930Y-104491070D01*
X108363346Y-104506976D01*
X108376134Y-104524219D01*
X108387170Y-104542632D01*
X108396349Y-104562038D01*
X108403581Y-104582250D01*
X108408797Y-104603074D01*
X108411947Y-104624309D01*
X108413000Y-104645750D01*
X108413000Y-105158250D01*
X108411947Y-105179691D01*
X108408797Y-105200926D01*
X108403581Y-105221750D01*
X108396349Y-105241962D01*
X108387170Y-105261368D01*
X108376134Y-105279781D01*
X108363346Y-105297024D01*
X108348930Y-105312930D01*
X108333024Y-105327346D01*
X108315781Y-105340134D01*
X108297368Y-105351170D01*
X108277962Y-105360349D01*
X108257750Y-105367581D01*
X108236926Y-105372797D01*
X108215691Y-105375947D01*
X108194250Y-105377000D01*
X107756750Y-105377000D01*
X107735309Y-105375947D01*
X107714074Y-105372797D01*
X107693250Y-105367581D01*
X107673038Y-105360349D01*
X107653632Y-105351170D01*
X107635219Y-105340134D01*
X107617976Y-105327346D01*
X107602070Y-105312930D01*
X107587654Y-105297024D01*
X107574866Y-105279781D01*
X107563830Y-105261368D01*
X107554651Y-105241962D01*
X107547419Y-105221750D01*
X107542203Y-105200926D01*
X107539053Y-105179691D01*
X107538000Y-105158250D01*
X107538000Y-104645750D01*
X107539053Y-104624309D01*
X107542203Y-104603074D01*
X107547419Y-104582250D01*
X107554651Y-104562038D01*
X107563830Y-104542632D01*
X107574866Y-104524219D01*
X107587654Y-104506976D01*
X107602070Y-104491070D01*
X107617976Y-104476654D01*
X107635219Y-104463866D01*
X107653632Y-104452830D01*
X107673038Y-104443651D01*
X107693250Y-104436419D01*
X107714074Y-104431203D01*
X107735309Y-104428053D01*
X107756750Y-104427000D01*
X108194250Y-104427000D01*
X108215691Y-104428053D01*
G37*
G36*
X96273691Y-108593053D02*
G01*
X96294926Y-108596203D01*
X96315750Y-108601419D01*
X96335962Y-108608651D01*
X96355368Y-108617830D01*
X96373781Y-108628866D01*
X96391024Y-108641654D01*
X96406930Y-108656070D01*
X96421346Y-108671976D01*
X96434134Y-108689219D01*
X96445170Y-108707632D01*
X96454349Y-108727038D01*
X96461581Y-108747250D01*
X96466797Y-108768074D01*
X96469947Y-108789309D01*
X96471000Y-108810750D01*
X96471000Y-109248250D01*
X96469947Y-109269691D01*
X96466797Y-109290926D01*
X96461581Y-109311750D01*
X96454349Y-109331962D01*
X96445170Y-109351368D01*
X96434134Y-109369781D01*
X96421346Y-109387024D01*
X96406930Y-109402930D01*
X96391024Y-109417346D01*
X96373781Y-109430134D01*
X96355368Y-109441170D01*
X96335962Y-109450349D01*
X96315750Y-109457581D01*
X96294926Y-109462797D01*
X96273691Y-109465947D01*
X96252250Y-109467000D01*
X95739750Y-109467000D01*
X95718309Y-109465947D01*
X95697074Y-109462797D01*
X95676250Y-109457581D01*
X95656038Y-109450349D01*
X95636632Y-109441170D01*
X95618219Y-109430134D01*
X95600976Y-109417346D01*
X95585070Y-109402930D01*
X95570654Y-109387024D01*
X95557866Y-109369781D01*
X95546830Y-109351368D01*
X95537651Y-109331962D01*
X95530419Y-109311750D01*
X95525203Y-109290926D01*
X95522053Y-109269691D01*
X95521000Y-109248250D01*
X95521000Y-108810750D01*
X95522053Y-108789309D01*
X95525203Y-108768074D01*
X95530419Y-108747250D01*
X95537651Y-108727038D01*
X95546830Y-108707632D01*
X95557866Y-108689219D01*
X95570654Y-108671976D01*
X95585070Y-108656070D01*
X95600976Y-108641654D01*
X95618219Y-108628866D01*
X95636632Y-108617830D01*
X95656038Y-108608651D01*
X95676250Y-108601419D01*
X95697074Y-108596203D01*
X95718309Y-108593053D01*
X95739750Y-108592000D01*
X96252250Y-108592000D01*
X96273691Y-108593053D01*
G37*
G36*
X96273691Y-110168053D02*
G01*
X96294926Y-110171203D01*
X96315750Y-110176419D01*
X96335962Y-110183651D01*
X96355368Y-110192830D01*
X96373781Y-110203866D01*
X96391024Y-110216654D01*
X96406930Y-110231070D01*
X96421346Y-110246976D01*
X96434134Y-110264219D01*
X96445170Y-110282632D01*
X96454349Y-110302038D01*
X96461581Y-110322250D01*
X96466797Y-110343074D01*
X96469947Y-110364309D01*
X96471000Y-110385750D01*
X96471000Y-110823250D01*
X96469947Y-110844691D01*
X96466797Y-110865926D01*
X96461581Y-110886750D01*
X96454349Y-110906962D01*
X96445170Y-110926368D01*
X96434134Y-110944781D01*
X96421346Y-110962024D01*
X96406930Y-110977930D01*
X96391024Y-110992346D01*
X96373781Y-111005134D01*
X96355368Y-111016170D01*
X96335962Y-111025349D01*
X96315750Y-111032581D01*
X96294926Y-111037797D01*
X96273691Y-111040947D01*
X96252250Y-111042000D01*
X95739750Y-111042000D01*
X95718309Y-111040947D01*
X95697074Y-111037797D01*
X95676250Y-111032581D01*
X95656038Y-111025349D01*
X95636632Y-111016170D01*
X95618219Y-111005134D01*
X95600976Y-110992346D01*
X95585070Y-110977930D01*
X95570654Y-110962024D01*
X95557866Y-110944781D01*
X95546830Y-110926368D01*
X95537651Y-110906962D01*
X95530419Y-110886750D01*
X95525203Y-110865926D01*
X95522053Y-110844691D01*
X95521000Y-110823250D01*
X95521000Y-110385750D01*
X95522053Y-110364309D01*
X95525203Y-110343074D01*
X95530419Y-110322250D01*
X95537651Y-110302038D01*
X95546830Y-110282632D01*
X95557866Y-110264219D01*
X95570654Y-110246976D01*
X95585070Y-110231070D01*
X95600976Y-110216654D01*
X95618219Y-110203866D01*
X95636632Y-110192830D01*
X95656038Y-110183651D01*
X95676250Y-110176419D01*
X95697074Y-110171203D01*
X95718309Y-110168053D01*
X95739750Y-110167000D01*
X96252250Y-110167000D01*
X96273691Y-110168053D01*
G37*
G36*
X108215691Y-102777053D02*
G01*
X108236926Y-102780203D01*
X108257750Y-102785419D01*
X108277962Y-102792651D01*
X108297368Y-102801830D01*
X108315781Y-102812866D01*
X108333024Y-102825654D01*
X108348930Y-102840070D01*
X108363346Y-102855976D01*
X108376134Y-102873219D01*
X108387170Y-102891632D01*
X108396349Y-102911038D01*
X108403581Y-102931250D01*
X108408797Y-102952074D01*
X108411947Y-102973309D01*
X108413000Y-102994750D01*
X108413000Y-103507250D01*
X108411947Y-103528691D01*
X108408797Y-103549926D01*
X108403581Y-103570750D01*
X108396349Y-103590962D01*
X108387170Y-103610368D01*
X108376134Y-103628781D01*
X108363346Y-103646024D01*
X108348930Y-103661930D01*
X108333024Y-103676346D01*
X108315781Y-103689134D01*
X108297368Y-103700170D01*
X108277962Y-103709349D01*
X108257750Y-103716581D01*
X108236926Y-103721797D01*
X108215691Y-103724947D01*
X108194250Y-103726000D01*
X107756750Y-103726000D01*
X107735309Y-103724947D01*
X107714074Y-103721797D01*
X107693250Y-103716581D01*
X107673038Y-103709349D01*
X107653632Y-103700170D01*
X107635219Y-103689134D01*
X107617976Y-103676346D01*
X107602070Y-103661930D01*
X107587654Y-103646024D01*
X107574866Y-103628781D01*
X107563830Y-103610368D01*
X107554651Y-103590962D01*
X107547419Y-103570750D01*
X107542203Y-103549926D01*
X107539053Y-103528691D01*
X107538000Y-103507250D01*
X107538000Y-102994750D01*
X107539053Y-102973309D01*
X107542203Y-102952074D01*
X107547419Y-102931250D01*
X107554651Y-102911038D01*
X107563830Y-102891632D01*
X107574866Y-102873219D01*
X107587654Y-102855976D01*
X107602070Y-102840070D01*
X107617976Y-102825654D01*
X107635219Y-102812866D01*
X107653632Y-102801830D01*
X107673038Y-102792651D01*
X107693250Y-102785419D01*
X107714074Y-102780203D01*
X107735309Y-102777053D01*
X107756750Y-102776000D01*
X108194250Y-102776000D01*
X108215691Y-102777053D01*
G37*
G36*
X106640691Y-102777053D02*
G01*
X106661926Y-102780203D01*
X106682750Y-102785419D01*
X106702962Y-102792651D01*
X106722368Y-102801830D01*
X106740781Y-102812866D01*
X106758024Y-102825654D01*
X106773930Y-102840070D01*
X106788346Y-102855976D01*
X106801134Y-102873219D01*
X106812170Y-102891632D01*
X106821349Y-102911038D01*
X106828581Y-102931250D01*
X106833797Y-102952074D01*
X106836947Y-102973309D01*
X106838000Y-102994750D01*
X106838000Y-103507250D01*
X106836947Y-103528691D01*
X106833797Y-103549926D01*
X106828581Y-103570750D01*
X106821349Y-103590962D01*
X106812170Y-103610368D01*
X106801134Y-103628781D01*
X106788346Y-103646024D01*
X106773930Y-103661930D01*
X106758024Y-103676346D01*
X106740781Y-103689134D01*
X106722368Y-103700170D01*
X106702962Y-103709349D01*
X106682750Y-103716581D01*
X106661926Y-103721797D01*
X106640691Y-103724947D01*
X106619250Y-103726000D01*
X106181750Y-103726000D01*
X106160309Y-103724947D01*
X106139074Y-103721797D01*
X106118250Y-103716581D01*
X106098038Y-103709349D01*
X106078632Y-103700170D01*
X106060219Y-103689134D01*
X106042976Y-103676346D01*
X106027070Y-103661930D01*
X106012654Y-103646024D01*
X105999866Y-103628781D01*
X105988830Y-103610368D01*
X105979651Y-103590962D01*
X105972419Y-103570750D01*
X105967203Y-103549926D01*
X105964053Y-103528691D01*
X105963000Y-103507250D01*
X105963000Y-102994750D01*
X105964053Y-102973309D01*
X105967203Y-102952074D01*
X105972419Y-102931250D01*
X105979651Y-102911038D01*
X105988830Y-102891632D01*
X105999866Y-102873219D01*
X106012654Y-102855976D01*
X106027070Y-102840070D01*
X106042976Y-102825654D01*
X106060219Y-102812866D01*
X106078632Y-102801830D01*
X106098038Y-102792651D01*
X106118250Y-102785419D01*
X106139074Y-102780203D01*
X106160309Y-102777053D01*
X106181750Y-102776000D01*
X106619250Y-102776000D01*
X106640691Y-102777053D01*
G37*
G36*
X106640691Y-100999053D02*
G01*
X106661926Y-101002203D01*
X106682750Y-101007419D01*
X106702962Y-101014651D01*
X106722368Y-101023830D01*
X106740781Y-101034866D01*
X106758024Y-101047654D01*
X106773930Y-101062070D01*
X106788346Y-101077976D01*
X106801134Y-101095219D01*
X106812170Y-101113632D01*
X106821349Y-101133038D01*
X106828581Y-101153250D01*
X106833797Y-101174074D01*
X106836947Y-101195309D01*
X106838000Y-101216750D01*
X106838000Y-101729250D01*
X106836947Y-101750691D01*
X106833797Y-101771926D01*
X106828581Y-101792750D01*
X106821349Y-101812962D01*
X106812170Y-101832368D01*
X106801134Y-101850781D01*
X106788346Y-101868024D01*
X106773930Y-101883930D01*
X106758024Y-101898346D01*
X106740781Y-101911134D01*
X106722368Y-101922170D01*
X106702962Y-101931349D01*
X106682750Y-101938581D01*
X106661926Y-101943797D01*
X106640691Y-101946947D01*
X106619250Y-101948000D01*
X106181750Y-101948000D01*
X106160309Y-101946947D01*
X106139074Y-101943797D01*
X106118250Y-101938581D01*
X106098038Y-101931349D01*
X106078632Y-101922170D01*
X106060219Y-101911134D01*
X106042976Y-101898346D01*
X106027070Y-101883930D01*
X106012654Y-101868024D01*
X105999866Y-101850781D01*
X105988830Y-101832368D01*
X105979651Y-101812962D01*
X105972419Y-101792750D01*
X105967203Y-101771926D01*
X105964053Y-101750691D01*
X105963000Y-101729250D01*
X105963000Y-101216750D01*
X105964053Y-101195309D01*
X105967203Y-101174074D01*
X105972419Y-101153250D01*
X105979651Y-101133038D01*
X105988830Y-101113632D01*
X105999866Y-101095219D01*
X106012654Y-101077976D01*
X106027070Y-101062070D01*
X106042976Y-101047654D01*
X106060219Y-101034866D01*
X106078632Y-101023830D01*
X106098038Y-101014651D01*
X106118250Y-101007419D01*
X106139074Y-101002203D01*
X106160309Y-100999053D01*
X106181750Y-100998000D01*
X106619250Y-100998000D01*
X106640691Y-100999053D01*
G37*
G36*
X108215691Y-100999053D02*
G01*
X108236926Y-101002203D01*
X108257750Y-101007419D01*
X108277962Y-101014651D01*
X108297368Y-101023830D01*
X108315781Y-101034866D01*
X108333024Y-101047654D01*
X108348930Y-101062070D01*
X108363346Y-101077976D01*
X108376134Y-101095219D01*
X108387170Y-101113632D01*
X108396349Y-101133038D01*
X108403581Y-101153250D01*
X108408797Y-101174074D01*
X108411947Y-101195309D01*
X108413000Y-101216750D01*
X108413000Y-101729250D01*
X108411947Y-101750691D01*
X108408797Y-101771926D01*
X108403581Y-101792750D01*
X108396349Y-101812962D01*
X108387170Y-101832368D01*
X108376134Y-101850781D01*
X108363346Y-101868024D01*
X108348930Y-101883930D01*
X108333024Y-101898346D01*
X108315781Y-101911134D01*
X108297368Y-101922170D01*
X108277962Y-101931349D01*
X108257750Y-101938581D01*
X108236926Y-101943797D01*
X108215691Y-101946947D01*
X108194250Y-101948000D01*
X107756750Y-101948000D01*
X107735309Y-101946947D01*
X107714074Y-101943797D01*
X107693250Y-101938581D01*
X107673038Y-101931349D01*
X107653632Y-101922170D01*
X107635219Y-101911134D01*
X107617976Y-101898346D01*
X107602070Y-101883930D01*
X107587654Y-101868024D01*
X107574866Y-101850781D01*
X107563830Y-101832368D01*
X107554651Y-101812962D01*
X107547419Y-101792750D01*
X107542203Y-101771926D01*
X107539053Y-101750691D01*
X107538000Y-101729250D01*
X107538000Y-101216750D01*
X107539053Y-101195309D01*
X107542203Y-101174074D01*
X107547419Y-101153250D01*
X107554651Y-101133038D01*
X107563830Y-101113632D01*
X107574866Y-101095219D01*
X107587654Y-101077976D01*
X107602070Y-101062070D01*
X107617976Y-101047654D01*
X107635219Y-101034866D01*
X107653632Y-101023830D01*
X107673038Y-101014651D01*
X107693250Y-101007419D01*
X107714074Y-101002203D01*
X107735309Y-100999053D01*
X107756750Y-100998000D01*
X108194250Y-100998000D01*
X108215691Y-100999053D01*
G37*
G36*
X98598191Y-93696553D02*
G01*
X98619426Y-93699703D01*
X98640250Y-93704919D01*
X98660462Y-93712151D01*
X98679868Y-93721330D01*
X98698281Y-93732366D01*
X98715524Y-93745154D01*
X98731430Y-93759570D01*
X98745846Y-93775476D01*
X98758634Y-93792719D01*
X98769670Y-93811132D01*
X98778849Y-93830538D01*
X98786081Y-93850750D01*
X98791297Y-93871574D01*
X98794447Y-93892809D01*
X98795500Y-93914250D01*
X98795500Y-94426750D01*
X98794447Y-94448191D01*
X98791297Y-94469426D01*
X98786081Y-94490250D01*
X98778849Y-94510462D01*
X98769670Y-94529868D01*
X98758634Y-94548281D01*
X98745846Y-94565524D01*
X98731430Y-94581430D01*
X98715524Y-94595846D01*
X98698281Y-94608634D01*
X98679868Y-94619670D01*
X98660462Y-94628849D01*
X98640250Y-94636081D01*
X98619426Y-94641297D01*
X98598191Y-94644447D01*
X98576750Y-94645500D01*
X98139250Y-94645500D01*
X98117809Y-94644447D01*
X98096574Y-94641297D01*
X98075750Y-94636081D01*
X98055538Y-94628849D01*
X98036132Y-94619670D01*
X98017719Y-94608634D01*
X98000476Y-94595846D01*
X97984570Y-94581430D01*
X97970154Y-94565524D01*
X97957366Y-94548281D01*
X97946330Y-94529868D01*
X97937151Y-94510462D01*
X97929919Y-94490250D01*
X97924703Y-94469426D01*
X97921553Y-94448191D01*
X97920500Y-94426750D01*
X97920500Y-93914250D01*
X97921553Y-93892809D01*
X97924703Y-93871574D01*
X97929919Y-93850750D01*
X97937151Y-93830538D01*
X97946330Y-93811132D01*
X97957366Y-93792719D01*
X97970154Y-93775476D01*
X97984570Y-93759570D01*
X98000476Y-93745154D01*
X98017719Y-93732366D01*
X98036132Y-93721330D01*
X98055538Y-93712151D01*
X98075750Y-93704919D01*
X98096574Y-93699703D01*
X98117809Y-93696553D01*
X98139250Y-93695500D01*
X98576750Y-93695500D01*
X98598191Y-93696553D01*
G37*
G36*
X100173191Y-93696553D02*
G01*
X100194426Y-93699703D01*
X100215250Y-93704919D01*
X100235462Y-93712151D01*
X100254868Y-93721330D01*
X100273281Y-93732366D01*
X100290524Y-93745154D01*
X100306430Y-93759570D01*
X100320846Y-93775476D01*
X100333634Y-93792719D01*
X100344670Y-93811132D01*
X100353849Y-93830538D01*
X100361081Y-93850750D01*
X100366297Y-93871574D01*
X100369447Y-93892809D01*
X100370500Y-93914250D01*
X100370500Y-94426750D01*
X100369447Y-94448191D01*
X100366297Y-94469426D01*
X100361081Y-94490250D01*
X100353849Y-94510462D01*
X100344670Y-94529868D01*
X100333634Y-94548281D01*
X100320846Y-94565524D01*
X100306430Y-94581430D01*
X100290524Y-94595846D01*
X100273281Y-94608634D01*
X100254868Y-94619670D01*
X100235462Y-94628849D01*
X100215250Y-94636081D01*
X100194426Y-94641297D01*
X100173191Y-94644447D01*
X100151750Y-94645500D01*
X99714250Y-94645500D01*
X99692809Y-94644447D01*
X99671574Y-94641297D01*
X99650750Y-94636081D01*
X99630538Y-94628849D01*
X99611132Y-94619670D01*
X99592719Y-94608634D01*
X99575476Y-94595846D01*
X99559570Y-94581430D01*
X99545154Y-94565524D01*
X99532366Y-94548281D01*
X99521330Y-94529868D01*
X99512151Y-94510462D01*
X99504919Y-94490250D01*
X99499703Y-94469426D01*
X99496553Y-94448191D01*
X99495500Y-94426750D01*
X99495500Y-93914250D01*
X99496553Y-93892809D01*
X99499703Y-93871574D01*
X99504919Y-93850750D01*
X99512151Y-93830538D01*
X99521330Y-93811132D01*
X99532366Y-93792719D01*
X99545154Y-93775476D01*
X99559570Y-93759570D01*
X99575476Y-93745154D01*
X99592719Y-93732366D01*
X99611132Y-93721330D01*
X99630538Y-93712151D01*
X99650750Y-93704919D01*
X99671574Y-93699703D01*
X99692809Y-93696553D01*
X99714250Y-93695500D01*
X100151750Y-93695500D01*
X100173191Y-93696553D01*
G37*
G36*
X94077191Y-97379553D02*
G01*
X94098426Y-97382703D01*
X94119250Y-97387919D01*
X94139462Y-97395151D01*
X94158868Y-97404330D01*
X94177281Y-97415366D01*
X94194524Y-97428154D01*
X94210430Y-97442570D01*
X94224846Y-97458476D01*
X94237634Y-97475719D01*
X94248670Y-97494132D01*
X94257849Y-97513538D01*
X94265081Y-97533750D01*
X94270297Y-97554574D01*
X94273447Y-97575809D01*
X94274500Y-97597250D01*
X94274500Y-98109750D01*
X94273447Y-98131191D01*
X94270297Y-98152426D01*
X94265081Y-98173250D01*
X94257849Y-98193462D01*
X94248670Y-98212868D01*
X94237634Y-98231281D01*
X94224846Y-98248524D01*
X94210430Y-98264430D01*
X94194524Y-98278846D01*
X94177281Y-98291634D01*
X94158868Y-98302670D01*
X94139462Y-98311849D01*
X94119250Y-98319081D01*
X94098426Y-98324297D01*
X94077191Y-98327447D01*
X94055750Y-98328500D01*
X93618250Y-98328500D01*
X93596809Y-98327447D01*
X93575574Y-98324297D01*
X93554750Y-98319081D01*
X93534538Y-98311849D01*
X93515132Y-98302670D01*
X93496719Y-98291634D01*
X93479476Y-98278846D01*
X93463570Y-98264430D01*
X93449154Y-98248524D01*
X93436366Y-98231281D01*
X93425330Y-98212868D01*
X93416151Y-98193462D01*
X93408919Y-98173250D01*
X93403703Y-98152426D01*
X93400553Y-98131191D01*
X93399500Y-98109750D01*
X93399500Y-97597250D01*
X93400553Y-97575809D01*
X93403703Y-97554574D01*
X93408919Y-97533750D01*
X93416151Y-97513538D01*
X93425330Y-97494132D01*
X93436366Y-97475719D01*
X93449154Y-97458476D01*
X93463570Y-97442570D01*
X93479476Y-97428154D01*
X93496719Y-97415366D01*
X93515132Y-97404330D01*
X93534538Y-97395151D01*
X93554750Y-97387919D01*
X93575574Y-97382703D01*
X93596809Y-97379553D01*
X93618250Y-97378500D01*
X94055750Y-97378500D01*
X94077191Y-97379553D01*
G37*
G36*
X92502191Y-97379553D02*
G01*
X92523426Y-97382703D01*
X92544250Y-97387919D01*
X92564462Y-97395151D01*
X92583868Y-97404330D01*
X92602281Y-97415366D01*
X92619524Y-97428154D01*
X92635430Y-97442570D01*
X92649846Y-97458476D01*
X92662634Y-97475719D01*
X92673670Y-97494132D01*
X92682849Y-97513538D01*
X92690081Y-97533750D01*
X92695297Y-97554574D01*
X92698447Y-97575809D01*
X92699500Y-97597250D01*
X92699500Y-98109750D01*
X92698447Y-98131191D01*
X92695297Y-98152426D01*
X92690081Y-98173250D01*
X92682849Y-98193462D01*
X92673670Y-98212868D01*
X92662634Y-98231281D01*
X92649846Y-98248524D01*
X92635430Y-98264430D01*
X92619524Y-98278846D01*
X92602281Y-98291634D01*
X92583868Y-98302670D01*
X92564462Y-98311849D01*
X92544250Y-98319081D01*
X92523426Y-98324297D01*
X92502191Y-98327447D01*
X92480750Y-98328500D01*
X92043250Y-98328500D01*
X92021809Y-98327447D01*
X92000574Y-98324297D01*
X91979750Y-98319081D01*
X91959538Y-98311849D01*
X91940132Y-98302670D01*
X91921719Y-98291634D01*
X91904476Y-98278846D01*
X91888570Y-98264430D01*
X91874154Y-98248524D01*
X91861366Y-98231281D01*
X91850330Y-98212868D01*
X91841151Y-98193462D01*
X91833919Y-98173250D01*
X91828703Y-98152426D01*
X91825553Y-98131191D01*
X91824500Y-98109750D01*
X91824500Y-97597250D01*
X91825553Y-97575809D01*
X91828703Y-97554574D01*
X91833919Y-97533750D01*
X91841151Y-97513538D01*
X91850330Y-97494132D01*
X91861366Y-97475719D01*
X91874154Y-97458476D01*
X91888570Y-97442570D01*
X91904476Y-97428154D01*
X91921719Y-97415366D01*
X91940132Y-97404330D01*
X91959538Y-97395151D01*
X91979750Y-97387919D01*
X92000574Y-97382703D01*
X92021809Y-97379553D01*
X92043250Y-97378500D01*
X92480750Y-97378500D01*
X92502191Y-97379553D01*
G37*
G36*
X102464691Y-106626053D02*
G01*
X102485926Y-106629203D01*
X102506750Y-106634419D01*
X102526962Y-106641651D01*
X102546368Y-106650830D01*
X102564781Y-106661866D01*
X102582024Y-106674654D01*
X102597930Y-106689070D01*
X102612346Y-106704976D01*
X102625134Y-106722219D01*
X102636170Y-106740632D01*
X102645349Y-106760038D01*
X102652581Y-106780250D01*
X102657797Y-106801074D01*
X102660947Y-106822309D01*
X102662000Y-106843750D01*
X102662000Y-107356250D01*
X102660947Y-107377691D01*
X102657797Y-107398926D01*
X102652581Y-107419750D01*
X102645349Y-107439962D01*
X102636170Y-107459368D01*
X102625134Y-107477781D01*
X102612346Y-107495024D01*
X102597930Y-107510930D01*
X102582024Y-107525346D01*
X102564781Y-107538134D01*
X102546368Y-107549170D01*
X102526962Y-107558349D01*
X102506750Y-107565581D01*
X102485926Y-107570797D01*
X102464691Y-107573947D01*
X102443250Y-107575000D01*
X102005750Y-107575000D01*
X101984309Y-107573947D01*
X101963074Y-107570797D01*
X101942250Y-107565581D01*
X101922038Y-107558349D01*
X101902632Y-107549170D01*
X101884219Y-107538134D01*
X101866976Y-107525346D01*
X101851070Y-107510930D01*
X101836654Y-107495024D01*
X101823866Y-107477781D01*
X101812830Y-107459368D01*
X101803651Y-107439962D01*
X101796419Y-107419750D01*
X101791203Y-107398926D01*
X101788053Y-107377691D01*
X101787000Y-107356250D01*
X101787000Y-106843750D01*
X101788053Y-106822309D01*
X101791203Y-106801074D01*
X101796419Y-106780250D01*
X101803651Y-106760038D01*
X101812830Y-106740632D01*
X101823866Y-106722219D01*
X101836654Y-106704976D01*
X101851070Y-106689070D01*
X101866976Y-106674654D01*
X101884219Y-106661866D01*
X101902632Y-106650830D01*
X101922038Y-106641651D01*
X101942250Y-106634419D01*
X101963074Y-106629203D01*
X101984309Y-106626053D01*
X102005750Y-106625000D01*
X102443250Y-106625000D01*
X102464691Y-106626053D01*
G37*
G36*
X104039691Y-106626053D02*
G01*
X104060926Y-106629203D01*
X104081750Y-106634419D01*
X104101962Y-106641651D01*
X104121368Y-106650830D01*
X104139781Y-106661866D01*
X104157024Y-106674654D01*
X104172930Y-106689070D01*
X104187346Y-106704976D01*
X104200134Y-106722219D01*
X104211170Y-106740632D01*
X104220349Y-106760038D01*
X104227581Y-106780250D01*
X104232797Y-106801074D01*
X104235947Y-106822309D01*
X104237000Y-106843750D01*
X104237000Y-107356250D01*
X104235947Y-107377691D01*
X104232797Y-107398926D01*
X104227581Y-107419750D01*
X104220349Y-107439962D01*
X104211170Y-107459368D01*
X104200134Y-107477781D01*
X104187346Y-107495024D01*
X104172930Y-107510930D01*
X104157024Y-107525346D01*
X104139781Y-107538134D01*
X104121368Y-107549170D01*
X104101962Y-107558349D01*
X104081750Y-107565581D01*
X104060926Y-107570797D01*
X104039691Y-107573947D01*
X104018250Y-107575000D01*
X103580750Y-107575000D01*
X103559309Y-107573947D01*
X103538074Y-107570797D01*
X103517250Y-107565581D01*
X103497038Y-107558349D01*
X103477632Y-107549170D01*
X103459219Y-107538134D01*
X103441976Y-107525346D01*
X103426070Y-107510930D01*
X103411654Y-107495024D01*
X103398866Y-107477781D01*
X103387830Y-107459368D01*
X103378651Y-107439962D01*
X103371419Y-107419750D01*
X103366203Y-107398926D01*
X103363053Y-107377691D01*
X103362000Y-107356250D01*
X103362000Y-106843750D01*
X103363053Y-106822309D01*
X103366203Y-106801074D01*
X103371419Y-106780250D01*
X103378651Y-106760038D01*
X103387830Y-106740632D01*
X103398866Y-106722219D01*
X103411654Y-106704976D01*
X103426070Y-106689070D01*
X103441976Y-106674654D01*
X103459219Y-106661866D01*
X103477632Y-106650830D01*
X103497038Y-106641651D01*
X103517250Y-106634419D01*
X103538074Y-106629203D01*
X103559309Y-106626053D01*
X103580750Y-106625000D01*
X104018250Y-106625000D01*
X104039691Y-106626053D01*
G37*
G36*
X99182691Y-106626053D02*
G01*
X99203926Y-106629203D01*
X99224750Y-106634419D01*
X99244962Y-106641651D01*
X99264368Y-106650830D01*
X99282781Y-106661866D01*
X99300024Y-106674654D01*
X99315930Y-106689070D01*
X99330346Y-106704976D01*
X99343134Y-106722219D01*
X99354170Y-106740632D01*
X99363349Y-106760038D01*
X99370581Y-106780250D01*
X99375797Y-106801074D01*
X99378947Y-106822309D01*
X99380000Y-106843750D01*
X99380000Y-107356250D01*
X99378947Y-107377691D01*
X99375797Y-107398926D01*
X99370581Y-107419750D01*
X99363349Y-107439962D01*
X99354170Y-107459368D01*
X99343134Y-107477781D01*
X99330346Y-107495024D01*
X99315930Y-107510930D01*
X99300024Y-107525346D01*
X99282781Y-107538134D01*
X99264368Y-107549170D01*
X99244962Y-107558349D01*
X99224750Y-107565581D01*
X99203926Y-107570797D01*
X99182691Y-107573947D01*
X99161250Y-107575000D01*
X98723750Y-107575000D01*
X98702309Y-107573947D01*
X98681074Y-107570797D01*
X98660250Y-107565581D01*
X98640038Y-107558349D01*
X98620632Y-107549170D01*
X98602219Y-107538134D01*
X98584976Y-107525346D01*
X98569070Y-107510930D01*
X98554654Y-107495024D01*
X98541866Y-107477781D01*
X98530830Y-107459368D01*
X98521651Y-107439962D01*
X98514419Y-107419750D01*
X98509203Y-107398926D01*
X98506053Y-107377691D01*
X98505000Y-107356250D01*
X98505000Y-106843750D01*
X98506053Y-106822309D01*
X98509203Y-106801074D01*
X98514419Y-106780250D01*
X98521651Y-106760038D01*
X98530830Y-106740632D01*
X98541866Y-106722219D01*
X98554654Y-106704976D01*
X98569070Y-106689070D01*
X98584976Y-106674654D01*
X98602219Y-106661866D01*
X98620632Y-106650830D01*
X98640038Y-106641651D01*
X98660250Y-106634419D01*
X98681074Y-106629203D01*
X98702309Y-106626053D01*
X98723750Y-106625000D01*
X99161250Y-106625000D01*
X99182691Y-106626053D01*
G37*
G36*
X97607691Y-106626053D02*
G01*
X97628926Y-106629203D01*
X97649750Y-106634419D01*
X97669962Y-106641651D01*
X97689368Y-106650830D01*
X97707781Y-106661866D01*
X97725024Y-106674654D01*
X97740930Y-106689070D01*
X97755346Y-106704976D01*
X97768134Y-106722219D01*
X97779170Y-106740632D01*
X97788349Y-106760038D01*
X97795581Y-106780250D01*
X97800797Y-106801074D01*
X97803947Y-106822309D01*
X97805000Y-106843750D01*
X97805000Y-107356250D01*
X97803947Y-107377691D01*
X97800797Y-107398926D01*
X97795581Y-107419750D01*
X97788349Y-107439962D01*
X97779170Y-107459368D01*
X97768134Y-107477781D01*
X97755346Y-107495024D01*
X97740930Y-107510930D01*
X97725024Y-107525346D01*
X97707781Y-107538134D01*
X97689368Y-107549170D01*
X97669962Y-107558349D01*
X97649750Y-107565581D01*
X97628926Y-107570797D01*
X97607691Y-107573947D01*
X97586250Y-107575000D01*
X97148750Y-107575000D01*
X97127309Y-107573947D01*
X97106074Y-107570797D01*
X97085250Y-107565581D01*
X97065038Y-107558349D01*
X97045632Y-107549170D01*
X97027219Y-107538134D01*
X97009976Y-107525346D01*
X96994070Y-107510930D01*
X96979654Y-107495024D01*
X96966866Y-107477781D01*
X96955830Y-107459368D01*
X96946651Y-107439962D01*
X96939419Y-107419750D01*
X96934203Y-107398926D01*
X96931053Y-107377691D01*
X96930000Y-107356250D01*
X96930000Y-106843750D01*
X96931053Y-106822309D01*
X96934203Y-106801074D01*
X96939419Y-106780250D01*
X96946651Y-106760038D01*
X96955830Y-106740632D01*
X96966866Y-106722219D01*
X96979654Y-106704976D01*
X96994070Y-106689070D01*
X97009976Y-106674654D01*
X97027219Y-106661866D01*
X97045632Y-106650830D01*
X97065038Y-106641651D01*
X97085250Y-106634419D01*
X97106074Y-106629203D01*
X97127309Y-106626053D01*
X97148750Y-106625000D01*
X97586250Y-106625000D01*
X97607691Y-106626053D01*
G37*
G36*
X106640691Y-99221053D02*
G01*
X106661926Y-99224203D01*
X106682750Y-99229419D01*
X106702962Y-99236651D01*
X106722368Y-99245830D01*
X106740781Y-99256866D01*
X106758024Y-99269654D01*
X106773930Y-99284070D01*
X106788346Y-99299976D01*
X106801134Y-99317219D01*
X106812170Y-99335632D01*
X106821349Y-99355038D01*
X106828581Y-99375250D01*
X106833797Y-99396074D01*
X106836947Y-99417309D01*
X106838000Y-99438750D01*
X106838000Y-99951250D01*
X106836947Y-99972691D01*
X106833797Y-99993926D01*
X106828581Y-100014750D01*
X106821349Y-100034962D01*
X106812170Y-100054368D01*
X106801134Y-100072781D01*
X106788346Y-100090024D01*
X106773930Y-100105930D01*
X106758024Y-100120346D01*
X106740781Y-100133134D01*
X106722368Y-100144170D01*
X106702962Y-100153349D01*
X106682750Y-100160581D01*
X106661926Y-100165797D01*
X106640691Y-100168947D01*
X106619250Y-100170000D01*
X106181750Y-100170000D01*
X106160309Y-100168947D01*
X106139074Y-100165797D01*
X106118250Y-100160581D01*
X106098038Y-100153349D01*
X106078632Y-100144170D01*
X106060219Y-100133134D01*
X106042976Y-100120346D01*
X106027070Y-100105930D01*
X106012654Y-100090024D01*
X105999866Y-100072781D01*
X105988830Y-100054368D01*
X105979651Y-100034962D01*
X105972419Y-100014750D01*
X105967203Y-99993926D01*
X105964053Y-99972691D01*
X105963000Y-99951250D01*
X105963000Y-99438750D01*
X105964053Y-99417309D01*
X105967203Y-99396074D01*
X105972419Y-99375250D01*
X105979651Y-99355038D01*
X105988830Y-99335632D01*
X105999866Y-99317219D01*
X106012654Y-99299976D01*
X106027070Y-99284070D01*
X106042976Y-99269654D01*
X106060219Y-99256866D01*
X106078632Y-99245830D01*
X106098038Y-99236651D01*
X106118250Y-99229419D01*
X106139074Y-99224203D01*
X106160309Y-99221053D01*
X106181750Y-99220000D01*
X106619250Y-99220000D01*
X106640691Y-99221053D01*
G37*
G36*
X108215691Y-99221053D02*
G01*
X108236926Y-99224203D01*
X108257750Y-99229419D01*
X108277962Y-99236651D01*
X108297368Y-99245830D01*
X108315781Y-99256866D01*
X108333024Y-99269654D01*
X108348930Y-99284070D01*
X108363346Y-99299976D01*
X108376134Y-99317219D01*
X108387170Y-99335632D01*
X108396349Y-99355038D01*
X108403581Y-99375250D01*
X108408797Y-99396074D01*
X108411947Y-99417309D01*
X108413000Y-99438750D01*
X108413000Y-99951250D01*
X108411947Y-99972691D01*
X108408797Y-99993926D01*
X108403581Y-100014750D01*
X108396349Y-100034962D01*
X108387170Y-100054368D01*
X108376134Y-100072781D01*
X108363346Y-100090024D01*
X108348930Y-100105930D01*
X108333024Y-100120346D01*
X108315781Y-100133134D01*
X108297368Y-100144170D01*
X108277962Y-100153349D01*
X108257750Y-100160581D01*
X108236926Y-100165797D01*
X108215691Y-100168947D01*
X108194250Y-100170000D01*
X107756750Y-100170000D01*
X107735309Y-100168947D01*
X107714074Y-100165797D01*
X107693250Y-100160581D01*
X107673038Y-100153349D01*
X107653632Y-100144170D01*
X107635219Y-100133134D01*
X107617976Y-100120346D01*
X107602070Y-100105930D01*
X107587654Y-100090024D01*
X107574866Y-100072781D01*
X107563830Y-100054368D01*
X107554651Y-100034962D01*
X107547419Y-100014750D01*
X107542203Y-99993926D01*
X107539053Y-99972691D01*
X107538000Y-99951250D01*
X107538000Y-99438750D01*
X107539053Y-99417309D01*
X107542203Y-99396074D01*
X107547419Y-99375250D01*
X107554651Y-99355038D01*
X107563830Y-99335632D01*
X107574866Y-99317219D01*
X107587654Y-99299976D01*
X107602070Y-99284070D01*
X107617976Y-99269654D01*
X107635219Y-99256866D01*
X107653632Y-99245830D01*
X107673038Y-99236651D01*
X107693250Y-99229419D01*
X107714074Y-99224203D01*
X107735309Y-99221053D01*
X107756750Y-99220000D01*
X108194250Y-99220000D01*
X108215691Y-99221053D01*
G37*
G36*
X92188191Y-90585053D02*
G01*
X92209426Y-90588203D01*
X92230250Y-90593419D01*
X92250462Y-90600651D01*
X92269868Y-90609830D01*
X92288281Y-90620866D01*
X92305524Y-90633654D01*
X92321430Y-90648070D01*
X92335846Y-90663976D01*
X92348634Y-90681219D01*
X92359670Y-90699632D01*
X92368849Y-90719038D01*
X92376081Y-90739250D01*
X92381297Y-90760074D01*
X92384447Y-90781309D01*
X92385500Y-90802750D01*
X92385500Y-91315250D01*
X92384447Y-91336691D01*
X92381297Y-91357926D01*
X92376081Y-91378750D01*
X92368849Y-91398962D01*
X92359670Y-91418368D01*
X92348634Y-91436781D01*
X92335846Y-91454024D01*
X92321430Y-91469930D01*
X92305524Y-91484346D01*
X92288281Y-91497134D01*
X92269868Y-91508170D01*
X92250462Y-91517349D01*
X92230250Y-91524581D01*
X92209426Y-91529797D01*
X92188191Y-91532947D01*
X92166750Y-91534000D01*
X91729250Y-91534000D01*
X91707809Y-91532947D01*
X91686574Y-91529797D01*
X91665750Y-91524581D01*
X91645538Y-91517349D01*
X91626132Y-91508170D01*
X91607719Y-91497134D01*
X91590476Y-91484346D01*
X91574570Y-91469930D01*
X91560154Y-91454024D01*
X91547366Y-91436781D01*
X91536330Y-91418368D01*
X91527151Y-91398962D01*
X91519919Y-91378750D01*
X91514703Y-91357926D01*
X91511553Y-91336691D01*
X91510500Y-91315250D01*
X91510500Y-90802750D01*
X91511553Y-90781309D01*
X91514703Y-90760074D01*
X91519919Y-90739250D01*
X91527151Y-90719038D01*
X91536330Y-90699632D01*
X91547366Y-90681219D01*
X91560154Y-90663976D01*
X91574570Y-90648070D01*
X91590476Y-90633654D01*
X91607719Y-90620866D01*
X91626132Y-90609830D01*
X91645538Y-90600651D01*
X91665750Y-90593419D01*
X91686574Y-90588203D01*
X91707809Y-90585053D01*
X91729250Y-90584000D01*
X92166750Y-90584000D01*
X92188191Y-90585053D01*
G37*
G36*
X90613191Y-90585053D02*
G01*
X90634426Y-90588203D01*
X90655250Y-90593419D01*
X90675462Y-90600651D01*
X90694868Y-90609830D01*
X90713281Y-90620866D01*
X90730524Y-90633654D01*
X90746430Y-90648070D01*
X90760846Y-90663976D01*
X90773634Y-90681219D01*
X90784670Y-90699632D01*
X90793849Y-90719038D01*
X90801081Y-90739250D01*
X90806297Y-90760074D01*
X90809447Y-90781309D01*
X90810500Y-90802750D01*
X90810500Y-91315250D01*
X90809447Y-91336691D01*
X90806297Y-91357926D01*
X90801081Y-91378750D01*
X90793849Y-91398962D01*
X90784670Y-91418368D01*
X90773634Y-91436781D01*
X90760846Y-91454024D01*
X90746430Y-91469930D01*
X90730524Y-91484346D01*
X90713281Y-91497134D01*
X90694868Y-91508170D01*
X90675462Y-91517349D01*
X90655250Y-91524581D01*
X90634426Y-91529797D01*
X90613191Y-91532947D01*
X90591750Y-91534000D01*
X90154250Y-91534000D01*
X90132809Y-91532947D01*
X90111574Y-91529797D01*
X90090750Y-91524581D01*
X90070538Y-91517349D01*
X90051132Y-91508170D01*
X90032719Y-91497134D01*
X90015476Y-91484346D01*
X89999570Y-91469930D01*
X89985154Y-91454024D01*
X89972366Y-91436781D01*
X89961330Y-91418368D01*
X89952151Y-91398962D01*
X89944919Y-91378750D01*
X89939703Y-91357926D01*
X89936553Y-91336691D01*
X89935500Y-91315250D01*
X89935500Y-90802750D01*
X89936553Y-90781309D01*
X89939703Y-90760074D01*
X89944919Y-90739250D01*
X89952151Y-90719038D01*
X89961330Y-90699632D01*
X89972366Y-90681219D01*
X89985154Y-90663976D01*
X89999570Y-90648070D01*
X90015476Y-90633654D01*
X90032719Y-90620866D01*
X90051132Y-90609830D01*
X90070538Y-90600651D01*
X90090750Y-90593419D01*
X90111574Y-90588203D01*
X90132809Y-90585053D01*
X90154250Y-90584000D01*
X90591750Y-90584000D01*
X90613191Y-90585053D01*
G37*
G36*
X90613191Y-92363053D02*
G01*
X90634426Y-92366203D01*
X90655250Y-92371419D01*
X90675462Y-92378651D01*
X90694868Y-92387830D01*
X90713281Y-92398866D01*
X90730524Y-92411654D01*
X90746430Y-92426070D01*
X90760846Y-92441976D01*
X90773634Y-92459219D01*
X90784670Y-92477632D01*
X90793849Y-92497038D01*
X90801081Y-92517250D01*
X90806297Y-92538074D01*
X90809447Y-92559309D01*
X90810500Y-92580750D01*
X90810500Y-93093250D01*
X90809447Y-93114691D01*
X90806297Y-93135926D01*
X90801081Y-93156750D01*
X90793849Y-93176962D01*
X90784670Y-93196368D01*
X90773634Y-93214781D01*
X90760846Y-93232024D01*
X90746430Y-93247930D01*
X90730524Y-93262346D01*
X90713281Y-93275134D01*
X90694868Y-93286170D01*
X90675462Y-93295349D01*
X90655250Y-93302581D01*
X90634426Y-93307797D01*
X90613191Y-93310947D01*
X90591750Y-93312000D01*
X90154250Y-93312000D01*
X90132809Y-93310947D01*
X90111574Y-93307797D01*
X90090750Y-93302581D01*
X90070538Y-93295349D01*
X90051132Y-93286170D01*
X90032719Y-93275134D01*
X90015476Y-93262346D01*
X89999570Y-93247930D01*
X89985154Y-93232024D01*
X89972366Y-93214781D01*
X89961330Y-93196368D01*
X89952151Y-93176962D01*
X89944919Y-93156750D01*
X89939703Y-93135926D01*
X89936553Y-93114691D01*
X89935500Y-93093250D01*
X89935500Y-92580750D01*
X89936553Y-92559309D01*
X89939703Y-92538074D01*
X89944919Y-92517250D01*
X89952151Y-92497038D01*
X89961330Y-92477632D01*
X89972366Y-92459219D01*
X89985154Y-92441976D01*
X89999570Y-92426070D01*
X90015476Y-92411654D01*
X90032719Y-92398866D01*
X90051132Y-92387830D01*
X90070538Y-92378651D01*
X90090750Y-92371419D01*
X90111574Y-92366203D01*
X90132809Y-92363053D01*
X90154250Y-92362000D01*
X90591750Y-92362000D01*
X90613191Y-92363053D01*
G37*
G36*
X92188191Y-92363053D02*
G01*
X92209426Y-92366203D01*
X92230250Y-92371419D01*
X92250462Y-92378651D01*
X92269868Y-92387830D01*
X92288281Y-92398866D01*
X92305524Y-92411654D01*
X92321430Y-92426070D01*
X92335846Y-92441976D01*
X92348634Y-92459219D01*
X92359670Y-92477632D01*
X92368849Y-92497038D01*
X92376081Y-92517250D01*
X92381297Y-92538074D01*
X92384447Y-92559309D01*
X92385500Y-92580750D01*
X92385500Y-93093250D01*
X92384447Y-93114691D01*
X92381297Y-93135926D01*
X92376081Y-93156750D01*
X92368849Y-93176962D01*
X92359670Y-93196368D01*
X92348634Y-93214781D01*
X92335846Y-93232024D01*
X92321430Y-93247930D01*
X92305524Y-93262346D01*
X92288281Y-93275134D01*
X92269868Y-93286170D01*
X92250462Y-93295349D01*
X92230250Y-93302581D01*
X92209426Y-93307797D01*
X92188191Y-93310947D01*
X92166750Y-93312000D01*
X91729250Y-93312000D01*
X91707809Y-93310947D01*
X91686574Y-93307797D01*
X91665750Y-93302581D01*
X91645538Y-93295349D01*
X91626132Y-93286170D01*
X91607719Y-93275134D01*
X91590476Y-93262346D01*
X91574570Y-93247930D01*
X91560154Y-93232024D01*
X91547366Y-93214781D01*
X91536330Y-93196368D01*
X91527151Y-93176962D01*
X91519919Y-93156750D01*
X91514703Y-93135926D01*
X91511553Y-93114691D01*
X91510500Y-93093250D01*
X91510500Y-92580750D01*
X91511553Y-92559309D01*
X91514703Y-92538074D01*
X91519919Y-92517250D01*
X91527151Y-92497038D01*
X91536330Y-92477632D01*
X91547366Y-92459219D01*
X91560154Y-92441976D01*
X91574570Y-92426070D01*
X91590476Y-92411654D01*
X91607719Y-92398866D01*
X91626132Y-92387830D01*
X91645538Y-92378651D01*
X91665750Y-92371419D01*
X91686574Y-92366203D01*
X91707809Y-92363053D01*
X91729250Y-92362000D01*
X92166750Y-92362000D01*
X92188191Y-92363053D01*
G37*
G36*
X90867191Y-99157553D02*
G01*
X90888426Y-99160703D01*
X90909250Y-99165919D01*
X90929462Y-99173151D01*
X90948868Y-99182330D01*
X90967281Y-99193366D01*
X90984524Y-99206154D01*
X91000430Y-99220570D01*
X91014846Y-99236476D01*
X91027634Y-99253719D01*
X91038670Y-99272132D01*
X91047849Y-99291538D01*
X91055081Y-99311750D01*
X91060297Y-99332574D01*
X91063447Y-99353809D01*
X91064500Y-99375250D01*
X91064500Y-99887750D01*
X91063447Y-99909191D01*
X91060297Y-99930426D01*
X91055081Y-99951250D01*
X91047849Y-99971462D01*
X91038670Y-99990868D01*
X91027634Y-100009281D01*
X91014846Y-100026524D01*
X91000430Y-100042430D01*
X90984524Y-100056846D01*
X90967281Y-100069634D01*
X90948868Y-100080670D01*
X90929462Y-100089849D01*
X90909250Y-100097081D01*
X90888426Y-100102297D01*
X90867191Y-100105447D01*
X90845750Y-100106500D01*
X90408250Y-100106500D01*
X90386809Y-100105447D01*
X90365574Y-100102297D01*
X90344750Y-100097081D01*
X90324538Y-100089849D01*
X90305132Y-100080670D01*
X90286719Y-100069634D01*
X90269476Y-100056846D01*
X90253570Y-100042430D01*
X90239154Y-100026524D01*
X90226366Y-100009281D01*
X90215330Y-99990868D01*
X90206151Y-99971462D01*
X90198919Y-99951250D01*
X90193703Y-99930426D01*
X90190553Y-99909191D01*
X90189500Y-99887750D01*
X90189500Y-99375250D01*
X90190553Y-99353809D01*
X90193703Y-99332574D01*
X90198919Y-99311750D01*
X90206151Y-99291538D01*
X90215330Y-99272132D01*
X90226366Y-99253719D01*
X90239154Y-99236476D01*
X90253570Y-99220570D01*
X90269476Y-99206154D01*
X90286719Y-99193366D01*
X90305132Y-99182330D01*
X90324538Y-99173151D01*
X90344750Y-99165919D01*
X90365574Y-99160703D01*
X90386809Y-99157553D01*
X90408250Y-99156500D01*
X90845750Y-99156500D01*
X90867191Y-99157553D01*
G37*
G36*
X92442191Y-99157553D02*
G01*
X92463426Y-99160703D01*
X92484250Y-99165919D01*
X92504462Y-99173151D01*
X92523868Y-99182330D01*
X92542281Y-99193366D01*
X92559524Y-99206154D01*
X92575430Y-99220570D01*
X92589846Y-99236476D01*
X92602634Y-99253719D01*
X92613670Y-99272132D01*
X92622849Y-99291538D01*
X92630081Y-99311750D01*
X92635297Y-99332574D01*
X92638447Y-99353809D01*
X92639500Y-99375250D01*
X92639500Y-99887750D01*
X92638447Y-99909191D01*
X92635297Y-99930426D01*
X92630081Y-99951250D01*
X92622849Y-99971462D01*
X92613670Y-99990868D01*
X92602634Y-100009281D01*
X92589846Y-100026524D01*
X92575430Y-100042430D01*
X92559524Y-100056846D01*
X92542281Y-100069634D01*
X92523868Y-100080670D01*
X92504462Y-100089849D01*
X92484250Y-100097081D01*
X92463426Y-100102297D01*
X92442191Y-100105447D01*
X92420750Y-100106500D01*
X91983250Y-100106500D01*
X91961809Y-100105447D01*
X91940574Y-100102297D01*
X91919750Y-100097081D01*
X91899538Y-100089849D01*
X91880132Y-100080670D01*
X91861719Y-100069634D01*
X91844476Y-100056846D01*
X91828570Y-100042430D01*
X91814154Y-100026524D01*
X91801366Y-100009281D01*
X91790330Y-99990868D01*
X91781151Y-99971462D01*
X91773919Y-99951250D01*
X91768703Y-99930426D01*
X91765553Y-99909191D01*
X91764500Y-99887750D01*
X91764500Y-99375250D01*
X91765553Y-99353809D01*
X91768703Y-99332574D01*
X91773919Y-99311750D01*
X91781151Y-99291538D01*
X91790330Y-99272132D01*
X91801366Y-99253719D01*
X91814154Y-99236476D01*
X91828570Y-99220570D01*
X91844476Y-99206154D01*
X91861719Y-99193366D01*
X91880132Y-99182330D01*
X91899538Y-99173151D01*
X91919750Y-99165919D01*
X91940574Y-99160703D01*
X91961809Y-99157553D01*
X91983250Y-99156500D01*
X92420750Y-99156500D01*
X92442191Y-99157553D01*
G37*
G36*
X108209691Y-106206053D02*
G01*
X108230926Y-106209203D01*
X108251750Y-106214419D01*
X108271962Y-106221651D01*
X108291368Y-106230830D01*
X108309781Y-106241866D01*
X108327024Y-106254654D01*
X108342930Y-106269070D01*
X108357346Y-106284976D01*
X108370134Y-106302219D01*
X108381170Y-106320632D01*
X108390349Y-106340038D01*
X108397581Y-106360250D01*
X108402797Y-106381074D01*
X108405947Y-106402309D01*
X108407000Y-106423750D01*
X108407000Y-106936250D01*
X108405947Y-106957691D01*
X108402797Y-106978926D01*
X108397581Y-106999750D01*
X108390349Y-107019962D01*
X108381170Y-107039368D01*
X108370134Y-107057781D01*
X108357346Y-107075024D01*
X108342930Y-107090930D01*
X108327024Y-107105346D01*
X108309781Y-107118134D01*
X108291368Y-107129170D01*
X108271962Y-107138349D01*
X108251750Y-107145581D01*
X108230926Y-107150797D01*
X108209691Y-107153947D01*
X108188250Y-107155000D01*
X107750750Y-107155000D01*
X107729309Y-107153947D01*
X107708074Y-107150797D01*
X107687250Y-107145581D01*
X107667038Y-107138349D01*
X107647632Y-107129170D01*
X107629219Y-107118134D01*
X107611976Y-107105346D01*
X107596070Y-107090930D01*
X107581654Y-107075024D01*
X107568866Y-107057781D01*
X107557830Y-107039368D01*
X107548651Y-107019962D01*
X107541419Y-106999750D01*
X107536203Y-106978926D01*
X107533053Y-106957691D01*
X107532000Y-106936250D01*
X107532000Y-106423750D01*
X107533053Y-106402309D01*
X107536203Y-106381074D01*
X107541419Y-106360250D01*
X107548651Y-106340038D01*
X107557830Y-106320632D01*
X107568866Y-106302219D01*
X107581654Y-106284976D01*
X107596070Y-106269070D01*
X107611976Y-106254654D01*
X107629219Y-106241866D01*
X107647632Y-106230830D01*
X107667038Y-106221651D01*
X107687250Y-106214419D01*
X107708074Y-106209203D01*
X107729309Y-106206053D01*
X107750750Y-106205000D01*
X108188250Y-106205000D01*
X108209691Y-106206053D01*
G37*
G36*
X106634691Y-106206053D02*
G01*
X106655926Y-106209203D01*
X106676750Y-106214419D01*
X106696962Y-106221651D01*
X106716368Y-106230830D01*
X106734781Y-106241866D01*
X106752024Y-106254654D01*
X106767930Y-106269070D01*
X106782346Y-106284976D01*
X106795134Y-106302219D01*
X106806170Y-106320632D01*
X106815349Y-106340038D01*
X106822581Y-106360250D01*
X106827797Y-106381074D01*
X106830947Y-106402309D01*
X106832000Y-106423750D01*
X106832000Y-106936250D01*
X106830947Y-106957691D01*
X106827797Y-106978926D01*
X106822581Y-106999750D01*
X106815349Y-107019962D01*
X106806170Y-107039368D01*
X106795134Y-107057781D01*
X106782346Y-107075024D01*
X106767930Y-107090930D01*
X106752024Y-107105346D01*
X106734781Y-107118134D01*
X106716368Y-107129170D01*
X106696962Y-107138349D01*
X106676750Y-107145581D01*
X106655926Y-107150797D01*
X106634691Y-107153947D01*
X106613250Y-107155000D01*
X106175750Y-107155000D01*
X106154309Y-107153947D01*
X106133074Y-107150797D01*
X106112250Y-107145581D01*
X106092038Y-107138349D01*
X106072632Y-107129170D01*
X106054219Y-107118134D01*
X106036976Y-107105346D01*
X106021070Y-107090930D01*
X106006654Y-107075024D01*
X105993866Y-107057781D01*
X105982830Y-107039368D01*
X105973651Y-107019962D01*
X105966419Y-106999750D01*
X105961203Y-106978926D01*
X105958053Y-106957691D01*
X105957000Y-106936250D01*
X105957000Y-106423750D01*
X105958053Y-106402309D01*
X105961203Y-106381074D01*
X105966419Y-106360250D01*
X105973651Y-106340038D01*
X105982830Y-106320632D01*
X105993866Y-106302219D01*
X106006654Y-106284976D01*
X106021070Y-106269070D01*
X106036976Y-106254654D01*
X106054219Y-106241866D01*
X106072632Y-106230830D01*
X106092038Y-106221651D01*
X106112250Y-106214419D01*
X106133074Y-106209203D01*
X106154309Y-106206053D01*
X106175750Y-106205000D01*
X106613250Y-106205000D01*
X106634691Y-106206053D01*
G37*
G36*
X107940691Y-92221553D02*
G01*
X107961926Y-92224703D01*
X107982750Y-92229919D01*
X108002962Y-92237151D01*
X108022368Y-92246330D01*
X108040781Y-92257366D01*
X108058024Y-92270154D01*
X108073930Y-92284570D01*
X108088346Y-92300476D01*
X108101134Y-92317719D01*
X108112170Y-92336132D01*
X108121349Y-92355538D01*
X108128581Y-92375750D01*
X108133797Y-92396574D01*
X108136947Y-92417809D01*
X108138000Y-92439250D01*
X108138000Y-92951750D01*
X108136947Y-92973191D01*
X108133797Y-92994426D01*
X108128581Y-93015250D01*
X108121349Y-93035462D01*
X108112170Y-93054868D01*
X108101134Y-93073281D01*
X108088346Y-93090524D01*
X108073930Y-93106430D01*
X108058024Y-93120846D01*
X108040781Y-93133634D01*
X108022368Y-93144670D01*
X108002962Y-93153849D01*
X107982750Y-93161081D01*
X107961926Y-93166297D01*
X107940691Y-93169447D01*
X107919250Y-93170500D01*
X107481750Y-93170500D01*
X107460309Y-93169447D01*
X107439074Y-93166297D01*
X107418250Y-93161081D01*
X107398038Y-93153849D01*
X107378632Y-93144670D01*
X107360219Y-93133634D01*
X107342976Y-93120846D01*
X107327070Y-93106430D01*
X107312654Y-93090524D01*
X107299866Y-93073281D01*
X107288830Y-93054868D01*
X107279651Y-93035462D01*
X107272419Y-93015250D01*
X107267203Y-92994426D01*
X107264053Y-92973191D01*
X107263000Y-92951750D01*
X107263000Y-92439250D01*
X107264053Y-92417809D01*
X107267203Y-92396574D01*
X107272419Y-92375750D01*
X107279651Y-92355538D01*
X107288830Y-92336132D01*
X107299866Y-92317719D01*
X107312654Y-92300476D01*
X107327070Y-92284570D01*
X107342976Y-92270154D01*
X107360219Y-92257366D01*
X107378632Y-92246330D01*
X107398038Y-92237151D01*
X107418250Y-92229919D01*
X107439074Y-92224703D01*
X107460309Y-92221553D01*
X107481750Y-92220500D01*
X107919250Y-92220500D01*
X107940691Y-92221553D01*
G37*
G36*
X109515691Y-92221553D02*
G01*
X109536926Y-92224703D01*
X109557750Y-92229919D01*
X109577962Y-92237151D01*
X109597368Y-92246330D01*
X109615781Y-92257366D01*
X109633024Y-92270154D01*
X109648930Y-92284570D01*
X109663346Y-92300476D01*
X109676134Y-92317719D01*
X109687170Y-92336132D01*
X109696349Y-92355538D01*
X109703581Y-92375750D01*
X109708797Y-92396574D01*
X109711947Y-92417809D01*
X109713000Y-92439250D01*
X109713000Y-92951750D01*
X109711947Y-92973191D01*
X109708797Y-92994426D01*
X109703581Y-93015250D01*
X109696349Y-93035462D01*
X109687170Y-93054868D01*
X109676134Y-93073281D01*
X109663346Y-93090524D01*
X109648930Y-93106430D01*
X109633024Y-93120846D01*
X109615781Y-93133634D01*
X109597368Y-93144670D01*
X109577962Y-93153849D01*
X109557750Y-93161081D01*
X109536926Y-93166297D01*
X109515691Y-93169447D01*
X109494250Y-93170500D01*
X109056750Y-93170500D01*
X109035309Y-93169447D01*
X109014074Y-93166297D01*
X108993250Y-93161081D01*
X108973038Y-93153849D01*
X108953632Y-93144670D01*
X108935219Y-93133634D01*
X108917976Y-93120846D01*
X108902070Y-93106430D01*
X108887654Y-93090524D01*
X108874866Y-93073281D01*
X108863830Y-93054868D01*
X108854651Y-93035462D01*
X108847419Y-93015250D01*
X108842203Y-92994426D01*
X108839053Y-92973191D01*
X108838000Y-92951750D01*
X108838000Y-92439250D01*
X108839053Y-92417809D01*
X108842203Y-92396574D01*
X108847419Y-92375750D01*
X108854651Y-92355538D01*
X108863830Y-92336132D01*
X108874866Y-92317719D01*
X108887654Y-92300476D01*
X108902070Y-92284570D01*
X108917976Y-92270154D01*
X108935219Y-92257366D01*
X108953632Y-92246330D01*
X108973038Y-92237151D01*
X108993250Y-92229919D01*
X109014074Y-92224703D01*
X109035309Y-92221553D01*
X109056750Y-92220500D01*
X109494250Y-92220500D01*
X109515691Y-92221553D01*
G37*
G36*
X106650691Y-97506553D02*
G01*
X106671926Y-97509703D01*
X106692750Y-97514919D01*
X106712962Y-97522151D01*
X106732368Y-97531330D01*
X106750781Y-97542366D01*
X106768024Y-97555154D01*
X106783930Y-97569570D01*
X106798346Y-97585476D01*
X106811134Y-97602719D01*
X106822170Y-97621132D01*
X106831349Y-97640538D01*
X106838581Y-97660750D01*
X106843797Y-97681574D01*
X106846947Y-97702809D01*
X106848000Y-97724250D01*
X106848000Y-98236750D01*
X106846947Y-98258191D01*
X106843797Y-98279426D01*
X106838581Y-98300250D01*
X106831349Y-98320462D01*
X106822170Y-98339868D01*
X106811134Y-98358281D01*
X106798346Y-98375524D01*
X106783930Y-98391430D01*
X106768024Y-98405846D01*
X106750781Y-98418634D01*
X106732368Y-98429670D01*
X106712962Y-98438849D01*
X106692750Y-98446081D01*
X106671926Y-98451297D01*
X106650691Y-98454447D01*
X106629250Y-98455500D01*
X106191750Y-98455500D01*
X106170309Y-98454447D01*
X106149074Y-98451297D01*
X106128250Y-98446081D01*
X106108038Y-98438849D01*
X106088632Y-98429670D01*
X106070219Y-98418634D01*
X106052976Y-98405846D01*
X106037070Y-98391430D01*
X106022654Y-98375524D01*
X106009866Y-98358281D01*
X105998830Y-98339868D01*
X105989651Y-98320462D01*
X105982419Y-98300250D01*
X105977203Y-98279426D01*
X105974053Y-98258191D01*
X105973000Y-98236750D01*
X105973000Y-97724250D01*
X105974053Y-97702809D01*
X105977203Y-97681574D01*
X105982419Y-97660750D01*
X105989651Y-97640538D01*
X105998830Y-97621132D01*
X106009866Y-97602719D01*
X106022654Y-97585476D01*
X106037070Y-97569570D01*
X106052976Y-97555154D01*
X106070219Y-97542366D01*
X106088632Y-97531330D01*
X106108038Y-97522151D01*
X106128250Y-97514919D01*
X106149074Y-97509703D01*
X106170309Y-97506553D01*
X106191750Y-97505500D01*
X106629250Y-97505500D01*
X106650691Y-97506553D01*
G37*
G36*
X108225691Y-97506553D02*
G01*
X108246926Y-97509703D01*
X108267750Y-97514919D01*
X108287962Y-97522151D01*
X108307368Y-97531330D01*
X108325781Y-97542366D01*
X108343024Y-97555154D01*
X108358930Y-97569570D01*
X108373346Y-97585476D01*
X108386134Y-97602719D01*
X108397170Y-97621132D01*
X108406349Y-97640538D01*
X108413581Y-97660750D01*
X108418797Y-97681574D01*
X108421947Y-97702809D01*
X108423000Y-97724250D01*
X108423000Y-98236750D01*
X108421947Y-98258191D01*
X108418797Y-98279426D01*
X108413581Y-98300250D01*
X108406349Y-98320462D01*
X108397170Y-98339868D01*
X108386134Y-98358281D01*
X108373346Y-98375524D01*
X108358930Y-98391430D01*
X108343024Y-98405846D01*
X108325781Y-98418634D01*
X108307368Y-98429670D01*
X108287962Y-98438849D01*
X108267750Y-98446081D01*
X108246926Y-98451297D01*
X108225691Y-98454447D01*
X108204250Y-98455500D01*
X107766750Y-98455500D01*
X107745309Y-98454447D01*
X107724074Y-98451297D01*
X107703250Y-98446081D01*
X107683038Y-98438849D01*
X107663632Y-98429670D01*
X107645219Y-98418634D01*
X107627976Y-98405846D01*
X107612070Y-98391430D01*
X107597654Y-98375524D01*
X107584866Y-98358281D01*
X107573830Y-98339868D01*
X107564651Y-98320462D01*
X107557419Y-98300250D01*
X107552203Y-98279426D01*
X107549053Y-98258191D01*
X107548000Y-98236750D01*
X107548000Y-97724250D01*
X107549053Y-97702809D01*
X107552203Y-97681574D01*
X107557419Y-97660750D01*
X107564651Y-97640538D01*
X107573830Y-97621132D01*
X107584866Y-97602719D01*
X107597654Y-97585476D01*
X107612070Y-97569570D01*
X107627976Y-97555154D01*
X107645219Y-97542366D01*
X107663632Y-97531330D01*
X107683038Y-97522151D01*
X107703250Y-97514919D01*
X107724074Y-97509703D01*
X107745309Y-97506553D01*
X107766750Y-97505500D01*
X108204250Y-97505500D01*
X108225691Y-97506553D01*
G37*
G36*
X107940691Y-93872553D02*
G01*
X107961926Y-93875703D01*
X107982750Y-93880919D01*
X108002962Y-93888151D01*
X108022368Y-93897330D01*
X108040781Y-93908366D01*
X108058024Y-93921154D01*
X108073930Y-93935570D01*
X108088346Y-93951476D01*
X108101134Y-93968719D01*
X108112170Y-93987132D01*
X108121349Y-94006538D01*
X108128581Y-94026750D01*
X108133797Y-94047574D01*
X108136947Y-94068809D01*
X108138000Y-94090250D01*
X108138000Y-94602750D01*
X108136947Y-94624191D01*
X108133797Y-94645426D01*
X108128581Y-94666250D01*
X108121349Y-94686462D01*
X108112170Y-94705868D01*
X108101134Y-94724281D01*
X108088346Y-94741524D01*
X108073930Y-94757430D01*
X108058024Y-94771846D01*
X108040781Y-94784634D01*
X108022368Y-94795670D01*
X108002962Y-94804849D01*
X107982750Y-94812081D01*
X107961926Y-94817297D01*
X107940691Y-94820447D01*
X107919250Y-94821500D01*
X107481750Y-94821500D01*
X107460309Y-94820447D01*
X107439074Y-94817297D01*
X107418250Y-94812081D01*
X107398038Y-94804849D01*
X107378632Y-94795670D01*
X107360219Y-94784634D01*
X107342976Y-94771846D01*
X107327070Y-94757430D01*
X107312654Y-94741524D01*
X107299866Y-94724281D01*
X107288830Y-94705868D01*
X107279651Y-94686462D01*
X107272419Y-94666250D01*
X107267203Y-94645426D01*
X107264053Y-94624191D01*
X107263000Y-94602750D01*
X107263000Y-94090250D01*
X107264053Y-94068809D01*
X107267203Y-94047574D01*
X107272419Y-94026750D01*
X107279651Y-94006538D01*
X107288830Y-93987132D01*
X107299866Y-93968719D01*
X107312654Y-93951476D01*
X107327070Y-93935570D01*
X107342976Y-93921154D01*
X107360219Y-93908366D01*
X107378632Y-93897330D01*
X107398038Y-93888151D01*
X107418250Y-93880919D01*
X107439074Y-93875703D01*
X107460309Y-93872553D01*
X107481750Y-93871500D01*
X107919250Y-93871500D01*
X107940691Y-93872553D01*
G37*
G36*
X109515691Y-93872553D02*
G01*
X109536926Y-93875703D01*
X109557750Y-93880919D01*
X109577962Y-93888151D01*
X109597368Y-93897330D01*
X109615781Y-93908366D01*
X109633024Y-93921154D01*
X109648930Y-93935570D01*
X109663346Y-93951476D01*
X109676134Y-93968719D01*
X109687170Y-93987132D01*
X109696349Y-94006538D01*
X109703581Y-94026750D01*
X109708797Y-94047574D01*
X109711947Y-94068809D01*
X109713000Y-94090250D01*
X109713000Y-94602750D01*
X109711947Y-94624191D01*
X109708797Y-94645426D01*
X109703581Y-94666250D01*
X109696349Y-94686462D01*
X109687170Y-94705868D01*
X109676134Y-94724281D01*
X109663346Y-94741524D01*
X109648930Y-94757430D01*
X109633024Y-94771846D01*
X109615781Y-94784634D01*
X109597368Y-94795670D01*
X109577962Y-94804849D01*
X109557750Y-94812081D01*
X109536926Y-94817297D01*
X109515691Y-94820447D01*
X109494250Y-94821500D01*
X109056750Y-94821500D01*
X109035309Y-94820447D01*
X109014074Y-94817297D01*
X108993250Y-94812081D01*
X108973038Y-94804849D01*
X108953632Y-94795670D01*
X108935219Y-94784634D01*
X108917976Y-94771846D01*
X108902070Y-94757430D01*
X108887654Y-94741524D01*
X108874866Y-94724281D01*
X108863830Y-94705868D01*
X108854651Y-94686462D01*
X108847419Y-94666250D01*
X108842203Y-94645426D01*
X108839053Y-94624191D01*
X108838000Y-94602750D01*
X108838000Y-94090250D01*
X108839053Y-94068809D01*
X108842203Y-94047574D01*
X108847419Y-94026750D01*
X108854651Y-94006538D01*
X108863830Y-93987132D01*
X108874866Y-93968719D01*
X108887654Y-93951476D01*
X108902070Y-93935570D01*
X108917976Y-93921154D01*
X108935219Y-93908366D01*
X108953632Y-93897330D01*
X108973038Y-93888151D01*
X108993250Y-93880919D01*
X109014074Y-93875703D01*
X109035309Y-93872553D01*
X109056750Y-93871500D01*
X109494250Y-93871500D01*
X109515691Y-93872553D01*
G37*
G36*
X92172191Y-95728553D02*
G01*
X92193426Y-95731703D01*
X92214250Y-95736919D01*
X92234462Y-95744151D01*
X92253868Y-95753330D01*
X92272281Y-95764366D01*
X92289524Y-95777154D01*
X92305430Y-95791570D01*
X92319846Y-95807476D01*
X92332634Y-95824719D01*
X92343670Y-95843132D01*
X92352849Y-95862538D01*
X92360081Y-95882750D01*
X92365297Y-95903574D01*
X92368447Y-95924809D01*
X92369500Y-95946250D01*
X92369500Y-96458750D01*
X92368447Y-96480191D01*
X92365297Y-96501426D01*
X92360081Y-96522250D01*
X92352849Y-96542462D01*
X92343670Y-96561868D01*
X92332634Y-96580281D01*
X92319846Y-96597524D01*
X92305430Y-96613430D01*
X92289524Y-96627846D01*
X92272281Y-96640634D01*
X92253868Y-96651670D01*
X92234462Y-96660849D01*
X92214250Y-96668081D01*
X92193426Y-96673297D01*
X92172191Y-96676447D01*
X92150750Y-96677500D01*
X91713250Y-96677500D01*
X91691809Y-96676447D01*
X91670574Y-96673297D01*
X91649750Y-96668081D01*
X91629538Y-96660849D01*
X91610132Y-96651670D01*
X91591719Y-96640634D01*
X91574476Y-96627846D01*
X91558570Y-96613430D01*
X91544154Y-96597524D01*
X91531366Y-96580281D01*
X91520330Y-96561868D01*
X91511151Y-96542462D01*
X91503919Y-96522250D01*
X91498703Y-96501426D01*
X91495553Y-96480191D01*
X91494500Y-96458750D01*
X91494500Y-95946250D01*
X91495553Y-95924809D01*
X91498703Y-95903574D01*
X91503919Y-95882750D01*
X91511151Y-95862538D01*
X91520330Y-95843132D01*
X91531366Y-95824719D01*
X91544154Y-95807476D01*
X91558570Y-95791570D01*
X91574476Y-95777154D01*
X91591719Y-95764366D01*
X91610132Y-95753330D01*
X91629538Y-95744151D01*
X91649750Y-95736919D01*
X91670574Y-95731703D01*
X91691809Y-95728553D01*
X91713250Y-95727500D01*
X92150750Y-95727500D01*
X92172191Y-95728553D01*
G37*
G36*
X90597191Y-95728553D02*
G01*
X90618426Y-95731703D01*
X90639250Y-95736919D01*
X90659462Y-95744151D01*
X90678868Y-95753330D01*
X90697281Y-95764366D01*
X90714524Y-95777154D01*
X90730430Y-95791570D01*
X90744846Y-95807476D01*
X90757634Y-95824719D01*
X90768670Y-95843132D01*
X90777849Y-95862538D01*
X90785081Y-95882750D01*
X90790297Y-95903574D01*
X90793447Y-95924809D01*
X90794500Y-95946250D01*
X90794500Y-96458750D01*
X90793447Y-96480191D01*
X90790297Y-96501426D01*
X90785081Y-96522250D01*
X90777849Y-96542462D01*
X90768670Y-96561868D01*
X90757634Y-96580281D01*
X90744846Y-96597524D01*
X90730430Y-96613430D01*
X90714524Y-96627846D01*
X90697281Y-96640634D01*
X90678868Y-96651670D01*
X90659462Y-96660849D01*
X90639250Y-96668081D01*
X90618426Y-96673297D01*
X90597191Y-96676447D01*
X90575750Y-96677500D01*
X90138250Y-96677500D01*
X90116809Y-96676447D01*
X90095574Y-96673297D01*
X90074750Y-96668081D01*
X90054538Y-96660849D01*
X90035132Y-96651670D01*
X90016719Y-96640634D01*
X89999476Y-96627846D01*
X89983570Y-96613430D01*
X89969154Y-96597524D01*
X89956366Y-96580281D01*
X89945330Y-96561868D01*
X89936151Y-96542462D01*
X89928919Y-96522250D01*
X89923703Y-96501426D01*
X89920553Y-96480191D01*
X89919500Y-96458750D01*
X89919500Y-95946250D01*
X89920553Y-95924809D01*
X89923703Y-95903574D01*
X89928919Y-95882750D01*
X89936151Y-95862538D01*
X89945330Y-95843132D01*
X89956366Y-95824719D01*
X89969154Y-95807476D01*
X89983570Y-95791570D01*
X89999476Y-95777154D01*
X90016719Y-95764366D01*
X90035132Y-95753330D01*
X90054538Y-95744151D01*
X90074750Y-95736919D01*
X90095574Y-95731703D01*
X90116809Y-95728553D01*
X90138250Y-95727500D01*
X90575750Y-95727500D01*
X90597191Y-95728553D01*
G37*
G36*
X92172191Y-94077553D02*
G01*
X92193426Y-94080703D01*
X92214250Y-94085919D01*
X92234462Y-94093151D01*
X92253868Y-94102330D01*
X92272281Y-94113366D01*
X92289524Y-94126154D01*
X92305430Y-94140570D01*
X92319846Y-94156476D01*
X92332634Y-94173719D01*
X92343670Y-94192132D01*
X92352849Y-94211538D01*
X92360081Y-94231750D01*
X92365297Y-94252574D01*
X92368447Y-94273809D01*
X92369500Y-94295250D01*
X92369500Y-94807750D01*
X92368447Y-94829191D01*
X92365297Y-94850426D01*
X92360081Y-94871250D01*
X92352849Y-94891462D01*
X92343670Y-94910868D01*
X92332634Y-94929281D01*
X92319846Y-94946524D01*
X92305430Y-94962430D01*
X92289524Y-94976846D01*
X92272281Y-94989634D01*
X92253868Y-95000670D01*
X92234462Y-95009849D01*
X92214250Y-95017081D01*
X92193426Y-95022297D01*
X92172191Y-95025447D01*
X92150750Y-95026500D01*
X91713250Y-95026500D01*
X91691809Y-95025447D01*
X91670574Y-95022297D01*
X91649750Y-95017081D01*
X91629538Y-95009849D01*
X91610132Y-95000670D01*
X91591719Y-94989634D01*
X91574476Y-94976846D01*
X91558570Y-94962430D01*
X91544154Y-94946524D01*
X91531366Y-94929281D01*
X91520330Y-94910868D01*
X91511151Y-94891462D01*
X91503919Y-94871250D01*
X91498703Y-94850426D01*
X91495553Y-94829191D01*
X91494500Y-94807750D01*
X91494500Y-94295250D01*
X91495553Y-94273809D01*
X91498703Y-94252574D01*
X91503919Y-94231750D01*
X91511151Y-94211538D01*
X91520330Y-94192132D01*
X91531366Y-94173719D01*
X91544154Y-94156476D01*
X91558570Y-94140570D01*
X91574476Y-94126154D01*
X91591719Y-94113366D01*
X91610132Y-94102330D01*
X91629538Y-94093151D01*
X91649750Y-94085919D01*
X91670574Y-94080703D01*
X91691809Y-94077553D01*
X91713250Y-94076500D01*
X92150750Y-94076500D01*
X92172191Y-94077553D01*
G37*
G36*
X90597191Y-94077553D02*
G01*
X90618426Y-94080703D01*
X90639250Y-94085919D01*
X90659462Y-94093151D01*
X90678868Y-94102330D01*
X90697281Y-94113366D01*
X90714524Y-94126154D01*
X90730430Y-94140570D01*
X90744846Y-94156476D01*
X90757634Y-94173719D01*
X90768670Y-94192132D01*
X90777849Y-94211538D01*
X90785081Y-94231750D01*
X90790297Y-94252574D01*
X90793447Y-94273809D01*
X90794500Y-94295250D01*
X90794500Y-94807750D01*
X90793447Y-94829191D01*
X90790297Y-94850426D01*
X90785081Y-94871250D01*
X90777849Y-94891462D01*
X90768670Y-94910868D01*
X90757634Y-94929281D01*
X90744846Y-94946524D01*
X90730430Y-94962430D01*
X90714524Y-94976846D01*
X90697281Y-94989634D01*
X90678868Y-95000670D01*
X90659462Y-95009849D01*
X90639250Y-95017081D01*
X90618426Y-95022297D01*
X90597191Y-95025447D01*
X90575750Y-95026500D01*
X90138250Y-95026500D01*
X90116809Y-95025447D01*
X90095574Y-95022297D01*
X90074750Y-95017081D01*
X90054538Y-95009849D01*
X90035132Y-95000670D01*
X90016719Y-94989634D01*
X89999476Y-94976846D01*
X89983570Y-94962430D01*
X89969154Y-94946524D01*
X89956366Y-94929281D01*
X89945330Y-94910868D01*
X89936151Y-94891462D01*
X89928919Y-94871250D01*
X89923703Y-94850426D01*
X89920553Y-94829191D01*
X89919500Y-94807750D01*
X89919500Y-94295250D01*
X89920553Y-94273809D01*
X89923703Y-94252574D01*
X89928919Y-94231750D01*
X89936151Y-94211538D01*
X89945330Y-94192132D01*
X89956366Y-94173719D01*
X89969154Y-94156476D01*
X89983570Y-94140570D01*
X89999476Y-94126154D01*
X90016719Y-94113366D01*
X90035132Y-94102330D01*
X90054538Y-94093151D01*
X90074750Y-94085919D01*
X90095574Y-94080703D01*
X90116809Y-94077553D01*
X90138250Y-94076500D01*
X90575750Y-94076500D01*
X90597191Y-94077553D01*
G37*
D15*
X103203000Y-109118000D03*
X99203000Y-110718000D03*
X103203000Y-110718000D03*
X99203000Y-109118000D03*
D16*
X92118000Y-108651000D03*
X92118000Y-109601000D03*
X92118000Y-110551000D03*
X94318000Y-110551000D03*
X94318000Y-108651000D03*
D17*
X102552120Y-93789500D03*
X104949880Y-93789500D03*
D18*
X93513000Y-101288000D03*
X92713000Y-101288000D03*
X91913000Y-101288000D03*
X91113000Y-101288000D03*
X91113000Y-105088000D03*
X91913000Y-105088000D03*
X92713000Y-105088000D03*
X93513000Y-105088000D03*
D19*
X92313000Y-103188000D03*
D14*
G36*
X107940691Y-90526053D02*
G01*
X107961926Y-90529203D01*
X107982750Y-90534419D01*
X108002962Y-90541651D01*
X108022368Y-90550830D01*
X108040781Y-90561866D01*
X108058024Y-90574654D01*
X108073930Y-90589070D01*
X108088346Y-90604976D01*
X108101134Y-90622219D01*
X108112170Y-90640632D01*
X108121349Y-90660038D01*
X108128581Y-90680250D01*
X108133797Y-90701074D01*
X108136947Y-90722309D01*
X108138000Y-90743750D01*
X108138000Y-91256250D01*
X108136947Y-91277691D01*
X108133797Y-91298926D01*
X108128581Y-91319750D01*
X108121349Y-91339962D01*
X108112170Y-91359368D01*
X108101134Y-91377781D01*
X108088346Y-91395024D01*
X108073930Y-91410930D01*
X108058024Y-91425346D01*
X108040781Y-91438134D01*
X108022368Y-91449170D01*
X108002962Y-91458349D01*
X107982750Y-91465581D01*
X107961926Y-91470797D01*
X107940691Y-91473947D01*
X107919250Y-91475000D01*
X107481750Y-91475000D01*
X107460309Y-91473947D01*
X107439074Y-91470797D01*
X107418250Y-91465581D01*
X107398038Y-91458349D01*
X107378632Y-91449170D01*
X107360219Y-91438134D01*
X107342976Y-91425346D01*
X107327070Y-91410930D01*
X107312654Y-91395024D01*
X107299866Y-91377781D01*
X107288830Y-91359368D01*
X107279651Y-91339962D01*
X107272419Y-91319750D01*
X107267203Y-91298926D01*
X107264053Y-91277691D01*
X107263000Y-91256250D01*
X107263000Y-90743750D01*
X107264053Y-90722309D01*
X107267203Y-90701074D01*
X107272419Y-90680250D01*
X107279651Y-90660038D01*
X107288830Y-90640632D01*
X107299866Y-90622219D01*
X107312654Y-90604976D01*
X107327070Y-90589070D01*
X107342976Y-90574654D01*
X107360219Y-90561866D01*
X107378632Y-90550830D01*
X107398038Y-90541651D01*
X107418250Y-90534419D01*
X107439074Y-90529203D01*
X107460309Y-90526053D01*
X107481750Y-90525000D01*
X107919250Y-90525000D01*
X107940691Y-90526053D01*
G37*
G36*
X109515691Y-90526053D02*
G01*
X109536926Y-90529203D01*
X109557750Y-90534419D01*
X109577962Y-90541651D01*
X109597368Y-90550830D01*
X109615781Y-90561866D01*
X109633024Y-90574654D01*
X109648930Y-90589070D01*
X109663346Y-90604976D01*
X109676134Y-90622219D01*
X109687170Y-90640632D01*
X109696349Y-90660038D01*
X109703581Y-90680250D01*
X109708797Y-90701074D01*
X109711947Y-90722309D01*
X109713000Y-90743750D01*
X109713000Y-91256250D01*
X109711947Y-91277691D01*
X109708797Y-91298926D01*
X109703581Y-91319750D01*
X109696349Y-91339962D01*
X109687170Y-91359368D01*
X109676134Y-91377781D01*
X109663346Y-91395024D01*
X109648930Y-91410930D01*
X109633024Y-91425346D01*
X109615781Y-91438134D01*
X109597368Y-91449170D01*
X109577962Y-91458349D01*
X109557750Y-91465581D01*
X109536926Y-91470797D01*
X109515691Y-91473947D01*
X109494250Y-91475000D01*
X109056750Y-91475000D01*
X109035309Y-91473947D01*
X109014074Y-91470797D01*
X108993250Y-91465581D01*
X108973038Y-91458349D01*
X108953632Y-91449170D01*
X108935219Y-91438134D01*
X108917976Y-91425346D01*
X108902070Y-91410930D01*
X108887654Y-91395024D01*
X108874866Y-91377781D01*
X108863830Y-91359368D01*
X108854651Y-91339962D01*
X108847419Y-91319750D01*
X108842203Y-91298926D01*
X108839053Y-91277691D01*
X108838000Y-91256250D01*
X108838000Y-90743750D01*
X108839053Y-90722309D01*
X108842203Y-90701074D01*
X108847419Y-90680250D01*
X108854651Y-90660038D01*
X108863830Y-90640632D01*
X108874866Y-90622219D01*
X108887654Y-90604976D01*
X108902070Y-90589070D01*
X108917976Y-90574654D01*
X108935219Y-90561866D01*
X108953632Y-90550830D01*
X108973038Y-90541651D01*
X108993250Y-90534419D01*
X109014074Y-90529203D01*
X109035309Y-90526053D01*
X109056750Y-90525000D01*
X109494250Y-90525000D01*
X109515691Y-90526053D01*
G37*
G36*
X107952691Y-110226053D02*
G01*
X107973926Y-110229203D01*
X107994750Y-110234419D01*
X108014962Y-110241651D01*
X108034368Y-110250830D01*
X108052781Y-110261866D01*
X108070024Y-110274654D01*
X108085930Y-110289070D01*
X108100346Y-110304976D01*
X108113134Y-110322219D01*
X108124170Y-110340632D01*
X108133349Y-110360038D01*
X108140581Y-110380250D01*
X108145797Y-110401074D01*
X108148947Y-110422309D01*
X108150000Y-110443750D01*
X108150000Y-110956250D01*
X108148947Y-110977691D01*
X108145797Y-110998926D01*
X108140581Y-111019750D01*
X108133349Y-111039962D01*
X108124170Y-111059368D01*
X108113134Y-111077781D01*
X108100346Y-111095024D01*
X108085930Y-111110930D01*
X108070024Y-111125346D01*
X108052781Y-111138134D01*
X108034368Y-111149170D01*
X108014962Y-111158349D01*
X107994750Y-111165581D01*
X107973926Y-111170797D01*
X107952691Y-111173947D01*
X107931250Y-111175000D01*
X107493750Y-111175000D01*
X107472309Y-111173947D01*
X107451074Y-111170797D01*
X107430250Y-111165581D01*
X107410038Y-111158349D01*
X107390632Y-111149170D01*
X107372219Y-111138134D01*
X107354976Y-111125346D01*
X107339070Y-111110930D01*
X107324654Y-111095024D01*
X107311866Y-111077781D01*
X107300830Y-111059368D01*
X107291651Y-111039962D01*
X107284419Y-111019750D01*
X107279203Y-110998926D01*
X107276053Y-110977691D01*
X107275000Y-110956250D01*
X107275000Y-110443750D01*
X107276053Y-110422309D01*
X107279203Y-110401074D01*
X107284419Y-110380250D01*
X107291651Y-110360038D01*
X107300830Y-110340632D01*
X107311866Y-110322219D01*
X107324654Y-110304976D01*
X107339070Y-110289070D01*
X107354976Y-110274654D01*
X107372219Y-110261866D01*
X107390632Y-110250830D01*
X107410038Y-110241651D01*
X107430250Y-110234419D01*
X107451074Y-110229203D01*
X107472309Y-110226053D01*
X107493750Y-110225000D01*
X107931250Y-110225000D01*
X107952691Y-110226053D01*
G37*
G36*
X109527691Y-110226053D02*
G01*
X109548926Y-110229203D01*
X109569750Y-110234419D01*
X109589962Y-110241651D01*
X109609368Y-110250830D01*
X109627781Y-110261866D01*
X109645024Y-110274654D01*
X109660930Y-110289070D01*
X109675346Y-110304976D01*
X109688134Y-110322219D01*
X109699170Y-110340632D01*
X109708349Y-110360038D01*
X109715581Y-110380250D01*
X109720797Y-110401074D01*
X109723947Y-110422309D01*
X109725000Y-110443750D01*
X109725000Y-110956250D01*
X109723947Y-110977691D01*
X109720797Y-110998926D01*
X109715581Y-111019750D01*
X109708349Y-111039962D01*
X109699170Y-111059368D01*
X109688134Y-111077781D01*
X109675346Y-111095024D01*
X109660930Y-111110930D01*
X109645024Y-111125346D01*
X109627781Y-111138134D01*
X109609368Y-111149170D01*
X109589962Y-111158349D01*
X109569750Y-111165581D01*
X109548926Y-111170797D01*
X109527691Y-111173947D01*
X109506250Y-111175000D01*
X109068750Y-111175000D01*
X109047309Y-111173947D01*
X109026074Y-111170797D01*
X109005250Y-111165581D01*
X108985038Y-111158349D01*
X108965632Y-111149170D01*
X108947219Y-111138134D01*
X108929976Y-111125346D01*
X108914070Y-111110930D01*
X108899654Y-111095024D01*
X108886866Y-111077781D01*
X108875830Y-111059368D01*
X108866651Y-111039962D01*
X108859419Y-111019750D01*
X108854203Y-110998926D01*
X108851053Y-110977691D01*
X108850000Y-110956250D01*
X108850000Y-110443750D01*
X108851053Y-110422309D01*
X108854203Y-110401074D01*
X108859419Y-110380250D01*
X108866651Y-110360038D01*
X108875830Y-110340632D01*
X108886866Y-110322219D01*
X108899654Y-110304976D01*
X108914070Y-110289070D01*
X108929976Y-110274654D01*
X108947219Y-110261866D01*
X108965632Y-110250830D01*
X108985038Y-110241651D01*
X109005250Y-110234419D01*
X109026074Y-110229203D01*
X109047309Y-110226053D01*
X109068750Y-110225000D01*
X109506250Y-110225000D01*
X109527691Y-110226053D01*
G37*
M02*
