M48
; DRILL file {KiCad (5.1.5-0-10_14)} date Saturday, December 28, 2019 at 03:12:37 PM
; FORMAT={-:-/ absolute / inch / decimal}
; #@! TF.CreationDate,2019-12-28T15:12:37-06:00
; #@! TF.GenerationSoftware,Kicad,Pcbnew,(5.1.5-0-10_14)
; #@! TF.FileFunction,Plated,1,2,PTH
FMAT,2
INCH
T1C0.0100
T2C0.0394
%
G90
G05
T1
X3.553Y-3.8759
X3.5781Y-4.2001
X3.5782Y-3.8875
X3.5932Y-3.6946
X3.6072Y-4.1744
X3.6705Y-3.8201
X3.7064Y-3.9416
X3.7068Y-4.1532
X3.7096Y-3.989
X3.71Y-4.0881
X3.7103Y-4.1142
X3.7108Y-4.0434
X3.7235Y-4.0186
X3.7238Y-3.9615
X3.7292Y-3.8946
X3.7405Y-4.0604
X3.7441Y-3.8209
X3.8048Y-3.9601
X3.8062Y-3.9302
X3.8074Y-4.0895
X3.8101Y-3.841
X3.836Y-4.1777
X3.857Y-4.1609
X3.8604Y-4.2446
X3.8914Y-3.81
X3.8951Y-4.1645
X3.9015Y-3.7358
X3.9077Y-4.2557
X3.9302Y-3.7437
X3.9356Y-4.185
X3.9585Y-4.2419
X3.9718Y-4.166
X3.9772Y-3.7038
X3.9916Y-3.8082
X3.999Y-3.7262
X4.0039Y-4.3131
X4.0334Y-4.1696
X4.0578Y-3.8047
X4.0633Y-4.1696
X4.0693Y-4.0952
X4.0885Y-3.8073
X4.0938Y-3.8997
X4.0945Y-3.9354
X4.0947Y-3.9988
X4.0952Y-3.8652
X4.1553Y-3.9147
X4.1615Y-4.038
X4.2137Y-4.163
X4.2894Y-4.2736
X4.3425Y-4.3484
T2
X3.3524Y-3.5315
X3.3524Y-3.6102
X3.3524Y-3.689
X3.3524Y-3.7677
X3.3524Y-3.8465
X3.3524Y-3.9252
X3.3524Y-4.0039
X3.3524Y-4.0827
X3.3524Y-4.1614
X3.3524Y-4.2402
X3.3524Y-4.3189
X3.3524Y-4.3976
X3.4114Y-3.5315
X3.4114Y-3.6102
X3.4114Y-3.689
X3.4114Y-3.7677
X3.4114Y-3.8465
X3.4114Y-3.9252
X3.4114Y-4.0039
X3.4114Y-4.0827
X3.4114Y-4.1614
X3.4114Y-4.2402
X3.4114Y-4.3189
X3.4114Y-4.3976
X3.4902Y-3.4035
X3.4902Y-3.4626
X3.4902Y-4.4862
X3.4902Y-4.5453
X3.5689Y-3.4035
X3.5689Y-3.4626
X3.5689Y-4.4862
X3.5689Y-4.5453
X3.6476Y-3.4035
X3.6476Y-3.4626
X3.6476Y-4.4862
X3.6476Y-4.5453
X3.7264Y-3.4035
X3.7264Y-3.4626
X3.7264Y-4.4862
X3.7264Y-4.5453
X3.8051Y-3.4035
X3.8051Y-3.4626
X3.8051Y-4.4862
X3.8051Y-4.5453
X3.8839Y-3.4035
X3.8839Y-3.4626
X3.8839Y-4.4862
X3.8839Y-4.5453
X3.9626Y-3.4035
X3.9626Y-3.4626
X3.9626Y-4.4862
X3.9626Y-4.5453
X4.0413Y-3.4035
X4.0413Y-3.4626
X4.0413Y-4.4862
X4.0413Y-4.5453
X4.1201Y-3.4035
X4.1201Y-3.4626
X4.1201Y-4.4862
X4.1201Y-4.5453
X4.1988Y-3.4035
X4.1988Y-3.4626
X4.1988Y-4.4862
X4.1988Y-4.5453
X4.2776Y-3.4035
X4.2776Y-3.4626
X4.2776Y-4.4862
X4.2776Y-4.5453
X4.3563Y-3.4035
X4.3563Y-3.4626
X4.3563Y-4.4862
X4.3563Y-4.5453
X4.435Y-3.5315
X4.435Y-3.6102
X4.435Y-3.689
X4.435Y-3.7677
X4.435Y-3.8465
X4.435Y-3.9252
X4.435Y-4.0039
X4.435Y-4.0827
X4.435Y-4.1614
X4.435Y-4.2402
X4.435Y-4.3189
X4.435Y-4.3976
X4.4941Y-3.5315
X4.4941Y-3.6102
X4.4941Y-3.689
X4.4941Y-3.7677
X4.4941Y-3.8465
X4.4941Y-3.9252
X4.4941Y-4.0039
X4.4941Y-4.0827
X4.4941Y-4.1614
X4.4941Y-4.2402
X4.4941Y-4.3189
X4.4941Y-4.3976
T0
M30
