G04 #@! TF.GenerationSoftware,KiCad,Pcbnew,(5.1.5-0-10_14)*
G04 #@! TF.CreationDate,2019-12-28T15:12:34-06:00*
G04 #@! TF.ProjectId,CircuitBrains Deluxe v1_3,43697263-7569-4744-9272-61696e732044,rev?*
G04 #@! TF.SameCoordinates,Original*
G04 #@! TF.FileFunction,Soldermask,Top*
G04 #@! TF.FilePolarity,Negative*
%FSLAX46Y46*%
G04 Gerber Fmt 4.6, Leading zero omitted, Abs format (unit mm)*
G04 Created by KiCad (PCBNEW (5.1.5-0-10_14)) date 2019-12-28 15:12:34*
%MOMM*%
%LPD*%
G04 APERTURE LIST*
%ADD10C,0.100000*%
G04 APERTURE END LIST*
D10*
G36*
X111450800Y-116250800D02*
G01*
X109849200Y-116250800D01*
X109849200Y-113149200D01*
X111450800Y-113149200D01*
X111450800Y-116250800D01*
G37*
G36*
X109450800Y-116250800D02*
G01*
X107849200Y-116250800D01*
X107849200Y-113149200D01*
X109450800Y-113149200D01*
X109450800Y-116250800D01*
G37*
G36*
X107450800Y-116250800D02*
G01*
X105849200Y-116250800D01*
X105849200Y-113149200D01*
X107450800Y-113149200D01*
X107450800Y-116250800D01*
G37*
G36*
X105450800Y-116250800D02*
G01*
X103849200Y-116250800D01*
X103849200Y-113149200D01*
X105450800Y-113149200D01*
X105450800Y-116250800D01*
G37*
G36*
X103450800Y-116250800D02*
G01*
X101849200Y-116250800D01*
X101849200Y-113149200D01*
X103450800Y-113149200D01*
X103450800Y-116250800D01*
G37*
G36*
X101450800Y-116250800D02*
G01*
X99849200Y-116250800D01*
X99849200Y-113149200D01*
X101450800Y-113149200D01*
X101450800Y-116250800D01*
G37*
G36*
X99450800Y-116250800D02*
G01*
X97849200Y-116250800D01*
X97849200Y-113149200D01*
X99450800Y-113149200D01*
X99450800Y-116250800D01*
G37*
G36*
X97450800Y-116250800D02*
G01*
X95849200Y-116250800D01*
X95849200Y-113149200D01*
X97450800Y-113149200D01*
X97450800Y-116250800D01*
G37*
G36*
X95450800Y-116250800D02*
G01*
X93849200Y-116250800D01*
X93849200Y-113149200D01*
X95450800Y-113149200D01*
X95450800Y-116250800D01*
G37*
G36*
X93450800Y-116250800D02*
G01*
X91849200Y-116250800D01*
X91849200Y-113149200D01*
X93450800Y-113149200D01*
X93450800Y-116250800D01*
G37*
G36*
X91450800Y-116250800D02*
G01*
X89849200Y-116250800D01*
X89849200Y-113149200D01*
X91450800Y-113149200D01*
X91450800Y-116250800D01*
G37*
G36*
X89450800Y-116250800D02*
G01*
X87849200Y-116250800D01*
X87849200Y-113149200D01*
X89450800Y-113149200D01*
X89450800Y-116250800D01*
G37*
G36*
X87450800Y-112500800D02*
G01*
X84349200Y-112500800D01*
X84349200Y-110899200D01*
X87450800Y-110899200D01*
X87450800Y-112500800D01*
G37*
G36*
X114950800Y-112500800D02*
G01*
X111849200Y-112500800D01*
X111849200Y-110899200D01*
X114950800Y-110899200D01*
X114950800Y-112500800D01*
G37*
G36*
X99753800Y-111268800D02*
G01*
X98652200Y-111268800D01*
X98652200Y-110167200D01*
X99753800Y-110167200D01*
X99753800Y-111268800D01*
G37*
G36*
X103753800Y-111268800D02*
G01*
X102652200Y-111268800D01*
X102652200Y-110167200D01*
X103753800Y-110167200D01*
X103753800Y-111268800D01*
G37*
G36*
X109599561Y-110178646D02*
G01*
X109640574Y-110191088D01*
X109678380Y-110211295D01*
X109711513Y-110238487D01*
X109738705Y-110271620D01*
X109758912Y-110309426D01*
X109771354Y-110350439D01*
X109775800Y-110395582D01*
X109775800Y-111004418D01*
X109771354Y-111049561D01*
X109758912Y-111090574D01*
X109738705Y-111128380D01*
X109711513Y-111161513D01*
X109678380Y-111188705D01*
X109640574Y-111208912D01*
X109599561Y-111221354D01*
X109554418Y-111225800D01*
X109020582Y-111225800D01*
X108975439Y-111221354D01*
X108934426Y-111208912D01*
X108896620Y-111188705D01*
X108863487Y-111161513D01*
X108836295Y-111128380D01*
X108816088Y-111090574D01*
X108803646Y-111049561D01*
X108799200Y-111004418D01*
X108799200Y-110395582D01*
X108803646Y-110350439D01*
X108816088Y-110309426D01*
X108836295Y-110271620D01*
X108863487Y-110238487D01*
X108896620Y-110211295D01*
X108934426Y-110191088D01*
X108975439Y-110178646D01*
X109020582Y-110174200D01*
X109554418Y-110174200D01*
X109599561Y-110178646D01*
G37*
G36*
X108024561Y-110178646D02*
G01*
X108065574Y-110191088D01*
X108103380Y-110211295D01*
X108136513Y-110238487D01*
X108163705Y-110271620D01*
X108183912Y-110309426D01*
X108196354Y-110350439D01*
X108200800Y-110395582D01*
X108200800Y-111004418D01*
X108196354Y-111049561D01*
X108183912Y-111090574D01*
X108163705Y-111128380D01*
X108136513Y-111161513D01*
X108103380Y-111188705D01*
X108065574Y-111208912D01*
X108024561Y-111221354D01*
X107979418Y-111225800D01*
X107445582Y-111225800D01*
X107400439Y-111221354D01*
X107359426Y-111208912D01*
X107321620Y-111188705D01*
X107288487Y-111161513D01*
X107261295Y-111128380D01*
X107241088Y-111090574D01*
X107228646Y-111049561D01*
X107224200Y-111004418D01*
X107224200Y-110395582D01*
X107228646Y-110350439D01*
X107241088Y-110309426D01*
X107261295Y-110271620D01*
X107288487Y-110238487D01*
X107321620Y-110211295D01*
X107359426Y-110191088D01*
X107400439Y-110178646D01*
X107445582Y-110174200D01*
X107979418Y-110174200D01*
X108024561Y-110178646D01*
G37*
G36*
X96345561Y-110120646D02*
G01*
X96386574Y-110133088D01*
X96424380Y-110153295D01*
X96457513Y-110180487D01*
X96484705Y-110213620D01*
X96504912Y-110251426D01*
X96517354Y-110292439D01*
X96521800Y-110337582D01*
X96521800Y-110871418D01*
X96517354Y-110916561D01*
X96504912Y-110957574D01*
X96484705Y-110995380D01*
X96457513Y-111028513D01*
X96424380Y-111055705D01*
X96386574Y-111075912D01*
X96345561Y-111088354D01*
X96300418Y-111092800D01*
X95691582Y-111092800D01*
X95646439Y-111088354D01*
X95605426Y-111075912D01*
X95567620Y-111055705D01*
X95534487Y-111028513D01*
X95507295Y-110995380D01*
X95487088Y-110957574D01*
X95474646Y-110916561D01*
X95470200Y-110871418D01*
X95470200Y-110337582D01*
X95474646Y-110292439D01*
X95487088Y-110251426D01*
X95507295Y-110213620D01*
X95534487Y-110180487D01*
X95567620Y-110153295D01*
X95605426Y-110133088D01*
X95646439Y-110120646D01*
X95691582Y-110116200D01*
X96300418Y-110116200D01*
X96345561Y-110120646D01*
G37*
G36*
X90757561Y-110069646D02*
G01*
X90798574Y-110082088D01*
X90836380Y-110102295D01*
X90869513Y-110129487D01*
X90896705Y-110162620D01*
X90916912Y-110200426D01*
X90929354Y-110241439D01*
X90933800Y-110286582D01*
X90933800Y-110820418D01*
X90929354Y-110865561D01*
X90916912Y-110906574D01*
X90896705Y-110944380D01*
X90869513Y-110977513D01*
X90836380Y-111004705D01*
X90798574Y-111024912D01*
X90757561Y-111037354D01*
X90712418Y-111041800D01*
X90103582Y-111041800D01*
X90058439Y-111037354D01*
X90017426Y-111024912D01*
X89979620Y-111004705D01*
X89946487Y-110977513D01*
X89919295Y-110944380D01*
X89899088Y-110906574D01*
X89886646Y-110865561D01*
X89882200Y-110820418D01*
X89882200Y-110286582D01*
X89886646Y-110241439D01*
X89899088Y-110200426D01*
X89919295Y-110162620D01*
X89946487Y-110129487D01*
X89979620Y-110102295D01*
X90017426Y-110082088D01*
X90058439Y-110069646D01*
X90103582Y-110065200D01*
X90712418Y-110065200D01*
X90757561Y-110069646D01*
G37*
G36*
X92698800Y-110926800D02*
G01*
X91537200Y-110926800D01*
X91537200Y-110175200D01*
X92698800Y-110175200D01*
X92698800Y-110926800D01*
G37*
G36*
X94898800Y-110926800D02*
G01*
X93737200Y-110926800D01*
X93737200Y-110175200D01*
X94898800Y-110175200D01*
X94898800Y-110926800D01*
G37*
G36*
X114950800Y-110500800D02*
G01*
X111849200Y-110500800D01*
X111849200Y-108899200D01*
X114950800Y-108899200D01*
X114950800Y-110500800D01*
G37*
G36*
X87450800Y-110500800D02*
G01*
X84349200Y-110500800D01*
X84349200Y-108899200D01*
X87450800Y-108899200D01*
X87450800Y-110500800D01*
G37*
G36*
X92698800Y-109976800D02*
G01*
X91537200Y-109976800D01*
X91537200Y-109225200D01*
X92698800Y-109225200D01*
X92698800Y-109976800D01*
G37*
G36*
X103753800Y-109668800D02*
G01*
X102652200Y-109668800D01*
X102652200Y-108567200D01*
X103753800Y-108567200D01*
X103753800Y-109668800D01*
G37*
G36*
X99753800Y-109668800D02*
G01*
X98652200Y-109668800D01*
X98652200Y-108567200D01*
X99753800Y-108567200D01*
X99753800Y-109668800D01*
G37*
G36*
X96345561Y-108545646D02*
G01*
X96386574Y-108558088D01*
X96424380Y-108578295D01*
X96457513Y-108605487D01*
X96484705Y-108638620D01*
X96504912Y-108676426D01*
X96517354Y-108717439D01*
X96521800Y-108762582D01*
X96521800Y-109296418D01*
X96517354Y-109341561D01*
X96504912Y-109382574D01*
X96484705Y-109420380D01*
X96457513Y-109453513D01*
X96424380Y-109480705D01*
X96386574Y-109500912D01*
X96345561Y-109513354D01*
X96300418Y-109517800D01*
X95691582Y-109517800D01*
X95646439Y-109513354D01*
X95605426Y-109500912D01*
X95567620Y-109480705D01*
X95534487Y-109453513D01*
X95507295Y-109420380D01*
X95487088Y-109382574D01*
X95474646Y-109341561D01*
X95470200Y-109296418D01*
X95470200Y-108762582D01*
X95474646Y-108717439D01*
X95487088Y-108676426D01*
X95507295Y-108638620D01*
X95534487Y-108605487D01*
X95567620Y-108578295D01*
X95605426Y-108558088D01*
X95646439Y-108545646D01*
X95691582Y-108541200D01*
X96300418Y-108541200D01*
X96345561Y-108545646D01*
G37*
G36*
X90757561Y-108494646D02*
G01*
X90798574Y-108507088D01*
X90836380Y-108527295D01*
X90869513Y-108554487D01*
X90896705Y-108587620D01*
X90916912Y-108625426D01*
X90929354Y-108666439D01*
X90933800Y-108711582D01*
X90933800Y-109245418D01*
X90929354Y-109290561D01*
X90916912Y-109331574D01*
X90896705Y-109369380D01*
X90869513Y-109402513D01*
X90836380Y-109429705D01*
X90798574Y-109449912D01*
X90757561Y-109462354D01*
X90712418Y-109466800D01*
X90103582Y-109466800D01*
X90058439Y-109462354D01*
X90017426Y-109449912D01*
X89979620Y-109429705D01*
X89946487Y-109402513D01*
X89919295Y-109369380D01*
X89899088Y-109331574D01*
X89886646Y-109290561D01*
X89882200Y-109245418D01*
X89882200Y-108711582D01*
X89886646Y-108666439D01*
X89899088Y-108625426D01*
X89919295Y-108587620D01*
X89946487Y-108554487D01*
X89979620Y-108527295D01*
X90017426Y-108507088D01*
X90058439Y-108494646D01*
X90103582Y-108490200D01*
X90712418Y-108490200D01*
X90757561Y-108494646D01*
G37*
G36*
X92698800Y-109026800D02*
G01*
X91537200Y-109026800D01*
X91537200Y-108275200D01*
X92698800Y-108275200D01*
X92698800Y-109026800D01*
G37*
G36*
X94898800Y-109026800D02*
G01*
X93737200Y-109026800D01*
X93737200Y-108275200D01*
X94898800Y-108275200D01*
X94898800Y-109026800D01*
G37*
G36*
X106680561Y-107936646D02*
G01*
X106721574Y-107949088D01*
X106759380Y-107969295D01*
X106792513Y-107996487D01*
X106819705Y-108029620D01*
X106839912Y-108067426D01*
X106852354Y-108108439D01*
X106856800Y-108153582D01*
X106856800Y-108762418D01*
X106852354Y-108807561D01*
X106839912Y-108848574D01*
X106819705Y-108886380D01*
X106792513Y-108919513D01*
X106759380Y-108946705D01*
X106721574Y-108966912D01*
X106680561Y-108979354D01*
X106635418Y-108983800D01*
X106101582Y-108983800D01*
X106056439Y-108979354D01*
X106015426Y-108966912D01*
X105977620Y-108946705D01*
X105944487Y-108919513D01*
X105917295Y-108886380D01*
X105897088Y-108848574D01*
X105884646Y-108807561D01*
X105880200Y-108762418D01*
X105880200Y-108153582D01*
X105884646Y-108108439D01*
X105897088Y-108067426D01*
X105917295Y-108029620D01*
X105944487Y-107996487D01*
X105977620Y-107969295D01*
X106015426Y-107949088D01*
X106056439Y-107936646D01*
X106101582Y-107932200D01*
X106635418Y-107932200D01*
X106680561Y-107936646D01*
G37*
G36*
X108255561Y-107936646D02*
G01*
X108296574Y-107949088D01*
X108334380Y-107969295D01*
X108367513Y-107996487D01*
X108394705Y-108029620D01*
X108414912Y-108067426D01*
X108427354Y-108108439D01*
X108431800Y-108153582D01*
X108431800Y-108762418D01*
X108427354Y-108807561D01*
X108414912Y-108848574D01*
X108394705Y-108886380D01*
X108367513Y-108919513D01*
X108334380Y-108946705D01*
X108296574Y-108966912D01*
X108255561Y-108979354D01*
X108210418Y-108983800D01*
X107676582Y-108983800D01*
X107631439Y-108979354D01*
X107590426Y-108966912D01*
X107552620Y-108946705D01*
X107519487Y-108919513D01*
X107492295Y-108886380D01*
X107472088Y-108848574D01*
X107459646Y-108807561D01*
X107455200Y-108762418D01*
X107455200Y-108153582D01*
X107459646Y-108108439D01*
X107472088Y-108067426D01*
X107492295Y-108029620D01*
X107519487Y-107996487D01*
X107552620Y-107969295D01*
X107590426Y-107949088D01*
X107631439Y-107936646D01*
X107676582Y-107932200D01*
X108210418Y-107932200D01*
X108255561Y-107936646D01*
G37*
G36*
X114950800Y-108500800D02*
G01*
X111849200Y-108500800D01*
X111849200Y-106899200D01*
X114950800Y-106899200D01*
X114950800Y-108500800D01*
G37*
G36*
X87450800Y-108500800D02*
G01*
X84349200Y-108500800D01*
X84349200Y-106899200D01*
X87450800Y-106899200D01*
X87450800Y-108500800D01*
G37*
G36*
X104111561Y-106578646D02*
G01*
X104152574Y-106591088D01*
X104190380Y-106611295D01*
X104223513Y-106638487D01*
X104250705Y-106671620D01*
X104270912Y-106709426D01*
X104283354Y-106750439D01*
X104287800Y-106795582D01*
X104287800Y-107404418D01*
X104283354Y-107449561D01*
X104270912Y-107490574D01*
X104250705Y-107528380D01*
X104223513Y-107561513D01*
X104190380Y-107588705D01*
X104152574Y-107608912D01*
X104111561Y-107621354D01*
X104066418Y-107625800D01*
X103532582Y-107625800D01*
X103487439Y-107621354D01*
X103446426Y-107608912D01*
X103408620Y-107588705D01*
X103375487Y-107561513D01*
X103348295Y-107528380D01*
X103328088Y-107490574D01*
X103315646Y-107449561D01*
X103311200Y-107404418D01*
X103311200Y-106795582D01*
X103315646Y-106750439D01*
X103328088Y-106709426D01*
X103348295Y-106671620D01*
X103375487Y-106638487D01*
X103408620Y-106611295D01*
X103446426Y-106591088D01*
X103487439Y-106578646D01*
X103532582Y-106574200D01*
X104066418Y-106574200D01*
X104111561Y-106578646D01*
G37*
G36*
X102536561Y-106578646D02*
G01*
X102577574Y-106591088D01*
X102615380Y-106611295D01*
X102648513Y-106638487D01*
X102675705Y-106671620D01*
X102695912Y-106709426D01*
X102708354Y-106750439D01*
X102712800Y-106795582D01*
X102712800Y-107404418D01*
X102708354Y-107449561D01*
X102695912Y-107490574D01*
X102675705Y-107528380D01*
X102648513Y-107561513D01*
X102615380Y-107588705D01*
X102577574Y-107608912D01*
X102536561Y-107621354D01*
X102491418Y-107625800D01*
X101957582Y-107625800D01*
X101912439Y-107621354D01*
X101871426Y-107608912D01*
X101833620Y-107588705D01*
X101800487Y-107561513D01*
X101773295Y-107528380D01*
X101753088Y-107490574D01*
X101740646Y-107449561D01*
X101736200Y-107404418D01*
X101736200Y-106795582D01*
X101740646Y-106750439D01*
X101753088Y-106709426D01*
X101773295Y-106671620D01*
X101800487Y-106638487D01*
X101833620Y-106611295D01*
X101871426Y-106591088D01*
X101912439Y-106578646D01*
X101957582Y-106574200D01*
X102491418Y-106574200D01*
X102536561Y-106578646D01*
G37*
G36*
X99254561Y-106578646D02*
G01*
X99295574Y-106591088D01*
X99333380Y-106611295D01*
X99366513Y-106638487D01*
X99393705Y-106671620D01*
X99413912Y-106709426D01*
X99426354Y-106750439D01*
X99430800Y-106795582D01*
X99430800Y-107404418D01*
X99426354Y-107449561D01*
X99413912Y-107490574D01*
X99393705Y-107528380D01*
X99366513Y-107561513D01*
X99333380Y-107588705D01*
X99295574Y-107608912D01*
X99254561Y-107621354D01*
X99209418Y-107625800D01*
X98675582Y-107625800D01*
X98630439Y-107621354D01*
X98589426Y-107608912D01*
X98551620Y-107588705D01*
X98518487Y-107561513D01*
X98491295Y-107528380D01*
X98471088Y-107490574D01*
X98458646Y-107449561D01*
X98454200Y-107404418D01*
X98454200Y-106795582D01*
X98458646Y-106750439D01*
X98471088Y-106709426D01*
X98491295Y-106671620D01*
X98518487Y-106638487D01*
X98551620Y-106611295D01*
X98589426Y-106591088D01*
X98630439Y-106578646D01*
X98675582Y-106574200D01*
X99209418Y-106574200D01*
X99254561Y-106578646D01*
G37*
G36*
X97679561Y-106578646D02*
G01*
X97720574Y-106591088D01*
X97758380Y-106611295D01*
X97791513Y-106638487D01*
X97818705Y-106671620D01*
X97838912Y-106709426D01*
X97851354Y-106750439D01*
X97855800Y-106795582D01*
X97855800Y-107404418D01*
X97851354Y-107449561D01*
X97838912Y-107490574D01*
X97818705Y-107528380D01*
X97791513Y-107561513D01*
X97758380Y-107588705D01*
X97720574Y-107608912D01*
X97679561Y-107621354D01*
X97634418Y-107625800D01*
X97100582Y-107625800D01*
X97055439Y-107621354D01*
X97014426Y-107608912D01*
X96976620Y-107588705D01*
X96943487Y-107561513D01*
X96916295Y-107528380D01*
X96896088Y-107490574D01*
X96883646Y-107449561D01*
X96879200Y-107404418D01*
X96879200Y-106795582D01*
X96883646Y-106750439D01*
X96896088Y-106709426D01*
X96916295Y-106671620D01*
X96943487Y-106638487D01*
X96976620Y-106611295D01*
X97014426Y-106591088D01*
X97055439Y-106578646D01*
X97100582Y-106574200D01*
X97634418Y-106574200D01*
X97679561Y-106578646D01*
G37*
G36*
X92599561Y-106222646D02*
G01*
X92640574Y-106235088D01*
X92678380Y-106255295D01*
X92711513Y-106282487D01*
X92738705Y-106315620D01*
X92758912Y-106353426D01*
X92771354Y-106394439D01*
X92775800Y-106439582D01*
X92775800Y-107048418D01*
X92771354Y-107093561D01*
X92758912Y-107134574D01*
X92738705Y-107172380D01*
X92711513Y-107205513D01*
X92678380Y-107232705D01*
X92640574Y-107252912D01*
X92599561Y-107265354D01*
X92554418Y-107269800D01*
X92020582Y-107269800D01*
X91975439Y-107265354D01*
X91934426Y-107252912D01*
X91896620Y-107232705D01*
X91863487Y-107205513D01*
X91836295Y-107172380D01*
X91816088Y-107134574D01*
X91803646Y-107093561D01*
X91799200Y-107048418D01*
X91799200Y-106439582D01*
X91803646Y-106394439D01*
X91816088Y-106353426D01*
X91836295Y-106315620D01*
X91863487Y-106282487D01*
X91896620Y-106255295D01*
X91934426Y-106235088D01*
X91975439Y-106222646D01*
X92020582Y-106218200D01*
X92554418Y-106218200D01*
X92599561Y-106222646D01*
G37*
G36*
X94174561Y-106222646D02*
G01*
X94215574Y-106235088D01*
X94253380Y-106255295D01*
X94286513Y-106282487D01*
X94313705Y-106315620D01*
X94333912Y-106353426D01*
X94346354Y-106394439D01*
X94350800Y-106439582D01*
X94350800Y-107048418D01*
X94346354Y-107093561D01*
X94333912Y-107134574D01*
X94313705Y-107172380D01*
X94286513Y-107205513D01*
X94253380Y-107232705D01*
X94215574Y-107252912D01*
X94174561Y-107265354D01*
X94129418Y-107269800D01*
X93595582Y-107269800D01*
X93550439Y-107265354D01*
X93509426Y-107252912D01*
X93471620Y-107232705D01*
X93438487Y-107205513D01*
X93411295Y-107172380D01*
X93391088Y-107134574D01*
X93378646Y-107093561D01*
X93374200Y-107048418D01*
X93374200Y-106439582D01*
X93378646Y-106394439D01*
X93391088Y-106353426D01*
X93411295Y-106315620D01*
X93438487Y-106282487D01*
X93471620Y-106255295D01*
X93509426Y-106235088D01*
X93550439Y-106222646D01*
X93595582Y-106218200D01*
X94129418Y-106218200D01*
X94174561Y-106222646D01*
G37*
G36*
X106706561Y-106158646D02*
G01*
X106747574Y-106171088D01*
X106785380Y-106191295D01*
X106818513Y-106218487D01*
X106845705Y-106251620D01*
X106865912Y-106289426D01*
X106878354Y-106330439D01*
X106882800Y-106375582D01*
X106882800Y-106984418D01*
X106878354Y-107029561D01*
X106865912Y-107070574D01*
X106845705Y-107108380D01*
X106818513Y-107141513D01*
X106785380Y-107168705D01*
X106747574Y-107188912D01*
X106706561Y-107201354D01*
X106661418Y-107205800D01*
X106127582Y-107205800D01*
X106082439Y-107201354D01*
X106041426Y-107188912D01*
X106003620Y-107168705D01*
X105970487Y-107141513D01*
X105943295Y-107108380D01*
X105923088Y-107070574D01*
X105910646Y-107029561D01*
X105906200Y-106984418D01*
X105906200Y-106375582D01*
X105910646Y-106330439D01*
X105923088Y-106289426D01*
X105943295Y-106251620D01*
X105970487Y-106218487D01*
X106003620Y-106191295D01*
X106041426Y-106171088D01*
X106082439Y-106158646D01*
X106127582Y-106154200D01*
X106661418Y-106154200D01*
X106706561Y-106158646D01*
G37*
G36*
X108281561Y-106158646D02*
G01*
X108322574Y-106171088D01*
X108360380Y-106191295D01*
X108393513Y-106218487D01*
X108420705Y-106251620D01*
X108440912Y-106289426D01*
X108453354Y-106330439D01*
X108457800Y-106375582D01*
X108457800Y-106984418D01*
X108453354Y-107029561D01*
X108440912Y-107070574D01*
X108420705Y-107108380D01*
X108393513Y-107141513D01*
X108360380Y-107168705D01*
X108322574Y-107188912D01*
X108281561Y-107201354D01*
X108236418Y-107205800D01*
X107702582Y-107205800D01*
X107657439Y-107201354D01*
X107616426Y-107188912D01*
X107578620Y-107168705D01*
X107545487Y-107141513D01*
X107518295Y-107108380D01*
X107498088Y-107070574D01*
X107485646Y-107029561D01*
X107481200Y-106984418D01*
X107481200Y-106375582D01*
X107485646Y-106330439D01*
X107498088Y-106289426D01*
X107518295Y-106251620D01*
X107545487Y-106218487D01*
X107578620Y-106191295D01*
X107616426Y-106171088D01*
X107657439Y-106158646D01*
X107702582Y-106154200D01*
X108236418Y-106154200D01*
X108281561Y-106158646D01*
G37*
G36*
X114950800Y-106500800D02*
G01*
X111849200Y-106500800D01*
X111849200Y-104899200D01*
X114950800Y-104899200D01*
X114950800Y-106500800D01*
G37*
G36*
X87450800Y-106500800D02*
G01*
X84349200Y-106500800D01*
X84349200Y-104899200D01*
X87450800Y-104899200D01*
X87450800Y-106500800D01*
G37*
G36*
X92913800Y-105438800D02*
G01*
X92512200Y-105438800D01*
X92512200Y-104737200D01*
X92913800Y-104737200D01*
X92913800Y-105438800D01*
G37*
G36*
X93713800Y-105438800D02*
G01*
X93312200Y-105438800D01*
X93312200Y-104737200D01*
X93713800Y-104737200D01*
X93713800Y-105438800D01*
G37*
G36*
X92113800Y-105438800D02*
G01*
X91712200Y-105438800D01*
X91712200Y-104737200D01*
X92113800Y-104737200D01*
X92113800Y-105438800D01*
G37*
G36*
X91313800Y-105438800D02*
G01*
X90912200Y-105438800D01*
X90912200Y-104737200D01*
X91313800Y-104737200D01*
X91313800Y-105438800D01*
G37*
G36*
X106712561Y-104380646D02*
G01*
X106753574Y-104393088D01*
X106791380Y-104413295D01*
X106824513Y-104440487D01*
X106851705Y-104473620D01*
X106871912Y-104511426D01*
X106884354Y-104552439D01*
X106888800Y-104597582D01*
X106888800Y-105206418D01*
X106884354Y-105251561D01*
X106871912Y-105292574D01*
X106851705Y-105330380D01*
X106824513Y-105363513D01*
X106791380Y-105390705D01*
X106753574Y-105410912D01*
X106712561Y-105423354D01*
X106667418Y-105427800D01*
X106133582Y-105427800D01*
X106088439Y-105423354D01*
X106047426Y-105410912D01*
X106009620Y-105390705D01*
X105976487Y-105363513D01*
X105949295Y-105330380D01*
X105929088Y-105292574D01*
X105916646Y-105251561D01*
X105912200Y-105206418D01*
X105912200Y-104597582D01*
X105916646Y-104552439D01*
X105929088Y-104511426D01*
X105949295Y-104473620D01*
X105976487Y-104440487D01*
X106009620Y-104413295D01*
X106047426Y-104393088D01*
X106088439Y-104380646D01*
X106133582Y-104376200D01*
X106667418Y-104376200D01*
X106712561Y-104380646D01*
G37*
G36*
X108287561Y-104380646D02*
G01*
X108328574Y-104393088D01*
X108366380Y-104413295D01*
X108399513Y-104440487D01*
X108426705Y-104473620D01*
X108446912Y-104511426D01*
X108459354Y-104552439D01*
X108463800Y-104597582D01*
X108463800Y-105206418D01*
X108459354Y-105251561D01*
X108446912Y-105292574D01*
X108426705Y-105330380D01*
X108399513Y-105363513D01*
X108366380Y-105390705D01*
X108328574Y-105410912D01*
X108287561Y-105423354D01*
X108242418Y-105427800D01*
X107708582Y-105427800D01*
X107663439Y-105423354D01*
X107622426Y-105410912D01*
X107584620Y-105390705D01*
X107551487Y-105363513D01*
X107524295Y-105330380D01*
X107504088Y-105292574D01*
X107491646Y-105251561D01*
X107487200Y-105206418D01*
X107487200Y-104597582D01*
X107491646Y-104552439D01*
X107504088Y-104511426D01*
X107524295Y-104473620D01*
X107551487Y-104440487D01*
X107584620Y-104413295D01*
X107622426Y-104393088D01*
X107663439Y-104380646D01*
X107708582Y-104376200D01*
X108242418Y-104376200D01*
X108287561Y-104380646D01*
G37*
G36*
X101239320Y-105177590D02*
G01*
X100919280Y-105177590D01*
X100919280Y-104377490D01*
X101239320Y-104377490D01*
X101239320Y-105177590D01*
G37*
G36*
X100241100Y-105177590D02*
G01*
X99921060Y-105177590D01*
X99921060Y-104377490D01*
X100241100Y-104377490D01*
X100241100Y-105177590D01*
G37*
G36*
X99740720Y-105177590D02*
G01*
X99420680Y-105177590D01*
X99420680Y-104377490D01*
X99740720Y-104377490D01*
X99740720Y-105177590D01*
G37*
G36*
X100738940Y-105177590D02*
G01*
X100418900Y-105177590D01*
X100418900Y-104377490D01*
X100738940Y-104377490D01*
X100738940Y-105177590D01*
G37*
G36*
X98242120Y-105177590D02*
G01*
X97922080Y-105177590D01*
X97922080Y-104377490D01*
X98242120Y-104377490D01*
X98242120Y-105177590D01*
G37*
G36*
X104239060Y-105177590D02*
G01*
X103919020Y-105177590D01*
X103919020Y-104377490D01*
X104239060Y-104377490D01*
X104239060Y-105177590D01*
G37*
G36*
X103738680Y-105177590D02*
G01*
X103418640Y-105177590D01*
X103418640Y-104377490D01*
X103738680Y-104377490D01*
X103738680Y-105177590D01*
G37*
G36*
X103238300Y-105177590D02*
G01*
X102918260Y-105177590D01*
X102918260Y-104377490D01*
X103238300Y-104377490D01*
X103238300Y-105177590D01*
G37*
G36*
X101739700Y-105177590D02*
G01*
X101419660Y-105177590D01*
X101419660Y-104377490D01*
X101739700Y-104377490D01*
X101739700Y-105177590D01*
G37*
G36*
X98742500Y-105177590D02*
G01*
X98422460Y-105177590D01*
X98422460Y-104377490D01*
X98742500Y-104377490D01*
X98742500Y-105177590D01*
G37*
G36*
X99240340Y-105177590D02*
G01*
X98920300Y-105177590D01*
X98920300Y-104377490D01*
X99240340Y-104377490D01*
X99240340Y-105177590D01*
G37*
G36*
X102737920Y-105177590D02*
G01*
X102417880Y-105177590D01*
X102417880Y-104377490D01*
X102737920Y-104377490D01*
X102737920Y-105177590D01*
G37*
G36*
X102237540Y-105177590D02*
G01*
X101917500Y-105177590D01*
X101917500Y-104377490D01*
X102237540Y-104377490D01*
X102237540Y-105177590D01*
G37*
G36*
X96740980Y-105177590D02*
G01*
X96420940Y-105177590D01*
X96420940Y-104377490D01*
X96740980Y-104377490D01*
X96740980Y-105177590D01*
G37*
G36*
X97241360Y-105177590D02*
G01*
X96921320Y-105177590D01*
X96921320Y-104377490D01*
X97241360Y-104377490D01*
X97241360Y-105177590D01*
G37*
G36*
X97741740Y-105177590D02*
G01*
X97421700Y-105177590D01*
X97421700Y-104377490D01*
X97741740Y-104377490D01*
X97741740Y-105177590D01*
G37*
G36*
X93863800Y-104538800D02*
G01*
X90762200Y-104538800D01*
X90762200Y-101837200D01*
X93863800Y-101837200D01*
X93863800Y-104538800D01*
G37*
G36*
X114950800Y-104500800D02*
G01*
X111849200Y-104500800D01*
X111849200Y-102899200D01*
X114950800Y-102899200D01*
X114950800Y-104500800D01*
G37*
G36*
X87450800Y-104500800D02*
G01*
X84349200Y-104500800D01*
X84349200Y-102899200D01*
X87450800Y-102899200D01*
X87450800Y-104500800D01*
G37*
G36*
X105177590Y-104239060D02*
G01*
X104377490Y-104239060D01*
X104377490Y-103919020D01*
X105177590Y-103919020D01*
X105177590Y-104239060D01*
G37*
G36*
X96282510Y-104239060D02*
G01*
X95482410Y-104239060D01*
X95482410Y-103919020D01*
X96282510Y-103919020D01*
X96282510Y-104239060D01*
G37*
G36*
X108287561Y-102729646D02*
G01*
X108328574Y-102742088D01*
X108366380Y-102762295D01*
X108399513Y-102789487D01*
X108426705Y-102822620D01*
X108446912Y-102860426D01*
X108459354Y-102901439D01*
X108463800Y-102946582D01*
X108463800Y-103555418D01*
X108459354Y-103600561D01*
X108446912Y-103641574D01*
X108426705Y-103679380D01*
X108399513Y-103712513D01*
X108366380Y-103739705D01*
X108328574Y-103759912D01*
X108287561Y-103772354D01*
X108242418Y-103776800D01*
X107708582Y-103776800D01*
X107663439Y-103772354D01*
X107622426Y-103759912D01*
X107584620Y-103739705D01*
X107551487Y-103712513D01*
X107524295Y-103679380D01*
X107504088Y-103641574D01*
X107491646Y-103600561D01*
X107487200Y-103555418D01*
X107487200Y-102946582D01*
X107491646Y-102901439D01*
X107504088Y-102860426D01*
X107524295Y-102822620D01*
X107551487Y-102789487D01*
X107584620Y-102762295D01*
X107622426Y-102742088D01*
X107663439Y-102729646D01*
X107708582Y-102725200D01*
X108242418Y-102725200D01*
X108287561Y-102729646D01*
G37*
G36*
X106712561Y-102729646D02*
G01*
X106753574Y-102742088D01*
X106791380Y-102762295D01*
X106824513Y-102789487D01*
X106851705Y-102822620D01*
X106871912Y-102860426D01*
X106884354Y-102901439D01*
X106888800Y-102946582D01*
X106888800Y-103555418D01*
X106884354Y-103600561D01*
X106871912Y-103641574D01*
X106851705Y-103679380D01*
X106824513Y-103712513D01*
X106791380Y-103739705D01*
X106753574Y-103759912D01*
X106712561Y-103772354D01*
X106667418Y-103776800D01*
X106133582Y-103776800D01*
X106088439Y-103772354D01*
X106047426Y-103759912D01*
X106009620Y-103739705D01*
X105976487Y-103712513D01*
X105949295Y-103679380D01*
X105929088Y-103641574D01*
X105916646Y-103600561D01*
X105912200Y-103555418D01*
X105912200Y-102946582D01*
X105916646Y-102901439D01*
X105929088Y-102860426D01*
X105949295Y-102822620D01*
X105976487Y-102789487D01*
X106009620Y-102762295D01*
X106047426Y-102742088D01*
X106088439Y-102729646D01*
X106133582Y-102725200D01*
X106667418Y-102725200D01*
X106712561Y-102729646D01*
G37*
G36*
X105177590Y-103738680D02*
G01*
X104377490Y-103738680D01*
X104377490Y-103418640D01*
X105177590Y-103418640D01*
X105177590Y-103738680D01*
G37*
G36*
X96282510Y-103738680D02*
G01*
X95482410Y-103738680D01*
X95482410Y-103418640D01*
X96282510Y-103418640D01*
X96282510Y-103738680D01*
G37*
G36*
X105177590Y-103238300D02*
G01*
X104377490Y-103238300D01*
X104377490Y-102918260D01*
X105177590Y-102918260D01*
X105177590Y-103238300D01*
G37*
G36*
X96282510Y-103238300D02*
G01*
X95482410Y-103238300D01*
X95482410Y-102918260D01*
X96282510Y-102918260D01*
X96282510Y-103238300D01*
G37*
G36*
X105177590Y-102737920D02*
G01*
X104377490Y-102737920D01*
X104377490Y-102417880D01*
X105177590Y-102417880D01*
X105177590Y-102737920D01*
G37*
G36*
X96282510Y-102737920D02*
G01*
X95482410Y-102737920D01*
X95482410Y-102417880D01*
X96282510Y-102417880D01*
X96282510Y-102737920D01*
G37*
G36*
X102730300Y-102730300D02*
G01*
X97929700Y-102730300D01*
X97929700Y-97929700D01*
X102730300Y-97929700D01*
X102730300Y-102730300D01*
G37*
G36*
X87450800Y-102500800D02*
G01*
X84349200Y-102500800D01*
X84349200Y-100899200D01*
X87450800Y-100899200D01*
X87450800Y-102500800D01*
G37*
G36*
X114950800Y-102500800D02*
G01*
X111849200Y-102500800D01*
X111849200Y-100899200D01*
X114950800Y-100899200D01*
X114950800Y-102500800D01*
G37*
G36*
X105177590Y-102237540D02*
G01*
X104377490Y-102237540D01*
X104377490Y-101917500D01*
X105177590Y-101917500D01*
X105177590Y-102237540D01*
G37*
G36*
X96282510Y-102237540D02*
G01*
X95482410Y-102237540D01*
X95482410Y-101917500D01*
X96282510Y-101917500D01*
X96282510Y-102237540D01*
G37*
G36*
X108287561Y-100951646D02*
G01*
X108328574Y-100964088D01*
X108366380Y-100984295D01*
X108399513Y-101011487D01*
X108426705Y-101044620D01*
X108446912Y-101082426D01*
X108459354Y-101123439D01*
X108463800Y-101168582D01*
X108463800Y-101777418D01*
X108459354Y-101822561D01*
X108446912Y-101863574D01*
X108426705Y-101901380D01*
X108399513Y-101934513D01*
X108366380Y-101961705D01*
X108328574Y-101981912D01*
X108287561Y-101994354D01*
X108242418Y-101998800D01*
X107708582Y-101998800D01*
X107663439Y-101994354D01*
X107622426Y-101981912D01*
X107584620Y-101961705D01*
X107551487Y-101934513D01*
X107524295Y-101901380D01*
X107504088Y-101863574D01*
X107491646Y-101822561D01*
X107487200Y-101777418D01*
X107487200Y-101168582D01*
X107491646Y-101123439D01*
X107504088Y-101082426D01*
X107524295Y-101044620D01*
X107551487Y-101011487D01*
X107584620Y-100984295D01*
X107622426Y-100964088D01*
X107663439Y-100951646D01*
X107708582Y-100947200D01*
X108242418Y-100947200D01*
X108287561Y-100951646D01*
G37*
G36*
X106712561Y-100951646D02*
G01*
X106753574Y-100964088D01*
X106791380Y-100984295D01*
X106824513Y-101011487D01*
X106851705Y-101044620D01*
X106871912Y-101082426D01*
X106884354Y-101123439D01*
X106888800Y-101168582D01*
X106888800Y-101777418D01*
X106884354Y-101822561D01*
X106871912Y-101863574D01*
X106851705Y-101901380D01*
X106824513Y-101934513D01*
X106791380Y-101961705D01*
X106753574Y-101981912D01*
X106712561Y-101994354D01*
X106667418Y-101998800D01*
X106133582Y-101998800D01*
X106088439Y-101994354D01*
X106047426Y-101981912D01*
X106009620Y-101961705D01*
X105976487Y-101934513D01*
X105949295Y-101901380D01*
X105929088Y-101863574D01*
X105916646Y-101822561D01*
X105912200Y-101777418D01*
X105912200Y-101168582D01*
X105916646Y-101123439D01*
X105929088Y-101082426D01*
X105949295Y-101044620D01*
X105976487Y-101011487D01*
X106009620Y-100984295D01*
X106047426Y-100964088D01*
X106088439Y-100951646D01*
X106133582Y-100947200D01*
X106667418Y-100947200D01*
X106712561Y-100951646D01*
G37*
G36*
X105177590Y-101739700D02*
G01*
X104377490Y-101739700D01*
X104377490Y-101419660D01*
X105177590Y-101419660D01*
X105177590Y-101739700D01*
G37*
G36*
X96282510Y-101739700D02*
G01*
X95482410Y-101739700D01*
X95482410Y-101419660D01*
X96282510Y-101419660D01*
X96282510Y-101739700D01*
G37*
G36*
X92913800Y-101638800D02*
G01*
X92512200Y-101638800D01*
X92512200Y-100937200D01*
X92913800Y-100937200D01*
X92913800Y-101638800D01*
G37*
G36*
X91313800Y-101638800D02*
G01*
X90912200Y-101638800D01*
X90912200Y-100937200D01*
X91313800Y-100937200D01*
X91313800Y-101638800D01*
G37*
G36*
X93713800Y-101638800D02*
G01*
X93312200Y-101638800D01*
X93312200Y-100937200D01*
X93713800Y-100937200D01*
X93713800Y-101638800D01*
G37*
G36*
X92113800Y-101638800D02*
G01*
X91712200Y-101638800D01*
X91712200Y-100937200D01*
X92113800Y-100937200D01*
X92113800Y-101638800D01*
G37*
G36*
X96282510Y-101239320D02*
G01*
X95482410Y-101239320D01*
X95482410Y-100919280D01*
X96282510Y-100919280D01*
X96282510Y-101239320D01*
G37*
G36*
X105177590Y-101239320D02*
G01*
X104377490Y-101239320D01*
X104377490Y-100919280D01*
X105177590Y-100919280D01*
X105177590Y-101239320D01*
G37*
G36*
X96282510Y-100738940D02*
G01*
X95482410Y-100738940D01*
X95482410Y-100418900D01*
X96282510Y-100418900D01*
X96282510Y-100738940D01*
G37*
G36*
X105177590Y-100738940D02*
G01*
X104377490Y-100738940D01*
X104377490Y-100418900D01*
X105177590Y-100418900D01*
X105177590Y-100738940D01*
G37*
G36*
X87450800Y-100500800D02*
G01*
X84349200Y-100500800D01*
X84349200Y-98899200D01*
X87450800Y-98899200D01*
X87450800Y-100500800D01*
G37*
G36*
X114950800Y-100500800D02*
G01*
X111849200Y-100500800D01*
X111849200Y-98899200D01*
X114950800Y-98899200D01*
X114950800Y-100500800D01*
G37*
G36*
X105177590Y-100241100D02*
G01*
X104377490Y-100241100D01*
X104377490Y-99921060D01*
X105177590Y-99921060D01*
X105177590Y-100241100D01*
G37*
G36*
X96282510Y-100241100D02*
G01*
X95482410Y-100241100D01*
X95482410Y-99921060D01*
X96282510Y-99921060D01*
X96282510Y-100241100D01*
G37*
G36*
X108287561Y-99173646D02*
G01*
X108328574Y-99186088D01*
X108366380Y-99206295D01*
X108399513Y-99233487D01*
X108426705Y-99266620D01*
X108446912Y-99304426D01*
X108459354Y-99345439D01*
X108463800Y-99390582D01*
X108463800Y-99999418D01*
X108459354Y-100044561D01*
X108446912Y-100085574D01*
X108426705Y-100123380D01*
X108399513Y-100156513D01*
X108366380Y-100183705D01*
X108328574Y-100203912D01*
X108287561Y-100216354D01*
X108242418Y-100220800D01*
X107708582Y-100220800D01*
X107663439Y-100216354D01*
X107622426Y-100203912D01*
X107584620Y-100183705D01*
X107551487Y-100156513D01*
X107524295Y-100123380D01*
X107504088Y-100085574D01*
X107491646Y-100044561D01*
X107487200Y-99999418D01*
X107487200Y-99390582D01*
X107491646Y-99345439D01*
X107504088Y-99304426D01*
X107524295Y-99266620D01*
X107551487Y-99233487D01*
X107584620Y-99206295D01*
X107622426Y-99186088D01*
X107663439Y-99173646D01*
X107708582Y-99169200D01*
X108242418Y-99169200D01*
X108287561Y-99173646D01*
G37*
G36*
X106712561Y-99173646D02*
G01*
X106753574Y-99186088D01*
X106791380Y-99206295D01*
X106824513Y-99233487D01*
X106851705Y-99266620D01*
X106871912Y-99304426D01*
X106884354Y-99345439D01*
X106888800Y-99390582D01*
X106888800Y-99999418D01*
X106884354Y-100044561D01*
X106871912Y-100085574D01*
X106851705Y-100123380D01*
X106824513Y-100156513D01*
X106791380Y-100183705D01*
X106753574Y-100203912D01*
X106712561Y-100216354D01*
X106667418Y-100220800D01*
X106133582Y-100220800D01*
X106088439Y-100216354D01*
X106047426Y-100203912D01*
X106009620Y-100183705D01*
X105976487Y-100156513D01*
X105949295Y-100123380D01*
X105929088Y-100085574D01*
X105916646Y-100044561D01*
X105912200Y-99999418D01*
X105912200Y-99390582D01*
X105916646Y-99345439D01*
X105929088Y-99304426D01*
X105949295Y-99266620D01*
X105976487Y-99233487D01*
X106009620Y-99206295D01*
X106047426Y-99186088D01*
X106088439Y-99173646D01*
X106133582Y-99169200D01*
X106667418Y-99169200D01*
X106712561Y-99173646D01*
G37*
G36*
X90939061Y-99110146D02*
G01*
X90980074Y-99122588D01*
X91017880Y-99142795D01*
X91051013Y-99169987D01*
X91078205Y-99203120D01*
X91098412Y-99240926D01*
X91110854Y-99281939D01*
X91115300Y-99327082D01*
X91115300Y-99935918D01*
X91110854Y-99981061D01*
X91098412Y-100022074D01*
X91078205Y-100059880D01*
X91051013Y-100093013D01*
X91017880Y-100120205D01*
X90980074Y-100140412D01*
X90939061Y-100152854D01*
X90893918Y-100157300D01*
X90360082Y-100157300D01*
X90314939Y-100152854D01*
X90273926Y-100140412D01*
X90236120Y-100120205D01*
X90202987Y-100093013D01*
X90175795Y-100059880D01*
X90155588Y-100022074D01*
X90143146Y-99981061D01*
X90138700Y-99935918D01*
X90138700Y-99327082D01*
X90143146Y-99281939D01*
X90155588Y-99240926D01*
X90175795Y-99203120D01*
X90202987Y-99169987D01*
X90236120Y-99142795D01*
X90273926Y-99122588D01*
X90314939Y-99110146D01*
X90360082Y-99105700D01*
X90893918Y-99105700D01*
X90939061Y-99110146D01*
G37*
G36*
X92514061Y-99110146D02*
G01*
X92555074Y-99122588D01*
X92592880Y-99142795D01*
X92626013Y-99169987D01*
X92653205Y-99203120D01*
X92673412Y-99240926D01*
X92685854Y-99281939D01*
X92690300Y-99327082D01*
X92690300Y-99935918D01*
X92685854Y-99981061D01*
X92673412Y-100022074D01*
X92653205Y-100059880D01*
X92626013Y-100093013D01*
X92592880Y-100120205D01*
X92555074Y-100140412D01*
X92514061Y-100152854D01*
X92468918Y-100157300D01*
X91935082Y-100157300D01*
X91889939Y-100152854D01*
X91848926Y-100140412D01*
X91811120Y-100120205D01*
X91777987Y-100093013D01*
X91750795Y-100059880D01*
X91730588Y-100022074D01*
X91718146Y-99981061D01*
X91713700Y-99935918D01*
X91713700Y-99327082D01*
X91718146Y-99281939D01*
X91730588Y-99240926D01*
X91750795Y-99203120D01*
X91777987Y-99169987D01*
X91811120Y-99142795D01*
X91848926Y-99122588D01*
X91889939Y-99110146D01*
X91935082Y-99105700D01*
X92468918Y-99105700D01*
X92514061Y-99110146D01*
G37*
G36*
X105177590Y-99740720D02*
G01*
X104377490Y-99740720D01*
X104377490Y-99420680D01*
X105177590Y-99420680D01*
X105177590Y-99740720D01*
G37*
G36*
X96282510Y-99740720D02*
G01*
X95482410Y-99740720D01*
X95482410Y-99420680D01*
X96282510Y-99420680D01*
X96282510Y-99740720D01*
G37*
G36*
X105177590Y-99240340D02*
G01*
X104377490Y-99240340D01*
X104377490Y-98920300D01*
X105177590Y-98920300D01*
X105177590Y-99240340D01*
G37*
G36*
X96282510Y-99240340D02*
G01*
X95482410Y-99240340D01*
X95482410Y-98920300D01*
X96282510Y-98920300D01*
X96282510Y-99240340D01*
G37*
G36*
X105177590Y-98742500D02*
G01*
X104377490Y-98742500D01*
X104377490Y-98422460D01*
X105177590Y-98422460D01*
X105177590Y-98742500D01*
G37*
G36*
X96282510Y-98742500D02*
G01*
X95482410Y-98742500D01*
X95482410Y-98422460D01*
X96282510Y-98422460D01*
X96282510Y-98742500D01*
G37*
G36*
X106722561Y-97459146D02*
G01*
X106763574Y-97471588D01*
X106801380Y-97491795D01*
X106834513Y-97518987D01*
X106861705Y-97552120D01*
X106881912Y-97589926D01*
X106894354Y-97630939D01*
X106898800Y-97676082D01*
X106898800Y-98284918D01*
X106894354Y-98330061D01*
X106881912Y-98371074D01*
X106861705Y-98408880D01*
X106834513Y-98442013D01*
X106801380Y-98469205D01*
X106763574Y-98489412D01*
X106722561Y-98501854D01*
X106677418Y-98506300D01*
X106143582Y-98506300D01*
X106098439Y-98501854D01*
X106057426Y-98489412D01*
X106019620Y-98469205D01*
X105986487Y-98442013D01*
X105959295Y-98408880D01*
X105939088Y-98371074D01*
X105926646Y-98330061D01*
X105922200Y-98284918D01*
X105922200Y-97676082D01*
X105926646Y-97630939D01*
X105939088Y-97589926D01*
X105959295Y-97552120D01*
X105986487Y-97518987D01*
X106019620Y-97491795D01*
X106057426Y-97471588D01*
X106098439Y-97459146D01*
X106143582Y-97454700D01*
X106677418Y-97454700D01*
X106722561Y-97459146D01*
G37*
G36*
X108297561Y-97459146D02*
G01*
X108338574Y-97471588D01*
X108376380Y-97491795D01*
X108409513Y-97518987D01*
X108436705Y-97552120D01*
X108456912Y-97589926D01*
X108469354Y-97630939D01*
X108473800Y-97676082D01*
X108473800Y-98284918D01*
X108469354Y-98330061D01*
X108456912Y-98371074D01*
X108436705Y-98408880D01*
X108409513Y-98442013D01*
X108376380Y-98469205D01*
X108338574Y-98489412D01*
X108297561Y-98501854D01*
X108252418Y-98506300D01*
X107718582Y-98506300D01*
X107673439Y-98501854D01*
X107632426Y-98489412D01*
X107594620Y-98469205D01*
X107561487Y-98442013D01*
X107534295Y-98408880D01*
X107514088Y-98371074D01*
X107501646Y-98330061D01*
X107497200Y-98284918D01*
X107497200Y-97676082D01*
X107501646Y-97630939D01*
X107514088Y-97589926D01*
X107534295Y-97552120D01*
X107561487Y-97518987D01*
X107594620Y-97491795D01*
X107632426Y-97471588D01*
X107673439Y-97459146D01*
X107718582Y-97454700D01*
X108252418Y-97454700D01*
X108297561Y-97459146D01*
G37*
G36*
X114950800Y-98500800D02*
G01*
X111849200Y-98500800D01*
X111849200Y-96899200D01*
X114950800Y-96899200D01*
X114950800Y-98500800D01*
G37*
G36*
X87450800Y-98500800D02*
G01*
X84349200Y-98500800D01*
X84349200Y-96899200D01*
X87450800Y-96899200D01*
X87450800Y-98500800D01*
G37*
G36*
X94149061Y-97332146D02*
G01*
X94190074Y-97344588D01*
X94227880Y-97364795D01*
X94261013Y-97391987D01*
X94288205Y-97425120D01*
X94308412Y-97462926D01*
X94320854Y-97503939D01*
X94325300Y-97549082D01*
X94325300Y-98157918D01*
X94320854Y-98203061D01*
X94308412Y-98244074D01*
X94288205Y-98281880D01*
X94261013Y-98315013D01*
X94227880Y-98342205D01*
X94190074Y-98362412D01*
X94149061Y-98374854D01*
X94103918Y-98379300D01*
X93570082Y-98379300D01*
X93524939Y-98374854D01*
X93483926Y-98362412D01*
X93446120Y-98342205D01*
X93412987Y-98315013D01*
X93385795Y-98281880D01*
X93365588Y-98244074D01*
X93353146Y-98203061D01*
X93348700Y-98157918D01*
X93348700Y-97549082D01*
X93353146Y-97503939D01*
X93365588Y-97462926D01*
X93385795Y-97425120D01*
X93412987Y-97391987D01*
X93446120Y-97364795D01*
X93483926Y-97344588D01*
X93524939Y-97332146D01*
X93570082Y-97327700D01*
X94103918Y-97327700D01*
X94149061Y-97332146D01*
G37*
G36*
X92574061Y-97332146D02*
G01*
X92615074Y-97344588D01*
X92652880Y-97364795D01*
X92686013Y-97391987D01*
X92713205Y-97425120D01*
X92733412Y-97462926D01*
X92745854Y-97503939D01*
X92750300Y-97549082D01*
X92750300Y-98157918D01*
X92745854Y-98203061D01*
X92733412Y-98244074D01*
X92713205Y-98281880D01*
X92686013Y-98315013D01*
X92652880Y-98342205D01*
X92615074Y-98362412D01*
X92574061Y-98374854D01*
X92528918Y-98379300D01*
X91995082Y-98379300D01*
X91949939Y-98374854D01*
X91908926Y-98362412D01*
X91871120Y-98342205D01*
X91837987Y-98315013D01*
X91810795Y-98281880D01*
X91790588Y-98244074D01*
X91778146Y-98203061D01*
X91773700Y-98157918D01*
X91773700Y-97549082D01*
X91778146Y-97503939D01*
X91790588Y-97462926D01*
X91810795Y-97425120D01*
X91837987Y-97391987D01*
X91871120Y-97364795D01*
X91908926Y-97344588D01*
X91949939Y-97332146D01*
X91995082Y-97327700D01*
X92528918Y-97327700D01*
X92574061Y-97332146D01*
G37*
G36*
X105177590Y-98242120D02*
G01*
X104377490Y-98242120D01*
X104377490Y-97922080D01*
X105177590Y-97922080D01*
X105177590Y-98242120D01*
G37*
G36*
X96282510Y-98242120D02*
G01*
X95482410Y-98242120D01*
X95482410Y-97922080D01*
X96282510Y-97922080D01*
X96282510Y-98242120D01*
G37*
G36*
X96282510Y-97741740D02*
G01*
X95482410Y-97741740D01*
X95482410Y-97421700D01*
X96282510Y-97421700D01*
X96282510Y-97741740D01*
G37*
G36*
X105177590Y-97741740D02*
G01*
X104377490Y-97741740D01*
X104377490Y-97421700D01*
X105177590Y-97421700D01*
X105177590Y-97741740D01*
G37*
G36*
X105177590Y-97241360D02*
G01*
X104377490Y-97241360D01*
X104377490Y-96921320D01*
X105177590Y-96921320D01*
X105177590Y-97241360D01*
G37*
G36*
X96282510Y-97241360D02*
G01*
X95482410Y-97241360D01*
X95482410Y-96921320D01*
X96282510Y-96921320D01*
X96282510Y-97241360D01*
G37*
G36*
X105177590Y-96740980D02*
G01*
X104377490Y-96740980D01*
X104377490Y-96420940D01*
X105177590Y-96420940D01*
X105177590Y-96740980D01*
G37*
G36*
X96282510Y-96740980D02*
G01*
X95482410Y-96740980D01*
X95482410Y-96420940D01*
X96282510Y-96420940D01*
X96282510Y-96740980D01*
G37*
G36*
X90669061Y-95681146D02*
G01*
X90710074Y-95693588D01*
X90747880Y-95713795D01*
X90781013Y-95740987D01*
X90808205Y-95774120D01*
X90828412Y-95811926D01*
X90840854Y-95852939D01*
X90845300Y-95898082D01*
X90845300Y-96506918D01*
X90840854Y-96552061D01*
X90828412Y-96593074D01*
X90808205Y-96630880D01*
X90781013Y-96664013D01*
X90747880Y-96691205D01*
X90710074Y-96711412D01*
X90669061Y-96723854D01*
X90623918Y-96728300D01*
X90090082Y-96728300D01*
X90044939Y-96723854D01*
X90003926Y-96711412D01*
X89966120Y-96691205D01*
X89932987Y-96664013D01*
X89905795Y-96630880D01*
X89885588Y-96593074D01*
X89873146Y-96552061D01*
X89868700Y-96506918D01*
X89868700Y-95898082D01*
X89873146Y-95852939D01*
X89885588Y-95811926D01*
X89905795Y-95774120D01*
X89932987Y-95740987D01*
X89966120Y-95713795D01*
X90003926Y-95693588D01*
X90044939Y-95681146D01*
X90090082Y-95676700D01*
X90623918Y-95676700D01*
X90669061Y-95681146D01*
G37*
G36*
X92244061Y-95681146D02*
G01*
X92285074Y-95693588D01*
X92322880Y-95713795D01*
X92356013Y-95740987D01*
X92383205Y-95774120D01*
X92403412Y-95811926D01*
X92415854Y-95852939D01*
X92420300Y-95898082D01*
X92420300Y-96506918D01*
X92415854Y-96552061D01*
X92403412Y-96593074D01*
X92383205Y-96630880D01*
X92356013Y-96664013D01*
X92322880Y-96691205D01*
X92285074Y-96711412D01*
X92244061Y-96723854D01*
X92198918Y-96728300D01*
X91665082Y-96728300D01*
X91619939Y-96723854D01*
X91578926Y-96711412D01*
X91541120Y-96691205D01*
X91507987Y-96664013D01*
X91480795Y-96630880D01*
X91460588Y-96593074D01*
X91448146Y-96552061D01*
X91443700Y-96506918D01*
X91443700Y-95898082D01*
X91448146Y-95852939D01*
X91460588Y-95811926D01*
X91480795Y-95774120D01*
X91507987Y-95740987D01*
X91541120Y-95713795D01*
X91578926Y-95693588D01*
X91619939Y-95681146D01*
X91665082Y-95676700D01*
X92198918Y-95676700D01*
X92244061Y-95681146D01*
G37*
G36*
X87450800Y-96500800D02*
G01*
X84349200Y-96500800D01*
X84349200Y-94899200D01*
X87450800Y-94899200D01*
X87450800Y-96500800D01*
G37*
G36*
X114950800Y-96500800D02*
G01*
X111849200Y-96500800D01*
X111849200Y-94899200D01*
X114950800Y-94899200D01*
X114950800Y-96500800D01*
G37*
G36*
X99240340Y-96282510D02*
G01*
X98920300Y-96282510D01*
X98920300Y-95482410D01*
X99240340Y-95482410D01*
X99240340Y-96282510D01*
G37*
G36*
X98742500Y-96282510D02*
G01*
X98422460Y-96282510D01*
X98422460Y-95482410D01*
X98742500Y-95482410D01*
X98742500Y-96282510D01*
G37*
G36*
X98242120Y-96282510D02*
G01*
X97922080Y-96282510D01*
X97922080Y-95482410D01*
X98242120Y-95482410D01*
X98242120Y-96282510D01*
G37*
G36*
X97741740Y-96282510D02*
G01*
X97421700Y-96282510D01*
X97421700Y-95482410D01*
X97741740Y-95482410D01*
X97741740Y-96282510D01*
G37*
G36*
X97241360Y-96282510D02*
G01*
X96921320Y-96282510D01*
X96921320Y-95482410D01*
X97241360Y-95482410D01*
X97241360Y-96282510D01*
G37*
G36*
X96740980Y-96282510D02*
G01*
X96420940Y-96282510D01*
X96420940Y-95482410D01*
X96740980Y-95482410D01*
X96740980Y-96282510D01*
G37*
G36*
X99740720Y-96282510D02*
G01*
X99420680Y-96282510D01*
X99420680Y-95482410D01*
X99740720Y-95482410D01*
X99740720Y-96282510D01*
G37*
G36*
X100241100Y-96282510D02*
G01*
X99921060Y-96282510D01*
X99921060Y-95482410D01*
X100241100Y-95482410D01*
X100241100Y-96282510D01*
G37*
G36*
X100738940Y-96282510D02*
G01*
X100418900Y-96282510D01*
X100418900Y-95482410D01*
X100738940Y-95482410D01*
X100738940Y-96282510D01*
G37*
G36*
X101239320Y-96282510D02*
G01*
X100919280Y-96282510D01*
X100919280Y-95482410D01*
X101239320Y-95482410D01*
X101239320Y-96282510D01*
G37*
G36*
X101739700Y-96282510D02*
G01*
X101419660Y-96282510D01*
X101419660Y-95482410D01*
X101739700Y-95482410D01*
X101739700Y-96282510D01*
G37*
G36*
X103738680Y-96282510D02*
G01*
X103418640Y-96282510D01*
X103418640Y-95482410D01*
X103738680Y-95482410D01*
X103738680Y-96282510D01*
G37*
G36*
X104239060Y-96282510D02*
G01*
X103919020Y-96282510D01*
X103919020Y-95482410D01*
X104239060Y-95482410D01*
X104239060Y-96282510D01*
G37*
G36*
X102237540Y-96282510D02*
G01*
X101917500Y-96282510D01*
X101917500Y-95482410D01*
X102237540Y-95482410D01*
X102237540Y-96282510D01*
G37*
G36*
X102737920Y-96282510D02*
G01*
X102417880Y-96282510D01*
X102417880Y-95482410D01*
X102737920Y-95482410D01*
X102737920Y-96282510D01*
G37*
G36*
X103238300Y-96282510D02*
G01*
X102918260Y-96282510D01*
X102918260Y-95482410D01*
X103238300Y-95482410D01*
X103238300Y-96282510D01*
G37*
G36*
X92244061Y-94030146D02*
G01*
X92285074Y-94042588D01*
X92322880Y-94062795D01*
X92356013Y-94089987D01*
X92383205Y-94123120D01*
X92403412Y-94160926D01*
X92415854Y-94201939D01*
X92420300Y-94247082D01*
X92420300Y-94855918D01*
X92415854Y-94901061D01*
X92403412Y-94942074D01*
X92383205Y-94979880D01*
X92356013Y-95013013D01*
X92322880Y-95040205D01*
X92285074Y-95060412D01*
X92244061Y-95072854D01*
X92198918Y-95077300D01*
X91665082Y-95077300D01*
X91619939Y-95072854D01*
X91578926Y-95060412D01*
X91541120Y-95040205D01*
X91507987Y-95013013D01*
X91480795Y-94979880D01*
X91460588Y-94942074D01*
X91448146Y-94901061D01*
X91443700Y-94855918D01*
X91443700Y-94247082D01*
X91448146Y-94201939D01*
X91460588Y-94160926D01*
X91480795Y-94123120D01*
X91507987Y-94089987D01*
X91541120Y-94062795D01*
X91578926Y-94042588D01*
X91619939Y-94030146D01*
X91665082Y-94025700D01*
X92198918Y-94025700D01*
X92244061Y-94030146D01*
G37*
G36*
X90669061Y-94030146D02*
G01*
X90710074Y-94042588D01*
X90747880Y-94062795D01*
X90781013Y-94089987D01*
X90808205Y-94123120D01*
X90828412Y-94160926D01*
X90840854Y-94201939D01*
X90845300Y-94247082D01*
X90845300Y-94855918D01*
X90840854Y-94901061D01*
X90828412Y-94942074D01*
X90808205Y-94979880D01*
X90781013Y-95013013D01*
X90747880Y-95040205D01*
X90710074Y-95060412D01*
X90669061Y-95072854D01*
X90623918Y-95077300D01*
X90090082Y-95077300D01*
X90044939Y-95072854D01*
X90003926Y-95060412D01*
X89966120Y-95040205D01*
X89932987Y-95013013D01*
X89905795Y-94979880D01*
X89885588Y-94942074D01*
X89873146Y-94901061D01*
X89868700Y-94855918D01*
X89868700Y-94247082D01*
X89873146Y-94201939D01*
X89885588Y-94160926D01*
X89905795Y-94123120D01*
X89932987Y-94089987D01*
X89966120Y-94062795D01*
X90003926Y-94042588D01*
X90044939Y-94030146D01*
X90090082Y-94025700D01*
X90623918Y-94025700D01*
X90669061Y-94030146D01*
G37*
G36*
X109587561Y-93825146D02*
G01*
X109628574Y-93837588D01*
X109666380Y-93857795D01*
X109699513Y-93884987D01*
X109726705Y-93918120D01*
X109746912Y-93955926D01*
X109759354Y-93996939D01*
X109763800Y-94042082D01*
X109763800Y-94650918D01*
X109759354Y-94696061D01*
X109746912Y-94737074D01*
X109726705Y-94774880D01*
X109699513Y-94808013D01*
X109666380Y-94835205D01*
X109628574Y-94855412D01*
X109587561Y-94867854D01*
X109542418Y-94872300D01*
X109008582Y-94872300D01*
X108963439Y-94867854D01*
X108922426Y-94855412D01*
X108884620Y-94835205D01*
X108851487Y-94808013D01*
X108824295Y-94774880D01*
X108804088Y-94737074D01*
X108791646Y-94696061D01*
X108787200Y-94650918D01*
X108787200Y-94042082D01*
X108791646Y-93996939D01*
X108804088Y-93955926D01*
X108824295Y-93918120D01*
X108851487Y-93884987D01*
X108884620Y-93857795D01*
X108922426Y-93837588D01*
X108963439Y-93825146D01*
X109008582Y-93820700D01*
X109542418Y-93820700D01*
X109587561Y-93825146D01*
G37*
G36*
X108012561Y-93825146D02*
G01*
X108053574Y-93837588D01*
X108091380Y-93857795D01*
X108124513Y-93884987D01*
X108151705Y-93918120D01*
X108171912Y-93955926D01*
X108184354Y-93996939D01*
X108188800Y-94042082D01*
X108188800Y-94650918D01*
X108184354Y-94696061D01*
X108171912Y-94737074D01*
X108151705Y-94774880D01*
X108124513Y-94808013D01*
X108091380Y-94835205D01*
X108053574Y-94855412D01*
X108012561Y-94867854D01*
X107967418Y-94872300D01*
X107433582Y-94872300D01*
X107388439Y-94867854D01*
X107347426Y-94855412D01*
X107309620Y-94835205D01*
X107276487Y-94808013D01*
X107249295Y-94774880D01*
X107229088Y-94737074D01*
X107216646Y-94696061D01*
X107212200Y-94650918D01*
X107212200Y-94042082D01*
X107216646Y-93996939D01*
X107229088Y-93955926D01*
X107249295Y-93918120D01*
X107276487Y-93884987D01*
X107309620Y-93857795D01*
X107347426Y-93837588D01*
X107388439Y-93825146D01*
X107433582Y-93820700D01*
X107967418Y-93820700D01*
X108012561Y-93825146D01*
G37*
G36*
X105550590Y-94790260D02*
G01*
X104349170Y-94790260D01*
X104349170Y-92788740D01*
X105550590Y-92788740D01*
X105550590Y-94790260D01*
G37*
G36*
X103152830Y-94790260D02*
G01*
X101951410Y-94790260D01*
X101951410Y-92788740D01*
X103152830Y-92788740D01*
X103152830Y-94790260D01*
G37*
G36*
X98670061Y-93649146D02*
G01*
X98711074Y-93661588D01*
X98748880Y-93681795D01*
X98782013Y-93708987D01*
X98809205Y-93742120D01*
X98829412Y-93779926D01*
X98841854Y-93820939D01*
X98846300Y-93866082D01*
X98846300Y-94474918D01*
X98841854Y-94520061D01*
X98829412Y-94561074D01*
X98809205Y-94598880D01*
X98782013Y-94632013D01*
X98748880Y-94659205D01*
X98711074Y-94679412D01*
X98670061Y-94691854D01*
X98624918Y-94696300D01*
X98091082Y-94696300D01*
X98045939Y-94691854D01*
X98004926Y-94679412D01*
X97967120Y-94659205D01*
X97933987Y-94632013D01*
X97906795Y-94598880D01*
X97886588Y-94561074D01*
X97874146Y-94520061D01*
X97869700Y-94474918D01*
X97869700Y-93866082D01*
X97874146Y-93820939D01*
X97886588Y-93779926D01*
X97906795Y-93742120D01*
X97933987Y-93708987D01*
X97967120Y-93681795D01*
X98004926Y-93661588D01*
X98045939Y-93649146D01*
X98091082Y-93644700D01*
X98624918Y-93644700D01*
X98670061Y-93649146D01*
G37*
G36*
X100245061Y-93649146D02*
G01*
X100286074Y-93661588D01*
X100323880Y-93681795D01*
X100357013Y-93708987D01*
X100384205Y-93742120D01*
X100404412Y-93779926D01*
X100416854Y-93820939D01*
X100421300Y-93866082D01*
X100421300Y-94474918D01*
X100416854Y-94520061D01*
X100404412Y-94561074D01*
X100384205Y-94598880D01*
X100357013Y-94632013D01*
X100323880Y-94659205D01*
X100286074Y-94679412D01*
X100245061Y-94691854D01*
X100199918Y-94696300D01*
X99666082Y-94696300D01*
X99620939Y-94691854D01*
X99579926Y-94679412D01*
X99542120Y-94659205D01*
X99508987Y-94632013D01*
X99481795Y-94598880D01*
X99461588Y-94561074D01*
X99449146Y-94520061D01*
X99444700Y-94474918D01*
X99444700Y-93866082D01*
X99449146Y-93820939D01*
X99461588Y-93779926D01*
X99481795Y-93742120D01*
X99508987Y-93708987D01*
X99542120Y-93681795D01*
X99579926Y-93661588D01*
X99620939Y-93649146D01*
X99666082Y-93644700D01*
X100199918Y-93644700D01*
X100245061Y-93649146D01*
G37*
G36*
X114950800Y-94500800D02*
G01*
X111849200Y-94500800D01*
X111849200Y-92899200D01*
X114950800Y-92899200D01*
X114950800Y-94500800D01*
G37*
G36*
X87450800Y-94500800D02*
G01*
X84349200Y-94500800D01*
X84349200Y-92899200D01*
X87450800Y-92899200D01*
X87450800Y-94500800D01*
G37*
G36*
X92260061Y-92315646D02*
G01*
X92301074Y-92328088D01*
X92338880Y-92348295D01*
X92372013Y-92375487D01*
X92399205Y-92408620D01*
X92419412Y-92446426D01*
X92431854Y-92487439D01*
X92436300Y-92532582D01*
X92436300Y-93141418D01*
X92431854Y-93186561D01*
X92419412Y-93227574D01*
X92399205Y-93265380D01*
X92372013Y-93298513D01*
X92338880Y-93325705D01*
X92301074Y-93345912D01*
X92260061Y-93358354D01*
X92214918Y-93362800D01*
X91681082Y-93362800D01*
X91635939Y-93358354D01*
X91594926Y-93345912D01*
X91557120Y-93325705D01*
X91523987Y-93298513D01*
X91496795Y-93265380D01*
X91476588Y-93227574D01*
X91464146Y-93186561D01*
X91459700Y-93141418D01*
X91459700Y-92532582D01*
X91464146Y-92487439D01*
X91476588Y-92446426D01*
X91496795Y-92408620D01*
X91523987Y-92375487D01*
X91557120Y-92348295D01*
X91594926Y-92328088D01*
X91635939Y-92315646D01*
X91681082Y-92311200D01*
X92214918Y-92311200D01*
X92260061Y-92315646D01*
G37*
G36*
X90685061Y-92315646D02*
G01*
X90726074Y-92328088D01*
X90763880Y-92348295D01*
X90797013Y-92375487D01*
X90824205Y-92408620D01*
X90844412Y-92446426D01*
X90856854Y-92487439D01*
X90861300Y-92532582D01*
X90861300Y-93141418D01*
X90856854Y-93186561D01*
X90844412Y-93227574D01*
X90824205Y-93265380D01*
X90797013Y-93298513D01*
X90763880Y-93325705D01*
X90726074Y-93345912D01*
X90685061Y-93358354D01*
X90639918Y-93362800D01*
X90106082Y-93362800D01*
X90060939Y-93358354D01*
X90019926Y-93345912D01*
X89982120Y-93325705D01*
X89948987Y-93298513D01*
X89921795Y-93265380D01*
X89901588Y-93227574D01*
X89889146Y-93186561D01*
X89884700Y-93141418D01*
X89884700Y-92532582D01*
X89889146Y-92487439D01*
X89901588Y-92446426D01*
X89921795Y-92408620D01*
X89948987Y-92375487D01*
X89982120Y-92348295D01*
X90019926Y-92328088D01*
X90060939Y-92315646D01*
X90106082Y-92311200D01*
X90639918Y-92311200D01*
X90685061Y-92315646D01*
G37*
G36*
X109587561Y-92174146D02*
G01*
X109628574Y-92186588D01*
X109666380Y-92206795D01*
X109699513Y-92233987D01*
X109726705Y-92267120D01*
X109746912Y-92304926D01*
X109759354Y-92345939D01*
X109763800Y-92391082D01*
X109763800Y-92999918D01*
X109759354Y-93045061D01*
X109746912Y-93086074D01*
X109726705Y-93123880D01*
X109699513Y-93157013D01*
X109666380Y-93184205D01*
X109628574Y-93204412D01*
X109587561Y-93216854D01*
X109542418Y-93221300D01*
X109008582Y-93221300D01*
X108963439Y-93216854D01*
X108922426Y-93204412D01*
X108884620Y-93184205D01*
X108851487Y-93157013D01*
X108824295Y-93123880D01*
X108804088Y-93086074D01*
X108791646Y-93045061D01*
X108787200Y-92999918D01*
X108787200Y-92391082D01*
X108791646Y-92345939D01*
X108804088Y-92304926D01*
X108824295Y-92267120D01*
X108851487Y-92233987D01*
X108884620Y-92206795D01*
X108922426Y-92186588D01*
X108963439Y-92174146D01*
X109008582Y-92169700D01*
X109542418Y-92169700D01*
X109587561Y-92174146D01*
G37*
G36*
X108012561Y-92174146D02*
G01*
X108053574Y-92186588D01*
X108091380Y-92206795D01*
X108124513Y-92233987D01*
X108151705Y-92267120D01*
X108171912Y-92304926D01*
X108184354Y-92345939D01*
X108188800Y-92391082D01*
X108188800Y-92999918D01*
X108184354Y-93045061D01*
X108171912Y-93086074D01*
X108151705Y-93123880D01*
X108124513Y-93157013D01*
X108091380Y-93184205D01*
X108053574Y-93204412D01*
X108012561Y-93216854D01*
X107967418Y-93221300D01*
X107433582Y-93221300D01*
X107388439Y-93216854D01*
X107347426Y-93204412D01*
X107309620Y-93184205D01*
X107276487Y-93157013D01*
X107249295Y-93123880D01*
X107229088Y-93086074D01*
X107216646Y-93045061D01*
X107212200Y-92999918D01*
X107212200Y-92391082D01*
X107216646Y-92345939D01*
X107229088Y-92304926D01*
X107249295Y-92267120D01*
X107276487Y-92233987D01*
X107309620Y-92206795D01*
X107347426Y-92186588D01*
X107388439Y-92174146D01*
X107433582Y-92169700D01*
X107967418Y-92169700D01*
X108012561Y-92174146D01*
G37*
G36*
X87450800Y-92500800D02*
G01*
X84349200Y-92500800D01*
X84349200Y-90899200D01*
X87450800Y-90899200D01*
X87450800Y-92500800D01*
G37*
G36*
X114950800Y-92500800D02*
G01*
X111849200Y-92500800D01*
X111849200Y-90899200D01*
X114950800Y-90899200D01*
X114950800Y-92500800D01*
G37*
G36*
X101616561Y-90982146D02*
G01*
X101657574Y-90994588D01*
X101695380Y-91014795D01*
X101728513Y-91041987D01*
X101755705Y-91075120D01*
X101775912Y-91112926D01*
X101788354Y-91153939D01*
X101792800Y-91199082D01*
X101792800Y-91807918D01*
X101788354Y-91853061D01*
X101775912Y-91894074D01*
X101755705Y-91931880D01*
X101728513Y-91965013D01*
X101695380Y-91992205D01*
X101657574Y-92012412D01*
X101616561Y-92024854D01*
X101571418Y-92029300D01*
X101037582Y-92029300D01*
X100992439Y-92024854D01*
X100951426Y-92012412D01*
X100913620Y-91992205D01*
X100880487Y-91965013D01*
X100853295Y-91931880D01*
X100833088Y-91894074D01*
X100820646Y-91853061D01*
X100816200Y-91807918D01*
X100816200Y-91199082D01*
X100820646Y-91153939D01*
X100833088Y-91112926D01*
X100853295Y-91075120D01*
X100880487Y-91041987D01*
X100913620Y-91014795D01*
X100951426Y-90994588D01*
X100992439Y-90982146D01*
X101037582Y-90977700D01*
X101571418Y-90977700D01*
X101616561Y-90982146D01*
G37*
G36*
X103191561Y-90982146D02*
G01*
X103232574Y-90994588D01*
X103270380Y-91014795D01*
X103303513Y-91041987D01*
X103330705Y-91075120D01*
X103350912Y-91112926D01*
X103363354Y-91153939D01*
X103367800Y-91199082D01*
X103367800Y-91807918D01*
X103363354Y-91853061D01*
X103350912Y-91894074D01*
X103330705Y-91931880D01*
X103303513Y-91965013D01*
X103270380Y-91992205D01*
X103232574Y-92012412D01*
X103191561Y-92024854D01*
X103146418Y-92029300D01*
X102612582Y-92029300D01*
X102567439Y-92024854D01*
X102526426Y-92012412D01*
X102488620Y-91992205D01*
X102455487Y-91965013D01*
X102428295Y-91931880D01*
X102408088Y-91894074D01*
X102395646Y-91853061D01*
X102391200Y-91807918D01*
X102391200Y-91199082D01*
X102395646Y-91153939D01*
X102408088Y-91112926D01*
X102428295Y-91075120D01*
X102455487Y-91041987D01*
X102488620Y-91014795D01*
X102526426Y-90994588D01*
X102567439Y-90982146D01*
X102612582Y-90977700D01*
X103146418Y-90977700D01*
X103191561Y-90982146D01*
G37*
G36*
X104791561Y-90982146D02*
G01*
X104832574Y-90994588D01*
X104870380Y-91014795D01*
X104903513Y-91041987D01*
X104930705Y-91075120D01*
X104950912Y-91112926D01*
X104963354Y-91153939D01*
X104967800Y-91199082D01*
X104967800Y-91807918D01*
X104963354Y-91853061D01*
X104950912Y-91894074D01*
X104930705Y-91931880D01*
X104903513Y-91965013D01*
X104870380Y-91992205D01*
X104832574Y-92012412D01*
X104791561Y-92024854D01*
X104746418Y-92029300D01*
X104212582Y-92029300D01*
X104167439Y-92024854D01*
X104126426Y-92012412D01*
X104088620Y-91992205D01*
X104055487Y-91965013D01*
X104028295Y-91931880D01*
X104008088Y-91894074D01*
X103995646Y-91853061D01*
X103991200Y-91807918D01*
X103991200Y-91199082D01*
X103995646Y-91153939D01*
X104008088Y-91112926D01*
X104028295Y-91075120D01*
X104055487Y-91041987D01*
X104088620Y-91014795D01*
X104126426Y-90994588D01*
X104167439Y-90982146D01*
X104212582Y-90977700D01*
X104746418Y-90977700D01*
X104791561Y-90982146D01*
G37*
G36*
X106366561Y-90982146D02*
G01*
X106407574Y-90994588D01*
X106445380Y-91014795D01*
X106478513Y-91041987D01*
X106505705Y-91075120D01*
X106525912Y-91112926D01*
X106538354Y-91153939D01*
X106542800Y-91199082D01*
X106542800Y-91807918D01*
X106538354Y-91853061D01*
X106525912Y-91894074D01*
X106505705Y-91931880D01*
X106478513Y-91965013D01*
X106445380Y-91992205D01*
X106407574Y-92012412D01*
X106366561Y-92024854D01*
X106321418Y-92029300D01*
X105787582Y-92029300D01*
X105742439Y-92024854D01*
X105701426Y-92012412D01*
X105663620Y-91992205D01*
X105630487Y-91965013D01*
X105603295Y-91931880D01*
X105583088Y-91894074D01*
X105570646Y-91853061D01*
X105566200Y-91807918D01*
X105566200Y-91199082D01*
X105570646Y-91153939D01*
X105583088Y-91112926D01*
X105603295Y-91075120D01*
X105630487Y-91041987D01*
X105663620Y-91014795D01*
X105701426Y-90994588D01*
X105742439Y-90982146D01*
X105787582Y-90977700D01*
X106321418Y-90977700D01*
X106366561Y-90982146D01*
G37*
G36*
X90685061Y-90537646D02*
G01*
X90726074Y-90550088D01*
X90763880Y-90570295D01*
X90797013Y-90597487D01*
X90824205Y-90630620D01*
X90844412Y-90668426D01*
X90856854Y-90709439D01*
X90861300Y-90754582D01*
X90861300Y-91363418D01*
X90856854Y-91408561D01*
X90844412Y-91449574D01*
X90824205Y-91487380D01*
X90797013Y-91520513D01*
X90763880Y-91547705D01*
X90726074Y-91567912D01*
X90685061Y-91580354D01*
X90639918Y-91584800D01*
X90106082Y-91584800D01*
X90060939Y-91580354D01*
X90019926Y-91567912D01*
X89982120Y-91547705D01*
X89948987Y-91520513D01*
X89921795Y-91487380D01*
X89901588Y-91449574D01*
X89889146Y-91408561D01*
X89884700Y-91363418D01*
X89884700Y-90754582D01*
X89889146Y-90709439D01*
X89901588Y-90668426D01*
X89921795Y-90630620D01*
X89948987Y-90597487D01*
X89982120Y-90570295D01*
X90019926Y-90550088D01*
X90060939Y-90537646D01*
X90106082Y-90533200D01*
X90639918Y-90533200D01*
X90685061Y-90537646D01*
G37*
G36*
X92260061Y-90537646D02*
G01*
X92301074Y-90550088D01*
X92338880Y-90570295D01*
X92372013Y-90597487D01*
X92399205Y-90630620D01*
X92419412Y-90668426D01*
X92431854Y-90709439D01*
X92436300Y-90754582D01*
X92436300Y-91363418D01*
X92431854Y-91408561D01*
X92419412Y-91449574D01*
X92399205Y-91487380D01*
X92372013Y-91520513D01*
X92338880Y-91547705D01*
X92301074Y-91567912D01*
X92260061Y-91580354D01*
X92214918Y-91584800D01*
X91681082Y-91584800D01*
X91635939Y-91580354D01*
X91594926Y-91567912D01*
X91557120Y-91547705D01*
X91523987Y-91520513D01*
X91496795Y-91487380D01*
X91476588Y-91449574D01*
X91464146Y-91408561D01*
X91459700Y-91363418D01*
X91459700Y-90754582D01*
X91464146Y-90709439D01*
X91476588Y-90668426D01*
X91496795Y-90630620D01*
X91523987Y-90597487D01*
X91557120Y-90570295D01*
X91594926Y-90550088D01*
X91635939Y-90537646D01*
X91681082Y-90533200D01*
X92214918Y-90533200D01*
X92260061Y-90537646D01*
G37*
G36*
X109587561Y-90478646D02*
G01*
X109628574Y-90491088D01*
X109666380Y-90511295D01*
X109699513Y-90538487D01*
X109726705Y-90571620D01*
X109746912Y-90609426D01*
X109759354Y-90650439D01*
X109763800Y-90695582D01*
X109763800Y-91304418D01*
X109759354Y-91349561D01*
X109746912Y-91390574D01*
X109726705Y-91428380D01*
X109699513Y-91461513D01*
X109666380Y-91488705D01*
X109628574Y-91508912D01*
X109587561Y-91521354D01*
X109542418Y-91525800D01*
X109008582Y-91525800D01*
X108963439Y-91521354D01*
X108922426Y-91508912D01*
X108884620Y-91488705D01*
X108851487Y-91461513D01*
X108824295Y-91428380D01*
X108804088Y-91390574D01*
X108791646Y-91349561D01*
X108787200Y-91304418D01*
X108787200Y-90695582D01*
X108791646Y-90650439D01*
X108804088Y-90609426D01*
X108824295Y-90571620D01*
X108851487Y-90538487D01*
X108884620Y-90511295D01*
X108922426Y-90491088D01*
X108963439Y-90478646D01*
X109008582Y-90474200D01*
X109542418Y-90474200D01*
X109587561Y-90478646D01*
G37*
G36*
X108012561Y-90478646D02*
G01*
X108053574Y-90491088D01*
X108091380Y-90511295D01*
X108124513Y-90538487D01*
X108151705Y-90571620D01*
X108171912Y-90609426D01*
X108184354Y-90650439D01*
X108188800Y-90695582D01*
X108188800Y-91304418D01*
X108184354Y-91349561D01*
X108171912Y-91390574D01*
X108151705Y-91428380D01*
X108124513Y-91461513D01*
X108091380Y-91488705D01*
X108053574Y-91508912D01*
X108012561Y-91521354D01*
X107967418Y-91525800D01*
X107433582Y-91525800D01*
X107388439Y-91521354D01*
X107347426Y-91508912D01*
X107309620Y-91488705D01*
X107276487Y-91461513D01*
X107249295Y-91428380D01*
X107229088Y-91390574D01*
X107216646Y-91349561D01*
X107212200Y-91304418D01*
X107212200Y-90695582D01*
X107216646Y-90650439D01*
X107229088Y-90609426D01*
X107249295Y-90571620D01*
X107276487Y-90538487D01*
X107309620Y-90511295D01*
X107347426Y-90491088D01*
X107388439Y-90478646D01*
X107433582Y-90474200D01*
X107967418Y-90474200D01*
X108012561Y-90478646D01*
G37*
G36*
X114950800Y-90500800D02*
G01*
X111849200Y-90500800D01*
X111849200Y-88899200D01*
X114950800Y-88899200D01*
X114950800Y-90500800D01*
G37*
G36*
X87450800Y-90500800D02*
G01*
X84349200Y-90500800D01*
X84349200Y-88899200D01*
X87450800Y-88899200D01*
X87450800Y-90500800D01*
G37*
G36*
X105450800Y-88750800D02*
G01*
X103849200Y-88750800D01*
X103849200Y-85649200D01*
X105450800Y-85649200D01*
X105450800Y-88750800D01*
G37*
G36*
X103450800Y-88750800D02*
G01*
X101849200Y-88750800D01*
X101849200Y-85649200D01*
X103450800Y-85649200D01*
X103450800Y-88750800D01*
G37*
G36*
X101450800Y-88750800D02*
G01*
X99849200Y-88750800D01*
X99849200Y-85649200D01*
X101450800Y-85649200D01*
X101450800Y-88750800D01*
G37*
G36*
X99450800Y-88750800D02*
G01*
X97849200Y-88750800D01*
X97849200Y-85649200D01*
X99450800Y-85649200D01*
X99450800Y-88750800D01*
G37*
G36*
X97450800Y-88750800D02*
G01*
X95849200Y-88750800D01*
X95849200Y-85649200D01*
X97450800Y-85649200D01*
X97450800Y-88750800D01*
G37*
G36*
X95450800Y-88750800D02*
G01*
X93849200Y-88750800D01*
X93849200Y-85649200D01*
X95450800Y-85649200D01*
X95450800Y-88750800D01*
G37*
G36*
X111450800Y-88750800D02*
G01*
X109849200Y-88750800D01*
X109849200Y-85649200D01*
X111450800Y-85649200D01*
X111450800Y-88750800D01*
G37*
G36*
X109450800Y-88750800D02*
G01*
X107849200Y-88750800D01*
X107849200Y-85649200D01*
X109450800Y-85649200D01*
X109450800Y-88750800D01*
G37*
G36*
X107450800Y-88750800D02*
G01*
X105849200Y-88750800D01*
X105849200Y-85649200D01*
X107450800Y-85649200D01*
X107450800Y-88750800D01*
G37*
G36*
X89450800Y-88750800D02*
G01*
X87849200Y-88750800D01*
X87849200Y-85649200D01*
X89450800Y-85649200D01*
X89450800Y-88750800D01*
G37*
G36*
X91450800Y-88750800D02*
G01*
X89849200Y-88750800D01*
X89849200Y-85649200D01*
X91450800Y-85649200D01*
X91450800Y-88750800D01*
G37*
G36*
X93450800Y-88750800D02*
G01*
X91849200Y-88750800D01*
X91849200Y-85649200D01*
X93450800Y-85649200D01*
X93450800Y-88750800D01*
G37*
M02*
